/* XPM */
static char *demon_0[] = {
/* columns rows colors chars-per-pixel */
"64 47 143 2",
"   c #000000",
".  c #131313",
"X  c #1B1415",
"o  c #1F1718",
"O  c #1B1B1B",
"+  c #221416",
"@  c #251518",
"#  c #2A1517",
"$  c #2C161A",
"%  c #2E1C1F",
"&  c #311517",
"*  c #34171C",
"=  c #351C1F",
"-  c #3A161B",
";  c #3C181E",
":  c #3F1820",
">  c #242424",
",  c #2B2426",
"<  c #2C2C2C",
"1  c #3E282B",
"2  c #333333",
"3  c #3B3B3B",
"4  c #41171B",
"5  c #42181F",
"6  c #4B181D",
"7  c #511B1E",
"8  c #441921",
"9  c #4C1A23",
"0  c #561B26",
"q  c #5C1B26",
"w  c #433816",
"e  c #4C3E17",
"r  c #5D2A1E",
"t  c #57351B",
"y  c #5F321D",
"u  c #46282B",
"i  c #50242C",
"p  c #621C26",
"a  c #651C28",
"s  c #6C1C25",
"d  c #6B1C28",
"f  c #731C25",
"g  c #731D29",
"h  c #791C27",
"j  c #7C1D29",
"k  c #61331C",
"l  c #673C1D",
"z  c #683E1D",
"x  c #622720",
"c  c #62272C",
"v  c #6B2725",
"b  c #6B2C31",
"n  c #752427",
"m  c #7D2627",
"M  c #79242B",
"N  c #7F2A27",
"B  c #702C31",
"V  c #7F3B22",
"C  c #4D441D",
"Z  c #5F4013",
"A  c #5F421A",
"S  c #585023",
"D  c #6C441D",
"F  c #6F4B1C",
"G  c #645119",
"H  c #744417",
"J  c #72501C",
"K  c #725C1A",
"L  c #7F5D1C",
"P  c #7E651B",
"I  c #821E27",
"U  c #841D2A",
"Y  c #8C1E27",
"T  c #891E2A",
"R  c #911F27",
"E  c #931F2B",
"W  c #9A1F2C",
"Q  c #842028",
"!  c #813325",
"~  c #893C23",
"^  c #93212C",
"/  c #9C202C",
"(  c #A4202D",
")  c #AB212D",
"_  c #B3222E",
"`  c #BC232F",
"'  c #805F1C",
"]  c #97541C",
"[  c #975F14",
"{  c #874221",
"}  c #8A4421",
"|  c #8F4820",
" . c #84641C",
".. c #896B1C",
"X. c #9D6415",
"o. c #937F2B",
"O. c #AC5F1D",
"+. c #A26A13",
"@. c #BE6E1B",
"#. c #BD721D",
"$. c #BF7D16",
"%. c #C2232F",
"&. c #C42430",
"*. c #C7751A",
"=. c #CB7B1A",
"-. c #AD9A36",
";. c #C4911C",
":. c #DD8E1B",
">. c #C19E28",
",. c #C99F20",
"<. c #CEAB2D",
"1. c #CDB63E",
"2. c #D9AA22",
"3. c #D6B432",
"4. c #DDBA34",
"5. c #F39E18",
"6. c #F0A61D",
"7. c #F6AA1D",
"8. c #FFAA17",
"9. c #FFAD19",
"0. c #FCB01B",
"q. c #FFB81F",
"w. c #E2AF21",
"e. c #FFB424",
"r. c #FCBD22",
"t. c #E2C33B",
"y. c #E8C73A",
"u. c #EDC837",
"i. c #EFD03F",
"p. c #F7C225",
"a. c #FFC122",
"s. c #FFC32C",
"d. c #FFC92D",
"f. c #F3CA34",
"g. c #FFD63C",
"h. c #FFD93F",
"j. c #EDD245",
"k. c #F5D441",
"l. c #FFDD44",
"z. c #FDE34D",
"x. c #F7E150",
"c. c #FDE652",
"v. c None",
/* pixels */
"v.v.v.v.v.v.v.v.v.v.v.v.. . . . v.v.v.v.v.v.v.v.v.v.v.v.v.v.v.v.. . . . v.v.v.v.v.v.v.v.v.v.v.v.v.v.v.v.v.v.v.v.v.v.v.v.v.v.v.v.",
"v.v.v.v.v.v.v.v.v.v.v.. . . . . v.v.v.v.v.v.v.v.v.v.v.v.v.v.v.v.. . . . . v.v.v.v.v.v.v.v.v.v.v.v.v.v.v.v.v.v.v.v.v.v.v.v.v.v.v.",
"v.v.v.v.v.v.v.v.v.v.v.. O O . . v.v.v.v.v.v.v.v.v.v.v.v.v.v.v.v.v.. O > . . v.v.v.v.v.v.v.v.v.v.v.v.v.v.v.v.v.v.v.v.v.v.v.v.v.v.",
"v.v.v.v.v.v.v.v.v.. . O < . . . v.v.v.v.v.v.v.v.v.v.v.v.v.v.v.v.v.. . > O . . v.v.v.v.v.v.v.v.v.v.v.v.v.v.v.v.v.v.v.v.v.v.v.v.v.",
"v.v.v.v.v.v.v.v.v.. . O < . . v.v.v.v.v.v.v.v.v.v.v.v.v.v.v.v.v.v.. . > , . . v.v.v.v.v.v.v.v.v.v.v.v.v.v.v.v.v.v.v.v.v.v.v.v.v.",
"v.v.v.v.v.v.v.v.. . . 3 2 . . v.v.v.v.v.v.v.v.v.v.v.v.v.v.v.v.v.v.. . > 3 O . . v.v.v.v.v.v.v.v.v.v.v.v.v.v.v.v.v.v.v.v.v.v.v.v.",
"v.v.v.v.v.v.v.v.. . . 3 < . v.v.v.v.v.v.v.v.v.v.v.v.v.v.v.v.v.v.v.v.. > 3 O . . v.v.v.v.v.v.v.v.v.v.v.v.v.v.v.v.v.v.v.v.v.v.v.v.",
"v.v.v.v.v.v.v.. . . . 3 < . . v.v.v.v.v.v.v.v.v.v.v.v.v.v.v.v.v.v.. . > 3 O . . . v.v.v.v.v.v.v.v.v.v.v.v.v.v.v.v.v.v.v.v.v.v.v.",
"v.v.v.v.v.v.v.. . . . 2 < . . v.v.v.v.v.v.v.v.v.v.v.v.v.v.v.v.v.v.. . > 3 O . . . . v.v.v.v.v.v.v.v.v.v.v.v.v.v.v.v.v.v.v.v.v.v.",
"v.v.v.v.v.v.v.. . . . 3 2 O . . v.v.v.v.v.v.v.v.v.v.v.v.v.v.v.v.v.. . 2 3 O . . . . v.v.v.v.v.v.v.v.v.v.v.v.v.v.v.v.v.v.v.v.v.v.",
"v.v.v.v.v.v.v.. . . . > 3 > . . v.v.v.v.v.v.v.v.v.v.v.v.v.v.v.v.v.. O 3 < . . . . . v.v.v.v.v.v.v.v.v.v.v.v.v.v.v.v.v.v.v.v.v.v.",
"v.v.v.v.v.v.v.. . . . O 3 3 O . v.v.v.v.v.v.v.v.v.v.v.v.v.v.v.v.. . 3 3 @ . . . X X X X X . X . . X . X . X . . . . v.v.v.v.v.v.",
"v.v.v.v.v.v.v.. . . . . > 3 > . . v.v.v.v.v.v.v.v.v.v.v.v.v.v.. . O 3 < . . 4 f ) ( ( M 0 0 0 0 0 0 0 0 q 0 0 : @ X . . . v.v.v.",
"v.v.v.v.v.v.. . . . . . O 2 3 > . . v.v.v.v.v.v.v.v.v.v.v.v.. . O 3 3 O . . f 7 - = 8 q 0 0 0 0 0 0 0 0 0 0 0 0 0 9 & * . . v.v.",
"v.v.v.v.. . p Y q . . . . < 3 3 > . . v.. . . . . . . . v.. . O 3 3 2 . . . . . . X 8 ; $ $ 0 0 0 0 0 0 0 0 0 0 0 0 0 0 8 $ .   ",
"v.v.. X 4 ( h a q $ . . . . 2 3 3 > X . $ 9 0 9 9 9 9 : X X O 3 3 3 O . . . . . . ; * 9 9 0 8 + 9 0 0 0 0 0 0 0 0 8 X O X $ 9 + ",
". . & E ^ 0 0 0 0 : . . . . < 3 3 3 3 . 8 j T j a a q 0 $ 2 3 3 3 2 . . . . . . v.X 8 X 8 q 0 0 : 8 0 0 0 0 q 9 . . v.v.v.. .   ",
"+ s I p 0 0 0 0 9 * X . . . . < 3 3 < 8 h W ( ( ( T g a 8 , 3 3 2 . . . . . . v.v.X 0 8 : 0 0 0 0 % 8 0 0 q 0 X . v.v.v.v.v.v.v.",
"X 6 7 0 0 0 q 0 & 8 8 . . . . . < 3 O p W %.&.&.&.` ( T a + 3 2 . . . . . . . v.. : 0 0 X 0 0 0 0 0 : 8 q a @ . v.v.v.v.v.v.v.v.",
". . X X 0 0 0 # 0 0 0 X . . . . O O 8 T ( &.&.&.&.&.&.) T 0 O . . . . . . . v.. X 0 q 0 @ 9 0 g j 0 0 0 h p . v.v.v.v.v.v.v.v.v.",
"v.v.v.. X 9 0 0 q a j + 5 X . . . X q ( &.&.&.&.&.&.%.( T d @ . . . + . . v.v.. T q 0 0 0 + d T T T h q 0 . v.v.v.v.v.v.v.v.v.v.",
"v.v.v.v.. + 9 d h T q ; 0 p + . . : d ( _ &.&.&.&.%.( j g d 0 * * * 9 + . . . ; ) a 0 0 0 X d T T T U h 0 # . v.v.v.v.v.v.v.v.v.",
"v.v.v.v.v.. + ; T T & 0 0 E - + 0 ] *.g E ` %.( %.( U ~ =.=.q d 0 0 0 : . X Y Q j 0 a j p X 9 T T T T 0 # + . v.v.v.v.v.v.v.v.v.",
"v.v.v.v.v.v.. . 4 j * 0 0 p ( j g *.r.=.n T _ W ( T V 5.q.8.a T a 0 a d * T a 0 0 q T T U 9 - T j + X X . . v.v.v.v.v.v.v.v.v.v.",
"v.v.v.v.v.v.v.v.. 7 a 0 0 0 ^ T g @.g.s.;.Q U U ! { 7.l.g.8.x T g 0 a g 0 0 0 a a U T T T 7 6 f + v.v.v.v.v.v.v.v.v.v.v.v.v.v.v.",
"v.v.v.v.v.v.v.v.. 5 q 0 0 0 0 T g ~ w.s.9.| U h O.9.g.z.s.#.h T T a 0 d j g j T T T T T T d 0 # . v.v.v.v.v.v.v.v.v.v.v.v.v.v.v.",
"v.v.v.v.v.v.v.v.. X @ 0 0 0 0 T U a ! } { Q T T N :.e.e.@.m T T T q 0 q j T T T T T T T T U : . v.v.v.v.v.v.v.v.v.v.v.v.v.v.v.v.",
"v.v.v.v.v.v.v.v.v.. . X $ 0 0 T T T h U h T j T Q n v v n T j j T U 0 0 g j g U T T q X X X . . v.v.v.v.v.v.v.v.v.v.v.v.v.v.v.v.",
"v.v.v.v.v.v.v.v.v.v.v.. + 9 + U T f A r y h # h h Q a p h s Z y h T 0 0 9 X . * h q . v.v.v.v.v.v.v.v.v.v.v.v.v.v.v.v.v.v.v.v.v.",
"v.v.v.v.v.v.v.v.v.v.v.v.. @ X T s H w.C o.- ' y D 6 ..G & L 0.+.0 T 0 0 $ . v.. - X v.v.v.v.v.v.v.v.v.v.v.v.v.v.v.v.v.v.v.v.v.v.",
"v.v.v.v.v.v.v.v.v.v.v.v.v.. . 5 0 +.q.<.t.e 1.S 4.w j.-.K j.a.+.q d 0 0 # . v.v.. . v.v.v.v.v.v.v.v.v.v.v.v.v.v.. . v.v.v.v.v.v.",
"v.v.v.v.v.v.v.v.v.v.v.v.v.v.v.# p [ q.p.u.f.l.i.c.f.c.c.l.c.$.7 j q 0 : . . v.v.v.v.v.v.v.v.v.v.v.v.v.v.. . . . . . . v.v.v.v.v.",
"v.v.v.v.v.v.v.v.v.v.v.v.v.v.v.+ f 0 +.;.P 2.i.z.3.y.l.t.3.<.6 T d 0 0 $ . v.v.v.v.v.v.v.v.v.v.v.v.v.v.v.. . O O . . . v.v.v.v.v.",
"v.v.v.v.v.v.v.v.v.v.v.v.v.v.v.. * U q H k k  .2.z J  .F D x Q j a 0 9 + . v.v.v.v.v.v.v.v.v.v.v.v.v.v.. . O O < . . . v.v.v.v.v.",
"v.v.v.v.v.v.v.v.v.v.v.v.v.v.v.. X 6 j f h j d t h f s f f j U q 0 0 q : . v.v.v.v.v.v.v.v.v.v.v.v.v.. . O < > O . . . v.v.v.v.v.",
"v.v.v.v.v.v.v.v.v.v.v.v.v.. . @ - q p a j j T U T T U T j a a q p a T q # . v.v.v.v.v.v.v.v.v.v.. . . > < > O . . . . v.v.v.v.v.",
"v.v.v.v.v.v.v.v.v.v.v.v.. # 6 / W ( T d q 0 g j g h g Y h h ` ^ E ` &./ : . v.v.v.v.v.v.v.v.v.v.. . > > > > O . . . v.v.v.v.v.v.",
"v.v.v.v.v.v.v.v.v.v.v.. # U %.%.&.&.) T g 0 0 0 0 0 ) &._ %.%.) ) &.` E d X v.v.v.v.v.v.v.v.v.v.. X > > > O . . . . v.v.v.v.v.v.",
"v.v.v.v.v.v.v.v.v.v.. Y U ` ( %.) E ` ( U a $ q 0 g ` _ ) %.` ^ ) &._ T U 9 . v.v.v.v.v.v.v.v.. . > > > O . . . . . v.v.v.v.v.v.",
"v.v.v.v.v.v.v.v.v.. R ) Q ( j %.) d U ) T d @ . . E &.^ ^ %.) 0 / &.j d T q X . . . v.v.v.. X + . > O . . . . . . v.v.v.v.v.v.v.",
"v.v.v.v.v.v.v.v.v.. I ) j ) a _ ) d 0 h T T 0 . . Y ` p f %._ 0 M Q g a j T 0 $ $ . . . . X : q & . . . . . . . . v.v.v.v.v.v.v.",
"v.v.v.v.v.v.v.v.v.. - b q ` s 9 c - 0 p T T 0 . . 6 b * - B p a i + g q g T U g g : : * : 8 d q 0 . . . . . . . v.v.v.v.v.v.v.v.",
"v.v.v.v.v.v.v.v.v.v.. O X u % . O . + d ( U 0 . v.. O . . X X - d g M 0 q j T T T U h j j g q 0 0 : . . . . v.v.v.v.v.v.v.v.v.v.",
"v.v.v.v.v.v.v.v.v.v.v.. . . . . . . . 8 ( U + . v.v.. . . . . & W T : X : q j U j j j U a 0 0 9 X . . . . v.v.v.v.v.v.v.v.v.v.v.",
"v.v.v.v.v.v.v.v.v.v.v.v.v.v.. . v.. > 1 a 5 X v.v.v.v.v.v.v.. : ^ j . v.. * 8 0 0 0 0 0 0 : $ . . v.v.v.v.v.v.v.v.v.v.v.v.v.v.v.",
"v.v.v.v.v.v.v.v.v.v.v.v.v.v.v.v.v.. O X + . . v.v.v.v.v.v.v.O , i : . v.v.. X $ $ $ $ * $ . . v.v.v.v.v.v.v.v.v.v.v.v.v.v.v.v.v.",
"v.v.v.v.v.v.v.v.v.v.v.v.v.v.v.v.v.v.. . . v.v.v.v.v.v.v.v.v.. O X . v.v.v.v.. . . . . . . . v.v.v.v.v.v.v.v.v.v.v.v.v.v.v.v.v.v."
};
