/* XPM */
static char *demon_2[] = {
/* columns rows colors chars-per-pixel */
"64 56 143 2",
"   c #000000",
".  c #131313",
"X  c #1C1415",
"o  c #1B1B1B",
"O  c #241416",
"+  c #251518",
"@  c #201C13",
"#  c #221E1E",
"$  c #291517",
"%  c #2C161A",
"&  c #34161B",
"*  c #3B161B",
"=  c #3B181F",
"-  c #3F1820",
";  c #2E2815",
":  c #393015",
">  c #242424",
",  c #292324",
"<  c #2C2C2C",
"1  c #352E2E",
"2  c #333333",
"3  c #3C3C3C",
"4  c #44171C",
"5  c #4B181D",
"6  c #52191E",
"7  c #451921",
"8  c #4C1A23",
"9  c #561B26",
"0  c #5B1B25",
"q  c #442E14",
"w  c #4B251B",
"e  c #423716",
"r  c #4A3219",
"t  c #522D1C",
"y  c #5C2A1E",
"u  c #533714",
"i  c #4C2025",
"p  c #452C30",
"a  c #4D3236",
"s  c #631B24",
"d  c #651C28",
"f  c #6C1B25",
"g  c #6C1C28",
"h  c #731C25",
"j  c #741D29",
"k  c #7A1C26",
"l  c #7C1D29",
"z  c #62341E",
"x  c #613D15",
"c  c #642222",
"v  c #65232A",
"b  c #682326",
"n  c #772028",
"m  c #7B262C",
"M  c #782A30",
"N  c #743223",
"B  c #7E3524",
"V  c #4A411D",
"C  c #554618",
"Z  c #6D4315",
"A  c #6C441D",
"S  c #6D551A",
"D  c #714C13",
"F  c #7B4E14",
"G  c #73541B",
"H  c #745E1C",
"J  c #7D5C19",
"K  c #665922",
"L  c #7A631C",
"P  c #841D2A",
"I  c #8D1E27",
"U  c #891E2B",
"Y  c #931F2B",
"T  c #9A1F2C",
"R  c #802B31",
"E  c #8D2D34",
"W  c #843923",
"Q  c #91202B",
"!  c #9D202B",
"~  c #A3202D",
"^  c #AC212D",
"/  c #B3222E",
"(  c #BA232F",
")  c #825814",
"_  c #9C531F",
"`  c #944821",
"'  c #984A21",
"]  c #81671B",
"[  c #8F7521",
"{  c #8F7C2A",
"}  c #977A20",
"|  c #B6661C",
" . c #B5681C",
".. c #C1232F",
"X. c #C42430",
"o. c #C7741A",
"O. c #D27E19",
"+. c #BC941F",
"@. c #A38624",
"#. c #B79627",
"$. c #B6982B",
"%. c #B99F32",
"&. c #D68118",
"*. c #DD8717",
"=. c #CCA72A",
"-. c #C1A531",
";. c #D2B031",
":. c #D2B83C",
">. c #E18A17",
",. c #E39113",
"<. c #E7981A",
"1. c #EA9116",
"2. c #ED9C19",
"3. c #FB9E14",
"4. c #EBA41C",
"5. c #F1A318",
"6. c #F5A819",
"7. c #FFA415",
"8. c #FFAA17",
"9. c #FFAA18",
"0. c #FFBB1F",
"q. c #E0B022",
"w. c #FEBC22",
"e. c #C1B345",
"r. c #E4C137",
"t. c #EECC3C",
"y. c #F6C124",
"u. c #FFC423",
"i. c #FFC826",
"p. c #FFCA2C",
"a. c #FFCE33",
"s. c #FFD132",
"d. c #FFD63A",
"f. c #FFD93E",
"g. c #E3C740",
"h. c #E3CB46",
"j. c #FFDD44",
"k. c #FFDD4A",
"l. c #F2DC50",
"z. c #FFE44D",
"x. c #FFE752",
"c. c #FFEB57",
"v. c None",
/* pixels */
"v.v.v.v.v.v.v.v.. . . . . v.v.v.v.v.v.v.v.v.v.v.v.v.v.v.v.v.v.v.. . . . v.v.v.v.v.v.v.v.v.v.v.v.v.v.v.v.v.v.v.v.v.v.v.v.v.v.v.v.",
"v.v.v.v.v.v.v.. . . . . . v.v.v.v.v.v.v.v.v.v.v.v.v.v.v.v.v.v.v.. . . . . v.v.v.v.v.v.v.v.v.v.v.v.v.v.v.v.v.v.v.v.v.v.v.v.v.v.v.",
"v.v.v.v.v.v.. . X . . . v.v.v.v.v.v.v.v.v.v.v.v.v.v.v.v.v.v.v.v.. . . o . . v.v.v.v.v.v.v.v.v.v.v.v.v.v.v.v.v.v.v.v.v.v.v.v.v.v.",
"v.v.v.v.v.. . o > > . . v.v.v.v.v.v.v.v.v.v.v.v.v.v.v.v.v.v.v.v.. . o < o . . v.v.v.v.v.v.v.v.v.v.v.v.v.v.v.v.v.v.v.v.v.v.v.v.v.",
"v.v.v.v.. . . > > . . v.v.v.v.v.v.v.v.v.v.v.v.v.v.v.v.v.v.v.v.v.v.. . o < . . . v.v.v.v.v.v.v.v.v.v.v.v.v.v.v.v.v.v.v.v.v.v.v.v.",
"v.v.v.v.. . o < > . . v.v.v.v.v.v.v.v.v.v.v.v.v.v.v.v.v.v.v.v.v.v.. . o 2 > . . v.v.v.v.v.v.v.v.v.v.v.v.v.v.v.v.v.v.v.v.v.v.v.v.",
"v.v.v.. . . > 3 < . . v.v.v.v.v.v.v.v.v.v.v.v.v.v.v.v.v.v.v.v.v.v.. . o 3 < . . . v.v.v.v.v.v.v.v.v.v.v.v.v.v.v.v.v.v.v.v.v.v.v.",
"v.v.v.. . . > 3 > . v.v.v.v.v.v.v.v.v.v.v.v.v.v.v.v.v.v.v.v.v.v.v.v.X o 3 < . . . v.v.v.v.v.v.v.v.v.v.v.v.v.v.v.v.v.v.v.v.v.v.v.",
"v.v.. . . . > 3 > X v.v.v.v.v.v.v.v.v.v.v.v.v.v.v.v.v.v.v.v.v.v.v.v.. o 3 2 . . . . v.v.v.v.v.v.v.v.v.v.v.v.v.v.v.v.v.v.v.v.v.v.",
"v.v.. . . . > 3 > . . v.v.v.v.v.v.v.v.v.v.v.v.v.v.v.v.v.v.v.v.v.v.. X o 3 < . . . . v.v.v.v.v.v.v.v.v.v.v.v.v.v.v.v.v.v.v.v.v.v.",
"v.. . . . . > 3 > . . v.v.v.v.v.v.v.v.v.v.v.v.v.v.v.v.v.v.v.v.v.v.. . o 3 < . . . . . v.v.v.v.v.v.v.v.v.v.v.v.v.v.v.v.v.v.v.v.v.",
"v.. . . . . > 3 3 > . . v.v.v.v.v.v.v.v.v.v.v.v.v.v.v.v.v.v.v.v.. . o 2 3 < . . . . . v.v.v.v.v.v.v.v.v.v.v.v.v.v.v.v.v.v.v.v.v.",
"v.. . . . . X < 3 > . . v.v.v.v.v.v.v.v.v.v.v.v.v.v.v.v.v.v.v.v.. . o 3 < o . . . . . v.v.v.v.v.v.v.v.v.v.v.v.v.v.v.v.v.v.v.v.v.",
"v.. . . . . . > 3 3 > . . v.v.v.v.v.v.v.v.v.v.v.v.v.v.v.v.v.v.v.. o 3 3 < . . . . . . v.v.v.v.v.v.v.v.v.v.v.v.v.v.v.v.v.v.v.v.v.",
"v.. . . . . . . > 3 > . . . v.v.v.v.v.v.v.v.v.v.v.v.v.v.v.v.v.. . o 3 2 . . . . . . . v.v.v.v.v.v.v.v.v.v.v.v.v.v.v.v.v.v.v.v.v.",
"v.v.. . . . . . > 3 3 > . . . v.v.v.v.v.v.v.v.v.v.v.v.v.v.v.. . o 3 3 < . . . . . . v.v.v.v.v.v.v.v.v.v.v.v.v.v.v.v.v.v.v.v.v.v.",
"v.v.. . . . . . . < 3 3 > . . . v.. . . . . . . . . . v.. . . o 3 3 2 . . . . . . . v.v.v.v.v.v.v.v.v.v.v.v.v.v.v.v.v.v.v.v.v.v.",
"v.v.. . . . . . . > 3 3 3 > . . . . + + + + + + + + X . . . o 3 3 3 < . . . . . . . v.v.v.v.v.v.v.v.v.v.v.v.v.v.v.v.v.v.v.v.v.v.",
"v.v.v.. . . . . . . < 3 3 3 > > . X 9 d d d 9 9 9 9 - X o > 3 3 3 2 . . . . . . . v.v.v.v.v.v.v.v.v.v.v.v.v.v.v.v.v.v.v.v.v.v.v.",
"v.v.v.. . . . . . . > 2 3 3 3 3 X & g U U l g g 0 9 9 + 2 3 3 3 3 < . . . . . . . v.v.. . . . v.v.v.v.v.v.v.v.v.v.v.v.v.v.v.v.v.",
"v.v.v.v.. . . . . . . # 2 3 3 < & j U ~ ~ ~ ~ T l g 0 - , 3 3 3 < . . . . . . . v.v.. 5 s 5 X . v.v.v.v.v.v.v.v.v.v.v.v.v.v.v.v.",
"v.v.v.v.. . . . . . . . > 3 3 . 0 U / X.X.X.X./ ^ Y l 0 O 3 3 > . . . . . . . . v.v.. I ..Y 6 X v.v.v.v.v.v.v.v.v.v.v.v.v.v.v.v.",
"v.v.. . . . . . . . . . . > > = j Q X.X.X.X.X.X.X.( Y l 7 , > . . . . . . . . v.v.v.. 4 ^ / Y 0 . v.v.v.v.v.v.v.v.v.v.v.v.v.v.v.",
"v.. $ k 4 . . . . . . . . . . 9 U / X.X.X.X.X.X.X.X.T P d X . . . . . . . . v.v.v.v.v.. T X.I U 0 . v.v.v.v.v.v.v.v.v.v.v.v.v.v.",
". O T / l 8 . . . . . . . . = j / X.X.X.X.X.X.X.X.^ U U P 8 7 . . . X = . v.v.v.v.v.v.. & ^ / U P . v.v.v.v.v.v.v.v.v.v.v.v.v.v.",
". $ ( Y U P f 4 . . . . . . 8 s Y T X.X.X.X.X.X.^ U g d 0 9 9 8 8 4 8 7 . . . . . . . . 0 / X.U U s . v.v.v.v.v.v.v.v.v.v.v.v.v.",
". $ ( U l g U P k k & . 0 9 &.1.0 U T X./ ~ ..^ I g | 1.1.N l 9 9 9 9 9 d ^ ^ ^ ^ ^ ^ ^ Y ( ..I U k . v.v.v.v.v.v.v.v.v.v.v.v.v.",
"X ( ( k 9 9 0 0 9 0 9 j U d 1.u.1.d U T / ! ^ U g | 3.w.8.N U P 9 9 d ( ..X.^ I Y U U U U s ( ..U P f . v.v.v.v.v.v.v.v.v.v.v.v.",
"X ..( l 0 0 9 9 9 9 9 l U 0 1.x.p.1.b P U U n v | w.j.a.8.N P P 0 9 g / U j 9 0 9 9 9 9 9 9 ( X.U U U f X . v.v.v.v.v.v.v.v.v.v.",
"X ^ ( k 9 9 9 9 8 9 9 l U d &.w.z.w.*.d U j _ 7.w.j.x.a.2.N P U P 9 9 0 j 9 9 9 9 9 9 0 9 9 ^ X.U U U U s . v.v.v.v.v.v.v.v.v.v.",
". $ ( k 0 8 9 & . & 7 k U d 9 O.*.*.o.g U l ` 4.a.k.a.<.B P P U U 9 9 9 9 9 8 9 9 8 9 9 9 9 9 ( U U U U f O . v.v.v.v.v.v.v.v.v.",
". $ ( Y s + 7 % . . . s U U d d d d g U U U j ' O.O.O.W P U U U U 0 9 9 9 7 + 8 & % 9 9 9 9 9 ( U U P U P f $ . v.v.v.v.v.v.v.v.",
". O ../ f . . . v.v.. s U I U s P f I k g U P l d d g l I d s I U P 9 9 9 7 . + + . & 9 9 9 7 ( P U U U U U 9 . v.v.v.v.v.v.v.v.",
". O I / s . v.v.v.v.. f U I 6 G 6 S d g & k g U h 6 0 n s Z D 6 U P 9 9 8 % . . . v.. % 8 9 X ( U U U P U P 6 . v.v.v.v.v.v.v.v.",
"v.. & ( U & . v.v.v.. s U 0 F y.; :.O y G z A 6 A ] : = G 4.7.@ U P 9 9 7 . v.v.v.v.v.. % = . ( U I U l 6 6 * . v.v.v.v.v.v.v.v.",
"v.. O k ^ s . v.v.v.. & l $ ,.u.} l.L e %.K ;.C { f.S S r.p.8.@ U d 9 9 7 . v.v.v.v.v.v.. . . ( U l 5 * . . . v.v.v.v.v.v.v.v.v.",
"v.v.. $ h I * . v.v.v.. f $ >.u.i.d.t.#.h.-.z.;.:.c.e.g.x.w.F 6 U 9 9 8 + . v.v.v.v.v.v.v.v.. ( P = . . v.v.v.v.v.v.v.v.v.v.v.v.",
"v.v.v.. O s 6 . v.v.v.. f s x 6.y.L s.s.x.z.z.d.z.c.j.z.j.J s P d 9 9 7 . v.v.v.v.v.v.v.v.. k T & . v.v.v.v.v.v.v.v.v.v.v.v.v.v.",
"v.v.v.v.. X $ . v.v.v.. $ k f u 5.; q.L s.s.#.@.s.a.[ =.L c U U 9 9 8 o . v.v.v.v.v.v.v.v.. / U . v.v.v.v.v.v.v.v.v.v.v.v.v.v.v.",
"v.v.v.v.v.. . v.v.v.v.v.. 9 U g e f r c J +.t y e e y t c P U d 9 9 9 - . v.v.v.v.v.v.v.v.. / & . v.v.v.v.v.v.v.v.v.v.v.v.v.v.v.",
"v.v.v.v.v.v.v.v.v.v.v.v.. X 9 U k U l P s w k P l j l l U U d 9 9 9 9 8 . v.v.v.v.v.v.v.v.. + . v.v.v.v.v.v.v.v.v.v.v.v.v.v..   ",
"v.v.v.v.v.v.v.v.v.v.v.. . 7 9 9 0 U P P U P U U U U I U d 9 9 9 9 0 l 9 - . v.v.v.v.v.v.v.v.. . v.v.v.v.v.v.v.v.v.v.v.v.v.. . . ",
"v.v.v.v.v.v.v.v.. . X f I U U U 0 0 9 d P P P P P I g 0 0 / Y U Q X.X.^ 7 . . v.v.v.v.v.v.v.v.v.v.v.v.v.v.v.v.v.v.v.. . . . . . ",
"v.v.v.v.v.v.. . X s / X.X.X.X.T U P 9 9 9 9 9 0 j / X.! ( X.X.U X.X.X./ l - . v.v.v.v.v.v.v.v.v.v.v.v.v.v.v.v.v.. . . . . > X . ",
"v.v.v.v.v.. O % s ^ ( X.X.( ( X.Q P 0 9 8 9 9 0 ! ..( ..X.X.( U X.X.( P l 8 X . v.v.v.v.v.v.v.v.v.v.v.v.v.v.. . . . . o > > . X ",
"v.v.v.v.. O h ~ ~ ( T / X.Y l / ..U l 8 + 7 7 g / ..Q / X.X.l l X.X.^ P U j - . v.v.v.v.v.v.v.v.v.v.v.v.v.. . . . . > > > > . . ",
"v.v.v.v.. 6 ..Y Q ! l ^ X.Y 0 j / U l 0 O . . s ..( d ~ X.X.d 9 X.( l 0 l l 8 + . v.v.v.v.v.v.v.v.v.v.v.. . . o > > > < > . . . ",
"v.v.v.v.. 5 / Q Q / j Q ( Y 0 9 j U U l 4 . . s ..~ * I X.X.d 9 E k j d d U l 8 X . . v.v.v.v.v.v.v.v.. . . > > < > > > o . . . ",
"v.v.v.v.. $ v v h / l 9 M 0 = 9 0 U U l 7 . . * m b + 6 M h g 9 p X j g 0 l U l 8 & X . . . v.v.v.v.. . . > > > > # > > o . .   ",
"v.v.v.v.v.. o o & v i X # . . % 0 ~ U l 7 . v.. o o . X > o 4 9 g 0 l 9 9 0 j U l j 7 & - X . . . . . . o > o o . o > o . . .   ",
"v.v.v.v.v.v.. . . o o . . . . . = ( U f + . v.v.. . . . . . . 9 ^ P 9 % - 9 d l U U l j g 7 - - - - & . o o . . . o o . . . .   ",
"v.v.v.v.v.v.v.. . . . . . . . . 1 T l 9 . v.v.v.v.. . v.v.. . n X.l + . o - 9 0 d l U U U l l j j n 8 - . . . . . . . . . . . v.",
"v.v.v.v.v.v.v.v.v.v.. . v.v.. < # d % O . v.v.v.v.v.v.v.v.v.. a Y 0 . v.. X - 9 0 0 d d d 0 d d d 0 9 7 . . . . . . . . . . v.v.",
"v.v.v.v.v.v.v.v.v.v.v.v.v.v.X o . X . . v.v.v.v.v.v.v.v.v.. < o 0 O . v.v.. . X - 9 9 9 9 9 9 9 9 9 9 9 - . . . . . . . . v.v.v.",
"v.v.v.v.v.v.v.v.v.v.v.v.v.v.v.. . . v.v.v.v.v.v.v.v.v.v.v.. X . X . v.v.v.v.. . X X X 7 9 9 9 9 9 X X X . . . . . . . . v.v.v.v.",
"v.v.v.v.v.v.v.v.v.v.v.v.v.v.v.v.v.v.v.v.v.v.v.v.v.v.v.v.v.v.. . . v.v.v.v.v.v.v.. . . . X . X X . . . . . . . . . . v.v.v.v.v.v."
};
