/* XPM */
static char *demon_3[] = {
/* columns rows colors chars-per-pixel */
"64 56 146 2",
"   c black",
".  c #131313",
"X  c #1B1314",
"o  c #1D1C15",
"O  c #1B1B1B",
"+  c #231416",
"@  c #251518",
"#  c #241D1E",
"$  c #291517",
"%  c #2C1619",
"&  c #291B16",
"*  c #2C1B1F",
"=  c #34161B",
"-  c #3B171C",
";  c #3C181F",
":  c #3F1820",
">  c #292414",
",  c #362417",
"<  c #392617",
"1  c #36321C",
"2  c #39361D",
"3  c #242323",
"4  c #2A2224",
"5  c #2A2A2A",
"6  c #323232",
"7  c #3C3C3C",
"8  c #44171C",
"9  c #45181D",
"0  c #4B181E",
"q  c #52181F",
"w  c #5C1A1F",
"e  c #431921",
"r  c #4B1A23",
"t  c #561B26",
"y  c #5B1B25",
"u  c #442D16",
"i  c #412B18",
"p  c #403516",
"a  c #4B3E17",
"s  c #513819",
"d  c #472529",
"f  c #4D2025",
"g  c #4C2428",
"h  c #52222B",
"j  c #55292D",
"k  c #5B2226",
"l  c #58272C",
"z  c #611A1F",
"x  c #621C26",
"c  c #651C28",
"v  c #6C1B25",
"b  c #6C1C28",
"n  c #741C25",
"m  c #741D29",
"M  c #791C26",
"N  c #7C1D29",
"B  c #632625",
"V  c #65262C",
"C  c #62292D",
"Z  c #682A25",
"A  c #632E32",
"S  c #6E2B32",
"D  c #722327",
"F  c #782727",
"G  c #7B2128",
"H  c #7C2926",
"J  c #7D3A22",
"K  c #544518",
"L  c #5B4219",
"P  c #634A1A",
"I  c #6B4215",
"U  c #79401D",
"Y  c #861E25",
"T  c #841D2A",
"R  c #8C1E26",
"E  c #891E2B",
"W  c #921F27",
"Q  c #931F2B",
"!  c #9A1F2C",
"~  c #82232D",
"^  c #8F202B",
"/  c #813524",
"(  c #833C22",
")  c #893B23",
"_  c #95202C",
"`  c #9D202C",
"'  c #A4202D",
"]  c #AB212D",
"[  c #B3222E",
"{  c #BC232F",
"}  c #825115",
"|  c #8E5D13",
" . c #9D541F",
".. c #844021",
"X. c #8D4720",
"o. c #976214",
"O. c #9C791E",
"+. c #A36814",
"@. c #AD6F13",
"#. c #A57F1E",
"$. c #B7691C",
"%. c #BD6D1B",
"&. c #B17114",
"*. c #BE721D",
"=. c #C1232F",
"-. c #C42430",
";. c #C5751B",
":. c #AE891F",
">. c #B48C1F",
",. c #D78913",
"<. c #DB8E1B",
"1. c #C29820",
"2. c #CB9F21",
"3. c #D3A621",
"4. c #D7A922",
"5. c #DDAE22",
"6. c #E1941B",
"7. c #FFA515",
"8. c #FFAE19",
"9. c #FFB31D",
"0. c #FDBA1F",
"q. c #E3B222",
"w. c #EDB923",
"e. c #EDBE29",
"r. c #F4BB22",
"t. c #FFB625",
"y. c #FFBE23",
"u. c #FFB929",
"i. c #C3B243",
"p. c #D1BD45",
"a. c #F1C22B",
"s. c #FCC624",
"d. c #FDC72B",
"f. c #FCCA2C",
"g. c #F0C631",
"h. c #F4CB34",
"j. c #FFC932",
"k. c #FBCC3C",
"l. c #FFDA3F",
"z. c #F0DB4F",
"x. c #F8D742",
"c. c #FDDD45",
"v. c #FEE34C",
"b. c #FDE652",
"n. c #FEE954",
"m. c None",
/* pixels */
"m.m.m.m.m.m.m.m.. . . . . m.m.m.m.m.m.m.m.m.m.m.m.m.m.m.m.m.m.m.. . . . . m.m.m.m.m.m.m.m.m.m.m.m.m.m.m.m.m.m.m.m.m.m.m.m.m.m.m.",
"m.m.m.m.m.m.m.. . . . . . m.m.m.m.m.m.m.m.m.m.m.m.m.m.m.m.m.m.m.. . . . . . m.m.m.m.m.m.m.m.m.m.m.m.m.m.m.m.m.m.m.m.m.m.m.m.m.m.",
"m.m.m.m.m.m.. . X O . . m.m.m.m.m.m.m.m.m.m.m.m.m.m.m.m.m.m.m.m.m.. . . . . . m.m.m.m.m.m.m.m.m.m.m.m.m.m.m.m.m.m.m.m.m.m.m.m.m.",
"m.m.m.m.m.. . . 3 3 . . m.m.m.m.m.m.m.m.m.m.m.m.m.m.m.m.m.m.m.m.m.. . 5 3 X . . m.m.m.m.m.m.m.m.m.m.m.m.m.m.m.m.m.m.m.m.m.m.m.m.",
"m.m.m.m.. . . 3 5 . . m.m.m.m.m.m.m.m.m.m.m.m.m.m.m.m.m.m.m.m.m.m.m.. . 6 O . . . m.m.m.m.m.m.m.m.m.m.m.m.m.m.m.m.m.m.m.m.m.m.m.",
"m.m.m.m.. . X 5 5 . . m.m.m.m.m.m.m.m.m.m.m.m.m.m.m.m.m.m.m.m.m.m.m.. . 6 3 . . . m.m.m.m.m.m.m.m.m.m.m.m.m.m.m.m.m.m.m.m.m.m.m.",
"m.m.m.. . . O 7 5 X . m.m.m.m.m.m.m.m.m.m.m.m.m.m.m.m.m.m.m.m.m.m.m.. . 6 7 O . . . m.m.m.m.m.m.m.m.m.m.m.m.m.m.m.m.m.m.m.m.m.m.",
"m.m.m.. . . 3 7 5 . m.m.m.m.m.m.m.m.m.m.m.m.m.m.m.m.m.m.m.m.m.m.m.m.m.. 6 7 O . . . m.m.m.m.m.m.m.m.m.m.m.m.m.m.m.m.m.m.m.m.m.m.",
"m.m.. . . . O 7 5 . m.m.m.m.m.m.m.m.m.m.m.m.m.m.m.m.m.m.m.m.m.m.m.m.m.. 6 7 O . . . . m.m.m.m.m.m.m.m.m.m.m.m.m.m.m.m.m.m.m.m.m.",
"m.m.. . . . 3 7 5 . . m.m.m.m.m.m.m.m.m.m.m.m.m.m.m.m.m.m.m.m.m.m.m.. . 6 7 O . . . . m.m.m.m.m.m.m.m.m.m.m.m.m.m.m.m.m.m.m.m.m.",
"m.. . . . . 3 7 5 . . m.m.m.m.m.m.m.m.m.m.m.m.m.m.m.m.m.m.m.m.m.m.m.. . 6 7 O . . . . m.m.m.m.m.m.m.m.m.m.m.m.m.m.m.m.m.m.m.m.m.",
"m.. . . . . O 7 7 3 . . m.m.m.m.m.m.m.m.m.m.m.m.m.m.m.m.m.m.m.m.m.. . 3 7 7 O . . . . m.m.m.m.m.m.m.m.m.m.m.m.m.m.m.m.m.m.m.m.m.",
"m.. . . . . O 5 7 5 . . m.m.m.m.m.m.m.m.m.m.m.m.m.m.m.m.m.m.m.m.m.. . 6 7 3 . . . . . m.m.m.m.m.m.m.m.m.m.m.m.m.m.m.m.m.m.m.m.m.",
"m.. . . . . . 3 7 6 3 . . m.m.m.m.m.m.m.m.m.m.m.m.m.m.m.m.m.m.m.. . 3 7 7 O . . . . . m.m.m.m.m.m.m.m.m.m.m.m.m.m.m.m.m.m.m.m.m.",
"m.. . . . . . . 5 7 3 . . m.m.m.m.m.m.m.m.m.m.m.m.m.m.m.m.m.m.m.. . 5 7 5 . . . . . . m.m.m.m.m.m.m.m.m.m.m.m.m.m.m.m.m.m.m.m.m.",
"m.. . . . . . X 3 7 7 3 . . m.m.m.m.m.m.m.m.m.m.m.m.m.m.m.m.m.. . 3 7 7 O X . . . . . m.m.m.m.m.m.m.m.m.m.m.m.m.m.m.m.m.m.m.m.m.",
"m.m.. . . . . . . 5 7 7 3 . . m.m.m.m.m.m.m.m.m.m.m.m.m.m.m.. . 3 7 7 3 . . . . . . . m.m.m.m.m.m.m.m.m.m.m.m.m.m.m.m.m.m.m.m.m.",
"m.m.. . . . . . . 3 7 7 7 3 . . . m.. . . . . . . . . m.. . . 5 7 7 7 3 . . . . . . . m.m.m.m.m.m.m.m.m.m.m.m.m.m.m.m.m.m.m.m.m.",
"m.m.. . . . . . . . 3 7 7 7 3 . . . r t t t t t t t e . . . 3 7 7 7 3 . . . . . X . . . m.m.m.m.m.m.m.m.m.m.m.m.m.m.m.m.m.m.m.m.",
"m.m.m.. . . . . . . 3 7 7 7 7 7 O X r T E E t t t t t e 3 7 7 7 7 7 # . . . . ' -.+ X X . . m.m.m.m.m.m.m.m.m.m.m.m.m.m.m.m.m.m.",
"m.m.m.m.. . . . . . . 3 7 7 7 7 # t T Q R R Q Q T y y r # 7 7 7 7 3 . . . . . W =.-.Q T + X . . m.m.m.m.m.m.m.m.m.m.m.m.m.m.m.m.",
"m.m.m.m.. . + . . . . . 3 7 7 O e N ^ { -.-.-.{ Q R N y : 3 7 7 3 . . . . . . . W =.=.Q E M @ + . . m.m.m.m.m.m.m.m.m.m.m.m.m.m.",
"m.m.m.. X w R . . . . . X 5 6 # t N { -.-.-.-.-.-.{ Q N r 4 6 3 . . . . . . . . . W =.=.! E T m % + . . m.m.m.m.m.m.m.m.m.m.m.m.",
"m.m.. X w [ R $ . . . . . . . e N Q { -.-.-.-.-.-.-.[ E m - . . . . . . . . . m.. . ] -.{ Q E E E v = + . m.m.m.m.m.m.m.m.m.m.m.",
"m.. X z [ T N b % . . . . . + t R { -.-.-.-.-.-.-.-.' E N r + . . . . X X . . . e 0 T ' -.{ E E E E T v + . m.m.m.m.m.m.m.m.m.m.",
". X z { ' m c N c $ . . . . 8 b ' ] -.-.-.-.-.-.-.' T m N c e % % $ % r @ X 8 q ' [ M t ' { ` E Y E E E c $ . m.m.m.m.m.m.m.m.m.",
". + =.{ N t t y N c 8 $ = = U  .H T ' -.-.] -.{ ' T ~  . .( x x t t t t y w ! ] N m t t y ` { ` E E E E E v $ . m.m.m.m.m.m.m.m.",
". + =.' N t t t x n N c v b ;.8.*.F T ' -.R { ' T H %.8.8.%.b N x t t c W ] N b y t t t t c -.[ E E E T E v = . m.m.m.m.m.m.m.m.",
". M { T c t t t t t x N E c ;.j.u.*.F T ' E ! m F ;.y.j.0.%.b E b t t c T m y t t t t t t x W { ! E E E v $ . m.m.m.m.m.m.m.m.m.",
"X =.{ M - t t t t t t m E c ;.j.c.y.;.D T E D $.;.y.c.v.0.%.b E N c t t M c t t t t t t t t y M [ E E v % . m.m.m.m.m.m.m.m.m.m.",
"X =.{ n X - r % 8 t t m E c ( 6.u.9.7.Z T T B 7.y.c.b.j.<.) N E E b t t c m y t t % % t t t r - [ E v % . m.m.m.m.m.m.m.m.m.m.m.",
"X =.! n . . + . % t e y E T x J X.X.X.G E E N  .9.u.t.<.) N E E E b t t t c = t t X . $ $ t + + z ' y . m.m.m.m.m.m.m.m.m.m.m.m.",
"X { N % . . . . X - = q E E T N N N N E E E E G ....../ T Y E E E N c t t t @ @ @ X . . . + . . 8 ] x . m.m.m.m.m.m.m.m.m.m.m.m.",
"X { N . m.m.m.m.. X X q E E T 8 n - M E = E E T T N N T E x $ y E E v t t t + . . . m.m.. . m.. 8 ] w . m.m.m.m.m.m.m.m.m.m.m.m.",
". - M . m.m.m.m.m.. . q E T 8 #.s >.u N X T % E M + + 9 v I ,.} y E c t t % X . m.m.m.m.m.m.m.. 8 [ y . m.m.m.m.m.m.m.m.m.m.m.m.",
". X M . m.m.m.m.m.m.. r E 0 +.0.a p.1 X 3.& 3.+ i q.:.. P w.9.| t E c t t + . m.m.m.m.m.m.m.m.. X w M . m.m.m.m.m.m.m.m.m.m.m.m.",
". X M . m.m.m.m.m.m.. X w - &.0.r.v.a.> z.o v.4.2 n.i.K h.c.9.| t m t t t + . m.m.m.m.m.m.m.m.m.. . X . m.m.m.m.m.m.m.m.m.m.m.m.",
". . . . m.m.m.m.m.m.m.. y - @.0.s.s.v.d.n.d.n.b.f.n.n.n.n.k.o.0 T c t t @ X . m.m.m.m.m.m.m.m.m.m.. . m.m.m.m.m.m.m.m.m.m.m..   ",
"m.m.m.m.m.m.m.m.m.m.m.. q Y 8 &.0.p 4.w.v.b.b.e.n.n.c.g.x.O.0 E b t t t @ . m.m.m.m.m.m.m.m.m.m.m.m.m.m.m.m.m.m.m.m.m.m.m.. . . ",
"m.m.m.m.m.m.m.m.m.m.m.m.. y T - &.u 1., 3.s.3.< 5.5.:.K O.0 E T c t t % X . m.m.m.m.m.m.m.m.m.m.m.m.m.m.m.m.m.m.m.m.m.m.. . . . ",
"m.m.m.m.m.m.m.m.m.m.m.m.. = b E - M = T % 2.% N % @ 8 c 0 E E b t t t t @ . m.m.m.m.m.m.m.m.m.m.m.m.m.m.m.m.m.m.m.m.. . . . . . ",
"m.m.m.m.m.m.m.m.m.m.m.. X X e m N T E E E = E E T E E E T N b t t t y t = X . m.m.m.m.m.m.m.m.m.m.m.m.m.m.m.m.m.m.. . . . 3 . . ",
"m.m.m.m.m.m.m.m.m.. . + = t x x y m M N E E E E E E T M m c b c c m M m y @ . m.m.m.m.m.m.m.m.m.m.m.m.m.m.m.m.m.. . O O 3 5 . . ",
"m.m.m.m.m.m.m.m.. + 8 N ! ! ! Q m c t t m m M M N ^ _ M b ! ] Q Q [ -.-.N : X . m.m.m.m.m.m.m.m.m.m.m.m.m.m.. . . X 3 3 3 3 . . ",
"m.m.m.m.m.m.. . @ v [ -.-.-.-.] R E c t t t t t c ' -.{ ] -.-.' ' -.-.[ R c X . m.m.m.m.m.m.m.m.m.m.m.m.m.. . . . 3 3 5 3 . . . ",
"m.m.m.m.m.. $ w c [ { [ -.[ ] { ] E b t : t t t N -.{ ] -.{ { ! ] -.-.' E c : X . m.m.m.m.m.m.m.m.m.m.m.. . O O 3 5 3 5 O . . . ",
"m.m.m.m.. $ Y ' ^ [ ! ' -.` N ! -.Q E y X = = e ] =.] E -.-.` D ` -.[ N T m y O . m.m.m.m.m.m.m.m.m.m.m.. . O 3 5 O O 3 5 . . . ",
"m.m.m.m.. 8 =.` T ] N ` -.` c c Q ^ T m - . . % -.=.Y x -.-._ t ^ -.` c c T m e X . . m.m.m.m.m.m.m.m.. . O 3 5 3 O O 3 O . . . ",
"m.m.m.m.. - ] ` T [ T T [ ` c t c T E E t X . $ =.{ b 8 -.-.Q t V V c m x N E m : : . . . . m.m.m.. . . O 3 O O O O . O . . .   ",
"m.m.m.m.. X f j y ] E e l f = r t N E E t . . X t C = + k C x c h % r b y N E E N t : : : : . . . + : % . O . . . . . . . . .   ",
"m.m.m.m.m.. X O + d d X O X . + r ' Q E t . m.. . o . . X O + e b b m c t c c T T N N N m b e e e t c r % . . . . . . . . . . m.",
"m.m.m.m.m.m.. . . X o . . . . . X ' Q E % . m.m.. . . . . . . = E ! b : # r t x N E E E E T N N M m c t = . . . . . . . . . m.m.",
"m.m.m.m.m.m.m.. . . . . . . . . 5 ~ E c X . m.m.m.. . m.m.. . 9 ' ' r X . X r y x x y x c y x x c t t t r % . . . . . . . m.m.m.",
"m.m.m.m.m.m.m.m.m.m.. . m.m.. 5 3 r % X . . m.m.m.m.m.m.m.m.. 4 S m % . m.. X X t t t t t t t t t t t : X X . . . . . m.m.m.m.m.",
"m.m.m.m.m.m.m.m.m.m.m.m.m.m.. X . X . . . m.m.m.m.m.m.m.m.. 3 5 : = . . m.m.. . X X O t t t t t t : X . X . . . . . m.m.m.m.m.m.",
"m.m.m.m.m.m.m.m.m.m.m.m.m.m.m.. . . . m.m.m.m.m.m.m.m.m.m.. . . X . . m.m.m.m.m.. . . X . . X X X X . . m.m.m.m.m.m.m.m.m.m.m.m."
};
