/* XPM */
static char *demon_1[] = {
/* columns rows colors chars-per-pixel */
"62 64 165 2",
"   c black",
".  c #131313",
"X  c #1C1415",
"o  c #1A1A1A",
"O  c #231417",
"+  c #261518",
"@  c #291517",
"#  c #2D161A",
"$  c #2B191C",
"%  c #34140D",
"&  c #351510",
"*  c #33161B",
"=  c #31191E",
"-  c #3A1611",
";  c #3A171C",
":  c #3B181F",
">  c #3F1820",
",  c #232323",
"<  c #2C2224",
"1  c #2B2B2B",
"2  c #3E2325",
"3  c #343434",
"4  c #3B3B3B",
"5  c #45150F",
"6  c #431715",
"7  c #44171C",
"8  c #46181C",
"9  c #4D1715",
"0  c #4C181E",
"q  c #53191D",
"w  c #5E1A1F",
"e  c #431921",
"r  c #4D1A23",
"t  c #561B26",
"y  c #541E28",
"u  c #5B1B26",
"i  c #47231C",
"p  c #433013",
"a  c #57271B",
"s  c #5F231E",
"d  c #582D1D",
"f  c #5D321D",
"g  c #402527",
"h  c #432628",
"j  c #42292B",
"k  c #4C3335",
"l  c #562A30",
"z  c #60191D",
"x  c #621B26",
"c  c #651C28",
"v  c #6B1B25",
"b  c #6D1C28",
"n  c #721B26",
"m  c #731D29",
"M  c #7C1C25",
"N  c #7B1D29",
"B  c #60241E",
"V  c #612C1F",
"C  c #64321B",
"Z  c #643A17",
"A  c #633B1D",
"S  c #6D3B18",
"D  c #612920",
"F  c #682A24",
"G  c #6A2B33",
"H  c #793723",
"J  c #7E3B22",
"K  c #4E4017",
"L  c #4E461E",
"P  c #524317",
"I  c #5A4F21",
"U  c #64421B",
"Y  c #614F19",
"T  c #6A431D",
"R  c #665319",
"E  c #6A5619",
"W  c #755E1A",
"Q  c #7C571D",
"!  c #7E5A1D",
"~  c #615622",
"^  c #6C5F24",
"/  c #841D25",
"(  c #821D2A",
")  c #891E2B",
"_  c #931F2B",
"`  c #991F2C",
"'  c #8E202B",
"]  c #843325",
"[  c #92202B",
"{  c #9D202C",
"}  c #A3202D",
"|  c #AB212D",
" . c #B3222E",
".. c #BA232F",
"X. c #805D1D",
"o. c #8A5B13",
"O. c #9F551E",
"+. c #8F4022",
"@. c #904122",
"#. c #954921",
"$. c #994B20",
"%. c #83601D",
"&. c #8D6014",
"*. c #956213",
"=. c #96781D",
"-. c #997A1D",
";. c #957B22",
":. c #A75B1D",
">. c #A95D1D",
",. c #AF7A17",
"<. c #B1641C",
"1. c #BE721D",
"2. c #C1232F",
"3. c #C42430",
"4. c #C8761A",
"5. c #CA7D1C",
"6. c #9D892E",
"7. c #BB8117",
"8. c #A08424",
"9. c #A98C26",
"0. c #B5982C",
"q. c #BC9527",
"w. c #BC9E2C",
"e. c #B49C33",
"r. c #BFA534",
"t. c #C38818",
"y. c #C8961D",
"u. c #DA8F1C",
"i. c #C69C20",
"p. c #C1A02B",
"a. c #CCA121",
"s. c #C8A72D",
"d. c #CBA82D",
"f. c #C0A330",
"g. c #C4A833",
"h. c #C9B33E",
"j. c #D4A721",
"k. c #DAAB22",
"l. c #DCBA35",
"z. c #E79C1C",
"x. c #E89D1C",
"c. c #FFA515",
"v. c #FFA917",
"b. c #FFAD1A",
"n. c #FFB51C",
"m. c #E7B623",
"M. c #FFBA24",
"N. c #FFBE2A",
"B. c #E4C238",
"V. c #FFC32B",
"C. c #FFC825",
"Z. c #FFCA2D",
"A. c #FFC534",
"S. c #FFCF34",
"D. c #FFD335",
"F. c #FFD43B",
"G. c #FFD93D",
"H. c #D8C74B",
"J. c #E2CB46",
"K. c #FFDD43",
"L. c #FFE047",
"P. c #FFE24B",
"I. c #FFE650",
"U. c #FFEB57",
"Y. c None",
/* pixels */
"Y.Y.Y.Y.Y.Y.. . . . . Y.Y.Y.Y.Y.Y.Y.Y.Y.Y.Y.Y.Y.Y.Y.Y.Y.Y.Y.Y.. . . . . Y.Y.Y.Y.Y.Y.Y.Y.Y.Y.Y.Y.Y.Y.Y.Y.Y.Y.Y.Y.Y.Y.Y.Y.Y.Y.",
"Y.Y.Y.Y.Y.. . . . . . Y.Y.Y.Y.Y.Y.Y.Y.Y.Y.Y.Y.Y.Y.Y.Y.Y.Y.Y.Y.. . . . . . Y.Y.Y.Y.Y.Y.Y.Y.Y.Y.Y.Y.Y.Y.Y.Y.Y.Y.Y.Y.Y.Y.Y.Y.Y.",
"Y.Y.Y.Y.. . . . . . Y.Y.Y.Y.Y.Y.Y.Y.Y.Y.Y.Y.Y.Y.Y.Y.Y.Y.Y.Y.Y.Y.. . . . . . Y.Y.Y.Y.Y.Y.Y.Y.Y.Y.Y.Y.Y.Y.Y.Y.Y.Y.Y.Y.Y.Y.Y.Y.",
"Y.Y.Y.. . . o 3 . . Y.Y.Y.Y.Y.Y.Y.Y.Y.Y.Y.Y.Y.Y.Y.Y.Y.Y.Y.Y.Y.Y.. . 1 , . . . Y.Y.Y.Y.Y.Y.Y.Y.Y.Y.Y.Y.Y.Y.Y.Y.Y.Y.Y.Y.Y.Y.Y.",
"Y.Y.. . . . 3 . . Y.Y.Y.Y.Y.Y.Y.Y.Y.Y.Y.Y.Y.Y.Y.Y.Y.Y.Y.Y.Y.Y.Y.Y.. . 1 , . . . Y.Y.Y.Y.Y.Y.Y.Y.Y.Y.Y.Y.Y.Y.Y.Y.Y.Y.Y.Y.Y.Y.",
"Y.Y.. . . o 4 . . Y.Y.Y.Y.Y.Y.Y.Y.Y.Y.Y.Y.Y.Y.Y.Y.Y.Y.Y.Y.Y.Y.Y.Y.. . 1 , . . . Y.Y.Y.Y.Y.Y.Y.Y.Y.Y.Y.Y.Y.Y.Y.Y.Y.Y.Y.Y.Y.Y.",
"Y.. . . . 4 4 . . Y.Y.Y.Y.Y.Y.Y.Y.Y.Y.Y.Y.Y.Y.Y.Y.Y.Y.Y.Y.Y.Y.Y.Y.. . 1 4 , . . . Y.Y.Y.Y.Y.Y.Y.Y.Y.Y.Y.Y.Y.Y.Y.Y.Y.Y.Y.Y.Y.",
"Y.. . . o 4 3 . Y.Y.Y.Y.Y.Y.Y.Y.Y.Y.Y.Y.Y.Y.Y.Y.Y.Y.Y.Y.Y.Y.Y.Y.Y.Y.. 1 4 , . . . Y.Y.Y.Y.Y.Y.Y.Y.Y.Y.Y.Y.Y.Y.Y.Y.Y.Y.Y.Y.Y.",
". . . . . 4 4 . Y.Y.Y.Y.Y.Y.Y.Y.Y.Y.Y.Y.Y.Y.Y.Y.Y.Y.Y.Y.Y.Y.Y.Y.Y.Y.. 1 4 , . . . . Y.Y.Y.Y.Y.Y.Y.Y.Y.Y.Y.Y.Y.Y.Y.Y.Y.Y.Y.Y.",
". . . . o 4 3 . . Y.Y.Y.Y.Y.Y.Y.Y.Y.Y.Y.Y.Y.Y.Y.Y.Y.Y.Y.Y.Y.Y.Y.Y.. . 1 4 , . . . . Y.Y.Y.Y.Y.Y.Y.Y.Y.Y.Y.Y.Y.Y.Y.Y.Y.Y.Y.Y.",
". . . . . 4 3 . . Y.Y.Y.Y.Y.Y.Y.Y.Y.Y.Y.Y.Y.Y.Y.Y.Y.Y.Y.Y.Y.Y.Y.Y.. . 1 4 , . . . . . Y.Y.Y.Y.Y.Y.Y.Y.Y.Y.Y.Y.Y.Y.Y.Y.Y.Y.Y.",
". . . . o 4 4 o . . Y.Y.Y.Y.Y.Y.Y.Y.Y.Y.Y.Y.Y.Y.Y.Y.Y.Y.Y.Y.Y.Y.. . o 1 3 , . . . . . Y.Y.Y.Y.Y.Y.Y.Y.Y.Y.Y.Y.Y.Y.Y.Y.Y.Y.Y.",
". . . . . 4 4 3 . . Y.Y.Y.Y.Y.Y.Y.Y.Y.Y.Y.Y.Y.Y.Y.Y.Y.Y.Y.Y.Y.Y.. . 1 4 4 , . . . . . Y.Y.Y.Y.Y.Y.Y.Y.Y.Y.Y.Y.Y.Y.Y.Y.Y.Y.Y.",
". . . . . . 4 4 o . . Y.Y.Y.Y.Y.Y.Y.Y.Y.Y.Y.Y.Y.Y.Y.Y.Y.Y.Y.Y.. . o 1 4 , . . . . . . Y.Y.Y.Y.Y.Y.Y.Y.Y.Y.Y.Y.Y.Y.Y.Y.Y.Y.Y.",
". . . . . . 3 4 3 . . Y.Y.Y.Y.Y.Y.Y.Y.Y.Y.Y.Y.Y.Y.Y.Y.Y.Y.Y.Y.. . 1 4 3 , . . . . . . Y.Y.Y.Y.Y.Y.Y.Y.Y.Y.Y.Y.Y.Y.Y.Y.Y.Y.Y.",
". . . . . . o 4 4 o . . Y.Y.Y.Y.Y.Y.Y.Y.Y.Y.Y.Y.Y.Y.Y.Y.Y.Y.. . . 1 4 1 . . . . . . . Y.Y.Y.Y.Y.Y.Y.Y.Y.Y.Y.Y.Y.Y.Y.Y.Y.Y.Y.",
". . . . . . . 3 4 4 o . . Y.Y.Y.Y.Y.Y.Y.Y.Y.Y.Y.Y.Y.Y.Y.Y.. o o 1 4 3 o . . . . . . Y.Y.Y.Y.Y.Y.Y.Y.Y.Y.Y.Y.Y.Y.Y.Y.Y.Y.Y.Y.",
". . . . . . . . 4 4 3 o . . . Y.. . . . . . . . . . Y.. . . o 1 4 4 1 . . . . . . . Y.Y.Y.Y.Y.Y.Y.Y.Y.Y.Y.Y.Y.Y.Y.Y.Y.Y.Y.Y.",
". . . . . . . . 3 4 4 4 o . . . X + + + + + + + + X . . . o 1 4 4 4 o . . . . . . . Y.Y.Y.Y.Y.Y.Y.Y.Y.Y.Y.Y.Y.Y.Y.Y.Y.Y.Y.Y.",
"Y.. . . . . . . o 4 4 4 4 , o . O u c c x u t t t e X o o 3 4 4 4 , . . . . . . . Y.Y.Y.Y.Y.Y.Y.Y.Y.Y.Y.Y.Y.Y.Y.Y.Y.Y.Y.Y.Y.",
"Y.. . . . . . . o 1 4 4 4 4 3 . > m ) ) N c c x t t > , 4 4 4 4 3 , . . . . . . . Y.Y.Y.Y.Y.Y.Y.Y.Y.Y.Y.Y.Y.Y.Y.Y.Y.Y.Y.Y.Y.",
"Y.Y.. . . . . . . . 3 4 4 4 1 > b ' ` { { { _ N c x e < 4 4 4 3 , . . . . . . . Y.Y.Y.Y.Y.Y.Y.Y.Y.Y.Y.Y.Y.Y.Y.Y.Y.Y.Y.Y.Y.Y.",
"Y.Y.. . . . . . . . o 3 4 3 X c ) | 3.3.3.3...{ _ N u > 1 4 3 , . . . . . . . . Y.Y.Y.Y.Y.Y.Y.Y.Y.Y.Y.Y.Y.Y.Y.Y.Y.Y.Y.Y.Y.Y.",
"Y.Y.Y.. . . . . . . . X 1 1 > m ` 3.3.3.3.3.3.3..._ N r < 1 o . . . . . . . . Y.Y.Y.Y.Y.Y.Y.Y.Y.Y.Y.Y.Y.Y.Y.Y.Y.Y.Y.Y.Y.Y.Y.",
"Y.Y.Y.Y.. . . . . . . . . X c ) | 3.3.3.3.3.3.3.3.| ) m > . . . . . . . . . Y.Y.Y.Y.Y.Y.Y.Y.Y.Y.Y.Y.Y.Y.Y.Y.Y.Y.Y.Y.Y.Y.Y.Y.",
"Y.Y.Y.Y.Y.. . . . . . . X > m | 3.3.3.3.3.3.3.3...` ) N r # X . . . O X . Y.Y.Y.Y.Y.Y.Y.Y.Y.Y.Y.Y.Y.Y.Y.Y.Y.Y.Y.Y.Y.Y.Y.Y.Y.",
"Y.Y.Y.Y.Y.Y.. . . . . . X u ( | | 3.3.3.3.3.3...` ( m m c t e # # # e e X . Y.Y.Y.Y.Y.Y.Y.Y.Y.Y.Y.Y.Y.Y.Y.Y.Y.Y.Y.Y.Y.Y.Y.Y.",
"Y.Y.Y.Y.Y.Y.Y.. . . X ; i O.#.N _  .3... .3...` ( ] O.O.H c c t t t t t e X . Y.Y.Y.Y.Y.Y.Y.Y.Y.Y.Y.Y.Y.Y.Y.Y.Y.Y.Y.Y.Y.Y.Y.",
"Y.Y.Y.Y.Y.Y.Y.Y.. X r ( H c.z.#.N _  . .` ..` ( ] 4.b.b.<.b M x t t t t t # . Y.Y.Y.Y.Y.Y.Y.Y.Y.Y.Y.Y.Y.Y.Y.Y.Y.Y.Y.Y.Y.Y.Y.",
"Y.Y.Y.Y.Y.Y.Y.Y.. O ) ( H b.S.z.#.m _ ` _ _ b ] 5.M.V.n.<.b ) b t t t c x e X . Y.Y.Y.Y.Y.Y.Y.Y.Y.Y.Y.Y.Y.Y.Y.Y.Y.Y.Y.Y.Y.Y.",
"Y.Y.Y.Y.Y.Y.Y.Y.. O ) M H b.G.S.z.$.N ) ( ] :.5.V.K.K.n.<.F ) M c t t m N x e X . Y.Y.Y.Y.Y.Y.Y.Y.Y.Y.Y.Y.Y.Y.Y.Y.Y.Y.Y.Y.Y.",
"Y.Y.Y.Y.Y.Y.Y.Y.. O ) / F 1.M.N.b.5.c ) N #.b.N.K.I.S.u.] ' ) ) m t y c N N u # . Y.Y.Y.Y.Y.Y.Y.Y.Y.Y.Y.Y.Y.Y.Y.Y.Y.Y.Y.Y.Y.",
"Y.Y.Y.Y.Y.Y.Y.Y.. + ) ( c F >.>.>.$.N ) ' ] 5.M.A.N.u.@.M ) ) ) b t t t c ( N r X . Y.Y.Y.Y.Y.Y.Y.Y.Y.Y.Y.Y.Y.Y.Y.Y.Y.Y.Y.Y.",
"Y.Y.Y.Y.Y.Y.Y.. X n ) ) ( m n b m m ) ) ( N ] :.:.:.@.M ) ) ) ) N x t t t m ) c e X . Y.Y.Y.Y.Y.Y.Y.Y.Y.Y.Y.Y.Y.Y.Y.Y.Y.Y.Y.",
"Y.Y.Y.Y.Y.Y.Y.. @ ..) ) ) M t M u ) n z ) ( ( m m m M ) b 0 z ) ) b t t u r b N x # . Y.Y.Y.Y.Y.Y.Y.Y.Y.Y.Y.Y.Y.Y.Y.Y.Y.Y.Y.",
"Y.Y.Y.Y.Y.Y.. O M } ) ) N d %.f ! w x ; n u ) b 8 7 x v S *.T v ) b u y e X u ) c e X . Y.Y.Y.Y.Y.Y.Y.Y.Y.Y.Y.Y.Y.Y.Y.Y.Y.Y.",
"Y.Y.Y.Y.Y.Y.. @  .n ( M a ,.i.L r.O f ! A Q 8 A -.Y @ T y.b.o.0 ) b t t # . * n N x e X . Y.Y.Y.Y.Y.Y.Y.Y.Y.Y.Y.Y.Y.Y.Y.Y.Y.",
"Y.Y.Y.Y.Y.. X M ` u m n p v.m.0.J.W I e.~ l.E ^ K.6.p s.D.n.o.0 N x t u # . . n { c y e X . Y.Y.Y.Y.Y.Y.Y.Y.Y.Y.Y.Y.Y.Y.Y.Y.",
"Y.Y.Y.Y.. X / ` c t 6 n p v.C.Z.D.B.w.J.p.I.l.g.U.H.h.I.F.1.V b b t t : X . . / { c t t + . Y.Y.Y.Y.Y.Y.Y.Y.Y.Y.Y.Y.Y.Y.Y.Y.",
"Y.Y.Y.. X / ` x % - 0 ( s &.n.k.;.D.D.I.P.P.G.P.U.P.L.P.q.C n N u t t * . Y.. ; ) m u t + . Y.Y.Y.Y.Y.Y.Y.Y.Y.Y.Y.Y.Y.Y.Y.Y.",
"Y.Y.Y.. O  .5 - 7 8 u m N B &.t.P j.;.F.F.d.8.D.D.i.9.w.A b ) b t t e X . Y.Y.. / _ x t e O . Y.Y.Y.Y.Y.Y.Y.Y.Y.Y.Y.Y.Y.Y.Y.",
"Y.Y.Y.. X ` z 6 t t r * b ( B Z d U D =.a.U V R R A f A m ) N x t t * . Y.Y.Y.. / ` c t t e X . Y.Y.Y.Y.Y.Y.Y.Y.Y.Y.Y.Y.Y.Y.",
"Y.Y.Y.. . 7 ( u t % r . ; b N v ( v M D A v M x x n N n ) N u t t t r + . Y.Y.. ) ` c u t t e X . Y.Y.Y.Y.Y.Y.Y.Y.Y.Y.Y.Y.Y.",
"Y.Y.Y.Y.. X ( t t 7 & * O u v b ) ) ) M v ) ) ( ) ( ) ) N x t t t t t # . Y.Y.. ) ` c y u - r O . Y.Y.Y.Y.Y.Y.Y.Y.Y.Y.Y.Y.Y.",
"Y.Y.Y.Y.. X ( u t t 8 t > * t t c m ) ) ' ) ) ) ) ) N c u y t t t t t * . Y.. z  .` 9 % % - # X . Y.Y.Y.Y.Y.Y.Y.Y.Y.Y.Y.Y.Y.",
"Y.Y.Y.Y.. X ( t t t t t # r t t t t x c v ' ) N c c x y u u c N N c y * . Y.. * M _ w 8 8 t O . Y.Y.Y.Y.Y.Y.Y.Y.Y.Y.Y.Y.Y.Y.",
"Y.Y.Y.Y.. X ( t t t N m c N m t t t t t u c c u c c t y N [ ( ' { | | b + . Y.. @ & x x t t r X . Y.Y.Y.Y.Y.Y.Y.Y.Y.Y.Y.Y.Y.",
"Y.Y.Y.Y.. X ( u ( } .. ...| ) N m t r * y y u c _ | _ ' ....{ { ..3.3.` : . Y.Y.. . + x x t t O . Y.Y.Y.Y.Y.Y.Y.Y.Y.Y.Y.Y.Y.",
"Y.Y.Y.. X v x (  .2.2.3.3.2.| ) N u e . + O O w ..2.....3.3.| } 3.3.| ) 7 . Y.Y.Y.Y.. c c t y O . Y.Y.Y.Y.Y.Y.Y.Y.Y.Y.Y.Y.Y.",
"Y.Y.Y.. O | ( ..2.{ 2...{ { 2.| ( m e . . . ; ) 2. .| 2.3.| [ } 3.3.} ) x + . Y.Y.Y.. O c x t O . Y.Y.Y.Y.Y.Y.Y.Y.Y.Y.Y.Y.Y.",
"Y.Y.. X } ..b 2._ ) 3...( b { ..) N e . Y.. 0 ..2.{ ) 3.3.[ x [ 3.| N N b # . Y.Y.Y.Y.. r m x r X . Y.Y.Y.Y.Y.Y.Y.Y.Y.Y.Y.Y.",
"Y.Y.. X 3...x ..( m 3...( t m ) ) ( b ; . . q 3. .x v 3.3.[ t ' 3.} b u u r + . Y.Y.Y.. X t u t O . Y.Y.Y.Y.Y.Y.Y.Y.Y.Y.Y.Y.",
"Y.Y.. X ` ..x 2.| u ` ..N t t b ) ) N : . . q 3.| w w 2.2.[ t l j r b c b c r + . Y.Y.Y.. X r t O . Y.Y.Y.Y.Y.Y.Y.Y.Y.Y.Y.Y.",
"Y.Y.. . $ k @ `  .t $ k O # t c ) ) N e . . X 2 j X O h j q b t > e b m ) ( c t + . Y.Y.Y.. X e O . . . . . . . . . . . Y.Y.",
"Y.Y.Y.. . o . $ k X . o . . # b | ) N e . Y.. . . . . . o X ; b M ( b m ) ) ( c r O . . Y.Y.. e O . . . . . . . . . . . .   ",
"Y.Y.Y.Y.. . . . o . . . . . . 8  .( c X . Y.Y.. . . . . . . * ) ` m u m ) ) ) ( c t r + . . . X , , , , , , , , , , , . . . ",
"Y.Y.Y.Y.Y.. . . . . . . . . o k ' N e . Y.Y.Y.Y.. . Y.Y.. . 0 { | r X e u N ) ) ( c y y X . , , 3 4 4 4 4 4 3 4 4 1 . . . . ",
"Y.Y.Y.Y.Y.Y.Y.Y.. . Y.Y.. o 3 $ r X X . Y.Y.Y.Y.Y.Y.Y.Y.Y.. < G m * . . : u u m ) ) c t r t + . , 4 4 4 4 4 4 4 4 , . . .   ",
"Y.Y.Y.Y.Y.Y.Y.Y.Y.Y.Y.Y.. . . . X . . Y.Y.Y.Y.Y.Y.Y.Y.Y.. , 1 : ; X . . . X e t u u N ( c t + . . , 3 4 1 4 1 1 1 o . . . Y.",
"Y.Y.Y.Y.Y.Y.Y.Y.Y.Y.Y.Y.Y.. . . . Y.Y.Y.Y.Y.Y.Y.Y.Y.Y.Y.. . . . . . Y.Y.. . . X . e u u t t y X . , 1 , 1 1 o , , . . . Y.Y.",
"Y.Y.Y.Y.Y.Y.Y.Y.Y.Y.Y.Y.Y.Y.Y.Y.Y.Y.Y.Y.Y.Y.Y.Y.Y.Y.Y.Y.Y.. . . . Y.Y.Y.Y.Y.. . . . X e t y + . . . . . . . . . . . . . Y.Y.",
"Y.Y.Y.Y.Y.Y.Y.Y.Y.Y.Y.Y.Y.Y.Y.Y.Y.Y.Y.Y.Y.Y.Y.Y.Y.Y.Y.Y.Y.Y.Y.Y.Y.Y.Y.Y.Y.Y.Y.Y.Y.. . . . . . . . . . . . . . . . . . Y.Y.Y.",
"Y.Y.Y.Y.Y.Y.Y.Y.Y.Y.Y.Y.Y.Y.Y.Y.Y.Y.Y.Y.Y.Y.Y.Y.Y.Y.Y.Y.Y.Y.Y.Y.Y.Y.Y.Y.Y.Y.Y.Y.Y.Y.Y.. . . . . . . . . . . . . . . Y.Y.Y.Y.",
"Y.Y.Y.Y.Y.Y.Y.Y.Y.Y.Y.Y.Y.Y.Y.Y.Y.Y.Y.Y.Y.Y.Y.Y.Y.Y.Y.Y.Y.Y.Y.Y.Y.Y.Y.Y.Y.Y.Y.Y.Y.Y.Y.Y.Y.. . . . . . . . . . . Y.Y.Y.Y.Y.Y."
};
