/* XPM */
static char *door_6[] = {
/* columns rows colors chars-per-pixel */
"39 64 89 1",
"  c black",
". c #201811",
"X c #291D13",
"o c #625142",
"O c #6C5542",
"+ c #6E5943",
"@ c #725741",
"# c #765841",
"$ c #7C5B41",
"% c #9A753F",
"& c #9B783F",
"* c #815E42",
"= c #856143",
"- c #8C6544",
"; c #8B6943",
": c #906745",
"> c #946A46",
", c #966C49",
"< c #996D47",
"1 c #9A6E48",
"2 c #937141",
"3 c #9A7642",
"4 c #9D7149",
"5 c #9D7841",
"6 c #9B7B4A",
"7 c #846F65",
"8 c #817165",
"9 c #8F7F74",
"0 c #937C67",
"q c #987C6B",
"w c #A3754C",
"e c #A27C41",
"r c #A07E49",
"t c #A9794F",
"y c #AD7C51",
"u c #B17F54",
"i c #A9823F",
"p c #9F804F",
"a c #A38245",
"s c #A3824B",
"d c #AA8441",
"f c #A8864A",
"g c #AF8944",
"h c #AB894A",
"j c #AB8A53",
"k c #AB8B5D",
"l c #B18B44",
"z c #B58255",
"x c #B38258",
"c c #B88457",
"v c #BA8658",
"b c #BE885A",
"n c #B79146",
"m c #B3914E",
"M c #B89347",
"N c #B9964B",
"B c #BD994B",
"V c #B19050",
"C c #B69958",
"Z c #B99A52",
"A c #AC9278",
"S c #BDA15B",
"D c #C38C5D",
"F c #C7905F",
"G c #C09F59",
"H c #C8905F",
"J c #CD9362",
"K c #D09664",
"L c #C5A352",
"P c #C4A659",
"I c #C8A753",
"U c #CBAB55",
"Y c #CBAC5A",
"T c #D0B058",
"R c #C9AD62",
"E c #C3A777",
"W c #C4A778",
"Q c #CDB061",
"! c #D2B560",
"~ c #D5B862",
"^ c #A6918A",
"/ c #AF9A92",
"( c #B7A186",
") c #B4A39C",
"_ c #C6B6A8",
"` c #CBBBAF",
"' c #CBBCB1",
"] c #D3BEA3",
"[ c None",
/* pixels */
"[[[[[[[[[[[KKKKKKKKKKKKD4444[[[[[[[[[[[",
"[[[[[[[[[KKKKKKKKKKKKKKKDzzw44[[[[[[[[[",
"[[[[[KKKKKKKKKKKKKKKKKJKKKKFc444w4[[[[[",
"[[[[KKKKKKKKKDDDKDKKKKuzJKKJKKKDw4w[[[[",
"[[[KKKKKJJbczcccHDKJKJJDzzDKFuKKDw44[[[",
"[[KKKKKJutwDDJKKKKHKKKHvHwwtHFHtbDz44[[",
"[KKKKJvyJJJKDDDDDtt444wDDFt>>uDKctyDt4[",
"KKKKKJDJKKvzt4414zzw44414uucw-1uDJcty4X",
"KKKKKJJJttw111===441w11w-41wu4*>1tJJ4-4",
"KKKJDv1441>=>4441,,:>><14==:>4-=-=>uF,-",
"KKJzt414--:441-==@OoOO@--14,--,4==$>Jw*",
"KJy444>=<<1>**oOooooooooo*$,,,-yt14zw1=",
"Jy44,>-4>=%Oooooooooooooooo@o#--1vbt,=$",
"y44<=-,-j=%OooooooooooooooooooO**14:=$$",
":,<$-,pmR;eooooooooooooooooooooo@=-=-=x",
"D4444-hMQhgoooooooooooooooooooooo4DDJKD",
"vKvKv,NMYseoooooooooooooooooooooo=w,yuw",
"4w-w4-QMIeeoooooooooooooooooooooo$w=144",
"44=44;TMY&&Oooooooooooooooooooooo*4=444",
"44=44;TMI&eoooooooooooooooooooooo$4,444",
"44=44;YMI5e+ooooooooooooooooooooo*41444",
"=4=44;TML5e&ooooooooooooooooooooo$4=144",
"=4=44-TMLkj&ooooooooooooooooooooo$4=444",
"=4=44-PMLE_=ooooooooooooooooooooo$w=144",
"=4=4tw6nUE`0ooooooooooooooooooooo$4=44>",
"=4=wz16nUG]^8oooooooooooooooooooo*4=44=",
"=4<41<6MIi(/9oooooooooooooooooooo=1=,4=",
"=4=4w16nP3A`9ooooooooooooooooooo#11*>1=",
"=4#,1<6nl5q)8ooooooooooooooooooo@1uc14=",
"44%41<6~65>7oooooooooooooooooooo@11w44=",
"44=4116LM5eooooooooooooooooooooo@11444=",
"44<4w<rjL5eooooooooooooooooooooo@1,,44*",
"4444w<36L5aooooooooooooooooooooo@1:>14X",
"444411=3Leeooooooooooooooooooooo@1-144X",
"44444<%eL5eooooooooooooooooooooo@>=4w1X",
"$:444<6nL%5ooooooooooooooooooooo@>>4>-X",
"$:14w<6nL&eooooooooooooooooooooo@<44<-X",
"$-44116nI%e+oooooooooooooooooooo@<:4>-X",
"$-441>#%L5hSoooooooooooooooooooo@>:1<-X",
"$:44:**%L5Shoooooooooooooooooooo@-w1>-X",
"$:4<><:fLNN+oooooooooooooooooooo@*44>-X",
"$-4wzw>%Ln6ooooooooooooooooooooo@*44<-X",
"$:1ww::%Um5ooooooooooooooooooooo@*44<-X",
"[444w*>%UmeOoooooooooooooooooooo@*44<-X",
"[4441*>%P2eooooooooooooooooooooo@-44<-X",
"[4444=:%P;eooooooooooooooooooooo@<44<<X",
"[w44w*>ea2%ooooooooooooooooooooo@<444:.",
"[1441*:C2%%ooooooooooooooooooooo@<444-.",
"[=1w1*:eB5&ooooooooooooooooooooo44444:.",
"[$<1w*>-L5;ooooooooooooooooooooO,v444-.",
"[$<<<-$%L&+ooooooooooooooooooooO:444>-.",
"[$>>:<#>L>Oooooooooooooooooooooo:41w*:.",
"[$>>:<=-Z;oooooooooooooooooooooO>w11=-.",
"[$<>:1-=Z+oooooooooooooooooooooO:11w<$[",
"[$<1->=-aooooooooooooooooooooooO:4><>$[",
"[$>4=<-=%ooooooooooOooOooooooooo:4-><$[",
"[$-4*<-*ooooooOO@O@$$$$$$OoooooO>1:><$[",
"[[*411:#oooo##$$$$$$$@OOO$$#oooO>4::*$[",
"[[*4-<%#oo+##$$$$$#@#@$#$$###OoO:4:>*$[",
"[[*4*<$$o+OOO#$$$$#@O@$$$#O@OOOO:><-$$[",
"[[*<*>$$oOOOOOO@$$$$$$$$$$@OOooO>=1=$$[",
"[[$$#-$#oOo##$$#$$##@##$$$$##OoO$$>$#o[",
"[[@$O##oo@@OO@@OOOOoooo@OOO@OOOOO==OOo[",
"[[oOoOOoooooooooooooooooooooooooo*#ooo["
};
