/* XPM */
static char *door_2[] = {
/* columns rows colors chars-per-pixel */
"39 64 112 2",
"   c black",
".  c #201811",
"X  c #291D13",
"o  c #625142",
"O  c #6B5542",
"+  c #6E5943",
"@  c #725741",
"#  c #755B43",
"$  c #7C5B41",
"%  c #7C6143",
"&  c #9A753F",
"*  c #9C783F",
"=  c #A37D3F",
"-  c #815E42",
";  c #856143",
":  c #876844",
">  c #8B6544",
",  c #8C6A43",
"<  c #856651",
"1  c #8A6D54",
"2  c #8A6D5B",
"3  c #8D715E",
"4  c #906745",
"5  c #936B46",
"6  c #966C49",
"7  c #996D47",
"8  c #9A6E48",
"9  c #947043",
"0  c #92794A",
"q  c #997542",
"w  c #9D7149",
"e  c #9E7A43",
"r  c #9C7B4A",
"t  c #967553",
"y  c #92735D",
"u  c #9A7B5B",
"i  c #967C68",
"p  c #A3754C",
"a  c #A57E40",
"s  c #A17F49",
"d  c #A97A4F",
"f  c #AD7C51",
"g  c #B17F54",
"h  c #A7803F",
"j  c #AB833F",
"k  c #9E8049",
"l  c #9E836E",
"z  c #948377",
"x  c #9D867C",
"c  c #A78142",
"v  c #A5844B",
"b  c #A98342",
"n  c #AE8944",
"m  c #AE8C4C",
"M  c #AB8A52",
"N  c #B38D44",
"B  c #B28D48",
"V  c #B58255",
"C  c #B38258",
"Z  c #B38F50",
"A  c #B88457",
"S  c #BA8658",
"D  c #BE885A",
"F  c #B69046",
"G  c #B7934B",
"H  c #B89347",
"J  c #BB974A",
"K  c #BD9A4C",
"L  c #B39353",
"P  c #BE9D52",
"I  c #BB9C58",
"U  c #A68761",
"Y  c #A08670",
"T  c #AF926B",
"R  c #C38C5D",
"E  c #C19E4E",
"W  c #C7905F",
"Q  c #C09F52",
"!  c #C8905F",
"~  c #CD9362",
"^  c #D09664",
"/  c #C3A14F",
"(  c #C5A454",
")  c #C4A65C",
"_  c #C8A753",
"`  c #CEAE57",
"'  c #CBAC5A",
"]  c #CFB05A",
"[  c #D0B159",
"{  c #CFB261",
"}  c #D4B760",
"|  c #D6B963",
" . c #D8BE68",
".. c #A38C86",
"X. c #A7928A",
"o. c #A99284",
"O. c #AC968C",
"+. c #B19D95",
"@. c #B4A29A",
"#. c #BEAC9E",
"$. c #BFADA3",
"%. c #C1AE9E",
"&. c #CDB99F",
"*. c #C0ADA2",
"=. c #C2B0A6",
"-. c #CBBAAE",
";. c #CEBEB2",
":. c #D0BEA9",
">. c #D0BEB1",
",. c #CFC0B4",
"<. c #DCC9AE",
"1. c None",
/* pixels */
"1.1.1.1.1.1.1.1.1.1.1.^ ^ ^ ^ ^ ^ ^ ^ ^ ^ ^ ^ R w w w w 1.1.1.1.1.1.1.1.1.1.1.",
"1.1.1.1.1.1.1.1.1.^ ^ ^ ^ ^ ^ ^ ^ ^ ^ ^ ^ ^ ^ ^ R V V p w w 1.1.1.1.1.1.1.1.1.",
"1.1.1.1.1.^ ^ ^ ^ ^ ^ ^ ^ ^ ^ ^ ~ ^ ^ ^ ^ ^ ~ ^ ^ ^ ^ R A w w w w w 1.1.1.1.1.",
"1.1.1.1.^ ^ ^ ^ ^ ^ ^ ^ ^ R R R ~ W ^ ^ ^ ^ g V ~ ^ ^ ^ ^ ^ ^ R p w w 1.1.1.1.",
"1.1.1.^ ^ ^ ^ ^ ~ ~ D A V A A A ! R ^ ^ ~ ~ ^ R V V R ^ ! V ^ ^ R p w w 1.1.1.",
"1.1.^ ^ ^ ^ ^ ~ g d p R R ~ ^ ^ ~ ~ ~ ~ ~ ^ W S ! p p d ! R ! d R R V w w 1.1.",
"1.^ ^ ^ ^ ~ S f ~ ~ ~ ^ R R R R R d d p w w p R R R f 4 5 g R ^ V d g R g w 1.",
"^ ^ ^ ^ ^ ~ R ~ ^ ^ S V d w w 8 w V V p w w w w w g V A p 4 8 g W ! S p d w X ",
"^ ^ ^ ^ ^ ^ ~ ^ d d p 8 8 w - - ; w w w w w w w 4 8 w p f w - 6 8 d ^ W 8 4 8 ",
"^ ^ ^ ^ W S w w w 8 5 ; 5 w w p w 4 5 4 5 5 5 w w ; ; 4 6 p ; - > ; 5 g W 6 4 ",
"^ ^ ^ g p w w w > > 4 w w w > > : 5 ; ; ; & O : ; p w 4 4 ; 8 w - > $ 5 W p - ",
"^ ~ g w w w 5 - 7 7 8 5 - - O o q , , : , 5 q 9 G : 4 7 7 7 > f d w w g d 8 - ",
"! g w w 6 4 4 8 5 ; ; : & , 9 + * r , , 5 = Q q b [  .M & ; > > 7 S D d 7 ; $ ",
"d w w 7 - > 6 > O % 9 , > > , k n ( r q = J B q b [ | [ j = : - - 7 w 4 ; $ $ ",
"4 6 7 - : 6 ; & # 0 r , , , q K r N (  .' J a q n [ | ` j j 5 n p ; : ; ; ; C ",
"R w 8 8 w , , 9 P v m 9 r v K F 9 j K  .K F a q j [ | ` j j 9 j _ f W R ^ ^ R ",
"S ^ A ^ D 4 a G B q N ' ' } J H 5 j /  .K / j q j } | ` j j 9 j E 5 p 6 f f p ",
"8 p > p w 4 | P h q j [ | [ N J & j K  ./ / c q j [ | ` j j 9 j E 4 w ; p w w ",
"w w - 8 w : ] H a q n [ | ` H J 5 j K  .K J h q j } } ` j j 9 j E , w ; 8 w w ",
"w w ; p w > ] H h q j [ | ` n N & h /  ./ J c q j [ } ` j j 9 j Q , w 6 8 w w ",
"8 w ; w w > [ H h q j [ [ [ F J 9 j /  .K N h & j [ [ ] j h 9 j E , w 8 w w w ",
"; w - w w > [ H = q j [  .` F J 9 j / [ / / c 9 h [ [ [ j v 9 j E > w ; 8 8 w ",
"; w ; w w : ` H h q j [ | [ F J 9 j K [ / / c k r ` [ ` h b 9 j Q , w ; 8 p w ",
"- w - w w , _ H = & j ` [ [ F J 9 j / } / / b q K H H H v H 9 j E > w ; 8 w w ",
"; w - w d w r H = q j [ [ [ H J 9 j K [ K / j q j | | | H b 9 j E , w ; w w 5 ",
"; p - d V w r H h q j [ | [ F J 9 j / [ / / c q j [ [ [ j j 9 j E > w ; 8 w ; ",
"- w 8 w w 8 r H = q j [ [ [ F J 9 j K [ / / c q j ` ` ` j j 9 j G , 7 ; 8 w - ",
"- p - w w 7 r H h q j ` [ ` F K 9 j / [ K / b q j ` [ ` j j 9 j 4 w w - 5 w ; ",
"- p ; w w 8 r H h q j ` [ ` N J 5 j K [ / / c q j ` [ ` j j 9 j 4 8 g S 6 w - ",
"w w ; w w 8 r H a q j ` [ ` F J & j K [ K / h q j ` ` [ j B U M , 8 w w w w ; ",
"w w ; w w 8 e H h q j ` ` ` F J , j / [ / / j q j [ [ [ L &.,.@.3 8 8 w w w ; ",
"w w 8 w w 8 w H a q j ` [ ` F K 9 j K [ K _ j M ]  . . .<.$.....2 8 5 7 w p - ",
"w w w w w 7 r H c q j [ [ [ Q ( v (  . . . . .] ( _ _ _ ,.X.#.M & 5 4 5 w w X ",
"w w w w w w r ' Q I ( }  .| | [ | ' K K K K K m q q q e +.@.-.#.< 5 > 7 w w X ",
"w w w w w 7 r [ ] ] ] ' F F F F m b 9 9 9 5 9 , , = h v ,.z x ;.Y 6 ; w w w X ",
"$ > w w w 7 : = a c = * 9 9 , 5 ; , b F b j : $ = ` [ ' :.3 + O.Y 6 4 w 7 > X ",
"$ 4 w w w 7 : 5 : % : v J K c k + 9 / [ E / q 9 j ` [ [ *.u : T i 8 w w 6 - X ",
"$ > w w w 7 q B : # q _ [ ` F H : c E [ E / j q j ` ` ] X.o.u :.i 5 4 w 6 > X ",
"$ > w w w 5 $ & = q j ` [ ` F K & j E [ E / b q j ` [ ` x =.-.o.< 8 4 w 6 4 X ",
"$ 4 w w 5 - ; & h q j ` ` [ F J , j E [ E Q h q j ` ` ` r 3 3 t & 4 w w 7 4 X ",
"$ > w 7 5 8 4 q h q j ` [ ` F J , j / ` K / j & j [ ` ` j h 9 h ; - 7 8 7 > X ",
"$ 4 w p A w 5 & = q j ` [ ` F J 9 j / ` / / c q j ` ` ` j j 9 j & @ w w 7 4 X ",
"$ > w p p 5 4 & h q j ` ` ` F J 9 j / [ / / j q j ` ` ` j j & j & - w w 7 - X ",
"1.w w w w - 4 & h & h [ [ ` N m , j K [ E / c q j ` ` ` j j , j ; - w w 7 > X ",
"1.w w w w ; 5 & h 0 e / E E v G q j E [ E / h q j ` [ ` j j 9 j & - w w 7 > X ",
"1.w w w w - 5 & c e G ) ' ' P K 9 j K [ E / c q j ` ` ` j j , j & 4 w w 8 7 X ",
"1.p w w w - 5 & h q n ] ] ] J J 9 j E [ / / c q j ` [ [ j j 9 j ; 4 w w 8 4 . ",
"1.w w w w - 4 & h & j ` ] ` F K , j E [ E / j q j ` [ [ j j 9 j & 4 w w w 4 . ",
"1.; 8 w w - 5 & a & j ` ` ` H J 9 j E [ E / c q j ` [ ` b P ) L p p w w w > . ",
"1.- 7 w w - 5 & a & j ] [ ` N J 9 n ( [ / _ m L |  . . .| ] ' m 7 A w w w 4 . ",
"1.$ 7 7 7 4 ; q a w b [ } } ( _ L ) | | |  .| ] E E E E E n & & 4 w w w 5 4 . ",
"1.$ 7 4 4 6 $ Z ' ) ' | } } } } [ ' H G H H H b 9 9 q 9 q , # % 4 w w w - > . ",
"1.$ 5 5 4 7 > 4 ( ' _ ( h b b j b k & 9 , 9 : : , n j n , 9 % : 5 w w w - 4 . ",
"1.$ 7 5 4 8 - > q a q q q q , 5 % , b J n n : # h [ ` ` j j 9 & 4 w w w 6 $ 1.",
"1.$ 5 7 > 6 ; > : $ , c / ( n v O 9 E [ E E k & j ` ` ` j j 9 & 5 w 5 7 6 $ 1.",
"1.$ 7 w > 5 > - : % a _ ` ` F K 9 j E [ E / b q j [ [ ` j j 9 & > w > 5 7 - 1.",
"1.$ > w > 7 > - e q j ` [ ` n F 9 j E ` E / b q j ` ` ` j j 9 & 5 w 4 6 6 $ 1.",
"1.1.- w 7 8 5 $ * q j ` ` ` N F 9 j E ` E / h q j ` [ ` j j ; q 4 w 4 4 ; - 1.",
"1.1.- 8 ; 7 > $ = q j ` [ ` N H 9 j K ` E j h 9 j ` ` N h 9 o ; 4 w > 4 $ $ 1.",
"1.1.- w ; 7 $ $ = q j ` ` [ j j : j h K E j 9 O 9 n F n 9 O o O 4 6 7 4 $ $ 1.",
"1.1.$ 5 $ 5 $ $ & & j J K _ j * O 9 h j j & + o O + # # + o o O 4 ; 8 ; $ $ 1.",
"1.1.$ $ $ , $ $ % + & h h h 9 # o o o o O o o o o O o O o o o @ $ - 4 $ $ o 1.",
"1.1.@ $ O # + O o o + : # # o o o o o o o o o o @ @ + + O @ @ o @ ; ; O O o 1.",
"1.1.o o o O o o o o o o o o o o o o o o o o o o o o o o o o o o o - @ o o o 1."
};
