/* XPM */
static char *door_1[] = {
/* columns rows colors chars-per-pixel */
"39 64 110 2",
"   c black",
".  c #201811",
"X  c #291D13",
"o  c #635142",
"O  c #6C5542",
"+  c #6E5844",
"@  c #725741",
"#  c #745B43",
"$  c #7C5B41",
"%  c #766144",
"&  c #7B6143",
"*  c #9A753F",
"=  c #9C783F",
"-  c #A37D3F",
";  c #815E42",
":  c #856143",
">  c #866A41",
",  c #8B6544",
"<  c #8C6943",
"1  c #856650",
"2  c #8B6D55",
"3  c #8A6D5A",
"4  c #8B7349",
"5  c #8D715F",
"6  c #906745",
"7  c #936B46",
"8  c #966C49",
"9  c #996D47",
"0  c #9A6E48",
"q  c #947043",
"w  c #96754B",
"e  c #997542",
"r  c #9D7149",
"t  c #9E7842",
"y  c #9C7B4A",
"u  c #967551",
"i  c #91735C",
"p  c #9B7C5D",
"a  c #857066",
"s  c #967B67",
"d  c #A3754C",
"f  c #A47D40",
"g  c #A9794F",
"h  c #AD7C51",
"j  c #B17F54",
"k  c #A7803F",
"l  c #AB833F",
"z  c #9E836E",
"x  c #9A857D",
"c  c #A68142",
"v  c #A5834A",
"b  c #A98241",
"n  c #AF8842",
"m  c #AD8C4C",
"M  c #AD8C53",
"N  c #B28B43",
"B  c #B18C4A",
"V  c #B58255",
"C  c #B38258",
"Z  c #B88457",
"A  c #BA8658",
"S  c #BE885A",
"D  c #B69046",
"F  c #B6944C",
"G  c #B89347",
"H  c #BB974A",
"J  c #BD9A4C",
"K  c #B69551",
"L  c #B79A52",
"P  c #B89750",
"I  c #BB9951",
"U  c #BA9C58",
"Y  c #A48664",
"T  c #A78964",
"R  c #A08670",
"E  c #B0936B",
"W  c #BB9961",
"Q  c #C38C5D",
"!  c #C19E4E",
"~  c #C7905F",
"^  c #C8905F",
"/  c #CD9362",
"(  c #D09664",
")  c #C3A14F",
"_  c #C5A455",
"`  c #C3A55D",
"'  c #C8A652",
"]  c #CEAD57",
"[  c #CAAC5C",
"{  c #CFB15E",
"}  c #D0B159",
"|  c #CFB363",
" . c #D3B662",
".. c #D6BA64",
"X. c #D8BE68",
"o. c #A38C85",
"O. c #A69187",
"+. c #AB958B",
"@. c #B29E94",
"#. c #B5A49D",
"$. c #BCAA9F",
"%. c #D2BB98",
"&. c #C2AFA0",
"*. c #C6B4A9",
"=. c #CAB9AD",
"-. c #CDBEB2",
";. c #D0BEAA",
":. c #D2C0B3",
">. c #DBCCBD",
",. c None",
/* pixels */
",.,.,.,.,.,.,.,.,.,.,.( ( ( ( ( ( ( ( ( ( ( ( Q d r r r ,.,.,.,.,.,.,.,.,.,.,.",
",.,.,.,.,.,.,.,.,.( ( ( ( ( ( ( ( ( ( ( ( ( ( ( S V V d r 0 ,.,.,.,.,.,.,.,.,.",
",.,.,.,.,.( ( ( ( ( ( ( ( ( ( ( / / ( ( ( ( ( / ( ( ( ~ V d d d d r ,.,.,.,.,.",
",.,.,.,.( ( ( ( ( ( ( ( ( Q Q Q ( ^ ( / ( ( j V ( ( ( / ( ( / Q d 0 r ,.,.,.,.",
",.,.,.( ( ( ( ( / / S Z V Z Z Z / Q / / ( ( ( Q V V Q / ^ V / / Q d r 0 ,.,.,.",
",.,.( ( ( ( ( / j g d Q Q / ( ( / / ( / / / ^ A ~ d d g ^ Q / g S Q V d r ,.,.",
",.( ( ( ( / A h / / / ( Q Q Q Q A g g d d 0 d Q Q ~ h 6 9 j Q / Z g h Q g r ,.",
"( ( ( ( ( / Q / ( ( A V g r r 0 d V j d r r r r 0 j V V d , 0 j ~ ^ A d j r X ",
"( ( ( ( ( ( / / g g d 0 0 r ; : : r r r r r 0 r 6 0 0 d j r ; 7 9 g / ^ 0 6 0 ",
"( ( ( ( ~ A r d r 0 7 : 7 0 r r r 7 7 7 7 7 8 r 0 : : 6 8 0 , : , : 7 V ^ 8 6 ",
"( ( ( j d r 0 0 , , 6 r r r , , , O O O O O + : , 0 0 8 6 , 0 r : : $ 7 ^ d ; ",
"( ( h r r r 9 ; 9 9 0 7 ; ; o o o o o o o O o O e ; ; 8 8 8 , h g r 0 V g 0 ; ",
"^ h r r 9 6 6 0 7 : @ > $ @ # o o > q < > q % > 7 < < : ; , , , 9 A Q g 9 : $ ",
"h r r 9 ; 6 9 : O o > e 7 > q % O B < < < * m > B < < < e v # : ; 0 r 6 : $ $ ",
"6 0 9 ; , 8 : e # 4 y < < < < t % L < 7 e b P > n [ | [ J n % t : : , : : ; C ",
"Q r 0 0 u < < q L 4 m < e t l J % N K I J J c e c } ..] l b e F , d Q Q ( ( Q ",
"C ( A ( Q 7 f G B q D ` [ [ J N < l _ X.] N - * l } X.} l l e L , , d 9 h j d ",
"d d , d 0 , ..I - e l } ..{ G G q l J X.J ) c e N } { } l l q G v ; r , 0 r r ",
"0 0 ; 0 r , } G - e N } ..] G H * l J X.J ) c e l } { ] l l e l ' 6 r ; r r r ",
"0 d ; d r , } G c e b } ..] D G q l ) X.) ) l e l } X.] l l q l ! < 0 9 r r d ",
"9 0 ; 0 r < ] G - e l } } } l l * l ) X.) N k e l } { } l l q l _ < r 9 0 d 0 ",
"; d : d r , { G c e l } X.} G H * l ) X.J H c e l } X.} l l q l J < d : 0 0 0 ",
": r : 0 r < ] G - t N } } } G H < - J X.J H k e l { } ] l l q c ! < 0 : 0 d 0 ",
": r : r r < ' G - e N } } } G H q l ) { ) ) c e l } ..] l - q l _ , 0 : 0 0 d ",
"; r : r g r y G - e l ] } } G H q l J } ) ) c y t { ] ] c v q l ! , 0 : 0 0 7 ",
": r ; g V r y G - e l { } } G H q l _ } ) ) - f L D D G f G q l J , d : 0 d ; ",
", r 0 r r 9 y G - e l } { } G H q l ) ] J ) l e l X.X...J l q l G < 9 : r r ; ",
"; r ; r r 9 y G - e l } } ] G H q l ) ] ) ) c e l ] ] ] l l q l 7 r w ; 7 r : ",
"; r : r r 9 y G - t l ] } ] N H q l ) ] ) ) c e l ] } ] l l q l * 0 j A 9 r ; ",
"r r : r r 9 y G - t l ] } ] G H q l ) } J ) c e l ] } ] l l q l , 0 0 r r r ; ",
"r r , r r 0 d G - e l ] } ] G H q l ) ] ) ) - t l ] } ] l l e l * 6 r r r r , ",
"r r 9 r r 9 t G - t l ] } ] G H q l J ] ) ) l e l ] ] ] l l q l 6 7 7 9 r r ; ",
"r r 0 0 0 0 y G k y l ] } ] D J q b J } J _ b t l ] { ] m W Y M , 0 6 * 0 0 X ",
"r r d d d w y [ _ U _ .... .] { U _ } ..} { ` U _ ......%.>.-.#.3 9 , 9 0 0 X ",
"r r 0 0 0 0 y } ] { { { } } } { } } {  .} } { } } } { { >.@.o.o.3 7 : r 0 0 X ",
"; , d 0 0 0 > f - - - - - - = k f f f f f f f f f f f f @.+.$.M , 9 , d 0 6 X ",
"$ , r r r 9 * 7 > & , y = = 7 q & , q t q e < & 6 t t t *.$.=.&.2 0 r r 0 , X ",
"$ , r r r 9 < n > # t _ ' ' n v + q L ' G J > # t _ ' ` :.a x -.R 7 6 r 8 , X ",
"; , r r r 7 $ * f e l ] } ] D H q l J } ) ) l e l ] ] } *.5 @ +.s r 6 r 7 , X ",
"$ , r r 7 ; : * c e l ] } ] D H q l ! { J _ c t l ] ] { +.Y > E s 6 r r 9 , X ",
"$ , r 9 6 9 7 * k e k ] ] ] D H q l ) ] ) ) l e l ] } ] R +.p ;.s ; 0 0 9 ; X ",
"; , r d V d 6 * f e l ] } ] D H q l ) ] J ) l e l } } ] w #.=.+.2 ; 0 d 9 6 X ",
"$ 6 r d d 6 7 * k e l ] } } D J 7 l ) ] J _ c e l } } ] - w i u , ; r r 9 ; X ",
",.0 r r 0 ; 6 * k e l ] ] ] D H * - ) ] ) ! l e l } } ] l l 7 - 6 ; r r r ; X ",
",.r r r d ; 7 - c w t ] ] ] n m q l ) ] ) ) l e l ] } ] l l q l * ; r r 7 ; X ",
",.r r r r ; 6 * c t F H H G v L e l ) ] J ) l e l } } ] l l q l * 9 r r r r X ",
",.d r r r ; 6 * - e n  . . ._ J 7 l ) ] J ) v * l ] ] ] l l q l : 7 r r r 6 . ",
",.r r r r ; 6 * k t l ] { ] D H q l ) ] ) ) c e l ] ] ] l l q l * 6 r r r 6 . ",
",.: 0 0 r ; 6 * - e l ] ] ] D ! q l ) ] ! ) c e l ] } ] b l e = d r r r 0 6 . ",
",.; 9 d d ; 6 * - e l } } ] D G q b ! { ! ) c e l } ] ] l l q e 9 Q r r 0 6 . ",
",.$ 9 9 9 , , e l e l } ] } D ! q b J } ! _ c e l ] ] ] l l q = 6 r r r 9 6 . ",
",.$ 9 6 6 0 $ M [ ` [ ......{ { ` [  ...} ..[ [ [ ..X.X.[ [ ` M 6 r 0 0 ; 6 . ",
",.$ 9 7 6 9 : 6 _ ] ' ] ] ' ] ' ] ] ' ] ' ] ] ] ] ] ] ' ] ' ] m 6 r r r ; 6 . ",
",.$ 7 7 6 9 , ; e t t t e f = d t t t t t t e t - e t t t t = 7 7 r r r 7 $ ,.",
",.$ 7 9 , 8 : , > # < t - = 7 q # < e f e e < % , - - t < < # : 7 0 7 7 9 ; ,.",
",.$ 9 r , 7 , : , % f ' ] ] N m # e J ] J J < % t ] ' ] c e # < 7 0 6 7 9 ; ,.",
",.$ , r : 9 , ; f e l ] } ] G H q l J { ) ) c e l ] } ] l l q * 6 0 6 6 9 ; ,.",
",.,.; r 0 0 7 $ t e l ] } ] N l q l ) ] J ) l e l ] } ] l l q * 7 r 6 7 ; ; ,.",
",.,.$ r , 9 , $ - e - ] } ] G G q l ) ] ) ) - e l } ] ] l l q * 7 r 6 6 $ $ ,.",
",.,.; 0 , 7 $ $ - e l ] } } l G q l J ] ) G l * l ] ] ] l l q * 6 7 7 6 $ $ ,.",
",.,.$ 9 $ 7 $ $ = > k G } } l l * - l ] ) - = * l ] ] J l l & * 6 : r : $ $ ,.",
",.,.$ $ $ < $ $ & # e - G ! - * # * k n H - > ; = J H N - 7 @ : $ ; 6 $ $ o ,.",
",.,.@ $ O # @ # o @ o * * & * O o + # * * # o O + % * & # # O o @ : : o O o ,.",
",.,.o o o O o o o o o o o o o o o o o o o o o o o o o o o o o o o ; @ o o o ,."
};
