/* XPM */
static char *door_4[] = {
/* columns rows colors chars-per-pixel */
"39 64 96 2",
"   c black",
".  c #201811",
"X  c #291D13",
"o  c #625142",
"O  c #6C5542",
"+  c #725741",
"@  c #755941",
"#  c #7B5B41",
"$  c #776246",
"%  c #7D6243",
"&  c #9A753F",
"*  c #A67F3F",
"=  c #815E42",
"-  c #846243",
";  c #8C6544",
":  c #8D6B42",
">  c #826D58",
",  c #906745",
"<  c #936B46",
"1  c #966C49",
"2  c #996D47",
"3  c #9A6E48",
"4  c #947043",
"5  c #9B7642",
"6  c #9D7149",
"7  c #9E7941",
"8  c #9B7A4B",
"9  c #927151",
"0  c #9A7C5A",
"q  c #957F6C",
"w  c #A3754C",
"e  c #A27C41",
"r  c #A9794F",
"t  c #AD7C51",
"y  c #B17F54",
"u  c #AC843F",
"i  c #96817A",
"p  c #99837B",
"a  c #A68145",
"s  c #A4834C",
"d  c #AB8442",
"f  c #AE8844",
"g  c #AD8A4B",
"h  c #A2835C",
"j  c #AF8F51",
"k  c #B28C43",
"l  c #B28F4A",
"z  c #B58255",
"x  c #B38258",
"c  c #B88457",
"v  c #BA8658",
"b  c #BE885A",
"n  c #B69046",
"m  c #B69149",
"M  c #B89247",
"N  c #BB974A",
"B  c #BE9A4D",
"V  c #B39453",
"C  c #B89650",
"Z  c #BF9D51",
"A  c #BC9E5A",
"S  c #A08870",
"D  c #A68D7F",
"F  c #B7996B",
"G  c #B69C74",
"H  c #C38C5D",
"J  c #C19E4E",
"K  c #C7905F",
"L  c #C09F54",
"P  c #C8905F",
"I  c #CD9362",
"U  c #D09664",
"Y  c #C3A14F",
"T  c #C6A453",
"R  c #C3A45A",
"E  c #C7A95B",
"W  c #C9A753",
"Q  c #CBAA55",
"!  c #CCAD5A",
"~  c #CDB05E",
"^  c #D0B058",
"/  c #CBAE60",
"(  c #D3B661",
")  c #D5B962",
"_  c #9E8D82",
"`  c #A6968C",
"'  c #B09B8F",
"]  c #B2A193",
"[  c #B4A198",
"{  c #C1AD8A",
"}  c #C6B5A6",
"|  c #C3B3A8",
" . c #C9B7AC",
".. c #C9B8AC",
"X. c #CCBCB0",
"o. c None",
/* pixels */
"o.o.o.o.o.o.o.o.o.o.o.U U U U U U U U U U U U b 6 6 6 6 o.o.o.o.o.o.o.o.o.o.o.",
"o.o.o.o.o.o.o.o.o.U U U U U U U U U U U U U U U H z z r 6 6 o.o.o.o.o.o.o.o.o.",
"o.o.o.o.o.U U U U U U U U U U U I U U U U U U U U U I K v 6 6 6 6 6 o.o.o.o.o.",
"o.o.o.o.U U U U U U U U U H H H I K U U U U t z I U U U U U U H w 6 6 o.o.o.o.",
"o.o.o.U U U U U I I b c z c c c I b U U I I U H z z H U K z I I H 6 6 6 o.o.o.",
"o.o.U U U U U I y r w H H I U U I I I I I I I v I 6 w r P K P t H H z 6 6 o.o.",
"o.U U U U I v t I I I U H H H H b t z 6 6 6 r b b K t ; < t H U v r t b t 6 o.",
"U U U U U I H I U U v z r 6 6 3 6 z z 6 6 6 6 6 6 z z z w ; 3 z K I v r t 6 X ",
"U U U I U I I I r r w 2 3 6 - = - 6 6 6 6 6 6 6 ; 6 3 r t 6 - , 1 r I K 3 , 3 ",
"U U U I K v 6 6 6 3 < - < 3 6 6 6 ; < < , < < 6 6 - - , 1 6 ; - ; ; < t P 1 , ",
"U U I z r 6 6 6 ; ; , 6 3 w ; ; ; 4 4 g V 7 - ; ; 3 6 , ; ; 3 6 - ; # , P w = ",
"U I r 6 6 6 , - 2 2 2 2 = - T E d 7 & ! ) M 4 C g - # 1 2 1 ; r w 6 6 c r 3 = ",
"I r w 6 1 ; , 6 < : 8 7 7 * ^ ( n & & Q ~ M 4 N k - o O + - , ; 2 v b r 3 - # ",
"y 6 6 < - ; 1 ; - w ( M 7 * ( ) f * * Q ^ M 4 N M - o o o o + - - 3 6 , - # # ",
", 3 2 = ; < - j 4 B ^ u 7 e ^ ) n & & ! ^ B 5 N n % o o o o o o + - ; - ; = x ",
"H 9 6 3 6 ; a B 4 B ^ d 7 e ( ) n 7 5 B B Y < B n - o o o o o o o 6 H H I U H ",
"c U c U b < k k 4 N ! u & u ^ ^ M u s E ~ N 4 N M % o o o o o o o = w 2 y y w ",
"w w ; w 3 , T u 4 N ^ u & * ^ ^ f 5 * ! ! M 4 N M % o o o o o o o = 6 ; 3 w 3 ",
"3 3 = w 3 ; J u 4 N ^ u 5 7 ~ ^ n & & Q ^ M 4 N n % o o o o o o o = 6 = 3 6 3 ",
"3 w - 3 6 ; J u & N ^ u 5 * ! ^ f * e Q ^ M < N ~ % o o o o o o o # 3 2 6 6 w ",
"2 w - 6 6 ; Y u 4 N ! u & * Q ^ f u * Q ^ M 5 R ! % o o o o o o o # 3 3 3 w 3 ",
"= 3 - 6 6 ; B u 4 N ^ u & u ^ ^ f & & Q ^ f S G a % o o o o o o o = w - 3 3 3 ",
"= w - 3 6 : Y u 4 m ! u & * ^ ^ n & & Q ^ G D 8 a % o o o o o o o = 3 = 3 w 3 ",
"= 3 - 6 6 : m u & N ! u 5 * ^ ^ f u * ^ ) ] | } F $ o o o o o o o = 3 ; 3 3 w ",
"- 6 = w r 6 & * & J Q * 5 u Q ! f & g ) ~ h ..] ..S o o o o o o o # 3 = 3 3 2 ",
"- 6 - r y 3 ; * & n ^ * 5 7 ~ ! n ~ ~ N a 7 ' ] p } o o o o o o o = w - 3 w = ",
"- 6 2 6 6 3 & * & J ^ u 5 u ^ ^ ) W m 4 7 d > _ i ` o o o o o o o = 3 - 3 3 = ",
"= 6 - 6 3 & = * & J ^ u 5 a ) ) B 5 4 m Y m h ....i o o o o o o + 3 3 = 2 3 ; ",
"- 6 - 6 6 3 & * ; n ^ f N / W n 5 % : W ! M 9 [ F % o o o o o o @ 3 y c 2 w = ",
"6 6 = 6 6 3 & * & J ^ L ( T * < 4 - & Q ! M : 7 u - o o o o o o + 3 3 6 3 3 = ",
"6 6 - 6 6 3 & * ; J ( ^ f 5 a B f a & Q ^ M & f f % o o o o o o + 3 3 w 3 w ; ",
"6 6 2 6 6 3 ; * 3 ^ B d - - l ! n & * W ^ M 4 M M - o o o o o o + 3 < 3 3 3 = ",
"6 6 6 6 6 1 4 N ) m 5 : + & n ^ f u & Q ! M 4 N m % o o o o o o + 3 , < 3 3 X ",
"6 6 6 6 6 1 s ~ m 5 m & : * n ^ f & * Q ^ M 4 N m $ o o o o o o + 2 , 3 3 w X ",
"6 6 6 6 6 4 < n 5 m ! u & u n ^ u u & ^ ^ M 4 M f - o o o o o o + < ; 3 6 6 X ",
"# ; 6 6 6 6 # ; @ m ^ u 5 & n ^ n 7 & Q ! M 4 u u % o o o o o o + < , 3 < , X ",
"# , 6 6 6 2 & - % N ! u 5 * m ^ f * & Q ! M & u u % o o o o o o + 3 6 6 2 = X ",
"# ; 6 6 w 4 & & 4 B ^ u 5 * f ! n & & Q ^ M 4 u u - o o o o o o + < , 6 < , X ",
"# ; 6 6 6 , # & 4 N ^ u & & n ^ n & & ^ ^ M 4 E l - o o o o o o + < , 6 2 , X ",
"# , 6 6 < = - & 4 N ^ u & * n ^ f u & Q ^ M A W 8 % o o o o o o + ; w 3 < , X ",
"# ; 6 2 , 2 , & 4 N ! a : * n ^ n & e Q ^ ^ ! a 7 % o o o o o o + = 6 6 2 ; X ",
"# , 6 w c w , & 4 B W & 5 * M ^ f * & ~ ) Q 5 5 d $ o o o o o o + = 6 6 < ; X ",
"# ; w w r , , & : a W u 5 & n ^ n & j ^ Q a % a 7 o o o o o o o + = 6 6 2 ; X ",
"o.6 3 6 3 = < & 4 B ~ u 5 * n ! M ) ~ m a : @ u 4 o o o o o o o + = 6 6 2 ; X ",
"o.6 6 6 6 - , & 4 M ! u 5 u Y ~ ) Y f 4 a f 4 u 4 o o o o o o o + = 6 6 2 ; X ",
"o.6 6 6 6 - , & & N ^ u 5 a ) ) B 5 : m T n 4 u 4 o o o o o o o + 6 6 6 2 2 X ",
"o.w 6 6 6 - , & 4 N ^ u Z ( T d 4 $ & W ! n 4 u 4 o o o o o o o + 2 6 6 6 , . ",
"o.6 6 6 6 - < & 4 B ~ L ~ Z 5 4 5 : & Q ! n 4 * % o o o o o o o + 6 6 6 6 ; . ",
"o.- 3 w w = < & < J ) ~ d 4 f T f * e Q ^ M 4 & O o o o o o o O 3 w 6 6 3 , . ",
"o.# 2 3 3 = < & s ^ m e # - Q ~ f e & W Q n : @ o o o o o o o o < c 6 6 3 ; . ",
"o.# 2 2 2 ; ; s ( g 7 ; @ & ! ^ k & & k J * @ o o o o o o o o O , 3 6 6 2 , . ",
"o.# < < , 3 # C l 5 m e 4 * ^ ^ k e e u k : o o o o o o o o o O , w 3 w = ; . ",
"o.# < < , 2 = , 4 N ^ u & * W ~ f & & < = o o o o o o o o o o o , w 3 3 = , . ",
"o.# 2 < , 3 ; - $ ^ ^ u 5 * n ! * & # o o o o o o o o o o o o O , 3 6 w < # o.",
"o.# 2 3 ; 2 - ; : ! ^ u 7 & u Y u O o o o o o o o o o o o o o O < 6 < 2 2 # o.",
"o.# 2 3 - 2 ; = 4 ^ ^ u 5 & u u + o o o O O O o o o o o o o o O , 3 , < 2 = o.",
"o.# & 6 ; 2 ; = 4 W ^ u : @ % o O O + # # # + = # + O o o o o O , 6 , < < # o.",
"o.o.+ 6 2 3 , # : M ^ u $ o o + # # # # # + O O O # + + o o o O < 6 , < = # o.",
"o.o.# w ; 2 ; # : u d % o o % # # # # + + + # + + # + @ + O o O , 6 , < # # o.",
"o.o.# 3 ; , # # O a % o + @ # # # = + O O + # = # @ + O O O O O , < < , # = o.",
"o.o.= < # < # # o & o o O o O + # # # = # = # # # # + O O o o O < = 3 - # # o.",
"o.o.# # # ; # # o O O # # # # # # = + + + + # # # # # # @ o O O # = < # @ o o.",
"o.o.+ # O @ + o o O + O O O O + + O o o o o o O + O O O O + O O + - - O O o o.",
"o.o.o O o O o o o o o o o o o o o o o o o o o o o o o o o o o o o = + o o o o."
};
