/* XPM */
static char *door_7[] = {
/* columns rows colors chars-per-pixel */
"39 64 238 2",
"   c black",
".  c #201811",
"X  c #221811",
"o  c #291D13",
"O  c #625142",
"+  c #625143",
"@  c #635144",
"#  c #645142",
"$  c #645242",
"%  c #655242",
"&  c #665242",
"*  c #675342",
"=  c #675548",
"-  c #685342",
";  c #695342",
":  c #695442",
">  c #6A5442",
",  c #6B5442",
"<  c #6C5542",
"1  c #6D5542",
"2  c #6E5542",
"3  c #6F5641",
"4  c #6F5642",
"5  c #705641",
"6  c #715741",
"7  c #725741",
"8  c #735741",
"9  c #745741",
"0  c #725842",
"q  c #725943",
"w  c #745841",
"e  c #755841",
"r  c #765841",
"t  c #775941",
"y  c #755D42",
"u  c #775E42",
"i  c #785941",
"p  c #7A5A41",
"a  c #7B5A41",
"s  c #7C5B41",
"d  c #7D5B41",
"f  c #7D5C41",
"g  c #7E5C41",
"h  c #7F5D41",
"j  c #7E5D42",
"k  c #7F5D42",
"l  c #7F5E42",
"z  c #796042",
"x  c #7C6341",
"c  c #7B675C",
"v  c #805D42",
"b  c #815E42",
"n  c #825F42",
"m  c #826043",
"M  c #846042",
"N  c #846043",
"B  c #856143",
"V  c #846243",
"C  c #866143",
"Z  c #866243",
"A  c #876243",
"S  c #846144",
"D  c #856145",
"F  c #876245",
"G  c #876344",
"H  c #856E48",
"J  c #886243",
"K  c #886343",
"L  c #886344",
"P  c #896344",
"I  c #886541",
"U  c #8A6740",
"Y  c #896444",
"T  c #8A6444",
"R  c #8B6444",
"E  c #8B6544",
"W  c #8A6446",
"Q  c #8A6744",
"!  c #8C6544",
"~  c #8D6645",
"^  c #8D6745",
"/  c #8E6645",
"(  c #8E6745",
")  c #8F6745",
"_  c #8E6746",
"`  c #8F6746",
"'  c #8B6846",
"]  c #8D6945",
"[  c #89734A",
"{  c #8A734B",
"}  c #8A744C",
"|  c #8B764E",
" . c #8B764F",
".. c #906745",
"X. c #906845",
"o. c #916845",
"O. c #916946",
"+. c #926946",
"@. c #936946",
"#. c #926B45",
"$. c #936A46",
"%. c #946A46",
"&. c #946B46",
"*. c #946B47",
"=. c #956B46",
"-. c #956B47",
";. c #966B47",
":. c #966C47",
">. c #976C47",
",. c #976D47",
"<. c #956C48",
"1. c #966C49",
"2. c #986D47",
"3. c #996D47",
"4. c #996E47",
"5. c #986D48",
"6. c #986E49",
"7. c #996E48",
"8. c #9A6E48",
"9. c #9A6F49",
"0. c #9B6F48",
"q. c #9A6F4C",
"w. c #9C6F48",
"e. c #9C6F49",
"r. c #977342",
"t. c #977647",
"y. c #9B704A",
"u. c #99704E",
"i. c #9B704E",
"p. c #9B714E",
"a. c #9C7048",
"s. c #9C7049",
"d. c #9D7048",
"f. c #9D7049",
"g. c #9D704A",
"h. c #9D714A",
"j. c #9E7149",
"k. c #9F7149",
"l. c #9F7249",
"z. c #9F724A",
"x. c #9C714D",
"c. c #9B7B49",
"v. c #9C7C4B",
"b. c #9E7E4D",
"n. c #947D76",
"m. c #A0724A",
"M. c #A0734A",
"N. c #A1734A",
"B. c #A2744B",
"V. c #A3744B",
"C. c #A3754B",
"Z. c #A2744D",
"A. c #A3754C",
"S. c #A2754F",
"D. c #A4754C",
"F. c #A5764D",
"G. c #A6764D",
"H. c #A6774D",
"J. c #A6774F",
"K. c #A7774E",
"L. c #A8784E",
"P. c #A8794F",
"I. c #A9794F",
"U. c #AA7A4F",
"Y. c #AA7A50",
"T. c #AB7A50",
"R. c #AC7B50",
"E. c #AD7C51",
"W. c #AC7C52",
"Q. c #AD7C52",
"!. c #AE7C51",
"~. c #AE7D51",
"^. c #AE7D52",
"/. c #AF7E52",
"(. c #B07E53",
"). c #B17F54",
"_. c #AC843F",
"`. c #97827B",
"'. c #B28054",
"]. c #B38154",
"[. c #B48154",
"{. c #B48155",
"}. c #B58255",
"|. c #B68256",
" X c #B68357",
".X c #B78356",
"XX c #B78456",
"oX c #B38258",
"OX c #B88457",
"+X c #B98557",
"@X c #B98558",
"#X c #B8855A",
"$X c #BA8558",
"%X c #BA8658",
"&X c #BB8659",
"*X c #BB8759",
"=X c #BC8759",
"-X c #BD8859",
";X c #BD885A",
":X c #BE895A",
">X c #BF895A",
",X c #BF895B",
"<X c #AB906D",
"1X c #AE926F",
"2X c #B79E7A",
"3X c #C08A5B",
"4X c #C18B5C",
"5X c #C28B5C",
"6X c #C28C5C",
"7X c #C38C5D",
"8X c #C28C5E",
"9X c #C48D5D",
"0X c #C58D5E",
"qX c #C58E5E",
"wX c #C68E5E",
"eX c #C68F5F",
"rX c #C78F5F",
"tX c #C7905F",
"yX c #C8905F",
"uX c #C99160",
"iX c #CA9161",
"pX c #CA9261",
"aX c #CB9261",
"sX c #CC9361",
"dX c #CC9362",
"fX c #CD9462",
"gX c #CE9463",
"hX c #CE9563",
"jX c #CF9563",
"kX c #D09664",
"lX c #C6A655",
"zX c #D0B058",
"xX c #D4B965",
"cX c #A8988F",
"vX c #AA9A91",
"bX c #BEA783",
"nX c #C2AD88",
"mX c None",
/* pixels */
"mXmXmXmXmXmXmXmXmXmXmXkXkXkXkXkXkXkXkXkXkXkXkX*XV.j.j.j.mXmXmXmXmXmXmXmXmXmXmX",
"mXmXmXmXmXmXmXmXmXkXkXkXkXkXkXkXkXjXkXkXkXkXkXkX*X+X+XA.j.j.mXmXmXmXmXmXmXmXmX",
"mXmXmXmXmXkXkXkXkXkXkXkXkXkXkXkXjXjXkXkXkXkXjXjXkXkXkXtX+XN.j.j.j.j.mXmXmXmXmX",
"mXmXmXmXkXkXkXkXkXkXkXkXkXqX6X6XfXtXkXkXkXkXE. XfXkXkXkXkXkXkX6XV.j.j.mXmXmXmX",
"mXmXmXkXkXkXkXkXkXkX&X}.}.XXXXXXyX6XkXkXkXjXkXqX}.}.6XkXyX}.fXkX6XN.j.j.mXmXmX",
"mXmXkXkXkXkXfXfXE.U.V.qXqXfXkXkXkXjXfXfXfXfXtX+XyXj.V.U.yXqXyXU.,X6X}.M.j.mXmX",
"mXkXkXkXkXfX+XE.fXkXkXkXyX4X4X4X*XE.E.j.j.j.V.6X6XtXE.^ $.E.6XjX+XU.E.4XY.j.mX",
"kXkXkXkXkXfX6XkXkXkX&X}.I.j.j.j.j.}.}.N.j.j.j.j.j.].]. XS.E j.}.qXfX+XI.E.j.o ",
"kXkXkXkXkXjXaXfXU.K.N.j.j.j.Z n Z j.j.M.j.j.j.j.E 0.j.A.(.p.Z X.3.U.jXtXj.` j.",
"kXkXkXkXqX*Xj.j.j.3.X.Z X.j.j.j.j.X.$.X.$.X.:.j.j.Z Z X.:.j.P S P P X.].yX1.E ",
"kXkXfX].K.j.j.j.E E X.j.j.j.P P S < < > < < 6 P P j.j.$.E P j.p.Z A p @.yXA.b ",
"kXfXE.j.j.j.X.Z :.3.3.:.j j & & & O O + O O & & & j j :.,.,.P E.A.p.j. XA.e.n ",
"yXE.j.j.,.X.X.j.X.S 6 < O O O O + + + + + + + + O O O < 6 S X.P 3.+X,XJ.3.P s ",
"E.j.j.3.n ^ :.P 6 & O + O O O O + + + + + + + + O O O O O & < Z S j.j.@.S s s ",
"^ 3.3.j P :.S q O O + + + + O O + + + + + + + + O O O O O O O O 6 m W S S S oX",
"qXp.p.p.p.^ r.y O O + + + O O O + + + + + + O O O O O O O O O + + j.qX6XkXkXqX",
"+XkX+XkX*XX._.x + + + + + + + + + + + + + + + + + + + + + + + + + P A.*.E.(.V.",
"j.V.P A.M.' xX| + + + + + + + + + + + + + + + + + + + + + + + + + j M.Z e.j.j.",
"j.j.S j.d.' zX{ + + + + + + + + + + + + + + + + + + + + + + + + + s j.Z e.j.j.",
"j.j.Z j.d.' zX{ + + + + + + + + + + + + + + + + + + + + + + + + O j M.$.j.j.j.",
",.d.Z d.d.Q zX[ + + + + + + + + + + + + + + + + + + + + + + + + O j j.3.j.j.j.",
"Z d.n d.j.Q zX[ + + + + + + + + + + + + + + + + + + + + + + + + O j j.S e.j.j.",
"Z d.Z d.j.Q zX[ + + + + + + + + + + + + + + + + + + + + + + + + O j j.A e.j.j.",
"Z d.Z j.j.^ lX<X= + + + + + + + + + + + + + + + + + + + + + + + O j j.A e.j.j.",
"n d.Z d.U.d.c.2Xc O O O + + + + + + + + + + + + + + + + + + + + O j j.A e.j.$.",
"Z d.n I.}.d.c.nXn.O O O + + + + + + + + + + + + + + + + + + + + O j j.A e.j.Z ",
"Z d.:.j.j.4.c.nXcXO O O + + + + + + + + + + + + + + + + + + + + & n 3.S 4.M.n ",
"Z d.Z j.d.,.c.1XcXO O O + + + + + + + + + + + + + + + + + + + + 6 3.p.b X.4.Z ",
"n d.Z d.d.,.c.<X`.O + + + + + + + + + + + + + + + + + + + + + + 6 j.(.+X,.d.Z ",
"d.d.Z d.j.,.c.{ O O + + + + + + + + + + + + + + + + + + + + + + 6 3.j.M.M.d.n ",
"d.j.Z d.j.4.c.{ O O O O + + + + + + + + + + + + + + + + + + + + 6 3.j.j.j.j.Z ",
"j.j.:.d.j.4.c.{ O O O O + + + + + + + + + + + + + + + + + + + + 6 e.$.;.j.d.n ",
"j.j.j.j.p.1.c.{ + + + + + + + + + + + + + + + + + + + + + + + + 6 3.` $.d.j.o ",
"j.j.j.j.j.1._.| + + + + + + + + + + + + + + + + + + + + + + + + 8 ,.` ,.j.j.o ",
"j.j.j.j.j.3.c.{ + + + + + + + + + + + + + + + + + + + + + + + + 6 $.P 4.d.d.o ",
"u E j.j.j.3.! z + + + + + + + + + + + + + + + + + + + + + + + + 6 ,.` M.;.! o ",
"s E M.e.j.,.I u + + + + + + + + + + + + + + + + + + + + + + + + 9 4.j.j.,.! o ",
"s ` 4.M.M.,.t.H + + + + + + + + + + + + + + + + + + + + + + + + 6 $.X.j.;.! o ",
"s X.M.4.j.$.s < + + + + + + + + + + + + + + + + + + + + + + + + 8 $.X.d.;.! o ",
"s ` j.j.X.b Z - + + + + + + + + + + + + + + + + + + + + + + + + 8 ! j.d.,.! o ",
"s ! j.,.$.,.` < + + + + + + + + + + + + + + + + + + + + + + + + 8 b d.d.,.! o ",
"s X.4.D.XXD.` < + + + + + + + + + + + + + + + + + + + + + + + + 6 b j.d.,.! o ",
"s E M.D.G.X.X.< + + + + + + + + + + + + + + + + + + + + + + + + 8 b j.j.$.! o ",
"mXj.d.d.j.n ` < + + + + + + + + + + + + + + + + + + + + + + + + 6 b j.j.,.! o ",
"mXd.j.j.j.n X.< + + + + + + + + + + + + + + + + + + + + + + + O 6 A d.d.,.! o ",
"mXj.j.j.j.Z X.< + + + + + + + + + + + + + + + + + + + + + + + O 9 4.d.d.4.:.o ",
"mXj.j.j.d.n X.< + + + + + + + + + + + + + + + + + + + + + + O O 8 4.M.M.d.` X ",
"mXj.j.d.d.Z X.< + + + + + + + + + + + + + + + + + + + + + + O O 6 ,.d.d.j.X.. ",
"mXP 3.j.j.Z X.< O O + + + + + + + + + + + + + + + + + + O O + - p.M.j.j.M.E . ",
"mXs ,.j.j.Z X.< O O + + + + + + + + + + + + + + + + + + O O + - *.XXj.j.j.E . ",
"mXs :.,.,.E P > O O O + + + + + + + + + + + + + + + + + O O O > X.j.j.j.$.E . ",
"mXs ,.$.X.,.s < O O + + + + + + + + + + + + + + + + + + O O O < X.j.j.j.Z X.. ",
"mXs ,.X.X.3.A Z O + + + + + + + + + + + O O O O + + + + + + O - X.j.j.j.A E . ",
"mXs :.$.X.e.P A O + + + + + + + O O + + + O O O + + + + + + O < X.M.j.j.:.s mX",
"mXs ,.3.E ,.A A & O + + + + + + O O O O + + O O + + + + + + + > X.j.$.:.:.s mX",
"mXs :.j.P $.P A O O + + + + + + O O O & & & & - & O + + + + + - X.j.X.$.:.s mX",
"mXs E j.I ,.E b O O O O O O < < < < 9 s s s s s s < - O O O O > X.j.X.X.,.s mX",
"mXmXg j.3.j.X.s & O O & 9 9 s s s s j s s 6 > - > p p 6 O O O > X.j.X.$.Z s mX",
"mXmXs j.R 3.E s O O 6 9 9 p s s s s p 9 9 9 p p p p 9 p 9 < - < X.M.X.$.j s mX",
"mXmXb j.P $.s s & < < < < p s s s s 9 < < 6 s s p p < < 6 < < > X.$.:.E s s mX",
"mXmXb $.j $.s s & > > > > > - 9 s s s p s s s s p s 6 > > & O < X.Z j.Z s s mX",
"mXmXs s p ` s p & - & s s s s p s s p 9 9 9 p s s s s p 9 > & > j b E p 9 & mX",
"mXmX6 s < 9 9 & O < < < 6 < < 6 < 6 & O O O O < 6 < < 6 < < < & < P Z > > O mX",
"mXmX+ - & - - O O O O O O O O O O O O O O O O O O O O O O O O O O b 6 & O O mX"
};
