/* XPM */
static char *door_5[] = {
/* columns rows colors chars-per-pixel */
"39 64 105 2",
"   c black",
".  c #201811",
"X  c #291D13",
"o  c #625142",
"O  c #6C5542",
"+  c #6E5943",
"@  c #6D5B4B",
"#  c #725741",
"$  c #755941",
"%  c #7C5B41",
"&  c #7C6242",
"*  c #7A665B",
"=  c #815E42",
"-  c #856143",
";  c #8C6544",
":  c #8B6944",
">  c #897149",
",  c #906745",
"<  c #946A46",
"1  c #966C49",
"2  c #996D47",
"3  c #9A6E48",
"4  c #957244",
"5  c #977548",
"6  c #957A4B",
"7  c #997543",
"8  c #9D7149",
"9  c #9E7941",
"0  c #9B7949",
"q  c #987852",
"w  c #98795B",
"e  c #A3754C",
"r  c #A27C41",
"t  c #A9794F",
"y  c #AD7C51",
"u  c #B17F54",
"i  c #AC843F",
"p  c #9F804F",
"a  c #A68144",
"s  c #A6854A",
"d  c #AB8644",
"f  c #A9874B",
"g  c #AE8946",
"h  c #AB894D",
"j  c #A68852",
"k  c #A88D50",
"l  c #AF9157",
"z  c #A99058",
"x  c #B48E45",
"c  c #B28E4A",
"v  c #B58255",
"b  c #B38258",
"n  c #B88457",
"m  c #BA8658",
"M  c #BE885A",
"N  c #B69046",
"B  c #B2914E",
"V  c #BB964A",
"C  c #BD994B",
"Z  c #B69551",
"A  c #B79952",
"S  c #B79A59",
"D  c #BF9E53",
"F  c #BC9D5A",
"G  c #BA9C66",
"H  c #C38C5D",
"J  c #C19E4E",
"K  c #C7905F",
"L  c #C19F51",
"P  c #C8905F",
"I  c #CD9362",
"U  c #D09664",
"Y  c #C3A253",
"T  c #C5A658",
"R  c #C7A95C",
"E  c #C8A754",
"W  c #CAA954",
"Q  c #CAAB5B",
"!  c #CFB05B",
"~  c #D0B058",
"^  c #C7AB60",
"/  c #CDB162",
"(  c #D2B560",
")  c #D6B964",
"_  c #9F8782",
"`  c #A09087",
"'  c #AC9786",
"]  c #A9968F",
"[  c #AD9992",
"{  c #B29A82",
"}  c #B09E97",
"|  c #B6A28C",
" . c #B3A099",
".. c #BAA590",
"X. c #BCABA1",
"o. c #C1AB96",
"O. c #C7B7AA",
"+. c #C8B9AF",
"@. c #CCBCB0",
"#. c #D1BFB2",
"$. c #D6C3A2",
"%. c #DCC7A4",
"&. c #DCCAAA",
"*. c #D4C3B5",
"=. c None",
/* pixels */
"=.=.=.=.=.=.=.=.=.=.=.U U U U U U U U U U U U H 8 8 8 8 =.=.=.=.=.=.=.=.=.=.=.",
"=.=.=.=.=.=.=.=.=.U U U U U U U U U U U U U U U H u n e 8 8 =.=.=.=.=.=.=.=.=.",
"=.=.=.=.=.U U U U U U U U U U U U U U U U U U U U U U K n 8 8 e e 8 =.=.=.=.=.",
"=.=.=.=.U U U U U U U U U H H H P H U U U U u v P U U U U U U H e 3 e =.=.=.=.",
"=.=.=.U U U U U I I M n v n n n P H U U U U U H v v H U K u P U H e 8 3 =.=.=.",
"=.=.U U U U U I u t e H H I U U U P U U I I K n P e e t P K I t M H v e 8 =.=.",
"=.U U U U I m y I I I U H H H H H t t 8 3 3 t H H K y , 2 y H U n t y H y 8 =.",
"U U U U U I H I U U m v t 8 8 3 e v u e 8 e 3 e 8 u u n e ; 3 u H I m e y 8 X ",
"U U U U U U I I t t e 3 3 8 = - ; 8 8 8 8 8 3 3 ; 2 3 e u 8 = 1 2 y I K 3 , 3 ",
"U U U I K m 3 8 8 3 < - < 8 8 8 3 , , 1 1 : < 3 3 - ; , 1 3 ; - ; - < u K 1 , ",
"U U I v t 3 8 8 ; ; , 8 8 8 ; ; - + O O O O # ; ; 3 8 1 ; ; 8 8 = - % : K e = ",
"U I y 8 8 8 < = 2 2 3 < - - g f O o o o o o o O o = % 1 2 1 - y t 3 e n t 3 = ",
"I u 3 8 1 : , 8 < 4 5 : J x N h O o o o o o o o o o o # O & : ; 3 m H t 2 ; % ",
"y 3 8 2 - , 1 ; f g ~ 4 C x N h O o o o o o o o o o o o o o O - = 3 3 ; = $ % ",
", 3 2 = ; 1 % z E V ~ 4 V s N h o o o o o o o o o o o o o o o o # = ; ; ; = n ",
"H 8 3 3 8 - 4 A E V ! < g J x h O o o o o o o o o o o o o o o o o e H H U I H ",
"b U n I M , 9 A W V ~ 7 Y N x g O o o o o o o o o o o o o o o o o = t < y u e ",
"e e ; e e ; S Z W V ~ 4 J x B h O o o o o o o o o o o o o o o o o = 8 ; 8 e 3 ",
"3 3 - e e - Z Z E V ~ 4 C x x g > o o o o o o o o o o o o o o o o = 8 = 3 8 3 ",
"3 e - 3 8 : Z Z E V ~ 4 C x N R T o o o o o o o o o o o o o o o o = 8 < 8 8 e ",
"3 8 = 3 8 - A Z W V ~ 4 C c L ) p o o o o o o o o o o o o o o o o = 3 3 3 e 3 ",
"= e - 3 8 : Z A W V ~ 2 C G &.g + o o o o o o o o o o o o o o o o % 3 - 3 3 3 ",
"= e - e e : Z Z W V ! 4 C $...: o o o o o o o o o o o o o o o o o % e = 3 e 3 ",
"- 8 - 3 3 : h Z W V ! 4 L &.| 5 + o o o o o o o o o o o o o o o o = 8 ; 3 8 8 ",
"- 8 - 8 t 8 - A W V Q 9 C { @.' @ o o o o o o o o o o o o o o o o % e = 3 3 < ",
"- 8 - t v 3 - B W V ~ ^ Z o.*.} ` o o o o o o o o o o o o o o o o = 3 - 3 e = ",
"- 8 2 8 8 2 = Z W C ~ Y d x #._ O.o o o o o o o o o o o o o o o o = 3 ; 3 3 - ",
"- 8 - 8 e 8 = Z W C ) 7 h B @.X.] o o o o o o o o o o o o o o o # 3 3 = , e - ",
"- 8 - 8 8 2 = Z W C J & V x [ } * o o o o o o o o o o o o o o o # 8 u m 3 8 = ",
"8 8 - 8 8 2 = Z ~ Y 7 & V x q w o o o o o o o o o o o o o o o o # 8 3 8 8 8 - ",
"8 8 = 8 8 2 - Z ( g B 4 C x N h + o o o o o o o o o o o o o o o # 3 8 8 8 8 - ",
"8 8 2 8 8 3 = L g h W 4 C x N h o o o o o o o o o o o o o o o o # 3 < < 8 e = ",
"8 8 8 8 3 2 s Q 7 h Q 4 C x x h o o o o o o o o o o o o o o o o # 3 , , 8 8 X ",
"8 8 8 8 3 2 4 a B N ~ 7 C x x h o o o o o o o o o o o o o o o o # < ; 3 8 8 X ",
"8 8 8 8 8 3 = r Y V Q 7 C x x h o o o o o o o o o o o o o o o o # < ; 8 8 8 X ",
"% ; 8 e 3 8 $ k W V Q 4 C x r : O o o o o o o o o o o o o o o o # < , 8 3 ; X ",
"% ; e 8 8 3 % B W V ~ 4 C x r : 2 o o o o o o o o o o o o o o o $ 3 8 8 < ; X ",
"% ; 3 8 8 3 = Z W V ~ 4 C x r l d o o o o o o o o o o o o o o o # < , 8 3 ; X ",
"% , 8 8 8 : % B E V ~ 4 C x Y R # o o o o o o o o o o o o o o o # < , 8 < ; X ",
"% ; 8 8 < = - B Y x ~ 4 C N Q 5 O o o o o o o o o o o o o o o o # ; 8 8 < ; X ",
"% ; 8 < < 3 ; B Q E Q 7 C ~ a : O o o o o o o o o o o o o o o o # = 8 8 2 ; X ",
"% ; 8 e n e < B J V ~ 7 Y R : : o o o o o o o o o o o o o o o o # = 8 8 2 , X ",
"% ; 3 e t , , B Y C ~ 0 Y r 7 : + o o o o o o o o o o o o o o o # = 8 8 2 = X ",
"=.e 8 8 3 - , r E V ~ / h : r : + o o o o o o o o o o o o o o o # = 8 8 2 ; X ",
"=.8 e 3 e = < S E V ~ C d 4 9 : o o o o o o o o o o o o o o o o # = 8 8 2 = X ",
"=.8 3 3 3 = , Z W D ) 4 h 0 r : o o o o o o o o o o o o o o o o $ 8 8 8 8 3 X ",
"=.e 3 e e = , c W C V & V 0 r & o o o o o o o o o o o o o o o o $ 3 3 8 8 , . ",
"=.3 3 e 3 = , Z ( D 7 4 C 0 9 + o o o o o o o o o o o o o o o o # 3 8 8 8 , . ",
"=.- 3 e 3 = < B ! g V 4 C 0 7 o o o o o o o o o o o o o o o o o 3 8 8 8 3 ; . ",
"=.% 2 3 e = < S d d W 4 V 0 & o o o o o o o o o o o o o o o o O 1 n 8 8 e ; . ",
"=.% < 2 2 ; ; d 5 f ! 4 i 4 o o o o o o o o o o o o o o o o o O , e 8 8 < ; . ",
"=.% 2 < , 3 $ , V B ! 2 i & o o o o o o o o o o o o o o o o o o , 3 8 e = ; . ",
"=.% < < , 2 ; = J V ~ 4 : o o o o o o o o o o o o o o o o o o O , e 3 8 ; ; . ",
"=.% 2 < : 2 ; = J V ~ : O o o o o o o o o o o o o o o o o o o O < 3 8 8 < % =.",
"=.% < 2 , < ; ; L g Y + o o o o o o o o o o o o o o o o o o o O , 8 < < < = =.",
"=.% 2 8 ; < ; = Y i i o o o o o o o o o O o o O o o o o o o o O , 8 , < < = =.",
"=.= ; 8 ; 2 ; = J 4 + o o o O + # # # % % % % % % O O o o o o O , e , < 2 % =.",
"=.=.% 8 < 7 , % A O o o $ $ % % % % % % % # o O O % $ # o o o O , 8 ; 2 - % =.",
"=.=.% 8 ; 2 - % 4 o O $ $ % % % % % % # # # % % % $ # $ # O o O , e ; , = % =.",
"=.=.= 3 ; < % % o O O + O $ % % % % # O # # $ % % $ # O O # O O , , 2 ; % % =.",
"=.=.= < % < % % o O O o O O O # % % % % % % % % % % # O O o o O < = e - % % =.",
"=.=.% = % ; % % o o O % % % % $ % % % # # $ $ % % % % % # O O O % = ; $ $ o =.",
"=.=.# % O % $ O o # # O O O # # O O O o o o o O # O # # # O O O # - - O O o =.",
"=.=.o O o O o o o o o o o o o o o o o o o o o o o o o o o o o o o = $ o o o =."
};
