/* XPM */
static char *door_3[] = {
/* columns rows colors chars-per-pixel */
"39 64 114 2",
"   c black",
".  c #201811",
"X  c #291D13",
"o  c #635142",
"O  c #6C5542",
"+  c #6F5843",
"@  c #725741",
"#  c #755A42",
"$  c #7C5B41",
"%  c #7D6144",
"&  c #7F695B",
"*  c #7F6B61",
"=  c #9A753F",
"-  c #A67F3F",
";  c #815E42",
":  c #856243",
">  c #8C6544",
",  c #8C6A44",
"<  c #8C754B",
"1  c #8E794F",
"2  c #906745",
"3  c #936B46",
"4  c #966C49",
"5  c #996D47",
"6  c #9A6E48",
"7  c #947143",
"8  c #947249",
"9  c #997542",
"0  c #9D7149",
"q  c #9E7842",
"w  c #9C7B4A",
"e  c #92745F",
"r  c #907C53",
"t  c #A3754C",
"y  c #A47D40",
"u  c #A17F4A",
"i  c #A9794F",
"p  c #AD7C51",
"a  c #B17F54",
"s  c #AB833F",
"d  c #9E8371",
"f  c #A78143",
"g  c #A58349",
"h  c #AB8542",
"j  c #AF8842",
"k  c #AC8A4D",
"l  c #A68654",
"z  c #A78759",
"x  c #A78852",
"c  c #AA8D51",
"v  c #AB9255",
"b  c #B28C44",
"n  c #B28E48",
"m  c #B58255",
"M  c #B38258",
"N  c #B08F5C",
"B  c #B88457",
"V  c #BA8658",
"C  c #BE885A",
"Z  c #B69046",
"A  c #B3914D",
"S  c #B89347",
"D  c #BB9649",
"F  c #BD994B",
"G  c #B39353",
"H  c #BE9D51",
"J  c #A3876A",
"K  c #AA9277",
"L  c #AD9479",
"P  c #B79D7D",
"I  c #B89F7C",
"U  c #C38C5D",
"Y  c #C19E4E",
"T  c #C7905F",
"R  c #C09E51",
"E  c #C8905F",
"W  c #CD9362",
"Q  c #D09664",
"!  c #C3A04F",
"~  c #C5A452",
"^  c #C5A65B",
"/  c #C7AA5B",
"(  c #C8A653",
")  c #CDAD56",
"_  c #CCAD5A",
"`  c #CFB05D",
"'  c #D0B059",
"]  c #CAAE62",
"[  c #C1A372",
"{  c #C5AE7C",
"}  c #CEB161",
"|  c #D3B762",
" . c #D6BA64",
".. c #D8BD67",
"X. c #D8BE68",
"o. c #A48D85",
"O. c #AC9891",
"+. c #B09C8E",
"@. c #B7A28C",
"#. c #B6A49C",
"$. c #BAA69C",
"%. c #BDABA2",
"&. c #C2AD88",
"*. c #C6B096",
"=. c #C4B19E",
"-. c #D7BF84",
";. c #D2BA89",
":. c #C2B1A2",
">. c #C5B6AC",
",. c #CDBBAB",
"<. c #D6C0A3",
"1. c #D2C3B6",
"2. c #E0CFBC",
"3. c None",
/* pixels */
"3.3.3.3.3.3.3.3.3.3.3.Q Q Q Q Q Q Q Q Q Q Q Q U 0 0 0 0 3.3.3.3.3.3.3.3.3.3.3.",
"3.3.3.3.3.3.3.3.3.Q Q Q Q Q Q Q Q Q Q Q Q Q Q W U m B t 0 0 3.3.3.3.3.3.3.3.3.",
"3.3.3.3.3.Q Q Q Q Q Q Q Q Q Q Q W Q Q Q Q Q W W Q Q W E V 0 0 0 0 0 3.3.3.3.3.",
"3.3.3.3.Q Q Q Q Q Q Q Q Q U U U W E Q Q Q Q m m W Q Q W Q Q Q C t 0 0 3.3.3.3.",
"3.3.3.Q Q Q Q Q W W C B m B B B W C W Q Q Q W T m m U Q E m W W U 0 0 0 3.3.3.",
"3.3.Q Q Q Q Q W a i t U U W Q Q W W W W W W T V W 0 0 i W U W p C U m t 0 3.3.",
"3.Q Q Q Q W V p W W W Q U U U U C p m 0 0 0 0 U U T i 3 3 p U W V i p C p 0 3.",
"Q Q Q Q Q W U W Q Q V m i 0 0 6 0 m m 0 0 0 0 0 0 m m m t > 0 m U W V i p 0 X ",
"Q Q Q Q W Q W W i i t 6 6 6 : ; : 0 0 0 0 0 0 0 2 6 6 t a 0 ; 4 4 p W T 0 2 0 ",
"Q Q Q W T V 0 0 0 6 3 : 3 6 6 t 0 3 3 3 3 3 5 0 6 : : 2 4 6 > : > > 3 a E 4 > ",
"Q Q Q a i 6 0 0 > > 2 0 0 0 > > , % : : > g # : > 6 t 2 > > 6 0 : : $ 3 T t $ ",
"W Q p 0 0 0 3 ; 5 5 6 3 ; ; = = 7 , , 3 Z S , Z _ 2 : 5 4 4 : p t 0 6 m i 0 ; ",
"Q p 6 t 4 3 2 6 3 : $ : > > 9 w D g A H S s 7 D X.' F 3 = : , > 6 V C i 6 ; $ ",
"i 0 6 5 ; > 4 > # , : , , , h k q S X.` Z Z 3 F X.' F s = 3 7 : : 6 0 2 : $ $ ",
"2 6 5 ; > 4 : 9 % g u 8 w ~ ~ 9 s Z  .) S S 3 S ..' D s y 9 j _ w ; > : > : M ",
"U 0 6 6 8 > , 9 H 9 D  .|  .F 9 s S  .' S S = D ..' F s y q j  .r 0 T U Q Q U ",
"B Q B Q C 2 y D n 9 s '  .' s 9 - S  ._ j j 3 F X.' F s = y j ' r ; i 4 p a t ",
"0 t > t t > | H y 9 s '  .' s 9 - S  .) Z Z 3 F ..' F s q q j | r ; 0 : 6 0 0 ",
"6 6 : 6 0 > _ S y 9 j '  .) s 9 - S  .) Z s = D ' ' F h w q j ' r ; 0 : 6 0 0 ",
"t 6 ; t 0 > ' D y 9 h '  .) s 9 - S  .' S S 3 D ' ' F 9 h q j ' < $ 0 4 0 6 0 ",
"5 0 : 0 0 > ` S - 9 s '  .) s 9 s D ' ( S S 3 A ( ~ g F y q s ' < ; 6 6 0 0 0 ",
": 0 : 0 0 > ' S - 9 s '  .' s 9 = D ' ) S S 9 Y ~ _ _ j y y s ' < $ t ; 6 0 0 ",
": 0 : 0 0 , ' S - 9 s ' ' ' s 9 s S ` ) D S 7 F ' ' F s y 9 j ' < $ 0 ; 0 0 0 ",
"; 0 : 0 0 > ( S - = s ) ' ' s 9 s S ` ( D Z 7 F ' ' F s = q s ) < ; t : 6 0 0 ",
": 6 : 0 i 6 w S - 9 s '  .) s 9 = S ` ( D Z 7 D ` ' S s y q j ' < $ 6 : 0 0 4 ",
": 0 ; i m 6 w S - 9 j '  .) s = s Z ' ( D S 7 D ' ' F s q q j ` < ; t : 6 0 ; ",
": 0 5 0 t 5 w S y 9 s ) ' ' s 9 s S ' ) S S 7 D ' ' F s N z k ' 1 ; 6 ; 0 0 ; ",
": 0 : 0 0 6 w S y 9 s ) ' ) s 9 s S ' ( D S 7 F ' ' F [ 1.>.@.| w 6 0 ; 4 t ; ",
": 6 ; 0 0 0 w S s 9 s ' ' ) s 9 = D ' ( S S 7 D ) ..-.2.o.o.o.Z 3 0 a V 4 0 ; ",
"0 6 ; 0 0 5 w S y 9 s ) ' ' s 9 s S ' ) ! ! c X...( ;.$.O.I g 7 ; 0 0 0 0 0 ; ",
"0 0 = 5 0 5 0 D y 9 s ) ) ) s 9 s / |  .| | ` F F q J $.#.1.L F 9 5 0 0 0 0 ; ",
"0 0 2 5 0 0 w S y 9 s ) ' ' S ] ] ` ' ` Z Z b 7 = = w ,.* #.1.{ w 4 3 5 0 t ; ",
"0 0 0 0 0 4 w S s c F ` X. .| ! H = f f , : % f s ' F <.% & 1.@.w 6 2 2 6 0 X ",
"0 0 0 0 0 4 g ` / |  .` F F n = = = = = f g % S ' ) F %.= , *.I w 5 2 6 0 0 X ",
"0 0 0 0 0 0 w ' ) b b g 7 7 7 % % n ( ! S n , F ' ' F @.K I %.x w 2 > 6 6 6 X ",
"$ > 0 0 0 5 > y q : , = Z Z 3 % , S ' ( D D 7 F ' ' F L %.%.d F w 5 2 6 6 2 X ",
"$ > 0 0 0 5 = , % % 7 H ' ' s 9 s S ' ( S S = F ' ' F s e e g ' t 5 0 0 5 > X ",
"$ > 0 0 0 5 , h , 7 s ) ' ) s = f Z ' ( S S , S ' ' D s = f h ) w 5 2 0 5 > X ",
"$ , 0 0 0 3 % = s 9 s ) ) ' s 9 s S ' ( D S = F ' ' D s = = s ' w 3 2 0 5 > X ",
"$ > 0 0 3 % : = = 9 s ) ' _ s 9 = S ' ) S b = F ) ) F s f f s ' w > 6 6 3 > X ",
"$ > 0 5 3 5 2 = = q s ' ' ) s 9 s S ' ) S S = F ' ) F s s = s ' w ; 0 0 5 > X ",
"$ 2 0 t m t 2 = s 9 s ) ' ' s 9 s S ' ( S S 7 F ' ) F s = = s ( , ; 0 0 3 > X ",
"$ > 0 t i 2 3 = = 9 s ' ' ' s 7 = S ' ( S S , D ' ' F s s = s c @ ; 0 0 5 > X ",
"3.0 0 0 6 ; 2 = s , s ' ( S j x s S ' ( S S 7 F ' ' F s = = Z c @ ; 0 0 5 > X ",
"3.0 0 0 t : 2 = = g k ` H F g 9 s S ' ( S S = F ' ' D s f q s v @ = 0 0 5 > X ",
"3.0 0 0 6 ; 2 = s 7 Z ` | ` Z 9 = S ' ) D S , F ' ' F s ^ ^ / v @ 2 0 0 6 5 X ",
"3.t 0 0 0 : 3 = s 7 s ) ' ) s = s S ' ( D D = H ` X...| _ _ ) 7 @ 5 6 0 6 2 . ",
"3.6 0 0 0 ; 2 = s = s ) ' ' s 7 s S ' ) ~ ^ v  . .! ! ! = = = , @ 5 6 0 0 2 . ",
"3.: 6 0 0 ; 2 = - 5 s ) ) ' s 9 f ` .. .| | ' D D 9 9 7 : % 7 g 4 t 0 0 t > . ",
"3.; 5 0 0 ; 2 - - = h _ ' ' H  .| ) ) ( h h q 7 7 h q , : % f v 5 V 0 0 6 > . ",
"3.$ 5 5 5 > > 9 h G R |  ...' R F q q q , , % f D ' F h q q s A 2 0 6 0 3 > . ",
"3.$ 5 2 2 5 $ G _ ' ' | S S h 9 9 7 q q j g + F ' ' F s s = b v 2 0 6 t ; 2 . ",
"3.$ 3 3 2 6 ; 2 H f h f 5 3 , # , Z ) ( D Z , F ' ' F s s = j A 2 0 0 0 : > . ",
"3.$ 5 2 2 5 > ; 7 % , q D D 9 : 3 Z ) ( D D 7 D ' ) F s y = s A 3 0 0 0 5 $ 3.",
"3.$ 5 5 > 5 ; > : % = ! ' ' s 9 y Z ' ) S Z 7 D ' ' F s y q j v 2 0 3 5 5 $ 3.",
"3.$ 3 t > 3 > : , 7 s ) ' ' s 9 s Z ' ( Z Z 7 F ) ! s s 9 : f g 2 0 2 2 3 $ 3.",
"3.$ 2 0 : 5 > ; = 9 s ) ' ' s = f Z ' ( s s 7 D ! D y 9 + o @ O 2 0 2 5 5 $ 3.",
"3.3.; 6 5 6 2 $ = 9 s ) ' ) s 9 f h ! ) s q , q 9 , # + o o o O 2 0 2 2 ; $ 3.",
"3.3.; 6 > 5 > $ s = h ' ` ) s 7 , f y D 9 + o o o o o o @ O o O 3 t 2 2 ; $ 3.",
"3.3.; 0 : 3 $ $ = = s ! ~ ( s % $ $ $ $ + o o O O $ O @ O O O O 2 2 5 > $ $ 3.",
"3.3.$ 5 $ 3 $ $ f , f f s b , o o o o o # @ # $ $ $ @ O O o o O 2 : 6 : $ $ 3.",
"3.3.$ $ O = $ $ # O % = : + o o o $ @ @ # # # $ $ $ $ $ @ O o O ; ; 2 # # o 3.",
"3.3.@ $ O # # + o o o o o o o % O @ o o o o o O O O O O @ O O o @ : : O O o 3.",
"3.3.o o o O o o o o o o o o o o o o o o o o o o o o o o o o o o o ; @ o o o 3."
};
