/* XPM */
static char *down_5[] = {
/* columns rows colors chars-per-pixel */
"35 64 172 2",
"   c #000000",
".  c #0A0406",
"X  c #0B030B",
"o  c #0A0A0B",
"O  c #07130F",
"+  c #12060C",
"@  c #14090D",
"#  c #180A0D",
"$  c #130611",
"%  c #120F18",
"&  c #1D0A13",
"*  c #1F091D",
"=  c #131215",
"-  c #171718",
";  c #151817",
":  c #18171D",
">  c #1B1B1B",
",  c #0E231D",
"<  c #172623",
"1  c #240D18",
"2  c #2A0E1C",
"3  c #201114",
"4  c #291C1E",
"5  c #34151D",
"6  c #230726",
"7  c #280929",
"8  c #310D35",
"9  c #370E38",
"0  c #3B0F3A",
"q  c #3D103A",
"w  c #252426",
"e  c #222028",
"r  c #28262D",
"t  c #2B2A2E",
"y  c #252F3A",
"u  c #2D2C30",
"i  c #2A333B",
"p  c #392527",
"a  c #3C292C",
"s  c #343336",
"d  c #383838",
"f  c #1F1652",
"g  c #1C1859",
"h  c #2B1041",
"j  c #2A1A56",
"k  c #324D4D",
"l  c #3F4142",
"z  c #375D42",
"x  c #2A6A56",
"c  c #45192C",
"v  c #461731",
"b  c #43133C",
"n  c #4A173E",
"m  c #4F193F",
"M  c #511B3F",
"N  c #5A1F3C",
"B  c #423337",
"V  c #40383A",
"C  c #4D343F",
"Z  c #483C3F",
"A  c #65273E",
"S  c #471240",
"D  c #4B1342",
"F  c #4F1840",
"G  c #571748",
"H  c #531A41",
"J  c #5A1D44",
"K  c #5D1B48",
"L  c #403841",
"P  c #5E2044",
"I  c #5C264A",
"U  c #5E2C4C",
"Y  c #533A44",
"T  c #58315E",
"R  c #621E48",
"E  c #642443",
"W  c #662148",
"Q  c #682447",
"!  c #6D2649",
"~  c #693944",
"^  c #6D3D48",
"/  c #663058",
"(  c #6F3756",
")  c #68345D",
"_  c #762B4C",
"`  c #7B2E4C",
"'  c #763142",
"]  c #76324E",
"[  c #743050",
"{  c #7A3653",
"}  c #7D3C5B",
"|  c #653964",
" . c #603A68",
".. c #4D4D4E",
"X. c #5D4F53",
"o. c #5D504E",
"O. c #565656",
"+. c #595552",
"@. c #5E5E5E",
"#. c #5D756A",
"$. c #634F4F",
"%. c #644D52",
"&. c #6F4D53",
"*. c #7A434F",
"=. c #784856",
"-. c #79565D",
";. c #614364",
":. c #695678",
">. c #666666",
",. c #6C6C6C",
"<. c #76676A",
"1. c #7D676C",
"2. c gray45",
"3. c #7C707A",
"4. c #7E7E7E",
"5. c #4B6F9A",
"6. c #5078A1",
"7. c #716585",
"8. c #3B804D",
"9. c #758581",
"0. c #81324E",
"q. c #88364F",
"w. c #823756",
"e. c #913C51",
"r. c #834D58",
"t. c #8C4B63",
"y. c #86506D",
"u. c #8F5773",
"i. c #897369",
"p. c #98636A",
"a. c #9E6A73",
"s. c #94716D",
"d. c #A6596F",
"f. c #AF5E74",
"g. c #A46E77",
"h. c #AF6071",
"j. c #A47178",
"k. c #B76478",
"l. c #BB6D7D",
"z. c #BB707E",
"x. c #C16A7D",
"c. c #887489",
"v. c #897D9B",
"b. c #987A84",
"n. c #CA7485",
"m. c #CD7888",
"M. c #968375",
"N. c #9E8C7C",
"B. c #A3837B",
"V. c #808080",
"C. c #828885",
"Z. c #8F8183",
"A. c #8E8E8E",
"S. c #968185",
"D. c #9C8C9C",
"F. c #9D9091",
"G. c #9C9C9C",
"H. c #8E84A0",
"J. c #AC8E83",
"K. c #A59093",
"L. c #ACACAC",
"P. c #AEB3C9",
"I. c #B5BACF",
"U. c #BCC3D7",
"Y. c #D78592",
"T. c #D38994",
"R. c #D49198",
"E. c #E4949E",
"W. c #E0D5E0",
"Q. c #EAE0EA",
"!. c #F2E9F2",
"~. c None",
/* pixels */
"~.~.~.~.~.~.~.~.~.~.~.                          ~.~.~.~.~.~.~.~.~.~.~.",
"~.~.~.~.~.~.~.~.~.~.~.                          ~.~.~.~.~.~.~.~.~.~.~.",
"~.~.~.~.~.~.~.~.        . . . . + . . . . . .         ~.~.~.~.~.~.~.~.",
"~.~.~.~.~.~.~.~.      1 ! _ ` e.e.e.e.e.` _ Q 1       ~.~.~.~.~.~.~.~.",
"~.~.~.~.~.~.~.~.      1 ! ! ` e.e.e.e.e.` ! ! 1       ~.~.~.~.~.~.~.~.",
"~.~.~.~.~.~.~.~.      & N N A ' ' ' ' ' A N N &       ~.~.~.~.~.~.~.~.",
"~.~.~.~.~.~.~.~.                                      ~.~.~.~.~.~.~.~.",
"~.~.~.~.~.~.~.~.                                      ~.~.~.~.~.~.~.~.",
"~.~.~.~.~.        $ X $ & & & X X $ 1 & + X X & & & .       ~.~.~.~.~.",
"~.~.~.~.~.      X 8 8 b ! ! H 8 8 n ! ! n 8 8 J ! ! &       ~.~.~.~.~.",
"~.~.~.~.~.      X 8 8 b ! ! H 8 8 M ! ! m 8 8 J ! ! #       ~.~.~.~.~.",
"~.~.        $ $ * b n H W W m 8 8 M ! ! H 0 b J ! ! c 5 5 .       ~.~.",
"~.~.      . 8 8 q ! ! W G G b 8 8 H ! ! R G G W ! ! q.e.e.#       ~.~.",
"~.~.      X 8 8 b ! ! W G G S 8 8 n ! ! K G G W ! ! q.e.e.#       ~.~.",
"~.~.      X b b b H H H G G F S b n H H n b b K R Q ` 0.0.@       ~.~.",
"~.~.      X G G D 8 8 q G G G G G b 8 8 8 8 8 S G G Q ! ! +       ~.~.",
"~.~.      X G G D 8 8 0 G G G G G S 8 8 8 8 8 S G G W ! ! +       ~.~.",
"          X b b S D S G _ _ _ _ _ K S b H Q E D b b K R R +       ~.~.",
"          . 8 8 0 G G ! e.e.e.e.e._ G G ` e.e.M 8 8 D G G X       ~.~.",
"          . 8 8 0 G G R e.e.e.e.e._ G G ` e.e.M 8 8 D G G X       ~.~.",
"    . c v v D S D G G R ! ! ! W ! R G G Q ` ` J S S _ ` ` +       ~.~.",
"    . ! ! Q G G G G G G G G G G G G G G W ! ! K G G 0.e.e.#       ~.~.",
"    X ! ! ! G G G G G G G G G G G G G G W ! ! K G G 0.e.e.#       ~.~.",
"      & & 2 W W R G G D b h 0 9 0 I } } [ ! ! m 0 0 Q _ ` @           ",
"~.~.      + ! ! Q G G D 8 8 8 8 8 U t.t.{ ! ! b 8 8 J ! ! +           ",
"~.~.      + ! ! W G G D 8 8 8 8 8 U t.t.{ _ ! b 8 8 J _ ! +           ",
"~.~.      X 0 0 q 9 9 h f f T d.d.f.k.k.| j j :.c.c./ K K N N N .     ",
"~.~.      . 8 8 8 8 8 h g g  .k.x.x.x.l. .g g 7.D.D.) G G Q ! ! .     ",
"~.~.      X 8 8 8 8 8 8 g g  .n.x.x.x.x. .g g 7.D.D.) G G ! ! ! .     ",
"~.~.      . Q Q y.W.W.P.5.5.v.E.E.E.Y.E.v.5.5.I.Q.Q.;.8 8 + . .       ",
"~.~.      + ! ! u.!.!.U.6.6.H.E.E.E.E.E.H.6.6.U.!.!.;.8 8 .       ~.~.",
"~.~.      + ! _ u.!.!.U.6.6.H.E.E.E.E.E.H.6.6.U.!.!.;.8 8 X       ~.~.",
"~.~.      + ! ! w.x.x.m.E.E.E.E.E.E.E.E.E.E.E.m.x.x.w.! ! +       ~.~.",
"~.~.      + ! ! w.x.x.m.E.E.E.E.E.E.E.E.E.E.E.n.x.x.w.! ! @       ~.~.",
"~.~.      + E E ] h.h.z.T.T.T.R.R.R.R.R.R.R.R.n.h.h.] E E o       ~.~.",
"~.~.~.~.~.            X 6 6 y x x x x x x x x ,             ~.~.~.~.~.",
"~.~.~.~.~.            X 6 6 y x x x x x x x x ,             ~.~.~.~.~.",
"~.~.        > > ; O O = 7 7 i x x x x x x x x < X . - > >         ~.~.",
"~.~.      : A.A.9.x x k b b ..8.8.8.8.8.8.8.8.V b b 3.A.A.>       ~.~.",
"~.~.      : A.A.9.x x k q b d 8.8.8.8.8.8.8.8.V b b 3.A.A.;       ~.~.",
"    . w w d A.A.C.#.#.>.( ( +.8.8.8.8.8.8.8.8.+.( ( b.K.K.d w w       ",
"    o A.A.A.A.A.K.E.E.E.E.E.N.8.8.8.8.8.8.8.8.J.E.E.E.E.E.K.A.A.o     ",
"    o A.A.A.A.A.K.E.E.E.E.E.N.8.8.8.8.8.8.8.8.J.E.E.E.E.E.F.A.A.o     ",
"    o V.V.V.V.V.S.Y.Y.Y.Y.Y.M.8.8.8.8.8.8.8.8.B.Y.Y.Y.Y.Y.S.V.V.o     ",
"    o >.>.>.>.>.1.x.x.x.x.x.i.8.8.8.8.8.8.8.8.s.x.x.x.x.l.<.>.>.o     ",
"    o >.>.>.>.>.1.x.x.x.x.x.i.8.8.8.8.8.8.8.8.s.x.x.x.x.x.<.>.>.o     ",
"    . d d d d d L =.=.=.=.=.o.z z z z z z z z $.=.=.^ ~ ~ V d d .     ",
"~.~.            o e e e e e r s s s s s s s s r e e X             ~.~.",
"~.~.            o e e e e e r s s s s s s s s r e e X             ~.~.",
"~.~.            o e e e r u e : : : ; ; e r r u u t o             ~.~.",
"~.~.~.~.~.      o e e r s s >           = e e u s s o       ~.~.~.~.~.",
"~.~.~.~.~.      o e e e s s >           = e e u s d o       ~.~.~.~.~.",
"~.~.      @ *.*.r.a.a.&.; = o           = e e -.j.j.4       ~.~.~.~.~.",
"~.~.      - x.x.n.E.E.p.      ~.~.      = e e g.E.E.p       ~.~.~.~.~.",
"~.~.      3 x.x.n.E.E.p.      ~.~.      = e e j.E.E.p       ~.~.~.~.~.",
"~.~.      + C C Y %.%.B           o : : r u u a a a @       ~.~.~.~.~.",
"~.~.      . e e r s s w           = e e r s s =       ~.~.~.~.~.~.~.~.",
"~.~.        e e r s s <           = e e u s s o       ~.~.~.~.~.~.~.~.",
"    o @.@.@.>.>...o o .           = e e u s s =       ~.~.~.~.~.~.~.~.",
"    o 2.2.2.2.2.O.      ~.~.      = e e r s s =       ~.~.~.~.~.~.~.~.",
"    o 2.2.2.2.2.O.      ~.~.      = e e t s s =       ~.~.~.~.~.~.~.~.",
"    o L.L.L.L.L.4.      ~.~.      d ,.,.,.,.,.A.G.G.r       ~.~.~.~.~.",
"    o L.L.L.L.L.V.      ~.~.      d 2.2.2.2.2.G.L.L.t       ~.~.~.~.~.",
"    = L.L.L.L.L.V.      ~.~.      d 2.2.2.2.2.G.L.L.t       ~.~.~.~.~."
};
