/* XPM */
static char *down_6[] = {
/* columns rows colors chars-per-pixel */
"35 64 177 2",
"   c #000000",
".  c #030907",
"X  c #090306",
"o  c #0B030B",
"O  c #0B0A0B",
"+  c #0F0912",
"@  c #091110",
"#  c #0A1A15",
"$  c #12060C",
"%  c #15090D",
"&  c #180A0D",
"*  c #1A0719",
"=  c #1A0911",
"-  c #131215",
";  c #171718",
":  c #18171D",
">  c #1B1B1B",
",  c #0E231D",
"<  c #122420",
"1  c #210B16",
"2  c #231115",
"3  c #291C1E",
"4  c #230726",
"5  c #250827",
"6  c #310D35",
"7  c #370E38",
"8  c #3B0F3A",
"9  c #391622",
"0  c #3E103B",
"q  c #232325",
"w  c #222028",
"e  c #28262D",
"r  c #2B2A2E",
"t  c #252F3A",
"y  c #2D2C30",
"u  c #28313B",
"i  c #302D2D",
"p  c #392527",
"a  c #3C292C",
"s  c #343336",
"d  c #393939",
"f  c #1C1859",
"g  c #21154F",
"h  c #2A1041",
"j  c #321141",
"k  c #321C54",
"l  c #294C3F",
"z  c #2F543C",
"x  c #33573E",
"c  c #264741",
"v  c #2C4E41",
"b  c #324D4D",
"n  c #3F4142",
"m  c #375D42",
"M  c #2A6956",
"N  c #2F7053",
"B  c #43133C",
"V  c #4A173D",
"C  c #4D1A35",
"Z  c #4F193F",
"A  c #501C35",
"S  c #521C3D",
"D  c #5A1F3B",
"F  c #423337",
"G  c #4D343F",
"H  c #471240",
"J  c #4C1442",
"K  c #4E1840",
"L  c #571748",
"P  c #541B41",
"I  c #5A1D44",
"U  c #5E1C48",
"Y  c #403841",
"T  c #5D2142",
"R  c #5B244A",
"E  c #5E2C4C",
"W  c #532D5A",
"Q  c #533A44",
"!  c #621E48",
"~  c #632245",
"^  c #662148",
"/  c #602C4D",
"(  c #692547",
")  c #6D2649",
"_  c #652E56",
"`  c #68345D",
"'  c #71274C",
"]  c #742B4D",
"[  c #7A2E4C",
"{  c #7D304C",
"}  c #7A3653",
"|  c #7F3857",
" . c #783859",
".. c #673962",
"X. c #603A68",
"o. c #414141",
"O. c #4B4143",
"+. c #4D4D4E",
"@. c #524B4D",
"#. c #565656",
"$. c #525A5C",
"%. c #5E5E5E",
"&. c #4C7164",
"*. c #644D52",
"=. c #6F4D53",
"-. c #7A434F",
";. c #7E4D57",
":. c #79565D",
">. c #614363",
",. c #654F71",
"<. c #7D4967",
"1. c #6C775E",
"2. c #666666",
"3. c #6C6C6C",
"4. c #6F7163",
"5. c #76676A",
"6. c #7D676C",
"7. c #7E697F",
"8. c gray45",
"9. c #7C707A",
"0. c #7E7E7E",
"q. c #466693",
"w. c #5078A1",
"e. c #716585",
"r. c #3B804D",
"t. c #758581",
"y. c #7E8784",
"u. c #83334E",
"i. c #88364F",
"p. c #823756",
"a. c #833A58",
"s. c #913C51",
"d. c #834D58",
"f. c #8C4B63",
"g. c #8F5773",
"h. c #995069",
"j. c #8A6A6E",
"k. c #897369",
"l. c #98636A",
"z. c #9E6A73",
"x. c #92716C",
"c. c #A6596F",
"v. c #A46E77",
"b. c #A47178",
"n. c #B26175",
"m. c #C16A7D",
"M. c #8F7780",
"N. c #857695",
"B. c #C57587",
"V. c #CA7485",
"C. c #CC7A8A",
"Z. c #988577",
"A. c #9E8C7C",
"S. c #A5867D",
"D. c #838383",
"F. c #8E8E8E",
"G. c #928487",
"H. c #998588",
"J. c #9C8C9C",
"K. c #9D9091",
"L. c #9C9C9C",
"P. c #8E84A0",
"I. c #AC8E83",
"U. c #A49093",
"Y. c #ACACAC",
"T. c #A1A2BB",
"R. c #AEB2C8",
"E. c #BCC3D7",
"W. c #DB8995",
"Q. c #DE8D98",
"!. c #D7929F",
"~. c #DD939F",
"^. c #E5959F",
"/. c #CEC1CF",
"(. c #E2D8E2",
"). c #F2E9F2",
"_. c None",
/* pixels */
"_._._._._._._._._._._.                          _._._._._._._._._._._.",
"_._._._._._._._._._._.                          _._._._._._._._._._._.",
"_._._._._._._._.                                      _._._._._._._._.",
"_._._._._._._._.                                      _._._._._._._._.",
"_._._._._._._._.                                      _._._._._._._._.",
"_._._._._.        X o X $ $ o o o o $ $ o X o $ $ $ X       _._._._._.",
"_._._._._.      o 6 6 V ) ) P 6 6 Z ) ) V 6 6 I ) ) =       _._._._._.",
"_._._._._.      o 6 6 V ) ) P 6 6 S ) ) V 6 6 I ) ) =       _._._._._.",
"_._.      X o o * B 0 Z ( ^ K 6 6 Z ) ) K 8 8 I ) ) 9 2 1 X       _._.",
"_._.      o 6 6 B ) ) ^ L L H 6 6 Z ) ) ! L L ^ ) ) i.s.s.&       _._.",
"_._.      o 6 6 0 ) ) ^ L L H 6 6 P ) ) ! L L ! ) ) i.s.s.&       _._.",
"_._.      o 8 B B I T P L L J 0 8 V I P J J J I ( ( { u.u.&       _._.",
"_._.      o L L J 6 6 8 L L L L L H 6 6 6 6 6 J L L ^ ) ) $       _._.",
"_._.      o L L J 6 6 8 L L L L L B 6 6 6 6 6 J L L ^ ) ) $       _._.",
"_._.      o H H H H B P ' ' ' ' ' I B B Z T I Z J B U ~ ! $       _._.",
"_._.      o 6 6 7 L L ) s.s.s.s.s.' L L ] s.s.S 6 6 J L L $       _._.",
"_._.      X 6 6 8 L L ^ s.s.s.s.s.] L L [ s.s.P 6 6 J L L o       _._.",
"_._.      o H H J L L ! ' ' ' ' ' ! L L ) { [ I H B ) ] ] $       _._.",
"_._.      o L L L L L L L L L L L L L L ! ) ) U L L u.s.s.&       _._.",
"_._.      o L L L L L L L L L L L L L L ! ) ) ! L L u.s.s.&       _._.",
"          $ ^ ^ ! L L J 0 0 0 8 0 R  . .] ) ) P H 0 ( [ [ %       _._.",
"          $ ) ) ^ L L J 6 6 6 6 6 E f.f.} ) ) B 6 6 R ) ) %       _._.",
"          $ ) ) ~ L L J 6 6 6 6 6 E f.f.} ) ) B 6 6 T ) ) $       _._.",
"    X A C C 0 B B 8 8 j g g W h.h.c.n.n...k k ,.e.j._ U U o           ",
"    X ) ) ~ 6 6 6 6 6 h f f X.m.m.m.m.m.X.f f e.J.J.` L L o           ",
"    X ) ) ~ 6 6 6 6 6 h f f X.m.m.m.m.m.X.f f e.J.J.` L L o           ",
"      % % 1 ~ ~ <././.T.q.q.N.^.Q.Q.Q.Q.N.q.q.R.(.(.>.0 0 S D D X     ",
"_._.      $ ) ) g.).).E.w.w.P.^.^.^.^.^.P.w.w.E.).).>.6 6 ~ ) ) X     ",
"_._.      $ ) ) g.).).E.w.w.P.^.^.^.^.^.P.w.w.E.).).>.6 6 ~ ) ) X     ",
"_._.      $ ) ) a.B.B.C.!.!.~.^.^.^.^.^.~.!.!.C.B.B.p.) ( = X X       ",
"_._.      $ ) ) p.m.m.V.^.^.^.^.^.^.^.^.^.^.^.C.n.m.a.) ) $       _._.",
"_._.      $ ) ) p.m.m.C.^.^.^.^.^.^.^.^.^.^.^.C.m.m.a.) ) $       _._.",
"_._._._._.            o 4 4 t M M M M M M M M ,             _._._._._.",
"_._._._._.            o 4 4 t M M M M M M M M ,             _._._._._.",
"_._.        O O O . . + 5 5 s M M M M M M M M < X X O O O         _._.",
"_._.      > F.F.t.M M b B B z r.r.r.r.r.r.r.r.Y 0 0 9.F.F.>       _._.",
"_._.      > F.F.t.M M b C B o.r.r.r.r.r.r.r.r.Y B B 9.F.F.;       _._.",
"      > > r F.F.y.&.&.$./ / @.r.r.r.r.r.r.r.r.#./ / x.K.U.r > >       ",
"    O F.F.F.F.F.U.^.^.^.^.^.A.r.r.r.r.r.r.r.r.I.^.^.^.^.^.K.F.F.O     ",
"    O F.F.F.F.F.U.^.^.^.^.^.A.r.r.r.r.r.r.r.r.I.^.^.^.^.^.K.F.F.O     ",
"    O D.D.D.D.D.H.W.W.W.W.W.Z.r.r.r.r.r.r.r.r.S.W.W.W.W.W.G.D.D.O     ",
"    X 2.2.2.2.2.6.m.m.m.m.m.k.r.r.r.r.r.r.r.r.x.m.m.m.m.m.5.2.2.O     ",
"    O 2.2.2.2.2.6.m.m.m.m.V.j.r.r.r.r.r.r.r.r.x.m.m.m.m.m.5.2.2.O     ",
"    . o.o.o.o.o.@.j.j.j.k.k.1.N r.r.r.r.r.r.r.4.j.j.;.-.-.O.o.o.X     ",
"_._.            # M M N r.r.r.r.r.r.r.r.r.r.r.N M M #             _._.",
"_._.            # M M N r.r.r.N r.r.r.r.r.r.r.N M M #             _._.",
"_._.            O c l l x z m m m m m m m m m v c c @             _._.",
"_._._._._.      . w w q w q r s s s s s s s s r w w O       _._._._._.",
"_._._._._.      O w w w w w r s s s s s s s s e w w .       _._._._._.",
"_._._._._.      O w w w r r w ; ; ; ; ; w r e y y r O       _._._._._.",
"_._._._._.      X w w e s s >           - w w y s s O       _._._._._.",
"_._._._._.      . w w e s s w           - w w y s s +       _._._._._.",
"_._.      % -.-.d.z.z.=.- - O           - w w :.b.b.3       _._._._._.",
"_._.      ; m.m.V.^.^.l.      _._.      - w w v.^.^.p       _._._._._.",
"_._.      2 n.m.V.^.^.l.      _._.      - w w v.^.^.p       _._._._._.",
"_._.      $ Q G Q *.*.F           + : : e y y a a a $       _._._._._.",
"_._.      X w w e s s w           - w w r s s -       _._._._._._._._.",
"_._.      X w w w s s q           @ w w r s s +       _._._._._._._._.",
"    O %.%.%.3.2.+.O O .           - w w r s s -       _._._._._._._._.",
"    O 8.8.3.8.3.#.      _._.      + w w r s s -       _._._._._._._._.",
"    O 3.8.8.8.3.#.      _._.      - w w r s s -       _._._._._._._._.",
"    O Y.Y.Y.Y.Y.0.      _._.      d 3.3.3.3.3.F.L.L.e       _._._._._.",
"    - Y.Y.Y.Y.Y.D.      _._.      d 8.8.8.8.8.L.Y.Y.r       _._._._._.",
"    @ Y.Y.Y.Y.Y.D.      _._.      d 8.8.8.8.8.L.Y.Y.r       _._._._._."
};
