/* XPM */
static char *down_4[] = {
/* columns rows colors chars-per-pixel */
"33 64 165 2",
"   c #000000",
".  c #0C0608",
"X  c #0C0C0D",
"o  c #15070E",
"O  c #17080F",
"+  c #150517",
"@  c #170619",
"#  c #19061A",
"$  c #1C0B11",
"%  c #1D081C",
"&  c #121114",
"*  c #1A191C",
"=  c #1F0822",
"-  c #1B1A20",
";  c #1B2828",
":  c #230A1E",
">  c #2B0F1C",
",  c #230726",
"<  c #250925",
"1  c #2B0B24",
"2  c #2A0B2E",
"3  c #211F25",
"4  c #241F32",
"5  c #310D35",
"6  c #3A0F39",
"7  c #361324",
"8  c #331029",
"9  c #3B1525",
"0  c #3E1529",
"q  c #3F1A23",
"w  c #371130",
"e  c #3D1237",
"r  c #3C103A",
"t  c #232323",
"y  c #222028",
"u  c #28262C",
"i  c #2B2A2B",
"p  c #2F2E32",
"a  c #243636",
"s  c #293D33",
"d  c #32262D",
"f  c #3A2F35",
"g  c #3C2C3D",
"h  c #343335",
"j  c #3A3A3A",
"k  c #1C1757",
"l  c #1D1858",
"z  c #252865",
"x  c #2C4035",
"c  c #364A3D",
"v  c #1F4E41",
"b  c #225647",
"n  c #375E53",
"m  c #2A6957",
"M  c #326A5A",
"N  c #387C4E",
"B  c #46192D",
"V  c #481E28",
"C  c #42133C",
"Z  c #49173D",
"A  c #4C1A3E",
"S  c #511D36",
"D  c #5C1F3F",
"F  c #43222B",
"G  c #44282F",
"H  c #412F3F",
"J  c #4B2930",
"K  c #4D363B",
"L  c #51212D",
"P  c #5A203C",
"I  c #60353E",
"U  c #4C1442",
"Y  c #521545",
"T  c #571748",
"R  c #541A41",
"E  c #581748",
"W  c #591B45",
"Q  c #5B1A48",
"!  c #472A42",
"~  c #4C2A4E",
"^  c #463342",
"/  c #4B3F43",
"(  c #5E2044",
")  c #5C264A",
"_  c #5E2C4C",
"`  c #533353",
"'  c #5C3753",
"]  c #452C61",
"[  c #4D3A6C",
"{  c #601E46",
"}  c #631F49",
"|  c #662346",
" . c #662149",
".. c #682446",
"X. c #6D2649",
"o. c #643741",
"O. c #6E3E55",
"+. c #742A4B",
"@. c #75304F",
"#. c #7E3446",
"$. c #7E314C",
"%. c #7E3D5B",
"&. c #444444",
"*. c #484749",
"=. c #4B4A4A",
"-. c #4F4E52",
";. c #437265",
":. c #497367",
">. c #6F4D5C",
",. c #685C5D",
"<. c #70484D",
"1. c #735C60",
"2. c #6F775F",
"3. c #666666",
"4. c #78696A",
"5. c #737373",
"6. c #737A73",
"7. c #5078A1",
"8. c #757FA0",
"9. c #3B804D",
"0. c #82324E",
"q. c #8D3A50",
"w. c #913C51",
"e. c #89505F",
"r. c #8C4B63",
"t. c #807466",
"y. c #956167",
"u. c #946872",
"i. c #9F6F71",
"p. c #AC5970",
"a. c #A06A73",
"s. c #AB6C77",
"d. c #A7727A",
"f. c #BB667A",
"g. c #BE687B",
"h. c #C16A7D",
"j. c #876A83",
"k. c #8A6E87",
"l. c #947A91",
"z. c #C77182",
"x. c #848484",
"c. c #8E8E8E",
"v. c #928F8F",
"b. c #978697",
"n. c #9C8C9C",
"m. c #8A83A0",
"M. c #A0879F",
"N. c #B38783",
"B. c #B0878D",
"V. c #BA8F8A",
"C. c #BA9297",
"Z. c #AA9CAA",
"A. c #B98FA2",
"S. c #A1A1A1",
"D. c #AEAEAE",
"F. c #C58891",
"G. c #CF939B",
"H. c #DB8996",
"J. c #C293A5",
"K. c #E5959F",
"L. c #C1B2C2",
"P. c #D1B8C7",
"I. c #DEB7C4",
"U. c #F2E9F2",
"Y. c None",
/* pixels */
"Y.Y.Y.Y.Y.Y.Y.Y.Y.Y.Y.                      Y.Y.Y.Y.Y.Y.Y.Y.Y.Y.Y.",
"Y.Y.Y.Y.Y.Y.Y.Y.Y.Y.Y.                      Y.Y.Y.Y.Y.Y.Y.Y.Y.Y.Y.",
"Y.Y.Y.Y.Y.Y.Y.Y.      O O O $ : $ $ : O $ O       Y.Y.Y.Y.Y.Y.Y.Y.",
"Y.Y.Y.Y.Y.Y.Y.Y.      X.X.+.w.w.w.w.w.+.X.X.      Y.Y.Y.Y.Y.Y.Y.Y.",
"Y.Y.Y.Y.Y.Y.Y.Y.      X.X.X.w.w.w.w.w.+.+.X.      Y.Y.Y.Y.Y.Y.Y.Y.",
"Y.Y.Y.Y.Y.Y.Y.Y.      0 V V L L L L L B 0 0       Y.Y.Y.Y.Y.Y.Y.Y.",
"Y.Y.Y.Y.Y.Y.Y.Y.                                  Y.Y.Y.Y.Y.Y.Y.Y.",
"Y.Y.Y.Y.Y.Y.Y.Y.                                  Y.Y.Y.Y.Y.Y.Y.Y.",
"Y.Y.Y.Y.Y.      @ = = B B 0 = = 8 B B 1 = = B B 7       Y.Y.Y.Y.Y.",
"Y.Y.Y.Y.Y.      < 5 5 X.X.| 5 5 S X.+.C 5 5 X.X.S       Y.Y.Y.Y.Y.",
"Y.Y.Y.Y.Y.      < 5 5 X.X.( 5 5 A X.X.C 5 5 X.X.S       Y.Y.Y.Y.Y.",
"Y.Y.      @ 2 2 R ..| E E U 5 5 A X.X.Q Y Y X.X.X.#.#.q       Y.Y.",
"Y.Y.      % 5 5 ( X.X.T E U 5 5 A X.X.Q T T X.X.+.w.w.V       Y.Y.",
"Y.Y.      % 5 5 ( X. .T E U 5 5 A | ..E T Y X.X.+.w.q.V       Y.Y.",
"Y.Y.      1 E E 6 5 5 T T T E E C 5 5 5 5 5 T T Q X.X.7       Y.Y.",
"Y.Y.      1 T E 5 5 5 T T E E E C 5 5 5 5 5 E E { X.X.7       Y.Y.",
"Y.Y.      < U Z U 6 6 }  . . . .E r r U R R U U Y  . .7       Y.Y.",
"Y.Y.      @ 5 5 U T T q.w.w.w.q.+.E T 0.q.w.5 5 6 T E 1       Y.Y.",
"Y.Y.      @ 5 5 U T T q.w.w.w.q.+.T T 0.w.w.5 5 6 T E 1       Y.Y.",
"          % U C Y T T +.+.+.+.+.} T T +.$.@.U r R +.+.9       Y.Y.",
"          1 T T T T T T T T T T T T T ..X.X.E T  .w.w.V       Y.Y.",
"          1 T T T E T T T T T T T T T ..X.X.T T  .w.w.V       Y.Y.",
"    O S S P  . .E E T 6 6 6 5 6 ) %.%.+.X.X.r 6 Z +.+.9           ",
"    $ X.X.X.X.X.Q T T 5 5 5 5 5 _ r.r.@.X.X.5 5 C X.X.7           ",
"    $ X.X.X.X.X.Q T T 5 5 5 5 5 _ r.r.@.X.X.5 5 C X.X.7           ",
"          % 6 5 w 5 5 l k ] f.f.f.g.g.] l l b.b.j.E T | ....$     ",
"Y.Y.      @ 5 5 5 5 5 l l ] f.z.h.h.h.] l l n.n.k.E T { X.X.$     ",
"Y.Y.      % e e ~ ` ` z z [ z.z.z.z.z.[ z z Z.Z.l.U Y R P D O     ",
"Y.Y.      9 X.X.P.U.U.7.7.8.K.K.K.K.K.8.7.7.U.U.L.5 5 #       Y.Y.",
"Y.Y.      9 X.X.P.U.U.7.7.8.K.K.K.K.K.8.7.7.U.U.L.5 5 #       Y.Y.",
"Y.Y.      7 X.X.J.I.I.m.m.M.K.K.K.K.K.M.m.m.I.I.A.Z Z :       Y.Y.",
"Y.Y.      7 X.X.p.z.f.K.K.K.K.K.K.K.K.K.K.K.h.h.p.X.X.7       Y.Y.",
"Y.Y.      9 X.X.p.z.z.K.K.K.K.K.K.K.K.K.K.K.h.h.p.X.X.7       Y.Y.",
"Y.Y.      o > > 0 J G O.<.>.6.6.6.6.6.6.6.6.J J F > > o       Y.Y.",
"Y.Y.Y.Y.Y.            , = 4 m m m m m m m m             Y.Y.Y.Y.Y.",
"Y.Y.Y.Y.Y.            , , 4 m m m m m m m m             Y.Y.Y.Y.Y.",
"Y.Y.      c 5.5.n b b e e g 9.9.9.N N N N N w 8 ! 6.5.j       Y.Y.",
"Y.Y.      *.v.v.;.m m C C H 9.9.9.9.9.9.9.9.C C ` v.v.=.      Y.Y.",
"      . . =.c.c.:.M M U A ^ 9.9.9.9.9.9.9.9.A Z ' v.v.=.. .       ",
"    t c.c.c.c.c.G.K.K.K.K.V.9.9.9.9.9.9.9.9.K.K.K.K.K.C.c.v.t     ",
"    t c.c.v.c.c.G.K.K.K.K.V.9.9.9.9.9.9.9.9.K.K.K.K.K.C.c.c.t     ",
"    t x.x.x.x.x.F.H.H.H.H.N.9.9.9.9.9.9.9.9.H.H.H.H.H.B.x.x.t     ",
"    * 3.3.3.3.3.s.h.h.h.h.a.9.9.9.9.9.9.9.9.h.h.h.h.h.u.3.3.*     ",
"    * 3.3.3.3.3.s.h.h.h.h.a.9.9.9.9.9.9.9.9.h.h.h.h.h.u.3.3.*     ",
"    X h j h j h ,.4.4.2.t.2.9.9.9.9.9.9.9.9.4.4.1.o.o.K h h X     ",
"Y.Y.            b m m 9.9.9.9.9.9.9.9.9.9.9.m m v             Y.Y.",
"Y.Y.            x m m 9.9.9.9.9.9.9.9.9.9.9.m m b             Y.Y.",
"Y.Y.            ; a a s x x c c c c c c &.v a a ;             Y.Y.",
"Y.Y.Y.Y.Y.      * y 4 - y u h h h h h h h h 4 - -       Y.Y.Y.Y.Y.",
"Y.Y.Y.Y.Y.      * y 3 3 y u h h h h h h h h u - -       Y.Y.Y.Y.Y.",
"Y.Y.Y.Y.Y.      * 3 4 h h u   . .     - y u h h u       Y.Y.Y.Y.Y.",
"Y.Y.Y.Y.Y.      * 3 3 h h u           - y - h h u       Y.Y.Y.Y.Y.",
"Y.Y.      X $ & d f f i i t           * 4 3 / / f       Y.Y.Y.Y.Y.",
"Y.Y.      I h.h.H.K.K.      Y.Y.      - 3 3 K.K.s.      Y.Y.Y.Y.Y.",
"Y.Y.      I h.h.H.K.K.      Y.Y.      - 3 3 K.K.s.      Y.Y.Y.Y.Y.",
"Y.Y.      G e.e.a.d.d.          . X X 3 u u y.u.<.      Y.Y.Y.Y.Y.",
"Y.Y.      & 3 3 h h h           & - y p h h       Y.Y.Y.Y.Y.Y.Y.Y.",
"Y.Y.      & y y p h h           + 3 y p h h       Y.Y.Y.Y.Y.Y.Y.Y.",
"    X &.&.*.-.-.y * &           & 3 - p h h       Y.Y.Y.Y.Y.Y.Y.Y.",
"    * 5.5.5.5.5.*     Y.Y.      & 4 ; p h h       Y.Y.Y.Y.Y.Y.Y.Y.",
"    * 5.5.5.5.5.*     Y.Y.      & ; 3 p h h       Y.Y.Y.Y.Y.Y.Y.Y.",
"    i S.S.S.S.S.i     Y.Y.      p ,.,.3.3.3.x.x.3.      Y.Y.Y.Y.Y.",
"    i D.D.D.D.D.i     Y.Y.      j 5.5.5.5.5.D.D.x.      Y.Y.Y.Y.Y.",
"    i D.D.D.D.D.i     Y.Y.      j 5.5.5.5.5.D.D.x.      Y.Y.Y.Y.Y."
};
