/* XPM */
static char *down_1[] = {
/* columns rows colors chars-per-pixel */
"35 64 171 2",
"   c #000000",
".  c #0A0406",
"X  c #0B030B",
"o  c #0A0A0B",
"O  c #07130F",
"+  c #12060C",
"@  c #14090D",
"#  c #180A0D",
"$  c #130611",
"%  c #120F18",
"&  c #1C0A13",
"*  c #1F091D",
"=  c #131215",
"-  c #171718",
";  c #151817",
":  c #18171D",
">  c #1B1B1B",
",  c #0E231D",
"<  c #172623",
"1  c #240D18",
"2  c #201114",
"3  c #291C1E",
"4  c #34151D",
"5  c #230726",
"6  c #280929",
"7  c #310D35",
"8  c #370E38",
"9  c #3B0F3A",
"0  c #3D103A",
"q  c #252426",
"w  c #222028",
"e  c #28262D",
"r  c #2B2A2E",
"t  c #252F3A",
"y  c #2D2C30",
"u  c #2A333B",
"i  c #392527",
"p  c #3C292C",
"a  c #343336",
"s  c #383838",
"d  c #1F1652",
"f  c #1C1859",
"g  c #2B1041",
"h  c #2A1A56",
"j  c #324D4D",
"k  c #3F4142",
"l  c #375D42",
"z  c #2A6A56",
"x  c #431A28",
"c  c #43133C",
"v  c #4A173E",
"b  c #4F193F",
"n  c #501C35",
"m  c #521B3E",
"M  c #5A1F3C",
"N  c #423337",
"B  c #40383A",
"V  c #4D343F",
"C  c #483C3F",
"Z  c #65273E",
"A  c #471240",
"S  c #4B1342",
"D  c #4F1840",
"F  c #571748",
"G  c #531A41",
"H  c #5A1D44",
"J  c #5D1B48",
"K  c #403841",
"L  c #5E2044",
"P  c #5C264A",
"I  c #5E2C4C",
"U  c #533A44",
"Y  c #58315E",
"T  c #621E48",
"R  c #642443",
"E  c #662148",
"W  c #682447",
"Q  c #6D2649",
"!  c #693944",
"~  c #6D3D48",
"^  c #663058",
"/  c #6F3756",
"(  c #68345D",
")  c #762B4C",
"_  c #7B2E4C",
"`  c #763142",
"'  c #76324E",
"]  c #743050",
"[  c #7A3653",
"{  c #7D3C5B",
"}  c #653964",
"|  c #603A68",
" . c #4D4D4E",
".. c #5D4F53",
"X. c #5D504E",
"o. c #565656",
"O. c #595552",
"+. c #5E5E5E",
"@. c #5D756A",
"#. c #634F4F",
"$. c #644D52",
"%. c #6F4D53",
"&. c #7A434F",
"*. c #784856",
"=. c #79565D",
"-. c #614364",
";. c #695678",
":. c #666666",
">. c #6C6C6C",
",. c #76676A",
"<. c #7D676C",
"1. c gray45",
"2. c #7C707A",
"3. c #7E7E7E",
"4. c #4B6F9A",
"5. c #5078A1",
"6. c #716585",
"7. c #3B804D",
"8. c #758581",
"9. c #81324E",
"0. c #88364F",
"q. c #823756",
"w. c #913C51",
"e. c #834D58",
"r. c #8C4B63",
"t. c #86506D",
"y. c #8F5773",
"u. c #897369",
"i. c #98636A",
"p. c #9E6A73",
"a. c #94716D",
"s. c #A6596F",
"d. c #AF5E74",
"f. c #A46E77",
"g. c #AF6071",
"h. c #A47178",
"j. c #B76478",
"k. c #BB6D7D",
"l. c #BB707E",
"z. c #C16A7D",
"x. c #887489",
"c. c #897D9B",
"v. c #987A84",
"b. c #CA7485",
"n. c #CD7888",
"m. c #968375",
"M. c #9E8C7C",
"N. c #A3837B",
"B. c #808080",
"V. c #828885",
"C. c #8F8183",
"Z. c #8E8E8E",
"A. c #968185",
"S. c #9C8C9C",
"D. c #9D9091",
"F. c #9C9C9C",
"G. c #8E84A0",
"H. c #AC8E83",
"J. c #A59093",
"K. c #ACACAC",
"L. c #AEB3C9",
"P. c #B5BACF",
"I. c #BCC3D7",
"U. c #D78592",
"Y. c #D38994",
"T. c #D49198",
"R. c #E4949E",
"E. c #E0D5E0",
"W. c #EAE0EA",
"Q. c #F2E9F2",
"!. c None",
/* pixels */
"!.!.!.!.!.!.!.!.!.!.!.                          !.!.!.!.!.!.!.!.!.!.!.",
"!.!.!.!.!.!.!.!.!.!.!.                          !.!.!.!.!.!.!.!.!.!.!.",
"!.!.!.!.!.!.!.!.        . . . . + . . . . . .         !.!.!.!.!.!.!.!.",
"!.!.!.!.!.!.!.!.      1 Q ) _ w.w.w.w.w._ ) W 1       !.!.!.!.!.!.!.!.",
"!.!.!.!.!.!.!.!.      1 Q Q _ w.w.w.w.w._ Q Q 1       !.!.!.!.!.!.!.!.",
"!.!.!.!.!.!.!.!.      & M M Z ` ` ` ` ` Z M M &       !.!.!.!.!.!.!.!.",
"!.!.!.!.!.!.!.!.                                      !.!.!.!.!.!.!.!.",
"!.!.!.!.!.!.!.!.                                      !.!.!.!.!.!.!.!.",
"!.!.!.!.!.        $ X $ & & # X X $ 1 & @ X X # & & .       !.!.!.!.!.",
"!.!.!.!.!.      X 7 7 v Q Q G 7 7 b Q Q v 7 7 H Q Q #       !.!.!.!.!.",
"!.!.!.!.!.      X 7 7 c Q Q H 7 7 b Q Q v 7 7 H Q Q #       !.!.!.!.!.",
"!.!.        $ X * c c G E E D 7 7 b Q Q G 9 c J Q Q x 4 4 .       !.!.",
"!.!.      X 7 7 0 Q Q E F F A 7 7 G Q Q T F F W Q Q 0.w.w.#       !.!.",
"!.!.      X 7 7 0 Q Q E F F A 7 7 D Q Q T F F T Q ) 0.w.w.#       !.!.",
"!.!.      X c c v G G G F F S c c c G G S c c H E T _ 9.9.@       !.!.",
"!.!.      X F F D 7 7 0 F F F F F c 7 7 7 7 7 S F F E Q Q @       !.!.",
"!.!.      X F F S 7 7 9 F F F F F A 7 7 7 7 7 S F F W Q Q @       !.!.",
"!.!.      X A c A A A F ) ) ) ) ) J A c G W R D c c F T T +       !.!.",
"!.!.      . 7 7 9 F F Q w.w.w.w.w.) F F _ w.w.b 7 7 S F F X       !.!.",
"!.!.      X 7 7 9 F F T w.w.w.w.w.) F F _ w.w.m 7 7 S F F X       !.!.",
"          X S S S F F J T Q T Q Q T F F W _ _ H S S Q _ _ @       !.!.",
"          X F F F F F F J F J F F F F F E W Q J F F 9.w.w.#       !.!.",
"          + F F F F F F F F F F F F F F E Q Q J F F 9.w.w.#       !.!.",
"    . n n n E E T F F F 9 9 9 8 9 P { { ] Q Q D 9 9 W ) ) @           ",
"    . Q Q Q Q Q W F F S 7 7 7 7 7 I r.r.[ Q Q c 7 7 T Q Q +           ",
"    . Q Q Q Q Q W F F S 7 7 7 7 7 I r.r.[ Q Q v 7 7 L Q Q +           ",
"      + + & 0 0 0 8 8 g d d Y s.s.d.j.j.} h h ;.x.x.^ J J M M M .     ",
"!.!.      . 7 7 7 7 7 g f f | z.z.z.z.k.| f f 6.S.S.^ F F W Q Q .     ",
"!.!.      . 7 7 7 7 7 g f f | k.z.z.b.j.| f f 6.S.S.( F F W Q Q .     ",
"!.!.      + W W t.E.E.L.4.4.c.R.R.R.U.R.c.4.4.P.W.W.-.8 7 + . .       ",
"!.!.      + Q Q y.Q.Q.I.5.5.G.R.R.R.R.R.G.5.5.I.Q.Q.-.7 7 X       !.!.",
"!.!.      + Q Q y.Q.Q.I.5.5.G.R.R.R.R.R.G.5.5.I.Q.Q.-.7 7 .       !.!.",
"!.!.      + Q Q q.z.k.n.R.R.R.R.R.R.R.R.R.R.R.n.z.z.q.Q Q +       !.!.",
"!.!.      + Q Q q.z.z.n.R.R.R.R.R.R.R.R.R.R.R.n.z.z.q.Q Q @       !.!.",
"!.!.      + R R ' g.g.k.Y.Y.T.T.T.T.T.T.T.T.T.z.g.g.' R R o       !.!.",
"!.!.!.!.!.            X 5 5 u z z z z z z z z ,             !.!.!.!.!.",
"!.!.!.!.!.            X * 5 u z z z z z z z z ,             !.!.!.!.!.",
"!.!.      . > > ; O O % 6 6 u z z z z z z z z < X . - > >         !.!.",
"!.!.      ; Z.Z.8.z z j c c k 7.7.7.7.7.7.7.7.s 0 c 2.Z.Z.>       !.!.",
"!.!.      : Z.Z.8.z z j c n k 7.7.7.7.7.7.7.7.C c c 2.Z.Z.>       !.!.",
"    . q q s Z.Z.V.@.@.:./ / O.7.7.7.7.7.7.7.7.O./ / v.J.J.s q q       ",
"    + Z.Z.Z.Z.Z.J.R.R.R.R.R.M.7.7.7.7.7.7.7.7.H.R.R.R.R.R.D.Z.Z.o     ",
"    o Z.Z.Z.Z.Z.J.R.R.R.R.R.M.7.7.7.7.7.7.7.7.H.R.R.R.R.R.D.Z.Z.o     ",
"    o 8.V.6.8.m.A.U.U.U.U.U.m.z 7.7.7.7.7.7.7.N.U.U.U.U.U.A.8.x.o     ",
"    o :.>.:.:.:.<.z.z.z.z.z.u.7.7.7.7.7.7.7.7.a.z.z.z.z.z.,.:.:.o     ",
"    o :.:.:.:.:.<.z.z.z.z.z.u.7.7.7.7.7.7.7.7.a.z.z.z.z.z.,.:.:.o     ",
"    o s s s s s C *.*.*.*.*.X.l l l l l l l l $.*.*.~ ! ! B s s .     ",
"!.!.            o w w w w w r a a a a a a a a r w w o             !.!.",
"!.!.            X w w w w w e a a a a a a a a e w w X             !.!.",
"!.!.            o w w w y r w : : : ; ; w e e y y r o             !.!.",
"!.!.!.!.!.      o w w e a a 3           = w w y a a o       !.!.!.!.!.",
"!.!.!.!.!.      . < w e a a >           = w w y a s o       !.!.!.!.!.",
"!.!.      @ &.&.e.p.p.%.= = o           = w w =.h.h.3       !.!.!.!.!.",
"!.!.      - z.z.b.R.R.i.      !.!.      = w w f.R.R.i       !.!.!.!.!.",
"!.!.      2 k.z.b.R.R.i.      !.!.      = w w h.R.R.i       !.!.!.!.!.",
"!.!.      + V V U $.$.N           o : : e y y p p p @       !.!.!.!.!.",
"!.!.        w w e a a q           = w w e a a =       !.!.!.!.!.!.!.!.",
"!.!.        w w e a a <           = w w y a a o       !.!.!.!.!.!.!.!.",
"    o +.+.+.:.:. .o o .           = w w y a a =       !.!.!.!.!.!.!.!.",
"    o 1.1.1.1.1.o.      !.!.      = w w e a a =       !.!.!.!.!.!.!.!.",
"    o 1.1.1.1.1.o.      !.!.      = w w r a a =       !.!.!.!.!.!.!.!.",
"    o K.K.K.K.K.3.      !.!.      s >.>.>.>.>.Z.F.F.e       !.!.!.!.!.",
"    o K.K.K.K.K.8.      !.!.      s 1.1.1.1.1.F.K.K.r       !.!.!.!.!.",
"    = K.K.K.K.K.C.      !.!.      s 1.1.1.1.1.F.K.K.r       !.!.!.!.!."
};
