/* XPM */
static char *down_3[] = {
/* columns rows colors chars-per-pixel */
"33 64 249 2",
"   c black",
".  c #010000",
"X  c #020202",
"o  c #020203",
"O  c #030303",
"+  c #040103",
"@  c #040404",
"#  c #040405",
"$  c #08080A",
"%  c #0B0B0D",
"&  c #0D0C0D",
"*  c #0F0411",
"=  c #0F0F10",
"-  c #14070D",
";  c #150517",
":  c #18061A",
">  c #1B071C",
",  c #1B0912",
"<  c #1B0819",
"1  c #1D081C",
"2  c #1E081D",
"3  c #131313",
"4  c #111014",
"5  c #131314",
"6  c #151516",
"7  c #191919",
"8  c #19181E",
"9  c #1A181D",
"0  c #1C1C1C",
"q  c #1D1D1D",
"w  c #1F0822",
"e  c #1C1A20",
"r  c #193F34",
"t  c #210B16",
"y  c #230C17",
"u  c #220B1B",
"i  c #290E1D",
"p  c #2F131A",
"a  c #2F101F",
"s  c #230726",
"d  c #240927",
"f  c #290A22",
"g  c #290B23",
"h  c #2B0B24",
"j  c #280C23",
"k  c #241F32",
"l  c #310F24",
"z  c #310D35",
"x  c #320D35",
"c  c #360F32",
"v  c #340D36",
"b  c #350E37",
"n  c #360E37",
"m  c #3A0F39",
"M  c #3C0F3A",
"N  c #341125",
"B  c #361224",
"V  c #371324",
"C  c #321B20",
"Z  c #381325",
"A  c #391425",
"S  c #3F1826",
"D  c #341F30",
"F  c #381037",
"G  c #391137",
"H  c #3B1138",
"J  c #3C103A",
"K  c #3F113B",
"L  c #212123",
"P  c #232323",
"I  c #212025",
"U  c #222125",
"Y  c #232225",
"T  c #222028",
"R  c #242229",
"E  c #262529",
"W  c #26242B",
"Q  c #272628",
"!  c #272729",
"~  c #27252C",
"^  c #28262C",
"/  c #282828",
"(  c #2B2B2B",
")  c #2B292F",
"_  c #2E2D31",
"`  c #2F2E32",
"'  c #35293A",
"]  c #343336",
"[  c #393939",
"{  c #1C1859",
"}  c #21154F",
"|  c #311B54",
" . c #3F2456",
".. c #28453D",
"X. c #375B42",
"o. c #2A6957",
"O. c #326A5A",
"+. c #347750",
"@. c #42172C",
"#. c #481E28",
"$. c #40133A",
"%. c #43113E",
"&. c #43153B",
"*. c #44123E",
"=. c #45133E",
"-. c #47143E",
";. c #48143F",
":. c #491838",
">. c #4A183A",
",. c #4A1A3F",
"<. c #4F1A3F",
"1. c #511C35",
"2. c #521D36",
"3. c #571C3F",
"4. c #412F3F",
"5. c #5E2734",
"6. c #563038",
"7. c #57343F",
"8. c #583039",
"9. c #60353E",
"0. c #491341",
"q. c #4D1443",
"w. c #501544",
"e. c #521545",
"r. c #531646",
"t. c #551647",
"y. c #571748",
"u. c #521941",
"i. c #521843",
"p. c #531843",
"a. c #591A46",
"s. c #581D42",
"d. c #5A1948",
"f. c #5C1A48",
"g. c #5C1B48",
"h. c #5D1B48",
"j. c #5F1C48",
"k. c #463342",
"l. c #5E2044",
"z. c #5A214A",
"x. c #5E2C4C",
"c. c #512D5D",
"v. c #563350",
"b. c #5C3753",
"n. c #452C62",
"m. c #601D48",
"M. c #621F48",
"N. c #631F48",
"B. c #65204A",
"V. c #6A2743",
"C. c #682348",
"Z. c #68224A",
"A. c #6B234B",
"S. c #6B2548",
"D. c #6C2548",
"F. c #6E2749",
"G. c #6F294C",
"H. c #643741",
"J. c #683644",
"K. c #72294A",
"L. c #74294C",
"P. c #762C4B",
"I. c #7A2D4C",
"U. c #75304F",
"Y. c #7E314C",
"T. c #7F304E",
"R. c #723256",
"E. c #474747",
"W. c #4C4C4C",
"Q. c #4F4E52",
"!. c #535355",
"~. c #555556",
"^. c #575757",
"/. c #575758",
"(. c #437265",
"). c #487366",
"_. c #654B4F",
"`. c #70424F",
"'. c #75404C",
"]. c #744654",
"[. c #775672",
"{. c #666666",
"}. c #676767",
"|. c gray45",
" X c #767676",
".X c #4D739D",
"XX c #5078A1",
"oX c #737B9D",
"OX c #697DA0",
"+X c #757FA0",
"@X c #3B804D",
"#X c #82324E",
"$X c #86354E",
"%X c #913C51",
"&X c #904F5D",
"*X c #8C4B63",
"=X c #9B516A",
"-X c #995D6F",
";X c #956167",
":X c #936A71",
">X c #996774",
",X c #9F6F71",
"<X c #A75970",
"1X c #AC5970",
"2X c #A06970",
"3X c #AC6071",
"4X c #AB6F77",
"5X c #B06072",
"6X c #B36176",
"7X c #C16A7D",
"8X c #806A81",
"9X c #8A6E87",
"0X c #A67E83",
"qX c #B77A83",
"wX c #C57E89",
"eX c #828282",
"rX c #888888",
"tX c #8D8D8D",
"yX c gray56",
"uX c #908E8E",
"iX c #928F8F",
"pX c #9B8382",
"aX c #9C8C9C",
"sX c #8883A0",
"dX c #B38783",
"fX c #BA8F8A",
"gX c #A1A1A1",
"hX c #AEAEAE",
"jX c #BEA2B4",
"kX c #BFAFC0",
"lX c #C7818A",
"zX c #CB808C",
"xX c #C58991",
"cX c #CD8891",
"vX c #D48A94",
"bX c #D58C95",
"nX c #DB8996",
"mX c #DC8A96",
"MX c #CAA7B8",
"NX c #E3939D",
"BX c #E5959F",
"VX c #C1B2C2",
"CX c #CAB1C1",
"ZX c #D1B8C7",
"AX c #E9D2DD",
"SX c #E9DFE9",
"DX c #EEE4EE",
"FX c #F2E9F2",
"GX c None",
/* pixels */
"GXGXGXGXGXGXGXGXGXGXGX                      GXGXGXGXGXGXGXGXGXGXGX",
"GXGXGXGXGXGXGXGXGXGXGX                      GXGXGXGXGXGXGXGXGXGXGX",
"GXGXGXGXGXGXGXGX                                  GXGXGXGXGXGXGXGX",
"GXGXGXGXGXGXGXGX                                  GXGXGXGXGXGXGXGX",
"GXGXGXGXGXGXGXGX                                  GXGXGXGXGXGXGXGX",
"GXGXGXGXGX      * ; ; a a i ; ; u a a < ; ; a a y       GXGXGXGXGX",
"GXGXGXGXGX      d z z F.F.l.z z <.F.F.$.z z F.F.2.      GXGXGXGXGX",
"GXGXGXGXGX      d z z F.F.l.z z <.F.F.$.z z F.F.2.      GXGXGXGXGX",
"GXGX      * w w >.s.s.j.j.p.z z <.F.F.i.0.0.F.F.V.5.5.p       GXGX",
"GXGX      : z z l.F.F.y.y.q.z z <.F.F.f.y.y.F.F.P.%X%X#.      GXGX",
"GXGX      : z z l.F.F.y.y.q.z z 3.S.F.j.y.y.F.F.P.%X%X#.      GXGX",
"GXGX      g e.e.K F F y.y.t.e.e.*.G G v v v f.f.M.K.K.A       GXGX",
"GXGX      h y.y.m z z y.y.y.y.y.*.z z z z z y.y.f.F.F.V       GXGX",
"GXGX      g t.e.M v v f.f.f.f.f.;.v v F F m t.e.a.S.S.V       GXGX",
"GXGX      : z z q.y.y.%X%X%X%X%XL.y.f.T.%X%Xz z m y.y.h       GXGX",
"GXGX      : z z q.y.y.%X%X%X%X%XL.t.t.T.%X%Xz z m y.y.h       GXGX",
"GXGX      2 K m e.t.t.T.T.T.T.T.S.y.y.I.$X$XK m -.Z.Z.V       GXGX",
"GXGX      h y.y.y.y.y.y.y.y.y.y.y.y.t.Z.F.F.y.y.B.%X%X#.      GXGX",
"GXGX      h y.y.t.y.y.y.y.y.y.y.y.y.y.Z.F.F.y.y.B.%X%X#.      GXGX",
"          l M.M.f.y.y.%.%.%.%.%.z.R.R.G.F.F.%.%.u.Y.Y.S           ",
"          V F.F.f.t.y.z z z z z B.*X*XU.F.F.z z $.F.F.V           ",
"          V F.F.f.y.y.z z z z z x.*X*XU.F.F.z z $.F.F.V           ",
"    - 1.1.:.$.$.K m m } }  .=X=X<X6X6Xc.| } oX:X[.j.h.3.2.2.-     ",
"    , F.S.3.z z z z z { { n.7X7XwX6X7Xn.{ } aXaX9Xt.t.M.F.F.,     ",
"    , F.F.<.z z z z z { { n.7X7X7X7X7Xn.{ { aXaX9Xt.y.z.F.F.,     ",
"      + + Z S.S.CXSXSX.X.XoXNXNXNXNXNXoX.XXXDXDXMXz v 2 + @       ",
"GXGX      V F.F.ZXFXFXXXXX+XBXBXBXBXNX+XXXXXFXFXVXz z :       GXGX",
"GXGX      V F.F.MXAXAXOXOXsXBXBXBXBXBX9XOXOXAXAXjXH H 2       GXGX",
"GXGX      V F.F.1X7X7XBXBXBXBXBXBXBXBXBXBXBX7X7X1XF.F.V       GXGX",
"GXGX      V F.F.1X7X7XBXBXBXBXBXBXBXBXBXBXBX7X7X1XF.F.V       GXGX",
"GXGX      y @.@.J.'.'.-X-X>XpXpXaXpXpXpXpXpX'.'.J.@.@.y       GXGX",
"GXGXGXGXGX            s s k o.o.o.o.o.o.o.o.            GXGXGXGXGX",
"GXGXGXGXGX            w s ~ o.o.o.o.o.o.o.o.            GXGXGXGXGX",
"GXGX      ( ^.^...r r F F ' +.+.+.+.+.+.+.+.j j D ^./.(       GXGX",
"GXGX      E.yXyX(.o.o.:.$.k.@X@X@X@X@X@X@X@X&.&.v.yXyXE.      GXGX",
"GXGX      E.yXyX(.o.o.$.-.' @X@X@X@X@X@X@X@X&.&.v.yXyXE.      GXGX",
"    q  X XeXyXyX(.o.o.&.&.4.@X@X@X@X@X@X@X@X:.$.v.yXyXeX X Xq     ",
"    P yXyXyXyXyX(.o.o.&.:.4.@X@X@X@X@X@X@X@X%.$.v.yXyXyXyXyXP     ",
"    P yXtXtXyXyX).O.O.0.<.4.@X@X@X@X@X@X@X@X,.,.b.iXyXiXtXtXP     ",
"    7 }.}.}.}.}.xXBXBXBXBXfX@X@X@X@X@X@X@X@XBXBXBXBXBX0X}.}.7     ",
"    7 }.}.}.}.}.xXBXBXBXBXfX@X@X@X@X@X@X@X@XBXBXBXBXBX0X{.{.7     ",
"    3 W.W.W.W.W.qXnXnXnXnXdX@X@X@X@X@X@X@X@XnXmXnXnXnX:XW.W.3     ",
"GXGX            &X7X7X7X7X,X+.@X@X@X@X@X@X@X7X7X7X7X7X9.      GXGX",
"GXGX            &X7X7X7X7X,X@X@X@X@X@X@X@X@X7X7X7X7X7X9.      GXGX",
"GXGX            v.`.].].]._.X.X.X.X.X.X.X.X.].].].9.H.C       GXGX",
"GXGXGXGXGX      e R Y I e ! ] ] ] ] ] ] ] ] T T 8       GXGXGXGXGX",
"GXGXGXGXGX      8 e T T R W ] ] ] ] ] ] ] ] T T 8       GXGXGXGXGX",
"GXGXGXGXGX      e T T _ _ ~ = = = = = Y ~ ~ ` ` Y       GXGXGXGXGX",
"GXGXGXGXGX      8 T T ] ] !           8 T T ] ] !       GXGXGXGXGX",
"GXGXGXGXGX      8 T T ] ] !           8 T T ] ] !       GXGXGXGXGX",
"GXGX      8.5X5XzXvXvX# #             8 T T bXbX2X      GXGXGXGXGX",
"GXGX      9.7X7XmXBXBX      GXGX      8 T T BXBX4X      GXGXGXGXGX",
"GXGX      6.3X3XwXcXcX            # # e R R lXlX;X      GXGXGXGXGX",
"GXGX      4 T T ` ] ]           4 T T ` ] ]       GXGXGXGXGXGXGXGX",
"GXGX      4 Y T ` ] ]           4 T T ` ] ]       GXGXGXGXGXGXGXGX",
"    O % % 8 ~ ^ Y P Y           4 T T ` ] ]       GXGXGXGXGXGXGXGX",
"    $ T I ) ] ] &     GXGX      4 T T ` ] ]       GXGXGXGXGXGXGXGX",
"    $ T T ) ] ] &     GXGX      4 T T ` ] ]       GXGXGXGXGXGXGXGX",
"    4 Q.Q.!././.6     GXGX      ! Q.Q.~././.      GXGXGXGXGXGXGXGX",
"    q |.|.|.|.|.q     GXGX      [ |.|.|.|.|.      GXGXGXGXGXGXGXGX",
"    q |. X|.|.|.q     GXGX      [ |.|.|.|.|.      GXGXGXGXGXGXGXGX",
"    / gXgXgXgXgX/     GXGX      [ |.|.|.|.|.rXrX{.      GXGXGXGXGX",
"    ( hXhXhXhXhX/     GXGXGXGXGXGXGXGX|.|.|.hXhXeX      GXGXGXGXGX",
"    ( hXhXhXhXhX(     GXGXGXGXGXGXGXGX|.|.|.hXhXeX      GXGXGXGXGX"
};
