/* XPM */
static char *down_2[] = {
/* columns rows colors chars-per-pixel */
"35 64 169 2",
"   c #000000",
".  c #030907",
"X  c #090306",
"o  c #0B030A",
"O  c #0B0A0B",
"+  c #0F0912",
"@  c #12060C",
"#  c #14090C",
"$  c #180A0D",
"%  c #1A0719",
"&  c #1A0912",
"*  c #131215",
"=  c #171718",
"-  c #1E1215",
";  c #18171D",
":  c #1B1B1B",
">  c #0E231D",
",  c #122420",
"<  c #210B16",
"1  c #221115",
"2  c #291C1E",
"3  c #301A1F",
"4  c #230726",
"5  c #250827",
"6  c #310D35",
"7  c #370E38",
"8  c #3B0F3A",
"9  c #391622",
"0  c #3E103B",
"q  c #232325",
"w  c #222028",
"e  c #28262D",
"r  c #2B2A2E",
"t  c #252F3A",
"y  c #2D2C30",
"u  c #28313B",
"i  c #392527",
"p  c #3C292C",
"a  c #343336",
"s  c #393939",
"d  c #1C1859",
"f  c #21154F",
"g  c #2A1041",
"h  c #321141",
"j  c #321C54",
"k  c #324D4D",
"l  c #3F4142",
"z  c #375D42",
"x  c #2A6956",
"c  c #43133C",
"v  c #4A173D",
"b  c #4D1A35",
"n  c #4F193F",
"m  c #501C35",
"M  c #511C3C",
"N  c #423337",
"B  c #4D343F",
"V  c #471240",
"C  c #4C1442",
"Z  c #4E1840",
"A  c #571748",
"S  c #541B41",
"D  c #5A1D44",
"F  c #5E1C48",
"G  c #403841",
"H  c #5D2142",
"J  c #5B244A",
"K  c #5E2C4C",
"L  c #532D5A",
"P  c #533A44",
"I  c #621E48",
"U  c #632245",
"Y  c #662148",
"T  c #692547",
"R  c #6D2649",
"E  c #652E56",
"W  c #693944",
"Q  c #6D3D48",
"!  c #6F3756",
"~  c #68345D",
"^  c #71274C",
"/  c #742B4D",
"(  c #7A2E4C",
")  c #7D304C",
"_  c #7A3653",
"`  c #7F3857",
"'  c #783859",
"]  c #673962",
"[  c #603A68",
"{  c #414141",
"}  c #4D4D4E",
"|  c #5A4C4F",
" . c #5D4F53",
".. c #5D504E",
"X. c #565656",
"o. c #595552",
"O. c #5E5E5E",
"+. c #5D756A",
"@. c #634F4F",
"#. c #644D52",
"$. c #6F4D53",
"%. c #675255",
"&. c #7A434F",
"*. c #784856",
"=. c #79565D",
"-. c #614363",
";. c #654F71",
":. c #7D4967",
">. c #666666",
",. c #6C6C6C",
"<. c #7C6E70",
"1. c #7E697F",
"2. c gray45",
"3. c #7C707A",
"4. c #7E7E7E",
"5. c #466693",
"6. c #5078A1",
"7. c #716585",
"8. c #3B804D",
"9. c #7A807D",
"0. c #758581",
"q. c #83334E",
"w. c #88364F",
"e. c #823756",
"r. c #833A58",
"t. c #913C51",
"y. c #834D58",
"u. c #8C4B63",
"i. c #8F5773",
"p. c #995069",
"a. c #897369",
"s. c #867275",
"d. c #98636A",
"f. c #9E6A73",
"g. c #94716D",
"h. c #A6596F",
"j. c #A46E77",
"k. c #A47178",
"l. c #B26175",
"z. c #C16A7D",
"x. c #857695",
"c. c #987A84",
"v. c #C57587",
"b. c #CA7485",
"n. c #CC7A8A",
"m. c #968375",
"M. c #9E8C7C",
"N. c #A3837B",
"B. c #838383",
"V. c #898686",
"C. c #8E8E8E",
"Z. c #9C8C9C",
"A. c #9C9C9C",
"S. c #8E84A0",
"D. c #AC8E83",
"F. c #A69093",
"G. c #ACACAC",
"H. c #A1A2BB",
"J. c #AEB2C8",
"K. c #BCC3D7",
"L. c #D78592",
"P. c #DE8D98",
"I. c #D7929F",
"U. c #DD939F",
"Y. c #E5959F",
"T. c #CEC1CF",
"R. c #E2D8E2",
"E. c #F2E9F2",
"W. c None",
/* pixels */
"W.W.W.W.W.W.W.W.W.W.W.                          W.W.W.W.W.W.W.W.W.W.W.",
"W.W.W.W.W.W.W.W.W.W.W.                          W.W.W.W.W.W.W.W.W.W.W.",
"W.W.W.W.W.W.W.W.                                      W.W.W.W.W.W.W.W.",
"W.W.W.W.W.W.W.W.                                      W.W.W.W.W.W.W.W.",
"W.W.W.W.W.W.W.W.                              X       W.W.W.W.W.W.W.W.",
"W.W.W.W.W.        o o o @ @ o o o o @ @ o X o @ @ @ X       W.W.W.W.W.",
"W.W.W.W.W.      o 6 6 c R R S 6 6 S R R v 6 6 M R R &       W.W.W.W.W.",
"W.W.W.W.W.      o 6 6 v R R S 6 6 M R R v 6 7 M R R &       W.W.W.W.W.",
"W.W.        o o % c c n Y Y M 6 6 n R R Z 8 8 I R R 9 1 1 X       W.W.",
"W.W.      o 7 6 c R R Y A A V 6 6 n R R I A A I ^ R w.t.t.$       W.W.",
"W.W.      o 6 6 0 R R Y A A V 6 6 n R R I A A I R R w.t.t.$       W.W.",
"W.W.      o 8 V c H S D A A C 0 c c D D Z V C F I T ( q.w.@       W.W.",
"W.W.      o A A C 6 6 8 A A A A A c 6 6 6 6 6 C A A T R R @       W.W.",
"W.W.      o A A C 6 6 0 A A A A A c 6 6 6 6 6 v A A T R R @       W.W.",
"W.W.      o V V V V V Z ^ ^ ^ ^ ^ F c c n D I v c c F I Y @       W.W.",
"W.W.      X 6 6 7 A A R t.t.t.t.t.^ A A ( t.t.S 6 6 C A A o       W.W.",
"W.W.      o 6 6 8 A A Y t.t.t.t.t./ A A ( t.t.S 6 6 C A A @       W.W.",
"W.W.      o V c C A A I ^ ^ ^ ^ ^ I A A R ) ) A c c I ( ( @       W.W.",
"W.W.      o A A A A A A A A A A A A A A Y R R F A A q.t.t.$       W.W.",
"W.W.      o A A A A A A A A A A A A A A Y R R F A A q.t.t.&       W.W.",
"          @ Y Y I A A C 0 0 0 0 0 K ' ' / R R Z c c T ( ( #           ",
"          @ R R Y A A C 6 6 6 6 6 K u.u._ R R c 6 6 I T R @           ",
"          @ R R Y A A C 6 6 6 6 6 K u.u._ ^ R c 6 6 D R R @           ",
"    X m b b c c c 8 8 h f f L p.p.h.l.l.] j j ;.7.s.E F I M m m X     ",
"    X R R U 6 6 6 6 6 g d d [ z.l.z.z.z.[ d d 7.Z.Z.] A A Y R R X     ",
"    X R R U 6 6 6 6 6 g d d [ z.z.z.z.z.[ d d 7.Z.Z.~ A A T R R X     ",
"      @ @ < U U u.T.T.H.5.5.x.P.P.P.Y.P.x.5.5.J.R.R.[ 7 7 & @ @       ",
"W.W.      # R R i.E.E.K.6.6.S.Y.Y.Y.Y.Y.S.6.6.K.E.E.-.6 6 o       W.W.",
"W.W.      @ R R i.E.E.K.6.6.S.Y.Y.Y.Y.Y.Z.6.6.K.E.E.-.6 6 X       W.W.",
"W.W.      @ R R ` v.v.n.I.I.U.Y.Y.Y.Y.Y.I.I.I.n.v.v.` T U @       W.W.",
"W.W.      @ R R ` z.z.n.Y.Y.Y.Y.Y.Y.Y.Y.Y.Y.Y.n.z.z.e.R R #       W.W.",
"W.W.      @ R R ` z.z.n.Y.Y.Y.Y.Y.Y.Y.Y.Y.Y.Y.b.z.z.e.R R #       W.W.",
"W.W.W.W.W.            o 4 4 u x x x x x x x x >             W.W.W.W.W.",
"W.W.W.W.W.            O 4 4 t x x x x x x x x >             W.W.W.W.W.",
"W.W.      . O O O . . + 5 5 u x x x x x x x x , X X O O O .       W.W.",
"W.W.      = C.C.0.x x z 0 0 l 8.8.8.8.8.8.8.8.G c c 3.C.C.=       W.W.",
"W.W.      = C.C.0.x x k c c l 8.8.8.8.8.8.8.8.G c c 3.C.C.=       W.W.",
"      ; ; y C.C.0.x x k c c l 8.8.8.8.8.8.8.8.{ c 0 3.C.C.r : :       ",
"    O C.C.C.C.C.0.x x k c c { 8.8.8.8.8.8.8.8.N c c 3.C.C.C.C.C.O     ",
"    O C.C.C.C.C.0.x x k c c l 8.8.8.8.8.8.8.8.s c c 3.C.C.C.C.C.O     ",
"    O B.B.B.B.B.4.+.+.O.! ! o.8.8.8.8.8.8.8.8.o.! ! c.F.F.V.V.B.O     ",
"    O >.>.>.>.>.s.Y.Y.Y.Y.Y.M.8.8.8.8.8.8.8.8.D.Y.Y.Y.Y.Y.<.>.>.O     ",
"    O >.>.>.>.>.s.Y.Y.Y.Y.Y.N.8.8.8.8.8.8.8.8.D.Y.Y.Y.Y.Y.<.>.>.O     ",
"    . { { { { { %.L.L.L.L.L.m.8.8.8.8.8.8.8.8.N.L.L.L.P.L.| { { .     ",
"W.W.    .       3 z.z.z.z.z.a.8.8.8.8.8.8.8.8.g.z.z.z.z.z.-       W.W.",
"W.W.            2 z.z.z.z.z.a.8.8.8.8.8.8.8.8.g.z.l.z.z.z.1       W.W.",
"W.W.            - *.*.*.*.*...z z z z z z z z %.*.*.Q W W @       W.W.",
"W.W.W.W.W.      O w w w w w e a a a a a a a a e w w O       W.W.W.W.W.",
"W.W.W.W.W.      o w w w w w e a a a a a a a a e w w o       W.W.W.W.W.",
"W.W.W.W.W.      . w w w y r w = = = = = w e r y r r O       W.W.W.W.W.",
"W.W.W.W.W.      O w w e a a :           * w w y a a +       W.W.W.W.W.",
"W.W.W.W.W.      . w w e a a q           * w w y a a O       W.W.W.W.W.",
"W.W.      # &.&.y.f.f.$.* * O           * w w =.k.k.2       W.W.W.W.W.",
"W.W.      1 z.z.b.Y.Y.d.      W.W.      * w w k.Y.Y.i       W.W.W.W.W.",
"W.W.      1 z.z.b.Y.Y.d.      W.W.    X * w , k.Y.Y.i       W.W.W.W.W.",
"W.W.      O B B P #.#.N           O ; ; w a y i p p #       W.W.W.W.W.",
"W.W.      . w w e a a q           * w w e a a *       W.W.W.W.W.W.W.W.",
"W.W.        w w w a a w           * w w y a a *       W.W.W.W.W.W.W.W.",
"    . O.O.%.,.>.} O O X           * w w r a a +       W.W.W.W.W.W.W.W.",
"    O 2.2.2.2.,.X.      W.W.      + w w y a a *       W.W.W.W.W.W.W.W.",
"    O 2.2.2.2.,.X.      W.W.      * w w r a a *       W.W.W.W.W.W.W.W.",
"    O G.G.G.G.G.4.      W.W.      s ,.,.,.,.,.C.A.A.e       W.W.W.W.W.",
"    * G.G.G.G.G.B.      W.W.      s 2.2.2.2.2.A.G.G.r       W.W.W.W.W.",
"    * G.G.G.G.G.B.      W.W.      s 2.2.2.2.2.A.G.G.r       W.W.W.W.W."
};
