/* XPM */
static char *left_3[] = {
/* columns rows colors chars-per-pixel */
"37 64 237 2",
"   c #000000",
".  c #070508",
"X  c #05080A",
"o  c #090305",
"O  c #0B0409",
"+  c #0B090A",
"@  c #0A140D",
"#  c #0B190F",
"$  c #0B1C17",
"%  c #10060B",
"&  c #13090D",
"*  c #140515",
"=  c #1A0A12",
"-  c #171717",
";  c #141318",
":  c #131E1D",
">  c #1D1013",
",  c #1C161C",
"<  c #1B1B1C",
"1  c #1E0820",
"2  c #1E1C22",
"3  c #0C201A",
"4  c #132A19",
"5  c #16311D",
"6  c #1F2826",
"7  c #18382F",
"8  c #193F34",
"9  c #220C16",
"0  c #230B1A",
"q  c #2A0E1B",
"w  c #2D101D",
"e  c #2C181C",
"r  c #230726",
"t  c #230925",
"y  c #2E0C26",
"u  c #23142C",
"i  c #221B27",
"p  c #2A1D23",
"a  c #310E26",
"s  c #340D2B",
"d  c #310D35",
"f  c #3B0F31",
"g  c #390F39",
"h  c #321422",
"j  c #31112F",
"k  c #351A25",
"l  c #3B1527",
"z  c #3E1922",
"x  c #3F182B",
"c  c #3E113A",
"v  c #222123",
"b  c #222028",
"n  c #23292E",
"m  c #29252A",
"M  c #2B2B2D",
"N  c #242133",
"B  c #252D39",
"V  c #2E2D31",
"C  c #27332F",
"Z  c #243636",
"A  c #312E32",
"S  c #3C2830",
"D  c #343336",
"F  c #3F373C",
"G  c #1C1859",
"H  c #2A1040",
"J  c #251756",
"K  c #263B40",
"L  c #3F2C41",
"P  c #352F66",
"I  c #392B61",
"U  c #303C74",
"Y  c #27433B",
"T  c #284E49",
"R  c #245B4B",
"E  c #29554D",
"W  c #285D4F",
"Q  c #285F50",
"!  c #3E4B4A",
"~  c #335A41",
"^  c #365450",
"/  c #2A6957",
"(  c #346245",
")  c #356944",
"_  c #396D47",
"`  c #386C5C",
"'  c #357850",
"]  c #42172B",
"[  c #45182E",
"{  c #44143C",
"}  c #441E30",
"|  c #49133C",
" . c #4B1A32",
".. c #4F193E",
"X. c #501C36",
"o. c #511C39",
"O. c #4E202B",
"+. c #4A2830",
"@. c #47313C",
"#. c #4C3135",
"$. c #4A353E",
"%. c #5F213F",
"&. c #51313E",
"*. c #6B2C3C",
"=. c #471340",
"-. c #4C1442",
";. c #521545",
":. c #571748",
">. c #551C41",
",. c #5A1C45",
"<. c #5B1A48",
"1. c #4F3B43",
"2. c #4E3D50",
"3. c #572548",
"4. c #5D2043",
"5. c #58234E",
"6. c #5F2A43",
"7. c #523642",
"8. c #5B3745",
"9. c #533365",
"0. c #593363",
"q. c #611F47",
"w. c #601D48",
"e. c #652245",
"r. c #662148",
"t. c #692547",
"y. c #6D2649",
"u. c #6C2946",
"i. c #673249",
"p. c #732B4A",
"a. c #743040",
"s. c #733F4B",
"d. c #7C324C",
"f. c #773454",
"g. c #773058",
"h. c #793352",
"j. c #7B335A",
"k. c #783C54",
"l. c #444444",
"z. c #4B4B4B",
"x. c #444E51",
"c. c #425155",
"v. c #5D4450",
"b. c #594F50",
"n. c #535554",
"m. c #5D5D5D",
"M. c #43695D",
"N. c #48695E",
"B. c #4A6C61",
"V. c #447365",
"C. c #4F7165",
"Z. c #4E7469",
"A. c #5C6963",
"S. c #7B4450",
"D. c #7B455A",
"F. c #644767",
"G. c #64517B",
"H. c #7F496E",
"J. c #7E5665",
"K. c #666666",
"L. c #646965",
"P. c #6B6B6B",
"I. c #737373",
"U. c #7C7C7C",
"Y. c #4C5383",
"T. c #486995",
"R. c #5078A1",
"E. c #7B7293",
"W. c #3B804D",
"Q. c #708EB1",
"!. c #84344D",
"~. c #873A4C",
"^. c #88374F",
"/. c #8B384F",
"(. c #913C51",
"). c #893C61",
"_. c #804653",
"`. c #85425D",
"'. c #8A4150",
"]. c #8D445F",
"[. c #8C4C5D",
"{. c #814D65",
"}. c #8A4460",
"|. c #8C4B63",
" X c #8B5367",
".X c #95426A",
"XX c #935165",
"oX c #9C546B",
"OX c #9A5B6A",
"+X c #965970",
"@X c #807D7E",
"#X c #9F6C7A",
"$X c #A34D61",
"%X c #A85A6F",
"&X c #A85E71",
"*X c #A46A7A",
"=X c #A9677B",
"-X c #AB6977",
";X c #C16A7D",
":X c #8B788C",
">X c #A27F98",
",X c #BB7181",
"<X c #BB7C8A",
"1X c #C56F81",
"2X c #C87283",
"3X c #CE7A89",
"4X c #8E807D",
"5X c #838383",
"6X c #8A8485",
"7X c #8E8E8E",
"8X c #948F90",
"9X c #9C8C9C",
"0X c #939393",
"qX c #989499",
"wX c #9B9B9B",
"eX c #8181A0",
"rX c #A9899F",
"tX c #BE808C",
"yX c #BA879A",
"uX c #BD9297",
"iX c #A2A2A2",
"pX c #AEAEAE",
"aX c #BDAFBD",
"sX c #C9808E",
"dX c #C38890",
"fX c #CA8D94",
"gX c #D4838F",
"hX c #D68491",
"jX c #DB8995",
"kX c #DF8E99",
"lX c #DB939F",
"zX c #DC94A0",
"xX c #E08F9A",
"cX c #E4949E",
"vX c #E69BA5",
"bX c #F2E9F2",
"nX c None",
/* pixels */
"nXnXnXnXnXnXnXnXnXnXnXnXnXnXnXnXnXnXnX                      nXnXnXnXnXnXnX",
"nXnXnXnXnXnXnXnXnXnXnXnXnXnXnXnXnXnXnX                      nXnXnXnXnXnXnX",
"nXnXnXnXnXnXnX                              z O.O.O.O.l l 0       nXnXnXnX",
"nXnXnXnXnXnXnX                              a.(.(.(.(.p.y.]       nXnXnXnX",
"nXnXnXnX      o o o o o o o   o o o   o o   u.!.~.'.'.a.y.[ o o       nXnX",
"nXnXnXnX      s :.:.:.:.:.:.:.:.:.:.:.-.d d O   4 ' ' i.y.y.y.y.o     nXnX",
"nXnXnXnX      s :.:.:.:.:.:.:.:.:.:.:.-.d d O   4 W.W.i.y.y.y.y.o     nXnX",
"nXnX      s s | :.:.q.q.<.:.:.:.:.w.r.<.=.=.y = < 5 5 x.c.v.!.!.o     nXnX",
"nXnX    o :.:.:.:.:.y.y.<.:.:.:.:.e.y.y.:.:.g d r     R / n.(.(.o     nXnX",
"nXnX      ;.;.<.<.<.r.y.<.;.-.;.;.e.y.y.:.:.c g t     R / n./.^.o     nXnX",
"nXnX      d d >.y.y.:.:.g d d d d 4.y.y.y.y.<.:.f     R / x.p.y.o     nXnX",
"nXnX    o d d o.y.y.:.:.{ d d d d q.y.y.y.y.<.:.f     R / x.y.y.o     nXnX",
"nXnX    o p.p.d.!.!.r.y.<.<.>.-.-.| { | y.y.<.:.| f f : 3 i { {  . .q     ",
"nXnX    o (.(.(.(./.y.y.y.y.t.<.:.{ d { y.y.<.:.<.:.:.o   * d d t.y.l     ",
"    O = 9 ^.^.^.!.!.y.y.p.p.y.<.:.H g | y.y.<.<.:.:.:.O   * g g X.o.q     ",
"    l y.y.y.y.<.:.:.y.y.!.(.!.:.:.:.:.:.:.:.y.y.r.:.:.O   0 :.:.o         ",
"    l y.y.y.y.w.:.<.y.y.!.(.!.:.:.:.:.:.:.:.e.y.w.<.:.O   0 :.:.o         ",
"    s <.<.c { -.<.<.`.`.h.p.y.:.:.r.t.<.c g c c =.<.:.O   * g g           ",
"    y :.;.d d | :.<.|.|.h.y.y.:.:.r.y.4.d d d d H <.:.O   * d d       nXnX",
"    = f f H H 5.g.j.oXoXh.y.<.-.-.r.y.4.d d d d g -.=.o   * d d o     nXnX",
"nXnX      G G H.;X;X;X;Xj.:.;.d d 4.y.4.d d d d d d d .   * d d       nXnX",
"nXnX    . G G H.;X;X;X;Xj.:.-.d d 4.y.4.d d d d d d d .   * d d       nXnX",
"nXnX    X T.T.>XxXjX;X;X0.J I :X:X[./.~.!.!.-XhX+Xd d o     o o       nXnX",
"nXnX    X R.R.rXcXxX;X;X9.G P 9X9XXX(.(./.(.gXvX=Xd d o               nXnX",
"nXnX    + E.E.yXcXcX3X3XG.U Y.aXaX{.u.d.$X$X3XgXOX0 1 o               nXnX",
"nXnX    O ;X;XgXcXcXcXcXeXR.Q.bXbXF.d 3.;X;X;X;X_.      nXnXnXnXnXnXnXnXnX",
"nXnX    % ;X-XhXcXcXcXcXeXR.Q.bXbXF.d 3.;X;X1X-XS.      nXnXnXnXnXnXnXnXnX",
"nXnX      & & S.;X2XcXcXcXlXcXvXvX}.t.X.% & & O l ).).&     nXnXnXnXnXnXnX",
"nXnXnXnX      s.;X2XcXcXcXcXcXcXvX].y.X.        k .X.X&     nXnXnXnXnXnXnX",
"nXnX    . M V 6.k.D.4X@X4X4X4X@X@X&.l q     k } 6..X.Xx h =       nXnXnXnX",
"nXnX    . K.K.F t u / / ` / / / / $         f..X.X.X.Xp.y.]       nXnXnXnX",
"nXnX    . L.K.F t u / / / / / / / -         f..X.X.X.Xp.y.[       nXnXnXnX",
"    D K.K.7X7X2.r u / / / / E r r r 1 1.7X7X4   = ..o.t.y.]       nXnXnXnX",
"    D K.P.7X7X2.r u / / / / E r r r 1 L 7X7Xe   = o.o.y.y.]       nXnXnXnX",
"    l.U.@XuXuX#X XJ./ / / / E t r K K c.7X7Xm.z.F 0 = r.y.]       nXnXnXnX",
"    z.7X8XcXcXcXvXfX/ / / / E t 1 T / V.7X7X7X7Xm.    *.y.]       nXnXnXnX",
"    z.5X6XcXcXcXxXjX/ / / / E j d ^ ` Z.7X7X7X7XK.    %.y.]       nXnXnXnX",
"nXnX    + ;X;X;X-X-X/ / / / C.cXcXcXvXsXK.K.5X7Xm.    %.y.]       nXnXnXnX",
"nXnX    % ;X;X;X;X-X/ / / / C.cXcXvXcXdXK.K.6X0Xm.    %.y.]       nXnXnXnX",
"nXnX      +.+.b.K.A./ / / / N.3X3X3X3X<X0X0XwXiXP.    0 q =       nXnXnXnX",
"nXnXnXnX      8 / / / / / / N.;X,X;X;X<XpXpXpXpXI.          nXnXnXnXnXnXnX",
"nXnXnXnX      7 E / / / / / M.-X=X%X%X=X9XqX0X0XK.% %       nXnXnXnXnXnXnX",
"nXnXnXnX      ; b n / / / / / / / N r r r r o   0 y.y.%     nXnXnXnXnXnXnX",
"nXnXnXnX      ; b n / / / / / / / N r r r r o   0 y.y.%     nXnXnXnXnXnXnX",
"nXnXnXnX      ; b b Z Z Z Z Y ' ' ( ~ ~ ~ ~ #   o 9 9       nXnXnXnXnXnXnX",
"nXnXnXnX      ; b b b b v v C ' W.W.W.W.' ' #           nXnXnXnXnXnXnXnXnX",
"nXnXnXnX      p @.@.1.7.m < n ) ) _ _ _ _ _ #           nXnXnXnXnXnXnXnXnX",
"nXnXnXnX      s.;X;XcXvX#.  X v i V D D D D +     nXnXnXnXnXnXnXnXnXnXnXnX",
"nXnXnXnX      S.-X1XvXcX+.  + v i V D D D D +     nXnXnXnXnXnXnXnXnXnXnXnX",
"nXnXnXnX      = e k 1.1.A m v X X 2 m n D D +     nXnXnXnXnXnXnXnXnXnXnXnX",
"nXnXnXnXnXnXnX    . v b V D m     < v m D D +     nXnXnXnXnXnXnXnXnXnXnXnX",
"nXnXnXnXnXnXnX    o i v V D m     S 7.$.D D +     nXnXnXnXnXnXnXnXnXnXnXnX",
"nXnXnXnXnXnXnX    . i i V D m     [.;XOXD D +     nXnXnXnXnXnXnXnXnXnXnXnX",
"nXnXnXnXnXnXnX    . b 6 V D m     [.;XOXD D +     nXnXnXnXnXnXnXnXnXnXnXnX",
"nXnXnXnXnXnXnX    + L.K.6XwXU.    & > e b b V M <       nXnXnXnXnXnXnXnXnX",
"nXnXnXnXnXnXnX    @ I.I.wXpX7X        X b b V D v       nXnXnXnXnXnXnXnXnX",
"nXnXnXnX      < M D I.I.wXpX7X        X v i V D v       nXnXnXnXnXnXnXnXnX",
"nXnXnXnX      l.I.I.I.I.I.nXnXnXnX    + b b D D v       nXnXnXnXnXnXnXnXnX",
"nXnXnXnX      l.I.I.I.I.I.nXnXnXnX    + b i D D v       nXnXnXnXnXnXnXnXnX",
"nXnXnXnX      l.I.I.I.I.I.nXnXnXnX    - n.n.K.P.z.      nXnXnXnXnXnXnXnXnX",
"nXnXnXnXnXnXnXnXnXnXnXnXnXnXnXnXnX    - n.n.P.I.z.      nXnXnXnXnXnXnXnXnX",
"nXnXnXnXnXnXnXnXnXnXnXnXnXnXnXnXnX    v 5X5X7X7Xm.      nXnXnXnXnXnXnXnXnX",
"nXnXnXnXnXnXnXnXnXnXnXnXnXnXnXnXnX    M pXpXpXpXI.      nXnXnXnXnXnXnXnXnX",
"nXnXnXnXnXnXnXnXnXnXnXnXnXnXnXnXnX    A pXpXpXpXI.      nXnXnXnXnXnXnXnXnX"
};
