/* XPM */
static char *left_1[] = {
/* columns rows colors chars-per-pixel */
"38 64 243 2",
"   c #000000",
".  c #070408",
"X  c #050E0B",
"o  c #080305",
"O  c #0D040B",
"+  c #0B0B0B",
"@  c #0F0410",
"#  c #0D0D10",
"$  c #0E1E12",
"%  c #14070D",
"&  c #14080D",
"*  c #130513",
"=  c #170619",
"-  c #130D10",
";  c #1B0716",
":  c #1C071C",
">  c #1D0A14",
",  c #121212",
"<  c #151519",
"1  c #18171D",
"2  c #1D1D1D",
"3  c #1C1B21",
"4  c #0F251F",
"5  c #14261B",
"6  c #210B16",
"7  c #240A1B",
"8  c #2B0F1D",
"9  c #251419",
"0  c #2C111E",
"q  c #230726",
"w  c #250B29",
"e  c #290B21",
"r  c #2A0B2E",
"t  c #2D0C31",
"y  c #211225",
"u  c #271329",
"i  c #241A2F",
"p  c #29162C",
"a  c #2B1D24",
"s  c #2E1430",
"d  c #350E2C",
"f  c #310D35",
"g  c #390F39",
"h  c #321222",
"j  c #32112C",
"k  c #331C21",
"l  c #391425",
"z  c #3D1528",
"x  c #3F1A23",
"c  c #321A33",
"v  c #3D1033",
"b  c #242324",
"n  c #232129",
"m  c #29262C",
"M  c #2B2B2C",
"N  c #242133",
"B  c #2D2C31",
"V  c #273F3F",
"C  c #32242C",
"Z  c #3D2128",
"A  c #302E33",
"S  c #333235",
"D  c #393237",
"F  c #3E3238",
"G  c #3A3A3B",
"H  c #1B1654",
"J  c #1C1859",
"K  c #3F174E",
"L  c #2E3142",
"P  c #2D3A6D",
"I  c #303E75",
"U  c #1F413B",
"Y  c #1E4D3F",
"T  c #23433D",
"R  c #275533",
"E  c #274E46",
"W  c #274B48",
"Q  c #284E49",
"!  c #28554B",
"~  c #28594E",
"^  c #295D50",
"/  c #3A5953",
"(  c #296153",
")  c #2A6957",
"_  c #3D685B",
"`  c #46182E",
"'  c #421136",
"]  c #42133B",
"[  c #421D39",
"{  c #4A143E",
"}  c #4B1B32",
"|  c #4E193E",
" . c #521D36",
".. c #531D3A",
"X. c #581F3A",
"o. c #402329",
"O. c #472731",
"+. c #4A2531",
"@. c #4F223E",
"#. c #4D2A32",
"$. c #44323A",
"%. c #48333D",
"&. c #4C383F",
"*. c #5C203D",
"=. c #4C1442",
"-. c #491F43",
";. c #531644",
":. c #571748",
">. c #551A43",
",. c #591E42",
"<. c #5B1A48",
"1. c #4C3A45",
"2. c #4B3E4C",
"3. c #5D2345",
"4. c #573542",
"5. c #5B3A46",
"6. c #5F3E4C",
"7. c #56375B",
"8. c #5B3F5E",
"9. c #5C3765",
"0. c #5E3867",
"q. c #601E47",
"w. c #621E48",
"e. c #632243",
"r. c #652148",
"t. c #632C46",
"y. c #6D2648",
"u. c #6C2A46",
"i. c #6B2F4C",
"p. c #643B59",
"a. c #6D3A58",
"s. c #712A46",
"d. c #732A4A",
"f. c #7A2E4B",
"g. c #7E314C",
"h. c #763B52",
"j. c #7B3553",
"k. c #7D3759",
"l. c #7D3956",
"z. c #424242",
"x. c #4B404D",
"c. c #4C4C4C",
"v. c #4D5854",
"b. c #52414E",
"n. c #5A4249",
"m. c #555555",
"M. c #5B5B5B",
"N. c #406B5D",
"B. c #41744C",
"V. c #426E60",
"C. c #5C6A65",
"Z. c #5E756B",
"A. c #664353",
"S. c #664851",
"D. c #644E5A",
"F. c #684A52",
"G. c #764759",
"H. c #79435F",
"J. c #70567E",
"K. c #656565",
"L. c #6F6F6F",
"P. c #746869",
"I. c #7F676C",
"U. c #796B6C",
"Y. c #726A73",
"T. c #727272",
"R. c #7E7E7E",
"E. c #476895",
"W. c #4A7096",
"Q. c #5078A1",
"!. c #3B804D",
"~. c #7980A0",
"^. c #83344D",
"/. c #87384B",
"(. c #8B384F",
"). c #833B5C",
"_. c #8D3950",
"`. c #913C51",
"'. c #873B60",
"]. c #8C3D63",
"[. c #814754",
"{. c #84445F",
"}. c #8A4C5A",
"|. c #8C4B63",
" X c #8A4E71",
".X c #815E69",
"XX c #95426A",
"oX c #954E6D",
"OX c #994D65",
"+X c #9D4E6A",
"@X c #975C6E",
"#X c #9A5169",
"$X c #98636A",
"%X c #A14D60",
"&X c #A3657A",
"*X c #A26975",
"=X c #AA6471",
"-X c #B46274",
";X c #B66879",
":X c #B96275",
">X c #BB6679",
",X c #BE697C",
"<X c #C16A7D",
"1X c #82748E",
"2X c #997688",
"3X c #AE6C82",
"4X c #C56F81",
"5X c #C67082",
"6X c #C57788",
"7X c #C47C8E",
"8X c #CE7B8A",
"9X c #848384",
"0X c #8D8D8D",
"qX c #8A9B96",
"wX c #918186",
"eX c #9C8C9C",
"rX c #949494",
"tX c #9D9D9D",
"yX c #8B83A0",
"uX c #A48E91",
"iX c #AC8198",
"pX c #A59093",
"aX c #BE8A8F",
"sX c #B38B9F",
"dX c #BF8C90",
"fX c #A6A6A6",
"gX c #AEAEAE",
"hX c #B8A5B6",
"jX c #BEAEBF",
"kX c #C18E9F",
"lX c #DA8895",
"zX c #DF8E99",
"xX c #DC919B",
"cX c #C09FB0",
"vX c #E08F9A",
"bX c #E4949E",
"nX c #C4C3D4",
"mX c #D7C1CF",
"MX c #D1D2E1",
"NX c #EED1DA",
"BX c #E4DAE4",
"VX c #F2E9F2",
"CX c None",
/* pixels */
"CXCXCXCXCXCXCXCXCXCXCXCXCXCXCXCXCXCXCXCX                      CXCXCXCXCXCXCX",
"CXCXCXCXCXCXCXCXCXCXCXCXCXCXCXCXCXCXCXCX                      CXCXCXCXCXCXCX",
"CXCXCXCXCXCXCXCXCXCXCXCXCXCXCXCXCX      6 h h ` x x x x h h %     CXCXCXCXCX",
"CXCXCXCXCXCXCXCXCXCXCXCXCXCXCXCXCX       .y.d.`.`.`.`.(.y.y.8     CXCXCXCXCX",
"CXCXCXCXCXCXCXCXCXCXCXCXCXCXCXCXCX       .y.d.`.`.`.`.(.y.y.0     CXCXCXCXCX",
"CXCXCXCXCXCXCX                          o O 6 d.d.d.d.d.y.y.e.e.*.      CXCX",
"CXCXCXCXCXCXCX                              % y.y.y.y.y.y.y.y.y.e.      CXCX",
"CXCXCXCXCX    o ; ; ; ; ; ; ; ; ; ; ; ; * @ ; } } 4.n.n.d.y.d.f.s.          ",
"CXCXCXCXCX    7 :.:.:.:.:.:.:.:.:.:.:.:.g f r     R _ B.y.y.^.`./.          ",
"CXCXCXCXCX    7 :.:.:.:.:.:.:.:.:.:.:.:.g f w     R !.B.y.y.^.`./.          ",
"CXCX      v ' { :.:.r.r.w.:.:.:.:.<.r.y.:.=.=.w u $ $ 5 / / 6.d.d. . .8     ",
"CXCX      =.:.<.:.:.y.y.r.:.:.:.<.<.y.y.<.:.=.t f *   X ) ) b.y.y.y.y.h     ",
"CXCX      { =.;.<.<.r.y.w.=.=.=.=.,.y.y.w.<.;.g g *   X ) ) 2.3.e.X.X.8     ",
"CXCX      t f { y.y.<.:.=.t f g f ] y.y.y.y.y.:.:.>   X ) ) L t t       CXCX",
"CXCX      f f { y.y.<.:.=.t f f t g y.y.y.y.y.;.:.6   X ) ) L t t       CXCX",
"    ; d j u.u.f.^.^.r.w.3.,.,.=.=.{ { { e.y.r.:.:.' f j 4 4 c =.{       CXCX",
"    e :.:.(.`.`.`.`.d.y.y.y.y.<.:.=.f f ,.y.y.:.:.:.:.{     d :.;.      CXCX",
"    e <.:.(.`.(.(.(.d.y.y.d.y.<.:.=.f g q.y.r.:.<.:.:.{     d :.=.      CXCX",
"    h y.y.y.y.r.:.:.r.y.f.`.`.w.:.:.:.:.:.;.<.y.y.w.<.{     : f t       CXCX",
"    h y.d.y.y.w.:.:.y.y.f.`.`.w.:.:.:.:.:.<.<.y.y.<.:.{     : f t       CXCX",
"    e w.w...=...:.:.j.l.l.g.g.<.;.<.r.r.=.] { =.=.;.:.{     O = =       CXCX",
"    e :.:.f t K :.:.{.|.).y.y.<.:.<.y.y.] f t f t =.:.{                 CXCX",
"    e :.:.f t ' :.:.{.|.{.y.y.<.:.<.y.y.] f f f f =.:.{                 CXCX",
"        o H J 9.>X>X,X,X+X;.:.g f ] y.y.] f f f f f f t                 CXCX",
"CXCX      H J 0.<X<X<X<X+X:.:.g f ] y.y.] t f f f f f r       CXCXCXCXCXCXCX",
"CXCX      P I J.8X8X<X<XoX=.K 9.A.8.f.f.3.*.3.H.H.-.f r       CXCXCXCXCXCXCX",
"CXCX      W.Q.yXbXbX5X<X XJ J 1XeX2X`.`.`.`.%XbXbXa.f r       CXCXCXCXCXCXCX",
"CXCX      W.Q.yXbXbX5X<X XJ J 1XeX2X`.`.`.`.%XbXbXa.t r       CXCXCXCXCXCXCX",
"CXCX      &X3X7XbXbXvXvXiXE.E.nXBXhX] ] OX:X>X5X5XO.. .       CXCXCXCXCXCXCX",
"CXCX      -X<X8XbXbXbXbXsXQ.Q.MXVXjXf f #X<X<X<X4Xo.    CXCXCXCXCXCXCXCXCXCX",
"CXCX      [.}.=XlXlXbXbXkXQ.eXmXNXcX] ] h.}.}.}.}.+.0 9       CXCXCXCXCXCXCX",
"CXCXCXCXCX    #.<X<XvXbXbXbXbXbXbX6Xy.y.>         t.XXk.      CXCXCXCXCXCXCX",
"CXCXCXCXCX    #.<X4XzXbXbXbXbXbXbX6Xy.u.>         t.XX).      CXCXCXCXCXCXCX",
"CXCX      z.c.1.| -.C.Z.Z.Z.Z.Z.Z.v.6 ; o   % i.i.].XX].}  .6     CXCXCXCXCX",
"CXCX      K.L.x.q q ^ ) ) ) ) ) ) Y         > XXXXXXXX].y.y.8     CXCXCXCXCX",
"    . # # P.U.D.[ [ ^ ) ) ) ) ^ ~ U o o , < a k.k.).].).y.y.8     CXCXCXCXCX",
"    S K.K.xXbXbXbXbXV.) ) ) ) i q q q q Y.0XT.    l ....y.y.0     CXCXCXCXCX",
"    A K.K.xXbXbXbXbXV.) ) ) ) i q q q q Y.0XT.    l | ..y.y.8     CXCXCXCXCX",
"  o T *XR.6X8X8X8X8XN.) ) ) ( I.@X@X@X@XwXrX9Xm.m.C 6 8 y.y.8     CXCXCXCXCX",
"  o T qXrX<X<X<X<X<X_ ) ) ) ) dXbXbXbXbXpX0X0X0XrXM   O y.y.h     CXCXCXCXCX",
"    z.0X9X;X>X>X;X>X_ ) ) ) ) dXbXbXbXbXuX0X0X0X0XA   + y.y.8     CXCXCXCXCX",
"CXCX          O q q ~ ) ) ) ) *X<X<X<X<X.XK.T.0X0XA   & u.y.8     CXCXCXCXCX",
"CXCX          O q q ^ ) ) ) ) &X<X,X<X,XI.K.L.0X0XA   O y.y.8     CXCXCXCXCX",
"CXCX          @ y 3 ^ ) ) ) ) A.h.G.P.U.R.0X0XtXtXS   o l l %     CXCXCXCXCX",
"CXCXCXCXCX    # n 3 ( ) ) ) ) i q N ) ) qXgXgXgXgXG           CXCXCXCXCXCXCX",
"CXCXCXCXCX    # n n ^ ) ) ) ) i q N ) ) qXgXgXgXgXG           CXCXCXCXCXCXCX",
"CXCXCXCXCX    # n n n n n n n ! ( W w u p s u & + } e.X.      CXCXCXCXCXCXCX",
"CXCXCXCXCX    # n n n n n n n ~ ) Q q q q q :     } d.*.      CXCXCXCXCXCXCX",
"CXCXCXCXCX    9 5.5.S.F.&.< < T E V p p p p 3     0 ` z       CXCXCXCXCXCXCX",
"CXCXCXCXCX    #.<X<XxXbX$X    2 n m S S S S M           CXCXCXCXCXCXCXCXCXCX",
"CXCXCXCXCX    #.<X<XbXbX$X    3 n m S S S S m           CXCXCXCXCXCXCXCXCXCX",
"CXCXCXCXCX    O 9 9 $.%.F m m + . - n n A S M           CXCXCXCXCXCXCXCXCXCX",
"CXCXCXCXCXCXCX      3 3 m S S +   + i b B S M       CXCXCXCXCXCXCXCXCXCXCXCX",
"CXCXCXCXCXCXCX      3 n m S S +   - $.$.D S M       CXCXCXCXCXCXCXCXCXCXCXCX",
"CXCXCXCXCXCXCX      3 n m S S +   k <X<Xn.S m       CXCXCXCXCXCXCXCXCXCXCXCX",
"CXCXCXCXCXCXCX      3 n m S S +   k <X,Xn.S m       CXCXCXCXCXCXCXCXCXCXCXCX",
"CXCXCXCXCX  o 5 c.c.R.~.R.9X9X2   & Z Z m m m b b +     CXCXCXCXCXCXCXCXCXCX",
"CXCXCXCXCX    A T.T.fXgXgXgXgXb         1 b n S S ,     CXCXCXCXCXCXCXCXCXCX",
"CXCXCXCXCX    M T.T.fXgXgXgXgXb         3 m B G G ,     CXCXCXCXCXCXCXCXCXCX",
"CXCXCXCXCXCXCXCXCXCXCXCXCXCXCXCXCX      z.M.M.T.T.m     CXCXCXCXCXCXCXCXCXCX",
"CXCXCXCXCXCXCXCXCXCXCXCXCXCXCXCXCX      z.M.M.T.T.b     CXCXCXCXCXCXCXCXCXCX",
"CXCXCXCXCXCXCXCXCXCXCXCXCXCXCXCXCX      K.9X0XrXrXS     CXCXCXCXCXCXCXCXCXCX",
"CXCXCXCXCXCXCXCXCXCXCXCXCXCXCXCXCX      R.gXgXgXgXG     CXCXCXCXCXCXCXCXCXCX",
"CXCXCXCXCXCXCXCXCXCXCXCXCXCXCXCXCX      R.gXgXgXgXG     CXCXCXCXCXCXCXCXCXCX"
};
