/* XPM */
static char *left_5[] = {
/* columns rows colors chars-per-pixel */
"38 64 237 2",
"   c #000000",
".  c #070408",
"X  c #050E0B",
"o  c #080305",
"O  c #0D040B",
"+  c #0B0B0B",
"@  c #0F0410",
"#  c #0D0D10",
"$  c #0E1E12",
"%  c #15070E",
"&  c #10090A",
"*  c #120412",
"=  c #130D10",
"-  c #1B0716",
";  c #1C071B",
":  c #1D0A14",
">  c #121212",
",  c #151519",
"<  c #18171D",
"1  c #1D1D1D",
"2  c #1C1B21",
"3  c #0F251F",
"4  c #14261B",
"5  c #210B16",
"6  c #22081C",
"7  c #2B0F1D",
"8  c #25151A",
"9  c #24181E",
"0  c #28111D",
"q  c #230726",
"w  c #250B29",
"e  c #290B21",
"r  c #2A0B2D",
"t  c #2D0C31",
"y  c #211225",
"u  c #25142B",
"i  c #241A2F",
"p  c #29162C",
"a  c #2E1430",
"s  c #370E2E",
"d  c #310D35",
"f  c #390F39",
"g  c #321222",
"h  c #32112C",
"j  c #331C21",
"k  c #3F1A23",
"l  c #3D1033",
"z  c #242324",
"x  c #232129",
"c  c #29262C",
"v  c #2B2B2C",
"b  c #242133",
"n  c #2D2C31",
"m  c #32242C",
"M  c #3D2128",
"N  c #302E33",
"B  c #333235",
"V  c #393237",
"C  c #3E3238",
"Z  c #3A3A3B",
"A  c #1B1654",
"S  c #1C1859",
"D  c #3F174E",
"F  c #2E3142",
"G  c #2D3A6D",
"H  c #303E75",
"J  c #1F413B",
"K  c #1E4D3F",
"L  c #2D4C39",
"P  c #275533",
"I  c #325D3F",
"U  c #28594F",
"Y  c #295D50",
"T  c #335D41",
"R  c #3A5953",
"E  c #2A6957",
"W  c #346643",
"Q  c #366C45",
"!  c #3D685B",
"~  c #397649",
"^  c #421136",
"/  c #42133B",
"(  c #421D39",
")  c #4A143E",
"_  c #4D1B33",
"`  c #4E193E",
"'  c #501C35",
"]  c #531C3B",
"[  c #5A1F3F",
"{  c #402329",
"}  c #472731",
"|  c #4A2531",
" . c #4F223E",
".. c #4D2A32",
"X. c #44323A",
"o. c #48333D",
"O. c #4C383F",
"+. c #5C203D",
"@. c #4D1442",
"#. c #491F43",
"$. c #531744",
"%. c #571748",
"&. c #551A43",
"*. c #591E42",
"=. c #5B1A48",
"-. c #42374C",
";. c #4E334C",
":. c #4C3A45",
">. c #5D2343",
",. c #573542",
"<. c #5B3A46",
"1. c #5F3F4A",
"2. c #56375B",
"3. c #5B3F5E",
"4. c #5C3765",
"5. c #5E3867",
"6. c #601E47",
"7. c #621E48",
"8. c #632346",
"9. c #652148",
"0. c #632C46",
"q. c #692546",
"w. c #6D2648",
"e. c #6C2A46",
"r. c #643B59",
"t. c #6D3A58",
"y. c #722A4A",
"u. c #782F47",
"i. c #7B2E4C",
"p. c #773142",
"a. c #7F3447",
"s. c #7E314C",
"d. c #763B52",
"f. c #7B3553",
"g. c #7D3956",
"h. c #424242",
"j. c #4B404D",
"k. c #4C4C4C",
"l. c #4D5854",
"z. c #5A4249",
"x. c #555555",
"c. c #5B5B5B",
"v. c #406B5D",
"b. c #41744C",
"n. c #426E60",
"m. c #5C6A65",
"M. c #5E756B",
"N. c #664353",
"B. c #664851",
"V. c #644E5A",
"C. c #684A52",
"Z. c #764759",
"A. c #79435F",
"S. c #70567E",
"D. c #656565",
"F. c #6F6F6F",
"G. c #746869",
"H. c #7F676C",
"J. c #796B6C",
"K. c #726A73",
"L. c #727272",
"P. c #7E7E7E",
"I. c #476895",
"U. c #4A7096",
"Y. c #5078A1",
"T. c #3B804D",
"R. c #7980A0",
"E. c #84344E",
"W. c #87384B",
"Q. c #8B384F",
"!. c #823F5A",
"~. c #8D3950",
"^. c #913C51",
"/. c #8F3E65",
"(. c #814754",
"). c #84445F",
"_. c #8A4C5A",
"`. c #8C4B63",
"'. c #8A4E71",
"]. c #815E69",
"[. c #95426A",
"{. c #954E6D",
"}. c #994D65",
"|. c #9D4E6A",
" X c #975C6E",
".X c #9A5169",
"XX c #98636A",
"oX c #A14D60",
"OX c #A3657A",
"+X c #A26975",
"@X c #AA6471",
"#X c #B46274",
"$X c #B66879",
"%X c #B96275",
"&X c #BB6679",
"*X c #BE697C",
"=X c #C16A7D",
"-X c #82748E",
";X c #997688",
":X c #AE6C82",
">X c #C56F81",
",X c #C67082",
"<X c #C57788",
"1X c #C47C8E",
"2X c #CE7B8A",
"3X c #848384",
"4X c #8D8D8D",
"5X c #8A9B96",
"6X c #918186",
"7X c #9C8C9C",
"8X c #949494",
"9X c #9D9D9D",
"0X c #8B83A0",
"qX c #A48E91",
"wX c #AC8198",
"eX c #A59093",
"rX c #BE8A8F",
"tX c #B38B9F",
"yX c #BF8C90",
"uX c #A6A6A6",
"iX c #AEAEAE",
"pX c #B8A5B6",
"aX c #BEAEBF",
"sX c #C18E9F",
"dX c #DA8895",
"fX c #DF8E99",
"gX c #DC919B",
"hX c #C09FB0",
"jX c #E08F9A",
"kX c #E4949E",
"lX c #C4C3D4",
"zX c #D7C1CF",
"xX c #D1D2E1",
"cX c #EED1DA",
"vX c #E4DAE4",
"bX c #F2E9F2",
"nX c None",
/* pixels */
"nXnXnXnXnXnXnXnXnXnXnXnXnXnXnXnXnXnXnXnX                      nXnXnXnXnXnXnX",
"nXnXnXnXnXnXnXnXnXnXnXnXnXnXnXnXnXnXnXnX                      nXnXnXnXnXnXnX",
"nXnXnXnXnXnXnXnXnXnXnXnXnXnXnXnXnX      5 g g { k { { k g 0 %     nXnXnXnXnX",
"nXnXnXnXnXnXnXnXnXnXnXnXnXnXnXnXnX      ' w.y.^.~.^.~.Q.w.w.7     nXnXnXnXnX",
"nXnXnXnXnXnXnXnXnXnXnXnXnXnXnXnXnX      ' w.u.^.^.^.^.^.w.w.7     nXnXnXnXnX",
"nXnXnXnXnXnXnX                          o O 5 y.y.y.y.y.w.w.u.a.p.          ",
"nXnXnXnXnXnXnX                              * w.w.e.e.w.w.w.E.^.W.          ",
"nXnXnXnXnX    O - - - - - - - - - - - - * @ - _ _ +.z.z.w.w.E.E.E.- - O     ",
"nXnXnXnXnX    6 %.%.%.%.%.%.%.%.%.%.%.%.f d w     P T.b.w.w.w.w.q.%.%.e     ",
"nXnXnXnXnX    6 %.%.%.%.%.%.%.%.%.%.%.%.f d w     P T.b.w.w.w.w.w.%.%.e     ",
"nXnX      l ^ ) %.%.9.9.7.%.%.%.%.=.9.w.%.@.@.w r , $ 4 R R ;.7.=.%.%.e     ",
"nXnX      $.%.%.%.%.w.w.9.%.%.%.%.=.w.w.=.=.@.t d *   X E E -.=.%.%.%.e     ",
"nXnX      ) @.%.=.=.9.9.6.@.@.@.$.*.w.w.7.=.@.f f *   X E E F @.@.^ ^ 6     ",
"nXnX      t d ) w.w.=.%.@.d d d d f w.w.w.w.w.%.%.;   X E E F f t       nXnX",
"nXnX      t d ) w.w.=.%.@.d d d t / w.w.w.w.w.%.%.:   X E E F d t       nXnX",
"    - s h e.e.i.E.E.w.9.*.*.*.@.) @./ ) 9.w.9.%.%.^ s h 3 3 u d t       nXnX",
"    e %.%.~.^.^.^.^.y.w.w.w.w.=.%.@.d d 6.w.9.%.%.%.%.)     ; d t       nXnX",
"    e =.%.Q.~.~.~.~.w.w.w.y.y.=.%.$.d d *.w.9.=.%.%.%.)     ; d r       nXnX",
"    g w.w.w.w.9.%.%.w.w.i.^.^.7.%.%.%.%.%.%.=.w.w.6.%.)           nXnXnXnXnX",
"    g w.w.w.w.9.%.%.9.w.i.^.^.7.%.%.%.%.%.%.=.w.w.=.%.)           nXnXnXnXnX",
"    e 7.7.] @.&.%.%.f.g.g.s.s.=.=.=.7.7.@./ ) ` ` %.%.)           nXnXnXnXnX",
"    e %.%.d d f %.%.).`.).w.w.=.%.=.w.w./ d d d d @.%.)       nXnXnXnXnXnXnX",
"    e %.%.d d / %.%.).`.!.w.w.%.%.=.w.w./ d d d d @.%.)       nXnXnXnXnXnXnX",
"      o   A S 5.*X&X&X*X|.%.%.f d / w.w./ d t d d d d r       nXnXnXnXnXnXnX",
"nXnX      A S 5.=X=X=X=X|.%.%.f d / w.w./ d d d d d d r       nXnXnXnXnXnXnX",
"nXnX      G H S.2X2X=X=X{.@.D 4.N.3.i.i.>.+.>.A.A.#.d r       nXnXnXnXnXnXnX",
"nXnX      U.Y.0XkXkX,X=X'.S S -X7X;X^.^.^.^.oXkXkXt.d r       nXnXnXnXnXnXnX",
"nXnX      U.Y.0XkXkX,X=X'.S S -X7X;X^.^.^.^.oXkXkXt.t r       nXnXnXnXnXnXnX",
"nXnX      OX:X1XkXkXjXjXwXI.I.lXvXpXf / }.&X&X,X,X} . .       nXnXnXnXnXnXnX",
"nXnX      #X=X2XkXkXkXkXtXY.Y.xXbXaXd d .X=X=X=X>X{           nXnXnXnXnXnXnX",
"nXnX      (._.@XdXdXkXkXsXY.7XzXcXhX/ / d._._._._.| 0 0 : : O     nXnXnXnXnX",
"nXnXnXnXnX    ..=X=XjXkXkXkXkXkXkX<Xw.w.:         0.[./.w.w.0     nXnXnXnXnX",
"nXnXnXnXnX    ..=X=XjXkXkXkXkXkXkX<Xw.w.:         0.[./.w.w.7     nXnXnXnXnX",
"nXnX      h.k.:. . .m.M.M.M.M.M.M.l.: : o   & ' ' >.0.8.w.w.7     nXnXnXnXnX",
"nXnX      D.D.j.e q Y E E E E E E K         % w.w.[ ] ] w.w.7     nXnXnXnXnX",
"    X # = G.L.V.( ( Y E E E E U U L o o > , 9 +.+.] ] [ w.w.7     nXnXnXnXnX",
"    B D.D.gXkXkXkXkXn.E E E E i q q q q K.4XL.    s ] ] w.w.g     nXnXnXnXnX",
"    N D.D.gXkXkXkXkXn.E E E E u q q q q K.8XL.    g ] ] w.w.0     nXnXnXnXnX",
"    Z P.P.2X2X2X2X2X! E E E E ]. X X X X6X4X3Xx.x.m 5 0 w.w.7     nXnXnXnXnX",
"    h.4X8X*X=X=X=X=X! E E E E sXkXkXkXfXeX4X4X4X4XN   & w.w.7     nXnXnXnXnX",
"    h.4X3X$X&X&X:X%X! E E E E rXkXkXkXkXqX4X4X4X4XN   + q.q.0     nXnXnXnXnX",
"nXnX          O q q U E E E E +X*X*X=X=XH.D.G.4X4XN           nXnXnXnXnXnXnX",
"nXnX          O q q Y E E E E OX*X*X=X=XH.D.F.4X4XB           nXnXnXnXnXnXnX",
"nXnX          @ 2 2 Y E E E E r.d.A.G.J.3X4X4X9X9XB           nXnXnXnXnXnXnX",
"nXnXnXnXnX    # 2 x Y E E E E i q b E E 5XiXiXiXiXZ           nXnXnXnXnXnXnX",
"nXnXnXnXnX    # x x Y E E E E i q b E E 5XiXiXiXiXZ           nXnXnXnXnXnXnX",
"nXnXnXnXnX    # x x x x x c x W ~ T w w a a u + + .           nXnXnXnXnXnXnX",
"nXnXnXnXnX    # x x x x x x x Q ~ W q q q q ;           nXnXnXnXnXnXnXnXnXnX",
"nXnXnXnXnX    8 <.<.B.C.O., , L I L u p p p y           nXnXnXnXnXnXnXnXnXnX",
"nXnXnXnXnX    ..=X=XjXkXXX    < i c B B B B c       nXnXnXnXnXnXnXnXnXnXnXnX",
"nXnXnXnXnX    ..=X=XjXkXXX    2 x c B B B B v       nXnXnXnXnXnXnXnXnXnXnXnX",
"nXnXnXnXnX    + 8 8 X.O.C v v + . X c c N B v       nXnXnXnXnXnXnXnXnXnXnXnX",
"nXnXnXnXnXnXnX      2 x c B B +   + z i N B v       nXnXnXnXnXnXnXnXnXnXnXnX",
"nXnXnXnXnXnXnX      2 2 c B B +   = X.X.V B c       nXnXnXnXnXnXnXnXnXnXnXnX",
"nXnXnXnXnXnXnX      2 x c B B +   j =X=Xz.B c       nXnXnXnXnXnXnXnXnXnXnXnX",
"nXnXnXnXnXnXnX      2 x c B N +   j =X*Xz.B c       nXnXnXnXnXnXnXnXnXnXnXnX",
"nXnXnXnXnX  o 4 k.k.Y.6X6X6X3X1   & M M c c c i z +     nXnXnXnXnXnXnXnXnXnX",
"nXnXnXnXnX    v L.L.uXiXiXiXiXz         < z c B B >     nXnXnXnXnXnXnXnXnXnX",
"nXnXnXnXnX    N L.L.uXiXiXiXiX1         2 c n Z Z >     nXnXnXnXnXnXnXnXnXnX",
"nXnXnXnXnXnXnXnXnXnXnXnXnXnXnXnXnX      h.c.c.L.L.c     nXnXnXnXnXnXnXnXnXnX",
"nXnXnXnXnXnXnXnXnXnXnXnXnXnXnXnXnX      h.c.c.L.L.z     nXnXnXnXnXnXnXnXnXnX",
"nXnXnXnXnXnXnXnXnXnXnXnXnXnXnXnXnX      D.3X4X8X8XB     nXnXnXnXnXnXnXnXnXnX",
"nXnXnXnXnXnXnXnXnXnXnXnXnXnXnXnXnX      P.iXiXiXiXZ     nXnXnXnXnXnXnXnXnXnX",
"nXnXnXnXnXnXnXnXnXnXnXnXnXnXnXnXnX      P.iXiXiXiXZ     nXnXnXnXnXnXnXnXnXnX"
};
