/* XPM */
static char *left_4[] = {
/* columns rows colors chars-per-pixel */
"37 64 230 2",
"   c #000000",
".  c #070508",
"X  c #05080A",
"o  c #080305",
"O  c #0C030A",
"+  c #0A0A0B",
"@  c #0B190F",
"#  c #0E1011",
"$  c #0B1C17",
"%  c #11060B",
"&  c #19090F",
"*  c #130513",
"=  c #100F10",
"-  c #150D1B",
";  c #1B0912",
":  c #141415",
">  c #151419",
",  c #18151D",
"<  c #1B1B1C",
"1  c #1E0820",
"2  c #15251B",
"3  c #132A19",
"4  c #152020",
"5  c #193F34",
"6  c #220C17",
"7  c #230C19",
"8  c #2A0F1C",
"9  c #230726",
"0  c #200823",
"q  c #2E0C26",
"w  c #2F0C29",
"e  c #221723",
"r  c #23142C",
"t  c #350E2C",
"y  c #390F2F",
"u  c #310D35",
"i  c #3A0F30",
"p  c #390F39",
"a  c #341323",
"s  c #31112F",
"d  c #3B1527",
"f  c #3C1529",
"g  c #381D2A",
"h  c #381037",
"j  c #3D103A",
"k  c #232323",
"l  c #222028",
"z  c #23292E",
"x  c #28232E",
"c  c #2B2A2C",
"v  c #242233",
"b  c #252F3A",
"n  c #2E2C31",
"m  c #2F2A3C",
"M  c #27332F",
"N  c #263632",
"B  c #26343C",
"V  c #253D3A",
"C  c #293739",
"Z  c #36292B",
"A  c #302F33",
"S  c #343335",
"D  c #383636",
"F  c #3A363A",
"G  c #3B3A3A",
"H  c #1F1653",
"J  c #1C1859",
"K  c #3E2C40",
"L  c #352F66",
"P  c #303C74",
"I  c #1E463C",
"U  c #34433A",
"Y  c #274A47",
"T  c #2C4449",
"R  c #284E49",
"E  c #205042",
"W  c #245B4B",
"Q  c #29554D",
"!  c #28594C",
"~  c #295E51",
"^  c #34474B",
"/  c #296253",
"(  c #2A6956",
")  c #316C41",
"_  c #42172B",
"`  c #45182E",
"'  c #4A1E2A",
"]  c #401135",
"[  c #44153B",
"{  c #441E30",
"}  c #48153E",
"|  c #4A1935",
" . c #4D193E",
".. c #501C35",
"X. c #511C3B",
"o. c #581F3A",
"O. c #4E202B",
"+. c #422D32",
"@. c #4A2830",
"#. c #433033",
"$. c #4C3135",
"%. c #54213F",
"&. c #502C33",
"*. c #572D3B",
"=. c #5F213F",
"-. c #5C323E",
";. c #471340",
":. c #40174E",
">. c #4C1442",
",. c #451F51",
"<. c #521645",
"1. c #571748",
"2. c #551B41",
"3. c #581748",
"4. c #591C44",
"5. c #5B1A48",
"6. c #4A3348",
"7. c #4D3A4F",
"8. c #572548",
"9. c #5E2043",
"0. c #5B2748",
"q. c #5F2D47",
"w. c #5F2F50",
"e. c #583549",
"r. c #5C3949",
"t. c #5A3D5C",
"y. c #533365",
"u. c #621E48",
"i. c #632344",
"p. c #672248",
"a. c #692546",
"s. c #6D2648",
"d. c #692E49",
"f. c #65324A",
"g. c #673943",
"h. c #6B325E",
"j. c #6F3A57",
"k. c #742A4A",
"l. c #7C2F4C",
"z. c #73344D",
"x. c #733F4B",
"c. c #7F314D",
"v. c #753250",
"b. c #783351",
"n. c #7A3259",
"m. c gray27",
"M. c #4C4C4C",
"N. c #454E51",
"B. c #4F4E50",
"V. c #4E5D4B",
"C. c #545455",
"Z. c #57565B",
"A. c #5D5D5D",
"S. c #5F5E61",
"D. c #43665B",
"F. c #48695E",
"G. c #4A6C61",
"H. c #4F7165",
"J. c #4D7B6E",
"K. c #76414C",
"L. c #76415D",
"P. c #7B4552",
"I. c #644767",
"U. c #684867",
"Y. c #774365",
"T. c #7F496E",
"R. c #7E5665",
"E. c #666566",
"W. c #6C6B6B",
"Q. c #726C6D",
"!. c #737373",
"~. c #7A7A7A",
"^. c #4C709B",
"/. c #5078A1",
"(. c #7E7B9B",
"). c #3B804D",
"_. c #6B87AB",
"`. c #708EB1",
"'. c #84344E",
"]. c #89374F",
"[. c #8B384F",
"{. c #8E3A50",
"}. c #913C51",
"|. c #804653",
" X c #844956",
".X c #8D445F",
"XX c #8B4E5B",
"oX c #8C4B63",
"OX c #8A5363",
"+X c #95426A",
"@X c #935165",
"#X c #9B5A69",
"$X c #986573",
"%X c #9A6C75",
"&X c #A05D6C",
"*X c #A85C6F",
"=X c #B15D75",
"-X c #A96573",
";X c #A9677B",
":X c #AB6977",
">X c #A9717A",
",X c #BB6579",
"<X c #B86B7F",
"1X c #C16A7D",
"2X c #8F6181",
"3X c #AA7F85",
"4X c #B77984",
"5X c #B87A83",
"6X c #C56F81",
"7X c #CE7A89",
"8X c #828282",
"9X c #8E8E8E",
"0X c #928C8D",
"qX c #9C8C9C",
"wX c #939393",
"eX c #8181A0",
"rX c #9485A0",
"tX c #AB899F",
"yX c #A691A8",
"uX c #AEAEAE",
"iX c #CA8D94",
"pX c #CE939A",
"aX c #D4828F",
"sX c #D58391",
"dX c #E08F9A",
"fX c #E4949E",
"gX c #ECC2CB",
"hX c #EBE1EB",
"jX c #F2E9F2",
"kX c None",
/* pixels */
"kXkXkXkXkXkXkXkXkXkXkXkXkXkXkXkXkXkXkX                      kXkXkXkXkXkXkX",
"kXkXkXkXkXkXkXkXkXkXkXkXkXkXkXkXkXkXkX                      kXkXkXkXkXkXkX",
"kXkXkXkXkXkXkXkXkXkXkXkXkXkXkXkXkX    % d d ' O.O.O.O.f d 6       kXkXkXkX",
"kXkXkXkXkXkXkXkXkXkXkXkXkXkXkXkXkX    ; s.s.].}.}.}.}.s.s._       kXkXkXkX",
"kXkXkXkXkXkXkX                        ; i.i.'.[.}.}.}.s.s.' o o       kXkX",
"kXkXkXkXkXkXkX                              =.s.s.s.s.s.s.s.s.s.o     kXkX",
"kXkXkXkXkXkXkX                              =.s.s.s.s.s.s.s.s.s.o     kXkX",
"kXkXkXkX      ; t t t t t t t t t t t w 1 1 0 8 Z V.V.d.s.l.'.'.o     kXkX",
"kXkXkXkX      t 1.1.3.3.1.1.1.1.1.1.1.>.u u O   3 ).).f.a.l.}.}.o     kXkX",
"kXkX      O O i 1.3.5.5.3.1.1.1.1.5.5.>.p u O o 2 ) ) r.f.z.{.{.& % o     ",
"kXkX    o 1.1.1.1.3.s.s.5.1.1.1.1.p.s.p.3.1.p u 9     W ( N.s.s.s.s.d     ",
"kXkX    o 1.3.3.1.3.s.s.u.1.1.1.5.p.s.p.1.1.p u 9     W ( N.s.a.s.s.d     ",
"kXkX      p j 2.p.u.5.5.} p p [ [ u.s.a.p.p.>.>.t     W ( ^ [ [ 7 6 %     ",
"kXkX    o u u 2.s.s.3.1.p u u u u 4.s.s.s.s.5.1.s     W ( T u u           ",
"    O % & [ } i.k.k.5.5.} [ p p p X.u.i.s.s.5.1.] % * I E B u u o         ",
"    w 1.5.}.}.}.}.[.s.s.s.s.p.3.1.p u [ s.s.5.3.3.1.3.O   * u u       kXkX",
"    q 1.3.}.}.}.}.{.s.s.s.s.p.3.1.j u [ s.s.5.1.1.1.1.O   * u u       kXkX",
"    d p.p.l.k.p.u.p.s.s.c.].c.1.1.<.>.<.5.5.p.a.u.3.1.O   o O O       kXkX",
"    d s.s.s.s.u.1.5.s.s.'.}.'.1.1.1.1.1.1.3.p.s.u.3.1.O               kXkX",
"    a p.a.4.4.5.3.5.b.b.'.'.l.1.1.3.5.5.>.>.4.4.5.1.1.O               kXkX",
"    w 1.1.u u } 3.5.oXoXb.s.p.1.1.p.s.9.u u u u p 3.3.O     kXkXkXkXkXkXkX",
"    q 1.<.u u ;.3.5.oXoXb.s.a.1.1.p.s.9.u u u u p 1.3.O     kXkXkXkXkXkXkX",
"    o O O H H Y.=X=X,X,Xn.5.<.h h 9.a.9.u u u u u p u .     kXkXkXkXkXkXkX",
"kXkX    . J J T.1X1X1X<Xn.1.>.u u 9.a.o.u u u u u u u o     kXkXkXkXkXkXkX",
"kXkX    . P P 2X7X7X<X1Xh.:.,.t.t.v.c.s.%.4.j.L.f.u u .     kXkXkXkXkXkXkX",
"kXkX    X /./.tXfXdX1X1Xy.J L qXqX@X}.{.}.}.aXfX;Xu u .     kXkXkXkXkXkXkX",
"kXkX    . ^./.tXfXdX1X1Xy.J L tXqX@X}.}.}.}.aXfX;Xu u .     kXkXkXkXkXkXkX",
"kXkX    O <X4XaXfXfXdXfX(.^._.jXhXU.h 0.,X1X1X1X|..         kXkXkXkXkXkXkX",
"kXkX    O 1X,XaXfXfXfXfXeX/.`.jXjXI.u 8.1X1X1X1XP.          kXkXkXkXkXkXkX",
"kXkX    o g.g.-XaXsXfXfXtXrXyXgXgXY. .%.g.g.g.g.-.{ { a a ;       kXkXkXkX",
"kXkXkXkX      K.1X6XfXfXfXfXfXfXfX.Xs...        a +X+Xk.s._       kXkXkXkX",
"kXkXkXkX      K.1X6XfXfXfXfXfXfXfXoXs...        a +X+Xk.s._       kXkXkXkX",
"kXkX    + E.E.K 1 r ( ( ( ( ( ( ( $         o.s.i.X.X.a.s._       kXkXkXkX",
"kXkX  o . E.E.K 1 r ( ( ( ( ( ( ( $         o.s.i.....a.s._       kXkXkXkX",
"    < D G tX3X$XOXR.( ( ( ( ~ K B , * e M.M.g a f X.X.a.s._       kXkXkXkX",
"    D E.W.dXfXfXfXpX( ( ( ( Q 9 9 9 9 K 0X0X2   ; ..X.a.s._       kXkXkXkX",
"    D W.Q.dXdXfXdXiX/ / ( ( Q s s s s 6.9X0Xk + , | | a.s._       kXkXkXkX",
"    M.9X0X1X1X1X4X;X( ( ( ( H.fXfXfXfXpX9X9XwX9XS.    =.s._       kXkXkXkX",
"    M.9X0X1X1X1X6X;X( ( ( ( H.fXfXfXfXpXwX9X9X0XS.    =.s._       kXkXkXkX",
"    < D D @.@.*.0.e.( ( ( ( G.7X7X7X7X4X!.!.9X0XS.    7 8 ;       kXkXkXkX",
"kXkX          * 9 r ( ( ( ( G.,X6X6X6X;XE.E.8X9XA.          kXkXkXkXkXkXkX",
"kXkX          - r v ( ( ( ( D.*X*X-X;X%XQ.!.9XwXE.          kXkXkXkXkXkXkX",
"kXkXkXkX      I ( ( ( ( ( ( Q 9 1 Y ( J.uXuXuXuX!.          kXkXkXkXkXkXkX",
"kXkXkXkX      5 ( ( ( ( ( ( Q 9 9 Y ( J.uXuXuXuX!.          kXkXkXkXkXkXkX",
"kXkXkXkX      4 V V ( ( ( ( / R Y B v K 7.7.F D k           kXkXkXkXkXkXkX",
"kXkXkXkX      > e z ( ( ( ( ( ( ( v 1 9 9 9 .           kXkXkXkXkXkXkXkXkX",
"kXkXkXkX      > l z W ! ! ! ! ( ( C x x x n X           kXkXkXkXkXkXkXkXkX",
"kXkXkXkX      : l l l l e k N ).).).).).).) $     kXkXkXkXkXkXkXkXkXkXkXkX",
"kXkXkXkX      > k e e x l k N ) ) ).).).).).@     kXkXkXkXkXkXkXkXkXkXkXkX",
"kXkXkXkX      -.#X$X5X5X+.X : C N U ^ U U U #     kXkXkXkXkXkXkXkXkXkXkXkX",
"kXkXkXkX      x.1X6XfXfX$.  + k e S S S D S +     kXkXkXkXkXkXkXkXkXkXkXkX",
"kXkXkXkX      &. XXX>X>X#.# : > > c n A D S +     kXkXkXkXkXkXkXkXkXkXkXkX",
"kXkXkXkXkXkXkX    o e l n S c     < e z S S +     kXkXkXkXkXkXkXkXkXkXkXkX",
"kXkXkXkXkXkXkX    . 4 l n S c     , l x S S +     kXkXkXkXkXkXkXkXkXkXkXkX",
"kXkXkXkXkXkXkX    . l l n S c     P.*XOXS S +     kXkXkXkXkXkXkXkXkXkXkXkX",
"kXkXkXkXkXkXkX    . l l n S c     XX<X#XS S +     kXkXkXkXkXkXkXkXkXkXkXkX",
"kXkXkXkX      < c S Z.Z.S.E.M.    *.K.g.M n , : +       kXkXkXkXkXkXkXkXkX",
"kXkXkXkX      m.!.~.uXuXuXuX9X        + k l A S k       kXkXkXkXkXkXkXkXkX",
"kXkXkXkX      m.!.~.uXuXuXuX9X        + e 4 S S k       kXkXkXkXkXkXkXkXkX",
"kXkXkXkX      m.!.!.uXuXuXuX9X        : Z.C.W.W.M.      kXkXkXkXkXkXkXkXkX",
"kXkXkXkXkXkXkXkXkXkXkXkXkXkXkXkXkX    : C.C.W.!.M.      kXkXkXkXkXkXkXkXkX",
"kXkXkXkXkXkXkXkXkXkXkXkXkXkXkXkXkX    k 8X_.9X9XA.      kXkXkXkXkXkXkXkXkX",
"kXkXkXkXkXkXkXkXkXkXkXkXkXkXkXkXkX  o Z uXuXuXuX!.      kXkXkXkXkXkXkXkXkX",
"kXkXkXkXkXkXkXkXkXkXkXkXkXkXkXkXkX    Z uXuXuXuX!.      kXkXkXkXkXkXkXkXkX"
};
