/* XPM */
static char *left_6[] = {
/* columns rows colors chars-per-pixel */
"37 64 232 2",
"   c #000000",
".  c #070308",
"X  c #05080A",
"o  c #090305",
"O  c #0C0409",
"+  c #0A0A0B",
"@  c #0B190F",
"#  c #0E1011",
"$  c #0B1C17",
"%  c #14070D",
"&  c #13080E",
"*  c #140513",
"=  c #100F10",
"-  c #150D1B",
";  c #1B0912",
":  c #141415",
">  c #151419",
",  c #18151D",
"<  c #1B1B1C",
"1  c #1E0820",
"2  c #15251B",
"3  c #132A19",
"4  c #152020",
"5  c #193F34",
"6  c #220C17",
"7  c #230B1A",
"8  c #290E1B",
"9  c #2D101D",
"0  c #230726",
"q  c #200823",
"w  c #2E0C26",
"e  c #2F0C29",
"r  c #221723",
"t  c #23142C",
"y  c #350E2C",
"u  c #390F2F",
"i  c #310D35",
"p  c #3A0F30",
"a  c #390F39",
"s  c #341425",
"d  c #31112F",
"f  c #351B27",
"g  c #3B1527",
"h  c #381328",
"j  c #381037",
"k  c #3D103A",
"l  c #232223",
"z  c #222028",
"x  c #23292E",
"c  c #28232E",
"v  c #2B2A2C",
"b  c #242233",
"n  c #252F3A",
"m  c #2E2C31",
"M  c #2F2A3C",
"N  c #27332F",
"B  c #263632",
"V  c #26343C",
"C  c #253D3A",
"Z  c #293739",
"A  c #36292B",
"S  c #322D32",
"D  c #343335",
"F  c #383636",
"G  c #3A363A",
"H  c #3B3A3A",
"J  c #1F1653",
"K  c #1C1859",
"L  c #3E2C40",
"P  c #3D3E45",
"I  c #352F66",
"U  c #303C74",
"Y  c #1E463C",
"T  c #34433A",
"R  c #274A47",
"E  c #284E49",
"W  c #205042",
"Q  c #245B4B",
"!  c #29554D",
"~  c #28594C",
"^  c #295E51",
"/  c #296253",
"(  c #2A6956",
")  c #316C41",
"_  c #42172B",
"`  c #45182E",
"'  c #4A1E2A",
"]  c #401135",
"[  c #44153B",
"{  c #451C30",
"}  c #48153E",
"|  c #4D1B33",
" . c #4D193E",
".. c #501C35",
"X. c #541D3B",
"o. c #581F3A",
"O. c #45262C",
"+. c #4E202B",
"@. c #462736",
"#. c #422D32",
"$. c #4A2830",
"%. c #433033",
"&. c #4C3135",
"*. c #54213F",
"=. c #502C33",
"-. c #572D3B",
";. c #5F213F",
":. c #5D353F",
">. c #471340",
",. c #40174E",
"<. c #4C1442",
"1. c #451F51",
"2. c #511644",
"3. c #571748",
"4. c #551B41",
"5. c #581748",
"6. c #591C44",
"7. c #5B1A48",
"8. c #4A3348",
"9. c #4D3A4F",
"0. c #572548",
"q. c #5E2043",
"w. c #5B2748",
"e. c #5F2B45",
"r. c #5F2F50",
"t. c #583549",
"y. c #5C3949",
"u. c #5A3D5C",
"i. c #533365",
"p. c #621E48",
"a. c #632344",
"s. c #672248",
"d. c #6D2648",
"f. c #692E4A",
"g. c #65324A",
"h. c #673943",
"j. c #6B325E",
"k. c #6F3A57",
"l. c #732A4A",
"z. c #7A2E4C",
"x. c #733F4B",
"c. c #7F314D",
"v. c #763352",
"b. c #783351",
"n. c #7A3259",
"m. c gray27",
"M. c #4C4C4C",
"N. c #454E51",
"B. c #4F4E50",
"V. c #4E5D4B",
"C. c #495152",
"Z. c #535554",
"A. c #57565B",
"S. c #5D5D5D",
"D. c #5F5E61",
"F. c #43665B",
"G. c #48695E",
"H. c #4A6C61",
"J. c #4F7165",
"K. c #4D7B6E",
"L. c #76414C",
"P. c #76415D",
"I. c #7B4552",
"U. c #644767",
"Y. c #684867",
"T. c #774365",
"R. c #7F496E",
"E. c #7E5665",
"W. c #666566",
"Q. c #6C6B6B",
"!. c #726C6D",
"~. c #737373",
"^. c #7A7A7A",
"/. c #4C709B",
"(. c #5078A1",
"). c #7E7B9B",
"_. c #3B804D",
"`. c #6B87AB",
"'. c #708EB1",
"]. c #84354E",
"[. c #89374F",
"{. c #8C394F",
"}. c #8E3A50",
"|. c #913C51",
" X c #893C61",
".X c #804653",
"XX c #844956",
"oX c #8D445F",
"OX c #8B4E5B",
"+X c #8C4B63",
"@X c #8A5363",
"#X c #95426A",
"$X c #935165",
"%X c #9B5A69",
"&X c #986573",
"*X c #9A6C75",
"=X c #A05D6C",
"-X c #A85C6F",
";X c #B15D75",
":X c #A96573",
">X c #A9677B",
",X c #AB6977",
"<X c #A9717A",
"1X c #BB6579",
"2X c #B86B7F",
"3X c #C16A7D",
"4X c #8F6181",
"5X c #AA7F85",
"6X c #B77984",
"7X c #B87A83",
"8X c #C56F81",
"9X c #CE7A89",
"0X c #828282",
"qX c #8E8E8E",
"wX c #928C8D",
"eX c #9C8C9C",
"rX c #939393",
"tX c #8181A0",
"yX c #9485A0",
"uX c #AB899F",
"iX c #A691A8",
"pX c #AEAEAE",
"aX c #CA8D94",
"sX c #CE939A",
"dX c #D4828F",
"fX c #D58391",
"gX c #E08F9A",
"hX c #E4949E",
"jX c #ECC2CB",
"kX c #EBE1EB",
"lX c #F2E9F2",
"zX c None",
/* pixels */
"zXzXzXzXzXzXzXzXzXzXzXzXzXzXzXzXzXzXzX                      zXzXzXzXzXzXzX",
"zXzXzXzXzXzXzXzXzXzXzXzXzXzXzXzXzXzXzX                      zXzXzXzXzXzXzX",
"zXzXzXzXzXzXzXzXzXzXzXzXzXzXzXzXzX    % g g ' +.+.+.+.g g 6       zXzXzXzX",
"zXzXzXzXzXzXzXzXzXzXzXzXzXzXzXzXzX    ; d.d.[.|.|.|.|.l.d.`       zXzXzXzX",
"zXzXzXzXzXzXzX                        ; a.a.].}.}.}.|.l.d.` o o       zXzX",
"zXzXzXzXzXzXzX                              o.d.d.d.d.d.d.d.d.d.o     zXzX",
"zXzXzXzXzXzXzX                              X.d.d.d.d.d.d.d.d.d.o     zXzX",
"zXzXzXzX      ; y y y y y y y y y y u y - q 8 8 A V.V.f.d.d.d.d.o     zXzX",
"zXzXzXzX      y 3.3.5.5.3.3.3.3.3.3.3.<.i i .   3 _._.g.d.d.d.d.o     zXzX",
"zXzX      O O u 3.5.7.7.5.3.3.3.3.7.7.2.i i * o 2 ) ) y.g.f.l.d.o     zXzX",
"zXzX    o 3.3.3.3.5.d.d.7.3.3.3.5.s.d.s.5.5.a i q     Q ( Z.|.|.o     zXzX",
"zXzX    o 3.3.3.3.5.d.d.p.3.3.3.5.s.d.s.5.5.a i q     Q ( Z.|.|.o     zXzX",
"        o k a 4.s.p.7.7.} a a [ k a.d.d.s.s.2.} d     ~ ( C.z.z.| | 8     ",
"          i i 4.d.d.5.3.a i i i i 6.d.d.d.d.7.3.h     Q ( N.d.d.d.d.g     ",
"    O * ; [ } a.z.d.7.7.} [ a a a X.p.a.d.d.7.3.] * * Y W P s.s.o...9     ",
"    w 3.7.|.|.|.|.{.d.d.d.d.s.5.3.a i [ d.d.7.3.3.3.5.O   q 3.3.o         ",
"    w 3.7.|.|.|.|.}.d.d.d.d.s.3.3.k i [ d.d.7.3.5.3.3.O   7 3.3.o         ",
"    h s.s.l.l.d.s.s.d.d.c.}.c.3.3.<.<.2.7.7.s.s.p.3.3.O   * a a           ",
"    g d.d.d.d.p.3.5.d.d.].|.].3.3.3.3.5.5.5.s.d.p.3.3.O   * i i       zXzX",
"    8 | | o.6.7.3.7.b.b.c.].c.3.3.7.7.5.<.<.6.q.5.3.3.O   * i i o     zXzX",
"zXzX    o i i >.3.7.+X+Xb.d.s.3.5.s.d.q.i i i i [ 3.3.O   * i i       zXzX",
"zXzX      i i >.3.7.+X+Xb.d.s.3.5.s.d.q.i i i i a 5.3.O   * i i       zXzX",
"zXzX    . J J T.1X;X1X1Xn.7.2.j a q.d.o.i i i i i i a .     . o       zXzX",
"zXzX      K K R.3X1X2X3Xn.5.<.i i q.d.X.i i i i i i i .               zXzX",
"zXzX    . U U 4X9X9X1X3Xi.,.1.U.i.x.z.d.o.o.k.P.g.i i .               zXzX",
"zXzX    X (./.uXhXhX3X3Xi.K I yXeX$X|.|.|.|.dXhX>Xi i o     zXzXzXzXzXzXzX",
"zXzX    X (.(.uXhXfX3X3XU.K I eXeX$X|.|.oX|.fXhX>Xi i       zXzXzXzXzXzXzX",
"zXzX    + 2X2XfXhXhXhXhX4X/.'.lXkXY.k w.1X1X3X3XXX  .       zXzXzXzXzXzXzX",
"zXzX    O 3X1XfXhXhXhXhXtX(.'.lXlXU.i 0.3X3X3X3X.X      zXzXzXzXzXzXzXzXzX",
"zXzX    o h.h.:XfXfXhXhXuXyXiXjXjXT. .*.h.h.h.h.$.      zXzXzXzXzXzXzXzXzX",
"zXzXzXzX      x.3X8XhXhXhXhXhXhXhXoXd...                zXzXzXzXzXzXzXzXzX",
"zXzXzXzX      L.3X8XhXhXhXhXhXhXhXoXl...                zXzXzXzXzXzXzXzXzX",
"zXzX    O W.D.8.0 t ( ( ( ( ( ( ( $         v.#X#X#X#X&     zXzXzXzXzXzXzX",
"zXzX    . W.W.G 0 t ( ( ( ( ( ( ( $         v.#X#X#X#X&     zXzXzXzXzXzXzX",
"    < H H 5X5X&X@XE.( ( ( ( ^ V V , * r B.M.@.| a.#X#X{ g 6       zXzXzXzX",
"    F W.Q.hXhXhXhXaX( ( ( ( ! 0 0 0 1 8.qXqX2   f #X#Xl.d._       zXzXzXzX",
"    H Q.!.hXgXhXhXfX( ( ( ( ! i i d d 8.qXrXl + f  X Xl.d._       zXzXzXzX",
"    M.qXwX3X3X3X7X:X( ( ( ( J.hXhXhXhXsXqXqXqXqXS.    q.d._       zXzXzXzX",
"    M.qXwX3X3X3X3X>X( ( ( ( J.hXhXhXhXsXqXqXqXqXS.    ;.d._       zXzXzXzX",
"    < D G $.$.-.w.t.( ( ( ( H.9X9X9X9X6X~.~.qXqXW.    ;.d._       zXzXzXzX",
"zXzX          * 0 t ( ( ( ( H.1X3X3X3X,XW.W.0XqXS.    ;.d._       zXzXzXzX",
"zXzX          - t b ( ( ( ( F.-X-X,X,X*X~.~.qXrXW.    ;.d._       zXzXzXzX",
"zXzXzXzX      5 ( ( ( ( ( ( ! 0 0 E ( K.pXpXpXpX~.    ;.d._       zXzXzXzX",
"zXzXzXzX      5 ( ( ( ( ( ( ! 0 0 E ( K.pXpXpXpX~.    ;.d._       zXzXzXzX",
"zXzXzXzX      4 B C ( ( ( ( / E R n n M 9.9.G D A h h 7 6 %       zXzXzXzX",
"zXzXzXzX      > z x ( ( ( ( ( ( ( b 0 0 0 0 o   ; X.X.o     zXzXzXzXzXzXzX",
"zXzXzXzX      > l c ! ^ ~ ~ ~ ( ( Z m b c c X   ; 6.o.O     zXzXzXzXzXzXzX",
"zXzXzXzX      : z z z r l l N _._._._._.) _.@   6 d.d.O     zXzXzXzXzXzXzX",
"zXzXzXzX      > r z z z z l B ) _._._._._._.@   6 d.d.O     zXzXzXzXzXzXzX",
"zXzXzXzX      :.%X=X7X7X%.X : C N T T T T T +   o ; & o     zXzXzXzXzXzXzX",
"zXzXzXzX      L.3X8XhXhX&.  + l z S D D D D +           zXzXzXzXzXzXzXzXzX",
"zXzXzXzX      $.XXOX<X<X%.+ : > > x m m D D +           zXzXzXzXzXzXzXzXzX",
"zXzXzXzXzXzXzX    . z z m D v     , z c D D +     zXzXzXzXzXzXzXzXzXzXzXzX",
"zXzXzXzXzXzXzX    X z z m D v     < l c D D +     zXzXzXzXzXzXzXzXzXzXzXzX",
"zXzXzXzXzXzXzX    . c r m D v     I.-X@XD D +     zXzXzXzXzXzXzXzXzXzXzXzX",
"zXzXzXzXzXzXzX      4 r m D v     OX1X%XD D +     zXzXzXzXzXzXzXzXzXzXzXzX",
"zXzXzXzX      < v D A.A.S.W.M.    -.L.h.m m < : +       zXzXzXzXzXzXzXzXzX",
"zXzXzXzX      m.~.^.pXpXpXpXqX        + z 4 m D l       zXzXzXzXzXzXzXzXzX",
"zXzXzXzX      m.~.^.pXpXpXpXqX        X z t D D l       zXzXzXzXzXzXzXzXzX",
"zXzXzXzX      m.~.^.pXpXpXpXqX        < Z.Z.Q.Q.M.      zXzXzXzXzXzXzXzXzX",
"zXzXzXzXzXzXzXzXzXzXzXzXzXzXzXzXzX    : A.Z.Q.~.M.      zXzXzXzXzXzXzXzXzX",
"zXzXzXzXzXzXzXzXzXzXzXzXzXzXzXzXzX    l 0X0XqXqXS.      zXzXzXzXzXzXzXzXzX",
"zXzXzXzXzXzXzXzXzXzXzXzXzXzXzXzXzX    m pXpXpXpX~.      zXzXzXzXzXzXzXzXzX",
"zXzXzXzXzXzXzXzXzXzXzXzXzXzXzXzXzX    v pXpXpXpX~.      zXzXzXzXzXzXzXzXzX"
};
