/* XPM */
static char *left_2[] = {
/* columns rows colors chars-per-pixel */
"38 64 247 2",
"   c #000000",
".  c #060608",
"X  c #050E0B",
"o  c #0A0306",
"O  c #0E0509",
"+  c #0B0A0B",
"@  c #0F0410",
"#  c #0D0D10",
"$  c #0F1B19",
"%  c #13060C",
"&  c #10090A",
"*  c #110411",
"=  c #130E12",
"-  c #1A0716",
";  c #1C071E",
":  c #1D0C13",
">  c #1E0819",
",  c #141415",
"<  c #151419",
"1  c #1E1014",
"2  c #18171D",
"3  c #1C1C1C",
"4  c #1C1B21",
"5  c #102A22",
"6  c #1F3B28",
"7  c #200B15",
"8  c #260C1B",
"9  c #2B0F1D",
"0  c #25151A",
"q  c #2A121D",
"w  c #230726",
"e  c #250A27",
"r  c #250A29",
"t  c #290A22",
"y  c #2A0B2E",
"u  c #2D0C31",
"i  c #24162D",
"p  c #231A2F",
"a  c #330D2A",
"s  c #310D35",
"d  c #3A0F35",
"f  c #390F39",
"g  c #321222",
"h  c #341728",
"j  c #331C21",
"k  c #3F1A23",
"l  c #3F1436",
"z  c #3D113A",
"x  c #232324",
"c  c #232129",
"v  c #29262C",
"b  c #2B2B2C",
"n  c #242133",
"m  c #2D2C31",
"M  c #25303A",
"N  c #3D2128",
"B  c #302E33",
"V  c #333235",
"C  c #393237",
"Z  c #3E3238",
"A  c #3A393A",
"S  c #1A1653",
"D  c #1E1758",
"F  c #1C1859",
"G  c #261246",
"H  c #303E75",
"J  c #1E4D3F",
"K  c #2C4E38",
"L  c #275533",
"P  c #2B5336",
"I  c #2D5E3B",
"U  c #345236",
"Y  c #325D3F",
"T  c #2F663D",
"R  c #264540",
"E  c #284E49",
"W  c #215445",
"Q  c #295D50",
"!  c #335F41",
"~  c #296453",
"^  c #2A6957",
"/  c #356C46",
"(  c #386444",
")  c #3D695B",
"_  c #397649",
"`  c #397D4D",
"'  c #46182E",
"]  c #441730",
"[  c #42133B",
"{  c #421D39",
"}  c #4C143E",
"|  c #4B1A32",
" . c #521D3A",
".. c #402329",
"X. c #412A35",
"o. c #4D2A32",
"O. c #44323A",
"+. c #49323C",
"@. c #4C383F",
"#. c #5D213E",
"$. c #4C1442",
"%. c #521644",
"&. c #571748",
"*. c #571E41",
"=. c #5A1A46",
"-. c #5C1A48",
";. c #4F2552",
":. c #483545",
">. c #5D2042",
",. c #5D2A42",
"<. c #5B3145",
"1. c #5B3A46",
"2. c #583C4D",
"3. c #5E3867",
"4. c #611F47",
"5. c #611E49",
"6. c #632345",
"7. c #652148",
"8. c #632C46",
"9. c #692547",
"0. c #6D2649",
"q. c #6B2945",
"w. c #623740",
"e. c #6C314C",
"r. c #6A3856",
"t. c #6D3A58",
"y. c #712A46",
"u. c #742A4A",
"i. c #792E4B",
"p. c #713250",
"a. c #753A53",
"s. c #7D3759",
"d. c gray26",
"f. c #4B404D",
"g. c #4C4C4C",
"h. c #55424F",
"j. c #594148",
"k. c #524C52",
"l. c #5B535B",
"z. c #5B5B5B",
"x. c #4A6D4C",
"c. c #406B5D",
"v. c #43754C",
"b. c #426E60",
"n. c #674C52",
"m. c #684A52",
"M. c #635865",
"N. c #675D69",
"B. c #6D5465",
"V. c #6B5D6C",
"C. c #775C64",
"Z. c #656565",
"A. c #686966",
"S. c #6C6C6C",
"D. c #78626E",
"F. c #78696A",
"G. c #726C74",
"H. c #737373",
"J. c #7D7D7E",
"K. c #486C93",
"L. c #4A7096",
"P. c #4D749E",
"I. c #5078A1",
"U. c #746A88",
"Y. c #7F708B",
"T. c #7D7292",
"R. c #3B804D",
"E. c #748480",
"W. c #84344E",
"Q. c #87384B",
"!. c #8C394F",
"~. c #823C5B",
"^. c #8E3A50",
"/. c #913C51",
"(. c #8F3E65",
"). c #84445F",
"_. c #94445A",
"`. c #9D4B5E",
"'. c #8E4263",
"]. c #8C4B63",
"[. c #8A4E70",
"{. c #815E69",
"}. c #904663",
"|. c #95426A",
" X c #944E64",
".X c #9D4E6B",
"XX c #975C6E",
"oX c #9A5169",
"OX c #807A79",
"+X c #897476",
"@X c #98636A",
"#X c #966B73",
"$X c #986673",
"%X c #A34E61",
"&X c #A4576E",
"*X c #AE596B",
"=X c #A75B70",
"-X c #AC5E70",
";X c #A26975",
":X c #B46274",
">X c #B96678",
",X c #BA697B",
"<X c #C16A7D",
"1X c #82748E",
"2X c #9A6683",
"3X c #957284",
"4X c #997688",
"5X c #C56F81",
"6X c #C67283",
"7X c #C57788",
"8X c #CF7B8A",
"9X c #D27E8D",
"0X c #848485",
"qX c #8E8E8E",
"wX c #89809D",
"eX c #9A8382",
"rX c #998D8F",
"tX c #978697",
"yX c #9C8F91",
"uX c #9C8C9C",
"iX c #929292",
"pX c #8B83A0",
"aX c #AC8085",
"sX c #A68097",
"dX c #A88C9E",
"fX c #B0888A",
"gX c #BE8A8F",
"hX c #B38B9F",
"jX c #BF8C90",
"kX c #A29AAF",
"lX c #B39BA0",
"zX c #A6A6A6",
"xX c #AEAEAE",
"cX c #BEAEBF",
"vX c #BEB1BE",
"bX c #C48090",
"nX c #CD909F",
"mX c #D68391",
"MX c #DD8F9A",
"NX c #DE949E",
"BX c #E08F9A",
"VX c #E4949E",
"CX c #E19EA9",
"ZX c #E7A2AC",
"AX c #D1D2E1",
"SX c #F2E9F2",
"DX c None",
/* pixels */
"DXDXDXDXDXDXDXDXDXDXDXDXDXDXDXDXDXDXDXDX                      DXDXDXDXDXDXDX",
"DXDXDXDXDXDXDXDXDXDXDXDXDXDXDXDXDXDXDXDX                      DXDXDXDXDXDXDX",
"DXDXDXDXDXDXDX                              O k k k k k g g %     DXDXDXDXDX",
"DXDXDXDXDXDXDX                              : /././.^.^.0.0.9     DXDXDXDXDX",
"DXDXDXDXDXDXDX                              : /./././.^.0.y.q     DXDXDXDXDX",
"DXDXDXDXDX    > } } } $.$.} } } } } $.} s y e & & U v.x.0.0.6.6.#.      DXDX",
"DXDXDXDXDX    8 &.&.&.&.&.&.&.&.&.&.&.&.f s y     L ` v.0.0.0.0.6.      DXDX",
"DXDX      - - a &.&.-.-.-.&.&.&.&.=.-.-.} z s @ @ 6 L P 2.2.e.i.y.      DXDX",
"DXDX      %.&.&.&.&.9.0.7.&.&.&.&.=.0.0.-.&.%.s s *   X ^ ^ n./.Q.      DXDX",
"DXDX      $.&.&.&.&.9.0.7.-.&.&.&.=.0.0.-.&.$.s s *   X ^ ^ n./.Q.      DXDX",
"DXDX      d z $.9.9.5.-.%.f f f z $.0.0.0.9.7.$.$.-   X ^ ^ h.u.q.      DXDX",
"DXDX      u u } 0.0.&.&.$.s s s u [ 0.0.0.0.9.&.&.>   X ^ ^ h.0.9.      DXDX",
"DXDX      [ [ #.u.u.-.-.%.z z f f [ 6.7.0.0.9.&.&.t * , W W :.6. .: % O     ",
"DXDX      Q././././.u.0.0.0.0.-.&.$.u s -.y.7.&.&.&.&.}     ; s d 0.0.g     ",
"DXDX      Q././././.u.0.0.0.0.-.&.$.s u >.0.9.&.&.&.&.}     ; s d 0.0.g     ",
"    7 ' ] i.i.u.0.9.0.0.u.W.W.5.&.%.$.$.=.5.-.7.5.-.&.}     y } [ 8 8 %     ",
"    g 0.0.0.0.7.&.&.9.0.i.^./.5.&.&.&.&.&.&.-.0.0.5.&.}     a &.%.          ",
"    g q.0.9.9.5.&.&.0.u.i.^.^.5.&.&.-.-.&.%.=.7.7.-.&.}     a &.$.          ",
"    t &.&.s s z &.&.).].~.0.0.-.&.-.0.0.[ s s s u } &.}     ; s u       DXDX",
"    t &.&.s s [ &.&.).].).9.0.-.&.-.0.0.[ s s u s } &.}     ; s u       DXDX",
"    * t t G G ;.(.).&X*X}.5.-.} [ $.0.0.z s s s s f [ f     ; s u       DXDX",
"DXDX      S F 3.<X<X<X<X.X&.&.f s [ y.0.[ s s u s u s u     w s u       DXDX",
"DXDX      S F 3.<X<X<X<X.X&.&.f s [ 0.0.[ s s s s s s y     ; s u       DXDX",
"DXDX      K.P.pXVXVX6X<X[.D D Y.tX3X/.!.!.!.`.NXNXr.s y                 DXDX",
"DXDX      L.I.pXVXVX6X<X[.F F 1XuX4X/./././.%XVXVXt.s y                 DXDX",
"DXDX      U.T.sXVXVX9X8X2XH H kXvXdXq.q._.%X*XmXmX<.; ;                 DXDX",
"DXDX      :X<X8XVXVXVXVXhXI.I.AXSXcXu s oX<X<X<X<X..    DXDXDXDXDXDXDXDXDXDX",
"DXDX      :X<X8XVXVXVXVXhXI.I.AXSXcXs s oX<X<X<X<X..    DXDXDXDXDXDXDXDXDXDX",
"DXDX      1 7 w.6X6XVXVXNXnXnXCXZXbX6.6.g 1 1 1 1 ,.s.e.      DXDXDXDXDXDXDX",
"DXDXDXDXDX    o.<X<XBXVXVXVXVXVXVX7X0.0.:         8.|.s.      DXDXDXDXDXDXDX",
"DXDX      < 3 +. X XaXfXfXfXfXfXfX#X|  .%   o q q p.|.(.: : O     DXDXDXDXDX",
"DXDX      Z.A.f.w w Q ^ ^ ^ ^ ^ ^ J         : |.|.|.|.'.0.0.9     DXDXDXDXDX",
"DXDX      z.A.f.w w Q ^ ^ ^ ^ ^ ^ J         : |.(.(.|.(.0.0.9     DXDXDXDXDX",
"    x g.g.0X0Xl.w w Q ^ ^ ^ ^ M n 4 ; ; k.A.z.q a o.7.9.0.0.9     DXDXDXDXDX",
"    b A.Z.qXqXM.w w Q ^ ^ ^ ^ p w w w w G.qXS.    h  . .y.0.9     DXDXDXDXDX",
"    V S.S.rXyXD.{ { ~ ^ ^ ^ ^ p w y i i G.qXJ., 2 h ] | 0.0.9     DXDXDXDXDX",
"    d.qXqXNXVXVXVXVXb.^ ^ ^ ^ p w n ^ ^ E.qXiXqXqXb   O 0.0.9     DXDXDXDXDX",
"    d.iXqXNXVXVXVXVXb.^ ^ ^ ^ p w n ^ ^ E.iXqXqXqXV   O y.0.9     DXDXDXDXDX",
"    < A A 6X8X8X9X9Xc.^ ^ ^ ^ {.XX$XeXeXOXH.J.qXqXb   O 0.0.9     DXDXDXDXDX",
"DXDX      :X<X<X<X<X) ^ ^ ^ ^ jXVXVXBXCX+XA.S.qXqXV   O 0.0.9     DXDXDXDXDX",
"DXDX      -X>X>X<X,X) ^ ^ ^ ^ bXVXBXVXVX+XA.G.qXiXB   & 9.9.9     DXDXDXDXDX",
"DXDXDXDXDX    5 ^ ^ ^ ^ ^ ^ ^ ;X<X<X<X<XlXxXxXxXxXA           DXDXDXDXDXDXDX",
"DXDXDXDXDX    5 ^ ^ ^ ^ ^ ^ ^ ;X<X<X<X<XlXxXxXxXxXA           DXDXDXDXDXDXDX",
"DXDXDXDXDX    $ R R ~ ^ ^ ^ ^ A.F.C.a.a.B.V.N.z.z.X.g q       DXDXDXDXDXDXDX",
"DXDXDXDXDX    # p 5 Q ^ ^ ^ ^ ^ ^ E w e w w ;     | 0.#.      DXDXDXDXDXDXDX",
"DXDXDXDXDX    + c c Q ^ ^ ^ ^ ^ ^ E w e w w ;     ' 0.#.      DXDXDXDXDXDXDX",
"DXDXDXDXDX    # x 4 c v c v c / ` ` _ _ _ _ I     o o o       DXDXDXDXDXDXDX",
"DXDXDXDXDX    # x p c c p 5 x / R.R.R.` ` ` T           DXDXDXDXDXDXDXDXDXDX",
"DXDXDXDXDX    0 1.1.m.m.@.2 , K ! ! ( ( ( ( K           DXDXDXDXDXDXDXDXDXDX",
"DXDXDXDXDX    o.<X<XNXVX@X    2 c c V V V V b       DXDXDXDXDXDXDXDXDXDXDXDX",
"DXDXDXDXDX    o.<X<XVXVX@X    4 c v V V V V b       DXDXDXDXDXDXDXDXDXDXDXDX",
"DXDXDXDXDX    & 0 0 O.+.Z b b + . # v c m V b       DXDXDXDXDXDXDXDXDXDXDXDX",
"DXDXDXDXDXDXDX      3 p v V V +   + c c B V v       DXDXDXDXDXDXDXDXDXDXDXDX",
"DXDXDXDXDXDXDX      3 x v V V +   & +.+.C V b       DXDXDXDXDXDXDXDXDXDXDXDX",
"DXDXDXDXDXDXDX      4 p v V V +   j <X<Xj.V v       DXDXDXDXDXDXDXDXDXDXDXDX",
"DXDXDXDXDXDXDX      i 5 v V V +   j <X<Xj.V v       DXDXDXDXDXDXDXDXDXDXDXDX",
"DXDXDXDXDX    3 g.k.J.E.0X0X0X0   & N N v v v x x +     DXDXDXDXDXDXDXDXDXDX",
"DXDXDXDXDX    B H.H.zXxXxXxXxXx         < p v V V ,     DXDXDXDXDXDXDXDXDXDX",
"DXDXDXDXDX    b H.H.zXxXxXxXxXx         3 b m A A ,     DXDXDXDXDXDXDXDXDXDX",
"DXDXDXDXDXDXDXDXDXDXDXDXDXDXDXDXDX      d.z.z.H.H.x     DXDXDXDXDXDXDXDXDXDX",
"DXDXDXDXDXDXDXDXDXDXDXDXDXDXDXDXDX      d.z.z.H.H.x     DXDXDXDXDXDXDXDXDXDX",
"DXDXDXDXDXDXDXDXDXDXDXDXDXDXDXDXDX      Z.0XqXiXiXV     DXDXDXDXDXDXDXDXDXDX",
"DXDXDXDXDXDXDXDXDXDXDXDXDXDXDXDXDX      0XxXxXxXxXA     DXDXDXDXDXDXDXDXDXDX",
"DXDXDXDXDXDXDXDXDXDXDXDXDXDXDXDXDX      J.xXxXxXxXA     DXDXDXDXDXDXDXDXDXDX"
};
