/* XPM */
static char *left_7[] = {
/* columns rows colors chars-per-pixel */
"37 64 232 2",
"   c #000000",
".  c #070508",
"X  c #05080A",
"o  c #090306",
"O  c #0C040A",
"+  c #0A0A0B",
"@  c #0B190F",
"#  c #0E1011",
"$  c #0B1C17",
"%  c #11060B",
"&  c #13080E",
"*  c #19090F",
"=  c #140513",
"-  c #100F10",
";  c #150D1B",
":  c #1B0912",
">  c #141415",
",  c #151419",
"<  c #18151D",
"1  c #1B1B1C",
"2  c #1E0820",
"3  c #15251B",
"4  c #132A19",
"5  c #152020",
"6  c #193F34",
"7  c #220C17",
"8  c #230B1A",
"9  c #2A0F1C",
"0  c #230726",
"q  c #210824",
"w  c #2E0C26",
"e  c #2F0C29",
"r  c #221723",
"t  c #23142C",
"y  c #350E2C",
"u  c #390F2F",
"i  c #310D35",
"p  c #3A0F30",
"a  c #390F39",
"s  c #351425",
"d  c #31112F",
"f  c #3B1527",
"g  c #381037",
"h  c #3D103A",
"j  c #232223",
"k  c #222028",
"l  c #23292E",
"z  c #28232E",
"x  c #2B2A2C",
"c  c #242233",
"v  c #252F3A",
"b  c #2E2C31",
"n  c #2F2A3C",
"m  c #27332F",
"M  c #263632",
"N  c #26343C",
"B  c #253D3A",
"V  c #2A363C",
"C  c #36292B",
"Z  c #302F33",
"A  c #3D2C34",
"S  c #343335",
"D  c #383636",
"F  c #3A363A",
"G  c #3B3A3A",
"H  c #1F1653",
"J  c #1C1859",
"K  c #3E2C40",
"L  c #352F66",
"P  c #303C74",
"I  c #1E463C",
"U  c #34433A",
"Y  c #274A47",
"T  c #2C4449",
"R  c #284E49",
"E  c #205042",
"W  c #245B4B",
"Q  c #29554D",
"!  c #28594C",
"~  c #295E51",
"^  c #34474B",
"/  c #296253",
"(  c #2A6956",
")  c #316C41",
"_  c #42172B",
"`  c #45182E",
"'  c #4A1E2A",
"]  c #401135",
"[  c #44153B",
"{  c #441E30",
"}  c #48153E",
"|  c #4B1A34",
" . c #4D193E",
".. c #501C35",
"X. c #531D3B",
"o. c #581F3A",
"O. c #4E202B",
"+. c #462736",
"@. c #422D32",
"#. c #4A2830",
"$. c #433033",
"%. c #4C3135",
"&. c #53223D",
"*. c #502C33",
"=. c #572D3B",
"-. c #5E213E",
";. c #5C323E",
":. c #471340",
">. c #40174E",
",. c #4C1442",
"<. c #451F51",
"1. c #521645",
"2. c #571748",
"3. c #551B41",
"4. c #581748",
"5. c #591C44",
"6. c #5B1A48",
"7. c #4A3348",
"8. c #4D3A4F",
"9. c #572548",
"0. c #5E2043",
"q. c #5B2748",
"w. c #5F2D47",
"e. c #5F2F50",
"r. c #583549",
"t. c #5C3949",
"y. c #5A3D5C",
"u. c #533365",
"i. c #621E48",
"p. c #632344",
"a. c #672248",
"s. c #692546",
"d. c #6D2649",
"f. c #692E49",
"g. c #65324A",
"h. c #673943",
"j. c #6B325E",
"k. c #6F3A57",
"l. c #742A4A",
"z. c #7C2F4C",
"x. c #702D50",
"c. c #73344D",
"v. c #733F4B",
"b. c #7F314D",
"n. c #763352",
"m. c #783351",
"M. c #7A3259",
"N. c gray27",
"B. c #4C4C4C",
"V. c #454E51",
"C. c #4F4E50",
"Z. c #4E5D4B",
"A. c #545455",
"S. c #57565B",
"D. c #5D5D5D",
"F. c #5F5E61",
"G. c #43665B",
"H. c #48695E",
"J. c #4A6C61",
"K. c #4F7165",
"L. c #4D7B6E",
"P. c #76414C",
"I. c #76415D",
"U. c #7B4552",
"Y. c #644767",
"T. c #684867",
"R. c #774365",
"E. c #7F496E",
"W. c #7E5665",
"Q. c #666566",
"!. c #6C6B6B",
"~. c #726C6D",
"^. c #737373",
"/. c #7A7A7A",
"(. c #4C709B",
"). c #5078A1",
"_. c #7E7B9B",
"`. c #3B804D",
"'. c #6B87AB",
"]. c #708EB1",
"[. c #84344E",
"{. c #89374F",
"}. c #8B384F",
"|. c #8E3A50",
" X c #913C51",
".X c #804653",
"XX c #844956",
"oX c #8D445F",
"OX c #8B4E5B",
"+X c #8C4B63",
"@X c #8A5363",
"#X c #95426A",
"$X c #935165",
"%X c #9B5A69",
"&X c #986573",
"*X c #9A6C75",
"=X c #A05D6C",
"-X c #A85C6F",
";X c #B15D75",
":X c #A96573",
">X c #A9677B",
",X c #AB6977",
"<X c #A9717A",
"1X c #BB6579",
"2X c #B86B7F",
"3X c #C16A7D",
"4X c #8F6181",
"5X c #AA7F85",
"6X c #B77984",
"7X c #B87A83",
"8X c #C56F81",
"9X c #CE7A89",
"0X c #828282",
"qX c #8E8E8E",
"wX c #928C8D",
"eX c #9C8C9C",
"rX c #939393",
"tX c #8181A0",
"yX c #9485A0",
"uX c #AB899F",
"iX c #A691A8",
"pX c #AEAEAE",
"aX c #CA8D94",
"sX c #CE939A",
"dX c #D4828F",
"fX c #D58391",
"gX c #E08F9A",
"hX c #E4949E",
"jX c #ECC2CB",
"kX c #EBE1EB",
"lX c #F2E9F2",
"zX c None",
/* pixels */
"zXzXzXzXzXzXzXzXzXzXzXzXzXzXzXzXzXzXzX                      zXzXzXzXzXzXzX",
"zXzXzXzXzXzXzXzXzXzXzXzXzXzXzXzXzXzXzX                      zXzXzXzXzXzXzX",
"zXzXzXzXzXzXzXzXzXzXzXzXzXzXzXzXzX    O f f ' O.O.O.O.f f 7       zXzXzXzX",
"zXzXzXzXzXzXzXzXzXzXzXzXzXzXzXzXzX    : d.d.}. X X X Xl.d._       zXzXzXzX",
"zXzXzXzXzXzXzX                        : p.s.[.|.|.|. Xd.d.` o o       zXzX",
"zXzXzXzXzXzXzX                              &.d.d.d.d.d.d.d.d.d.o     zXzX",
"zXzXzXzXzXzXzX                              o.d.d.d.d.d.d.l.d.d.o     zXzX",
"zXzXzXzX      : y y y y y y y y y y y y 2 2 8 w C Z.Z.f.d.l.[.[.o         ",
"zXzXzXzX      y 2.2.4.4.2.2.2.2.4.2.2.,.i i O   4 `.`.g.d.z. X|.o         ",
"zXzX      O O p 2.4.6.6.4.2.2.2.4.4.4.1.a i O o 3 ) ) t.g.c.|.|.* O o     ",
"zXzX    o 2.2.2.2.4.d.d.6.2.2.2.4.a.d.a.4.2.a i q     W ( V.d.d.d.d.f     ",
"zXzX    o 2.2.4.2.4.d.d.i.2.2.2.4.d.d.a.4.2.a i q     W ( V.d.f.d.d.f     ",
"zXzX    o a h 3.a.i.6.6.} a a [ [ 5.d.d.a.a.1.,.y     W ( T :.[ 7 7 O     ",
"zXzX      i i 3.d.d.4.2.a i i i i 5.d.d.d.d.6.2.p     W ( Y i i       zXzX",
"    O & * [ } p.l.l.6.6.} [ a a a X.5.p.d.d.6.4.] & = I E K a a o     zXzX",
"    w 2.6. X X X X}.d.d.d.d.a.4.4.a i [ d.d.4.2.2.2.2.O   ; 2.2.o     zXzX",
"    w 2.4. X X X X|.d.d.d.d.a.4.4.a i [ d.d.6.2.2.2.2.O   8 2.2.o     zXzX",
"    f a.a.l.l.d.i.a.d.d.[.}.z.2.4.1.,.1.6.6.a.a.i.2.2.O   = a h       zXzX",
"    f d.d.d.d.i.4.4.d.d.[.|.[.2.4.2.2.4.4.4.a.d.i.2.2.O   = i i o     zXzX",
"    s a.s.5.5.6.4.4.m.m.[.[.z.2.2.6.6.4.,.,.5.5.6.2.2.O   O 0 0       zXzX",
"    e 2.2.i i } 2.6.+X+Xm.d.i.2.2.a.d.0.i i i i [ 2.2.O               zXzX",
"    e 2.2.i i } 2.6.+X+Xm.d.d.2.2.a.d.0.i i i i a 4.2.O               zXzX",
"    . O O H H R.;X;X1X1XM.6.1.a g 0.d.0.i i i i i i i o               zXzX",
"zXzX      J J E.3X3X3X3XM.2.,.i i 0.d.3.i i i i i i i o     zXzXzXzXzXzXzX",
"zXzX    . P P 4X9X9X1X3Xj.>.<.y.y.c.z.d.o.o.k.I.g.i i o     zXzXzXzXzXzXzX",
"zXzX    X ).(.uXhXhX3X3Xu.H L eXeX$X X X X XfXhX>Xi i o     zXzXzXzXzXzXzX",
"zXzX    X ).).uXhXfX3X3Xy.H L uXeX$X X XoX XfXhX>Xi i       zXzXzXzXzXzXzX",
"zXzX    + 2X2XfXhXhXhXhX'.(.'.lXkXT.g q.1X1X3X3XXX  .       zXzXzXzXzXzXzX",
"zXzX    O 3X1XfXhXhXhXhXtX).].lXlXT.i 9.1X3X3X3X.X      zXzXzXzXzXzXzXzXzX",
"zXzX    o h.h.:XfXfXhXhXuXyXiXjXjXR.} 9.h.h.h.h.w.{ #.o     zXzXzXzXzXzXzX",
"zXzXzXzX      v.3X8XhXhXhXhXhXhXhXoXd.X.        s #X#X&     zXzXzXzXzXzXzX",
"zXzXzXzX      P.3X8XhXhXhXhXhXhXhXoXd.O.        s #X#X+     zXzXzXzXzXzXzX",
"zXzX    . Q.Q.K 0 t ( ( ( ( ( ( ( $         m.#X#X#X#Xl.d._       zXzXzXzX",
"zXzX    . !.Q.A 0 t ( ( ( ( ( ( ( $         n.#X#X#X#Xl.d._       zXzXzXzX",
"    1 D G wXuX%X@XW.( ( ( ( ~ N N < = r B.B.+.+.9.f.l.d.d._       zXzXzXzX",
"    $.Q.~.hXhXhXhXaX( ( ( ( Q 0 0 0 2 7.qXqX1   :  .X.s.d._       zXzXzXzX",
"    G !.~.gXgXgXhXaX/ ( ( ( Q i i d d 7.qXqXx + 7 | | f.d._       zXzXzXzX",
"    B.wXwX3X3X3X8X>X( ( ( ( K.hXhXhXhXsXqXqXqXqXF.    -.d._       zXzXzXzX",
"    B.qXwX3X3X3X3X>X( ( ( ( K.hXhXhXhXsXqXqXqXqXD.    -.d._       zXzXzXzX",
"    1 D D #.#.=.w.r.( ( ( ( J.9X9X9X9X6X^.^.qXqXQ.    -.d._       zXzXzXzX",
"zXzX          = 2 t ( ( ( ( J.1X3X3X3X,XQ.Q.0XqXD.    -.d._       zXzXzXzX",
"zXzX          ; t c ( ( ( ( G.-X-X,X,X*X^.^.qXrXQ.    ..-.f       zXzXzXzX",
"zXzXzXzX      I ( ( ( ( ( ( Q 0 0 R ( L.pXpXpXpX^.          zXzXzXzXzXzXzX",
"zXzXzXzX      6 ( ( ( ( ( ( Q 0 0 R ( L.pXpXpXpX^.          zXzXzXzXzXzXzX",
"zXzXzXzX      5 M B ( ( ( ( ( R E K c K 8.8.F S A | | o     zXzXzXzXzXzXzX",
"zXzXzXzX      , j l ( ( ( ( ( ( ( c 2 0 0 0 o   7 d.d.O     zXzXzXzXzXzXzX",
"zXzXzXzX      , z l ! ! ! ! / ( ( 6 b z z z X   : o.o.o     zXzXzXzXzXzXzX",
"zXzXzXzX      > r z j r j j M `.`.( `.`.) `.@           zXzXzXzXzXzXzXzXzX",
"zXzXzXzX      , j r r z k j M ) ) `.`.`.`.`.@           zXzXzXzXzXzXzXzXzX",
"zXzXzXzX      ;.%X&X7X7X@.X > B M U ^ U U U #           zXzXzXzXzXzXzXzXzX",
"zXzXzXzX      v.3X8XhXhX%.  + j j b S S D S +     zXzXzXzXzXzXzXzXzXzXzXzX",
"zXzXzXzX      *.XXOX<X<X$.+ > , , x b b D S +     zXzXzXzXzXzXzXzXzXzXzXzX",
"zXzXzXzXzXzXzX    o r k Z S x     < k z S S +     zXzXzXzXzXzXzXzXzXzXzXzX",
"zXzXzXzXzXzXzX    X 5 k b S x     1 k z S S +     zXzXzXzXzXzXzXzXzXzXzXzX",
"zXzXzXzXzXzXzX    . k k b S x     U.-X@XS S +     zXzXzXzXzXzXzXzXzXzXzXzX",
"zXzXzXzXzXzXzX      k k b S x     OX1X%XS S +     zXzXzXzXzXzXzXzXzXzXzXzX",
"zXzXzXzX      1 x S S.S.D.Q.B.    =.P.h.m b < > +       zXzXzXzXzXzXzXzXzX",
"zXzXzXzX      N.^./.pXpXpXpXqX        + j k b S j       zXzXzXzXzXzXzXzXzX",
"zXzXzXzX      N.^./.pXpXpXpXqX        + r 5 S S j       zXzXzXzXzXzXzXzXzX",
"zXzXzXzX      N.^./.pXpXpXpXqX        > S.A.!.~.B.      zXzXzXzXzXzXzXzXzX",
"zXzXzXzXzXzXzXzXzXzXzXzXzXzXzXzXzX    > S.S.!.^.B.      zXzXzXzXzXzXzXzXzX",
"zXzXzXzXzXzXzXzXzXzXzXzXzXzXzXzXzX    j 0X0XqXqXD.      zXzXzXzXzXzXzXzXzX",
"zXzXzXzXzXzXzXzXzXzXzXzXzXzXzXzXzX    x pXpXpXpX^.      zXzXzXzXzXzXzXzXzX",
"zXzXzXzXzXzXzXzXzXzXzXzXzXzXzXzXzX    x pXpXpXpX^.      zXzXzXzXzXzXzXzXzX"
};
