/* XPM */
static char *right_3[] = {
/* columns rows colors chars-per-pixel */
"37 64 241 2",
"   c #000000",
".  c #060508",
"X  c #060B0C",
"o  c #090305",
"O  c #0B0409",
"+  c #0D0A0B",
"@  c #08110F",
"#  c #081511",
"$  c #0B1C17",
"%  c #10060B",
"&  c #12090D",
"*  c #140515",
"=  c #1B0912",
"-  c #151416",
";  c #151419",
":  c #131E1D",
">  c #1C1213",
",  c #1B151F",
"<  c #1C1C1D",
"1  c #1E0820",
"2  c #1B1920",
"3  c #0C201A",
"4  c #132A19",
"5  c #16311D",
"6  c #18382F",
"7  c #193F34",
"8  c #220C16",
"9  c #230B1A",
"0  c #2A0E1B",
"q  c #251518",
"w  c #2D101D",
"e  c #230726",
"r  c #230925",
"t  c #2E0C26",
"y  c #290928",
"u  c #221D26",
"i  c #310E26",
"p  c #340D2B",
"a  c #310D35",
"s  c #3B0F31",
"d  c #390F39",
"f  c #321422",
"g  c #371927",
"h  c #3B1527",
"j  c #3B122F",
"k  c #3E1922",
"l  c #3F182B",
"z  c #3E113A",
"x  c #381D34",
"c  c #262526",
"v  c #222028",
"b  c #23292E",
"n  c #2D2023",
"m  c #29252B",
"M  c #2C2C2D",
"N  c #292730",
"B  c #2F2D32",
"V  c #2B352F",
"C  c #243636",
"Z  c #2C303B",
"A  c #342325",
"S  c #3B2033",
"D  c #343336",
"F  c #3F373C",
"G  c #39393A",
"H  c #1C1859",
"J  c #2A1040",
"K  c #251756",
"L  c #263B40",
"P  c #3F2B42",
"I  c #352F66",
"U  c #392B61",
"Y  c #303C74",
"T  c #32433A",
"R  c #364A3D",
"E  c #274A47",
"W  c #245B4B",
"Q  c #2E514C",
"!  c #2A5A4D",
"~  c #3E4B4A",
"^  c #375540",
"/  c #3C5652",
"(  c #2D614E",
")  c #2A6956",
"_  c #3A6B47",
"`  c #3D6C48",
"'  c #386C5C",
"]  c #387D4E",
"[  c #357850",
"{  c #42172B",
"}  c #45182E",
"|  c #44143C",
" . c #441E30",
".. c #49133C",
"X. c #491B35",
"o. c #4C193D",
"O. c #501C35",
"+. c #521C39",
"@. c #4E202B",
"#. c #4A2830",
"$. c #49373F",
"%. c #4E3B3F",
"&. c #5F213F",
"*. c #51313E",
"=. c #6B2C3C",
"-. c #471340",
";. c #4C1442",
":. c #521545",
">. c #571748",
",. c #551C41",
"<. c #5A1C45",
"1. c #5B1A48",
"2. c #4D2E50",
"3. c #4C3445",
"4. c #4B3B41",
"5. c #532E4F",
"6. c #5D2044",
"7. c #58234E",
"8. c #5F2A43",
"9. c #523642",
"0. c #533365",
"q. c #593363",
"w. c #611F47",
"e. c #601D48",
"r. c #652345",
"t. c #662148",
"y. c #6A2547",
"u. c #6D2649",
"i. c #673249",
"p. c #613A48",
"a. c #613B5E",
"s. c #742C4A",
"d. c #782D4B",
"f. c #732D56",
"g. c #743040",
"h. c #733F4B",
"j. c #7E324C",
"k. c #773454",
"l. c #773058",
"z. c #793352",
"x. c #7B335A",
"c. c #434343",
"v. c #4C4C4C",
"b. c #444E51",
"n. c #425155",
"m. c #5C4453",
"M. c #594F50",
"N. c #525453",
"B. c #5C5C5C",
"V. c #537B55",
"C. c #587E59",
"Z. c #447365",
"A. c #4E7469",
"S. c #5E6C62",
"D. c #644A50",
"F. c #6A5156",
"G. c #7B4450",
"H. c #64517B",
"J. c #7F496E",
"K. c #676666",
"L. c #646965",
"P. c #6A6A6A",
"I. c #737373",
"U. c #787778",
"Y. c #7C7C7C",
"T. c #4C5383",
"R. c #486995",
"E. c #5078A1",
"W. c #7B7293",
"Q. c #3B804D",
"!. c #5D845D",
"~. c #708EB1",
"^. c #84344D",
"/. c #873A4C",
"(. c #88374F",
"). c #8B384F",
"_. c #913C51",
"`. c #893C61",
"'. c #804653",
"]. c #84425B",
"[. c #84495D",
"{. c #8A4150",
"}. c #8D445F",
"|. c #89595F",
" X c #8C4561",
".X c #8C4B63",
"XX c #804F75",
"oX c #8A5D67",
"OX c #95426A",
"+X c #96586B",
"@X c #9C546B",
"#X c #995A6C",
"$X c #965970",
"%X c #807D7E",
"&X c #A34D61",
"*X c #A85A6F",
"=X c #A95F71",
"-X c #A76D74",
";X c #A56C7B",
":X c #A9677B",
">X c #AD6D76",
",X c #C16A7D",
"<X c #8B788C",
"1X c #A27F98",
"2X c #BB7181",
"3X c #BB7C8A",
"4X c #C56F81",
"5X c #C87283",
"6X c #CE7A89",
"7X c #8E807D",
"8X c #848484",
"9X c #8A8485",
"0X c #8E8E8E",
"qX c #948F90",
"wX c #9C8C9C",
"eX c #939393",
"rX c #989499",
"tX c #9C9C9C",
"yX c #8181A0",
"uX c #A9899F",
"iX c #BE808C",
"pX c #BA879A",
"aX c #BD9297",
"sX c #A2A2A2",
"dX c #AEAEAE",
"fX c #BDAFBD",
"gX c #CA838E",
"hX c #C38890",
"jX c #CB8F91",
"kX c #CE9294",
"lX c #D4838F",
"zX c #D68491",
"xX c #DB8995",
"cX c #DF8E99",
"vX c #DB939F",
"bX c #DC94A0",
"nX c #E08F9A",
"mX c #E4949E",
"MX c #E69BA5",
"NX c #F2E9F2",
"BX c None",
/* pixels */
"BXBXBXBXBXBXBX                      BXBXBXBXBXBXBXBXBXBXBXBXBXBXBXBXBXBXBX",
"BXBXBXBXBXBXBX                      BXBXBXBXBXBXBXBXBXBXBXBXBXBXBXBXBXBXBX",
"BXBXBXBX      8 h h O.@.@.@.{                               BXBXBXBXBXBXBX",
"BXBXBXBX      { u.s.).).{.{.=.                              BXBXBXBXBXBXBX",
"BXBX      o o } u.g.{.{.)./.=.o   . O o .   o o o o o o   o       BXBXBXBX",
"BXBX    o u.u.u.u.i.Q.] 5 o . p a ;.>.>.>.>.>.>.>.>.>.>.>.p       BXBXBXBX",
"BXBX    o y.u.u.u.i.] ] 4   O a a ;.>.>.>.>.>.>.>.>.>.>.>.p       BXBXBXBX",
"BXBX    o ^.^.m.n.c.6 4 2 1 e -.;.e.w.e.>.>.>.>.1.e.t.>.>...p p       BXBX",
"BXBX    o _._.N.) W     r a d >.>.t.u.y.>.>.>.>.1.u.u.1.>.>.>.>.o     BXBX",
"BXBX    o ).).N.) W     r a z 1.1.y.u.t.:.:.:.;.<.y.y.1.<.>.:.:.o     BXBX",
"BXBX    o u.u.b.) W     s >.1.u.u.u.u.6.a a a a z >.>.y.u.,.a a       BXBX",
"BXBX    o u.u.b.) W     s >.1.u.u.u.u.6.a a a a z >.>.y.u.,.a a o     BXBX",
"    0 X.X.| | u $ 2 s s ..>.1.u.u.o.| | ;.;.<.<.1.y.t.^.^.z.s.s.o     BXBX",
"    h u.y.a a *   O >.>.>.>.1.u.u.| a z >.>.y.u.u.u.u.)._._._._.o     BXBX",
"    0 +.O.d d *   O >.>.>.1.e.y.t.-.d -.>.>.u.d.u.u.u.^.^.(.(.(.8 = O     ",
"        o >.>.r   O >.>.y.u.y.>.>.>.:.>.>.>.^._.(.u.u.1.>.1.u.u.u.u.h     ",
"        o >.>.9   O >.>.t.u.t.>.>.>.>.>.>.>.^._.(.u.u.1.1.1.u.u.u.u.h     ",
"          d d *   O >.>...z z d z <.t.t.>.>.u.d.z.].].1.1.;.z z 1.1.i     ",
"BXBX      a a *   O >.>.z a a a a 6.u.t.>.>.y.u.z..X.X1.>.-.a a >.>.p     ",
"BXBX    o a a *   O ;.;.d a a a a r.d.y.;.;.t.t.k.@X@Xx.x.7.a J s s =     ",
"BXBX      a a *   . a a a a a a a d._.s.a a ;.>.x.,X,X,X,XXXH H       BXBX",
"BXBX    . a a *   . a a a a a a a s._.d.a a ;.>.z.,X,X,X,XXXH H .     BXBX",
"BXBX      . .     . a a +X6X2X^./.o.| 5.<X<XU K q.,X,XxXxX1XR.R..     BXBX",
"BXBX                a a :XMXlX_.).o.a 2.wXwXI H q.,X,XnXmXuXE.E.X     BXBX",
"BXBX                1 1 #XzX6X&X&X6.z q.fXfXT.Y H.6X6XmXmXpXW.W..     BXBX",
"BXBXBXBXBXBXBXBXBX      '.,X,X,X,Xk.<.XXNXNX~.E.yXmXmXmXmXzX,X,X+     BXBX",
"BXBXBXBXBXBXBXBXBX      '.,X,X,X>Xf.>.XXNXNX~.E.yXmXmXmXmXzX,X,XO     BXBX",
"BXBXBXBXBXBXBX    & `.`.g % + + % &.u. XMXMXbXbXbXmXmX5X,XG.% %       BXBX",
"BXBXBXBXBXBXBX    & OXOXg         O.u.}.mXmXmXmXmXmXmX5X,Xh.      BXBXBXBX",
"BXBXBXBX      = f { OXOX8.X.g     0 h *.7X7X7X7X7X7X%X[.].i.B V       BXBX",
"BXBXBXBX      { u.s.`.OXOXOXk.        $ ) ) ) ) ) ) ) x j 3.K.K..     BXBX",
"BXBXBXBX      { u.s.OXOXOXOXk.        $ ) ) ) ) ) ) ) x j 9.K.K..     BXBX",
"BXBXBXBX      { u.y.+.o.=   , 0X0XP e y j j ` Q.Q.Q.Q.S s m.0X0XP.K.G     ",
"BXBXBXBX      { u.y.+.+.=   < 0X0XP e y j j _ Q.Q.Q.Q.S s m.0XqXP.K.D     ",
"BXBXBXBX      { u.r.0 9 F v.B.0X0Xn.L Z j j ` Q.Q.Q.Q.oX+X;XjXaX7XY.~     ",
"BXBXBXBX      { u.&.    B.0X0X0X0XZ.) Q j j ` Q.Q.Q.] kXmXmXmXMX0X0Xv.    ",
"BXBXBXBX      { u.&.    B.qX0X0X0XA.' / X.X.` ] Q.Q.Q.kXmXnXmXnX9X8Xc.    ",
"BXBXBXBX      { u.=.    B.0X8XK.K.hXmXMXmXmX!.] Q.Q.Q.>X,X,X>X,X+     BXBX",
"BXBXBXBX      { u.&.    L.0X8XK.K.hXmXmXmXmX!.Q.Q.Q.Q.>X,X,X,X,XO     BXBX",
"BXBXBXBX      = 0 9     P.sXtXeXeX3X6X6X6X6XC.Q.Q.Q.Q.S.L.M.#.#.o     BXBX",
"BXBXBXBXBXBXBX          I.dXdXdXdX3X>X4X,X,XV.] Q.Q.Q.) ) 7       BXBXBXBX",
"BXBXBXBXBXBXBX      % % K.eXrXrXrX;X*X=X>X>XV.V.] [ ] ( ! 7       BXBXBXBX",
"BXBXBXBXBXBXBX    + u.u.9   o e e e e N Q.Q.] ] [ ) ) b v ;       BXBXBXBX",
"BXBXBXBXBXBXBX    % u.u.9   o e e e e m Q.Q.Q.] [ ) ) b v ;       BXBXBXBX",
"BXBXBXBXBXBXBX    o = 8 o   + E E E E ! Q.Q.R R T C C b v ;       BXBXBXBX",
"BXBXBXBXBXBXBXBXBX          # ) ) ) ) ) Q.Q.R V B v v 2 v -       BXBXBXBX",
"BXBXBXBXBXBXBXBXBX          @ ! ! ! ( ( _ ` V c c u u %.4.m       BXBXBXBX",
"BXBXBXBXBXBXBXBXBXBXBXBX    o v u V D D D D X   + v v gXmX|.      BXBXBXBX",
"BXBXBXBXBXBXBXBXBXBXBXBX    . v u B D D D D X   + v v gXmX|.      BXBXBXBX",
"BXBXBXBXBXBXBXBXBXBXBXBX    . v u B D M + + ; , v B B A A >       BXBXBXBX",
"BXBXBXBXBXBXBXBXBXBXBXBX    . v u B D u     , v b D D .     BXBXBXBXBXBXBX",
"BXBXBXBXBXBXBXBXBXBXBXBX    + 9.9.D.F.%.    2 v m D D .     BXBXBXBXBXBXBX",
"BXBXBXBXBXBXBXBXBXBXBXBX    q ,X4XnXnX-X    2 v m D D .     BXBXBXBXBXBXBX",
"BXBXBXBXBXBXBXBXBXBXBXBX    q ,X>XxXMX>X    2 2 m D D .     BXBXBXBXBXBXBX",
"BXBXBXBXBXBXBXBXBX      ; 2 v 4.4.n q >     N.K.U.tXtX-     BXBXBXBXBXBXBX",
"BXBXBXBXBXBXBXBXBX      ; u c D D +         B.I.8XdXdX-     BXBXBXBXBXBXBX",
"BXBXBXBXBXBXBXBXBX      ; v c D D &         B.I.8XdXdXN.c.m       BXBXBXBX",
"BXBXBXBXBXBXBXBXBX      ; v m D D #     BXBXBXBXdXdXdXdXdXK.      BXBXBXBX",
"BXBXBXBXBXBXBXBXBX      2 u v D D &     BXBXBXBXdXdXdXdXdXK.      BXBXBXBX",
"BXBXBXBXBXBXBXBXBX      G N.B.P.P.<     BXBXBXBXdXdXdXdXdXK.      BXBXBXBX",
"BXBXBXBXBXBXBXBXBX      G B.B.I.I.4 o   BXBXBXBXBXBXBXBXBXBXBXBXBXBXBXBXBX",
"BXBXBXBXBXBXBXBXBX      N.W.7X0X0Xc     BXBXBXBXBXBXBXBXBXBXBXBXBXBXBXBXBX",
"BXBXBXBXBXBXBXBXBX      I.dXdXdXdXM     BXBXBXBXBXBXBXBXBXBXBXBXBXBXBXBXBX",
"BXBXBXBXBXBXBXBXBX      I.dXdXdXdXM     BXBXBXBXBXBXBXBXBXBXBXBXBXBXBXBXBX"
};
