/* XPM */
static char *right_5[] = {
/* columns rows colors chars-per-pixel */
"38 64 249 2",
"   c #000000",
".  c #070508",
"X  c #050E0B",
"o  c #080305",
"O  c #0D0409",
"+  c #0C0C0D",
"@  c #0F0410",
"#  c #0D0C10",
"$  c #0E1E12",
"%  c #15070E",
"&  c #120C0D",
"*  c #140512",
"=  c #120911",
"-  c #1B0716",
";  c #1C071B",
":  c #1D0A14",
">  c #1B0C1E",
",  c #131314",
"<  c #16151A",
"1  c #191315",
"2  c #1D1D1D",
"3  c #1B1920",
"4  c #0F251F",
"5  c #14261B",
"6  c #210B16",
"7  c #22081C",
"8  c #2B0F1D",
"9  c #24181E",
"0  c #28111D",
"q  c #2D1D1F",
"w  c #230726",
"e  c #250B29",
"r  c #290B21",
"t  c #2A0B2D",
"y  c #2D0C31",
"u  c #221026",
"i  c #25132A",
"p  c #271F2D",
"a  c #29152C",
"s  c #291D21",
"d  c #2F182B",
"f  c #2E1430",
"g  c #360E2D",
"h  c #310D35",
"j  c #390F39",
"k  c #321222",
"l  c #32112C",
"z  c #3B122F",
"x  c #3F1A23",
"c  c #3D1033",
"v  c #222124",
"b  c #222028",
"n  c #29262D",
"m  c #2C2C2E",
"M  c #242133",
"N  c #2E2C31",
"B  c #32242C",
"V  c #3D272A",
"C  c #302E32",
"Z  c #392730",
"A  c #3B2B36",
"S  c #333235",
"D  c #37363A",
"F  c #343937",
"G  c #3A3A3A",
"H  c #1B1654",
"J  c #1C1859",
"K  c #3F174E",
"L  c #2E3142",
"P  c #2D3A6D",
"I  c #303E75",
"U  c #1E4D3F",
"Y  c #22433C",
"T  c #275533",
"R  c #344F3E",
"E  c #33563D",
"W  c #2B5D51",
"Q  c #335D41",
"!  c #3A5953",
"~  c #2A6956",
"^  c #2F7053",
"/  c #32684C",
"(  c #386444",
")  c #386A46",
"_  c #326352",
"`  c #3A7249",
"'  c #327451",
"]  c #357850",
"[  c #421136",
"{  c #43133B",
"}  c #4A143E",
"|  c #4D1B33",
" . c #4D193E",
".. c #501C35",
"X. c #531C3B",
"o. c #5A1F3F",
"O. c #402329",
"+. c #472731",
"@. c #4A2531",
"#. c #4B2D32",
"$. c #48313C",
"%. c #5C203D",
"&. c #5B3B3F",
"*. c #4D1442",
"=. c #491F43",
"-. c #521644",
";. c #571748",
":. c #541844",
">. c #591E42",
",. c #5B1A48",
"<. c #42374C",
"1. c #4E334C",
"2. c #4E3841",
"3. c #562640",
"4. c #5D2142",
"5. c #573542",
"6. c #523B42",
"7. c #533D48",
"8. c #5A3F45",
"9. c #5F3F4A",
"0. c #56375B",
"q. c #5F3957",
"w. c #5B3F5E",
"e. c #5C3765",
"r. c #5E3867",
"t. c #601E47",
"y. c #621E48",
"u. c #632346",
"i. c #652148",
"p. c #612B45",
"a. c #692546",
"s. c #6D2648",
"d. c #6B2945",
"f. c #6D3A58",
"g. c #722A4A",
"h. c #782F47",
"j. c #7A2E4B",
"k. c #773142",
"l. c #7F3447",
"z. c #7D314B",
"x. c #753A53",
"c. c #7B3553",
"v. c #7E3C55",
"b. c #434343",
"n. c #4A4A4A",
"m. c #4D5854",
"M. c #5D434A",
"N. c #5E4A4F",
"B. c #554550",
"V. c #555555",
"C. c #595859",
"Z. c #41744C",
"A. c #4D7D53",
"S. c #5E6B66",
"D. c #5E756B",
"F. c #61444C",
"G. c #684952",
"H. c #6C515D",
"J. c #764759",
"K. c #79435F",
"L. c #70567E",
"P. c #666666",
"I. c #6E6E6E",
"U. c #746869",
"Y. c #7F676C",
"T. c #796B6C",
"R. c #726A73",
"E. c #737373",
"W. c #777778",
"Q. c #7F7F7F",
"!. c #476895",
"~. c #4A7096",
"^. c #5078A1",
"/. c #7F6A80",
"(. c #3B804D",
"). c #518257",
"_. c #7980A0",
"`. c #84344E",
"'. c #87384B",
"]. c #8C394F",
"[. c #823F5A",
"{. c #8D3A50",
"}. c #913C51",
"|. c #8F3E65",
" X c #814754",
".X c #84445F",
"XX c #8A4C5A",
"oX c #8C4B63",
"OX c #8A4E71",
"+X c #95426A",
"@X c #954E6D",
"#X c #9D4E6A",
"$X c #975C6E",
"%X c #9C5364",
"&X c #9E5F71",
"*X c #8C666A",
"=X c #A4536E",
"-X c #A7596C",
";X c #A75872",
":X c #B25F70",
">X c #A16072",
",X c #A3657A",
"<X c #A66E73",
"1X c #AA6471",
"2X c #B46274",
"3X c #B66879",
"4X c #BB6679",
"5X c #BE697C",
"6X c #C16A7D",
"7X c #82748E",
"8X c #AE6C82",
"9X c #B57082",
"0X c #C56F81",
"qX c #C67082",
"wX c #C57788",
"eX c #C47C8E",
"rX c #CA7586",
"tX c #CE7B8A",
"yX c #848384",
"uX c #8D8D8D",
"iX c #8A9B96",
"pX c #918186",
"aX c #9C8C9C",
"sX c #929292",
"dX c #9C9C9C",
"fX c #8B83A0",
"gX c #A48E91",
"hX c #AC8198",
"jX c #A59093",
"kX c #B38B9F",
"lX c #AEAEAE",
"zX c #BCA5B9",
"xX c #C18F8D",
"cX c #C18E9F",
"vX c #C3908E",
"bX c #DA8895",
"nX c #DF8E99",
"mX c #DC919B",
"MX c #C7A0B3",
"NX c #E08F9A",
"BX c #E4949E",
"VX c #C8B1C4",
"CX c #C4C3D4",
"ZX c #D7C1CF",
"AX c #D1D2E1",
"SX c #EED1DA",
"DX c #E4DAE4",
"FX c #F2E9F2",
"GX c None",
/* pixels */
"GXGXGXGXGXGXGX                      GXGXGXGXGXGXGXGXGXGXGXGXGXGXGXGXGXGXGXGX",
"GXGXGXGXGXGXGX                      GXGXGXGXGXGXGXGXGXGXGXGXGXGXGXGXGXGXGXGX",
"GXGXGXGXGX    % k 0 O.O.x O.O.k k 6       GXGXGXGXGXGXGXGXGXGXGXGXGXGXGXGXGX",
"GXGXGXGXGX    8 s.s.].}.{.}.}.g.s...      GXGXGXGXGXGXGXGXGXGXGXGXGXGXGXGXGX",
"GXGXGXGXGX    8 s.s.].}.{.{.}.h.s...      GXGXGXGXGXGXGXGXGXGXGXGXGXGXGXGXGX",
"          k.l.h.s.s.g.g.g.g.g.6 O o                           GXGXGXGXGXGXGX",
"          '.}.`.s.s.s.s.s.y.s.%                               GXGXGXGXGXGXGX",
"    O - - z.`.z.s.s.9.9.&.| | 6 @ * - - - - - ; - - - - - - o     GXGXGXGXGX",
"    r ;.;.s.s.s.s.s.Z.(.T     e h j ;.;.;.;.;.;.;.;.;.;.;.;.7     GXGXGXGXGX",
"    r ;.;.s.s.s.g.s.Z.] T     t h j ;.;.;.;.;.;.;.;.;.;.;.;.7     GXGXGXGXGX",
"    r ;.;.,.,.1.! ! 5 $ < e e { *.;.s.s.,.;.;.;.;.y.i.i.;.;.} { c       GXGX",
"    r ;.;.;.;.<._ ~ X   % h h -.;.;.s.s.,.;.;.;.;.i.s.s.;.;.;.;.*.      GXGX",
"    7 [ { -.*.<.~ ~ X   * j j -.;.i.s.s.;.*.-.*.-.,.a.i.;.,.;.-.*.      GXGX",
"GXGX      y h L ~ ~ X   - ;.;.i.s.s.s.d.{ h y h h *.;.;.s.d. .y y       GXGX",
"GXGX      y h L ~ ~ X   - ;.;.i.s.s.d.d.{ h y h y *.;.,.s.s.} h y       GXGX",
"GXGX      y h i 4 4 l z [ ;.;.i.d.u.} { *.*.*.>.>.t.i.s.`.`.z.d.d.g z -     ",
"GXGX      y h ;     } ;.;.;.;.s.s.>.h h *.;.,.g.s.s.s.g.}.}.}.}.}.;.;.r     ",
"GXGX      t y ;     } ;.;.;.;.i.s.t.h h *.;.;.g.g.s.s.g.].{.{.{.].;.;.r     ",
"GXGXGXGXGX          } ;.y.s.s.,.;.;.;.;.;.;.y.}.}.j.s.i.;.;.y.s.s.s.s.k     ",
"GXGXGXGXGX          } ;.y.s.s.,.;.;.;.;.;.;.y.}.}.j.s.i.;.;.i.s.s.s.s.k     ",
"GXGXGXGXGX          } ;.:.*. .*.{ *.y.y.,.;.y.j.j.`.v.c.;.;.:.} X.y.y.r     ",
"GXGXGXGXGXGXGX      } ;.*.h y h h { s.s.,.;.;.g.s.[.oXoX;.;.{ h h ;.;.r     ",
"GXGXGXGXGXGXGX      *.;.*.y h h h { s.s.,.;.,.g.s.[.oX.X;.;.{ h j ;.;.r     ",
"GXGXGXGXGXGXGX      y h h y y z.].].}.}. .h j ;.;.#X5X5X4X4Xe.J H   o       ",
"GXGXGXGXGXGXGX      t h h h h z.].].].XX .y j ;.;.@X6X6X6X6Xr.J H       GXGX",
"GXGXGXGXGXGXGX      t h =.K.K.-X:X=Xd.d.e.w.0.K K @X6X6XtXtXL.I P       GXGX",
"GXGXGXGXGXGXGX      t h f.BXBXBXNX9Xg g *XaX^.J J OX6XqXBXBXfX^.~.      GXGX",
"GXGXGXGXGXGXGX      t h f.BXBXBXBX9Xh y 7XaX7XJ J OX6XqXBXBXfX^.~.      GXGX",
"GXGXGXGXGXGXGX      o o +.qXqXqXqX;X*.;.zXDXCX!.!.hXnXnXBXBXeX8X,X      GXGX",
"GXGXGXGXGXGXGX          O.6X6X6X6X=X;.;.VXFXAX_.^.kXBXBXBXBXtX6X2X      GXGX",
"GXGXGXGXGX    O : : 0 0 @.XXXXXXXX[.,.,.MXSXZX/._.cXBXBXbXbX1XXX X      GXGX",
"GXGXGXGXGX    8 s.s.|.+Xp.        6 s.s.wXBXBXBXBXBXBXBX5X6X#.    GXGXGXGXGX",
"GXGXGXGXGX    8 s.d.|.+Xp.        : s.s.rXBXBXBXBXBXBXBX6X6X#.    GXGXGXGXGX",
"GXGXGXGXGX    8 s.g.u.u.4...| %   o : : m.D.D.D.D.D.D.S.p.4.B.n.b.      GXGX",
"GXGXGXGXGX    8 s.s.X.X.%.d.s.%         U ~ ~ ~ ~ ~ ~ W z z B.P.P.      GXGX",
"GXGXGXGXGX    8 s.s.X.X.X.%.%.9 , , . . F W W ^ ~ ~ ~ ~ 3.%.H.*XU.+ , .     ",
"GXGXGXGXGX    8 s.s.X.X.l     E.uXR.w w l z A (.(.(.(.).BXBXBXBXmXP.P.m     ",
"GXGXGXGXGX    8 g.s.X.X.k     E.sXR.w w k z A ] (.(.(.).BXBXBXBXmXP.P.S     ",
"GXGXGXGXGX    8 s.s.r 6 B V.V.yXuXpX$X$X&X>X*X(.(.(.(.).tXtXtXtXtX).Q.G     ",
"GXGXGXGXGX    0 s.s.%   C sXuXuXsXgXBXBXBXBXxX(.(.(.(.A.6X6X6X6XrXaXuXb.    ",
"GXGXGXGXGX    8 a.a.O   m sXsXuXuXgXBXBXBXBXkX).(.(.(.A.3X3X4X3X9XpXuXL     ",
"GXGXGXGXGXGXGX          m uXuXI.P.Y.6X6X6X6X<X` (.(.(.` z z *   o     o GXGX",
"GXGXGXGXGXGXGX          m iXsXI.P.*X5X6X6X6X<X(.(.(.(.` z z %           GXGX",
"GXGXGXGXGXGXGX          F jXdXuXyXyXU.U.J.G.F.(.(.] ' W d d =           GXGX",
"GXGXGXGXGXGXGX          G lXlXlXlXiX~ ~ n w p ] (.^ ~ W p v #     GXGXGXGXGX",
"GXGXGXGXGXGXGX          G lXlXlXlXiX~ ~ p w n (.(.^ ~ ~ 3 b #     GXGXGXGXGX",
"GXGXGXGXGXGXGX          . + # i f t u u Q ` ) F F m n b b b #     GXGXGXGXGX",
"GXGXGXGXGXGXGXGXGXGX          > w w r r ( ` ` S S n b b b b #     GXGXGXGXGX",
"GXGXGXGXGXGXGXGXGXGX          > u u a a E ( E v v v v n G.G.s     GXGXGXGXGX",
"GXGXGXGXGXGXGXGXGXGXGXGX      3 b n S S S S n     < b A BXBX&.    GXGXGXGXGX",
"GXGXGXGXGXGXGXGXGXGXGXGX      3 3 n S S S S n     < b A BXBX&.    GXGXGXGXGX",
"GXGXGXGXGXGXGXGXGXGXGXGX      3 p n S S , + + 3 3 n S N q q &     GXGXGXGXGX",
"GXGXGXGXGXGXGXGXGXGXGXGX      3 b n S S #   X b b N S N       GXGXGXGXGXGXGX",
"GXGXGXGXGXGXGXGXGXGXGXGX      Z $.2.N.N.1   . 3 v N S m       GXGXGXGXGXGXGX",
"GXGXGXGXGXGXGXGXGXGXGXGX      %X6XrXBXBXV   . v p N F m       GXGXGXGXGXGXGX",
"GXGXGXGXGXGXGXGXGXGXGXGX      %X6XrXBXBXV   . v 3 N S N       GXGXGXGXGXGXGX",
"GXGXGXGXGXGXGXGXGXGX    X < < 2.F.M.#.#.&   , C.C.W.yXyXW.W.C     GXGXGXGXGX",
"GXGXGXGXGXGXGXGXGXGX    O b p S S b         < E.E.dXlXlXlXlXb.    GXGXGXGXGX",
"GXGXGXGXGXGXGXGXGXGX    + n b G G N         < E.E.dXlXlXlXlXn.    GXGXGXGXGX",
"GXGXGXGXGXGXGXGXGXGX    2 C.C.I.E.V.      GXGXGXGXGXGXGXGXGXGXGXGXGXGXGXGXGX",
"GXGXGXGXGXGXGXGXGXGX    2 C.C.I.W.V.      GXGXGXGXGXGXGXGXGXGXGXGXGXGXGXGXGX",
"GXGXGXGXGXGXGXGXGXGX    m yXuXsXjX7X      GXGXGXGXGXGXGXGXGXGXGXGXGXGXGXGXGX",
"GXGXGXGXGXGXGXGXGXGX    G lXlXlXzX).      GXGXGXGXGXGXGXGXGXGXGXGXGXGXGXGXGX",
"GXGXGXGXGXGXGXGXGXGX    F lXlXlXVX).      GXGXGXGXGXGXGXGXGXGXGXGXGXGXGXGXGX"
};
