/* XPM */
static char *right_6[] = {
/* columns rows colors chars-per-pixel */
"37 64 245 2",
"   c #000000",
".  c #070408",
"X  c #05080A",
"o  c #090305",
"O  c #0C0409",
"+  c #0B0B0C",
"@  c #0F0E11",
"#  c #081511",
"$  c #0B1C17",
"%  c #14070D",
"&  c #13080E",
"*  c #140513",
"=  c #1B0912",
"-  c #131416",
";  c #151318",
":  c #1D1D1D",
">  c #1E0820",
",  c #1B1220",
"<  c #1B1920",
"1  c #15251B",
"2  c #132A19",
"3  c #152020",
"4  c #193F34",
"5  c #220C17",
"6  c #230B1A",
"7  c #290E1B",
"8  c #211216",
"9  c #24141C",
"0  c #261A1F",
"q  c #2D101D",
"w  c #230726",
"e  c #200823",
"r  c #2E0C26",
"t  c #2C0B28",
"y  c #221723",
"u  c #241D31",
"i  c #350E2C",
"p  c #390F2F",
"a  c #310D35",
"s  c #3A0F30",
"d  c #390F39",
"f  c #341425",
"g  c #31112F",
"h  c #351B27",
"j  c #3B1527",
"k  c #3A122D",
"l  c #371431",
"z  c #3D103A",
"x  c #381E34",
"c  c #252426",
"v  c #222028",
"b  c #23292E",
"n  c #28262C",
"m  c #2C2C2C",
"M  c #252535",
"N  c #292730",
"B  c #2E2D31",
"V  c #2F2A3C",
"C  c #243234",
"Z  c #253E3A",
"A  c #293538",
"S  c #2E3B3A",
"D  c #36292B",
"F  c #362A31",
"G  c #3B2033",
"H  c #382C38",
"J  c #343336",
"K  c #313F3D",
"L  c #383636",
"P  c #3A363A",
"I  c #3A3A3A",
"U  c #1F1653",
"Y  c #1C1859",
"T  c #3F2B42",
"R  c #333A41",
"E  c #3D3E45",
"W  c #352F66",
"Q  c #303C74",
"!  c #1E463C",
"~  c #34433B",
"^  c #284E49",
"/  c #205042",
"(  c #245B4B",
")  c #28584C",
"_  c #335A41",
"`  c #2A6956",
"'  c #2F7053",
"]  c #366745",
"[  c #336649",
"{  c #316C41",
"}  c #33694E",
"|  c #3A6C47",
" . c #3D6C48",
".. c #377A4F",
"X. c #397148",
"o. c #39784A",
"O. c #337551",
"+. c #357850",
"@. c #42172B",
"#. c #45182E",
"$. c #4A1E2A",
"%. c #401135",
"&. c #44153B",
"*. c #451C30",
"=. c #48153E",
"-. c #4B1B34",
";. c #4A193C",
":. c #501C35",
">. c #541D3B",
",. c #581F3A",
"<. c #45262C",
"1. c #4E202B",
"2. c #462736",
"3. c #4A2830",
"4. c #5F213F",
"5. c #471340",
"6. c #40174E",
"7. c #4C1442",
"8. c #451F51",
"9. c #511644",
"0. c #571748",
"q. c #551B41",
"w. c #581748",
"e. c #591C44",
"r. c #5B1A48",
"t. c #4D2E50",
"y. c #413F44",
"u. c #4C3445",
"i. c #4A3348",
"p. c #4D3A4F",
"a. c #5E2043",
"s. c #5F2A43",
"d. c #5F2F50",
"f. c #5F3D42",
"g. c #5C3949",
"h. c #5A3D5C",
"j. c #533365",
"k. c #621E48",
"l. c #642344",
"z. c #672248",
"x. c #602F41",
"c. c #672F4C",
"v. c #6D2648",
"b. c #6C2946",
"n. c #692E4A",
"m. c #65324A",
"M. c #673943",
"N. c #673E4D",
"B. c #6E334D",
"V. c #6B325E",
"C. c #6F3A57",
"Z. c #742B4A",
"A. c #7A2E4C",
"S. c #712C55",
"D. c #733F4B",
"F. c #7F314D",
"G. c #773352",
"H. c #783351",
"J. c #7A3259",
"K. c #454545",
"L. c #4C4C4D",
"P. c #454E51",
"I. c #4E5D4B",
"U. c #495152",
"Y. c #545654",
"T. c #5D5D5D",
"R. c #537A55",
"E. c #587E59",
"W. c #4D7B6E",
"Q. c #674347",
"!. c #6E494E",
"~. c #76415D",
"^. c #764067",
"/. c #7F496E",
"(. c #7C4C72",
"). c #656565",
"_. c #6B6A6A",
"`. c #726C6D",
"'. c #737373",
"]. c #4C709B",
"[. c #5078A1",
"{. c #7E7B9B",
"}. c #3B804D",
"|. c #5D845D",
" X c #6B87AB",
".X c #708EB1",
"XX c #84354E",
"oX c #89374F",
"OX c #8C394F",
"+X c #8E3A50",
"@X c #913C51",
"#X c #893C61",
"$X c #804653",
"%X c #834956",
"&X c #8D445F",
"*X c #89595F",
"=X c #864A6B",
"-X c #8C4B63",
";X c #804F75",
":X c #8A5461",
">X c #8C5C64",
",X c #95426A",
"<X c #96586B",
"1X c #936268",
"2X c #9E676E",
"3X c #9C6A75",
"4X c #A85C6F",
"5X c #B15D75",
"6X c #A56D75",
"7X c #A96573",
"8X c #A9677B",
"9X c #AC6B76",
"0X c #BB6579",
"qX c #B86B7F",
"wX c #C16A7D",
"eX c #8F6181",
"rX c #AA7F85",
"tX c #B77984",
"yX c #B87A83",
"uX c #C56F81",
"iX c #C07B86",
"pX c #CE7A89",
"aX c #858585",
"sX c #8E8E8E",
"dX c #928C8D",
"fX c #9C8C9C",
"gX c #939393",
"hX c #8181A0",
"jX c #9485A0",
"kX c #AB899F",
"lX c #A691A8",
"zX c #AEAEAE",
"xX c #CA858E",
"cX c #CB8F91",
"vX c #CE9294",
"bX c #CE939A",
"nX c #D4828F",
"mX c #D58391",
"MX c #DB8995",
"NX c #E08F9A",
"BX c #E4949E",
"VX c #ECC2CB",
"CX c #EBE1EB",
"ZX c #F2E9F2",
"AX c None",
/* pixels */
"AXAXAXAXAXAXAX                      AXAXAXAXAXAXAXAXAXAXAXAXAXAXAXAXAXAXAX",
"AXAXAXAXAXAXAX                      AXAXAXAXAXAXAXAXAXAXAXAXAXAXAXAXAXAXAX",
"AXAXAXAX      5 j j 1.1.1.1.$.j j %     AXAXAXAXAXAXAXAXAXAXAXAXAXAXAXAXAX",
"AXAXAXAX      @.v.Z.@X@X@X@XoXv.v.=     AXAXAXAXAXAXAXAXAXAXAXAXAXAXAXAXAX",
"AXAX      o o #.v.Z.+X+X+X+XXXl.l.=                         AXAXAXAXAXAXAX",
"AXAX    o v.v.v.v.v.v.v.v.v.4.                              AXAXAXAXAXAXAX",
"AXAX    o v.v.v.v.v.v.v.v.v.,.                              AXAXAXAXAXAXAX",
"AXAX    o v.v.v.v.n.I.I.D 7 r = > r i i i i i i i i i i i 6       AXAXAXAX",
"AXAX    o v.v.v.v.m.}.}.2   O a a 9.0.0.0.0.0.0.0.w.0.0.w.i       AXAXAXAX",
"AXAX    o Z.Z.n.m.g.{ { 1 . * a a 9.r.r.0.0.0.0.w.r.w.w.w.d O O       AXAX",
"AXAX    o OX@XY.` (     w a d 0.w.z.v.z.0.0.0.0.r.v.v.r.0.0.w.w.o     AXAX",
"AXAX    o @X@XY.` (     w a a 0.w.z.v.z.0.0.0.0.k.v.v.w.0.0.w.w.      AXAX",
"    7 -.-.A.A.U.` (     i 5.9.z.z.v.v.l.d %.d d =.r.k.k.z.q.d d o         ",
"    j v.v.v.v.P.` (     k 0.r.v.b.v.v.e.a a a a d w.w.v.v.>.a a           ",
"    7 >.>.z.z.E / ! % * z 0.r.v.v.z.e.r.d d &.d =.k.r.v.Z.l.&.;.* * O     ",
"        o 0.0.6   O 0.0.w.0.r.v.v.&.a d w.w.z.v.v.v.v.OX@X@X@X@Xr.w.r     ",
"        o 0.0.6   O 0.0.0.0.r.v.v.&.a d w.0.z.v.v.v.v.+X@X@X@X@Xr.w.r     ",
"          d d *   O 0.0.k.z.z.r.r.9.7.9.0.0.XXoXF.v.v.k.k.v.Z.A.z.z.f     ",
"AXAX    . a a *   O 0.0.z.v.v.w.0.0.0.w.0.0.XX@XXXv.v.r.0.k.v.v.v.v.j     ",
"AXAX      a a *   O 0.0.e.e.q.5.5.r.r.r.0.w.A.XXXXH.H.r.0.w.r.e.:.-.7     ",
"AXAX      a a *   O 0.0.d a a a a a.v.z.0.0.z.v.S.-X-Xr.0.5.a a o     AXAX",
"AXAX    . a a *   O 0.0.z a a a a a.v.v.0.0.z.v.S.#X-Xk.0.5.a a       AXAX",
"AXAX      . .     . d a a a a a a b.OXZ.d a 0.r.J.uX5X5X5X^.U U       AXAX",
"AXAX              o a a a a a a a A.@XZ.a a 9.0.XXwXuX0XtX=XY Y .     AXAX",
"AXAX              o a a d.~.C.>.4.l.b.m.h.h.8.6.V.wXwXpXpXeXQ Q .     AXAX",
"AXAXAXAXAXAXAX    o a a 8XBXmX@XOX;.a i.fXfXW Y j.wXwXNXBXkX[.[.X     AXAX",
"AXAXAXAXAXAXAX    . a a 8XBXmX@X+X;.a t.fXfXW Y j.uXwXNXBXkX[.].X     AXAX",
"AXAXAXAXAXAXAX          %XuXwX0X0XS.0.(.CXCX X].{.NXNXNXBXpXtXtXO     AXAX",
"AXAXAXAXAXAXAXAXAX      $XwXwXwXwXS.0.;XZXZX.X[.eXBXBXBXBXmXwXwXO     AXAX",
"AXAXAXAXAXAXAXAXAX      <.M.M.M.M.l.k.=XVXVXlXfXlXBXBXmXpX8XM.M.o     AXAX",
"AXAXAXAXAXAXAXAXAX                :.v.-XBXBXBXBXBXBXBXiXuXD.      AXAXAXAX",
"AXAXAXAXAXAXAXAXAX                :.v.-XBXBXBXBXBXBXBXpXuXD.      AXAXAXAX",
"AXAXAXAXAXAXAX    & ,X,X,X,XG.        $ ` ` ` ` ` ` ` x k u.).).X     AXAX",
"AXAXAXAXAXAXAX    & ,X,X,X,XG.        $ ` ` ` ` ` ` ` x k u.).)..     AXAX",
"AXAXAXAX      5 j #.,X,Xs.2.2.L.U.y * > R R } O.O.O.O.>X<X6XrXrXI L 1     ",
"AXAXAXAX      @.v.Z.,X,Xf   : gXsXi.> t p k | }.}.}...vXBXBXBXBX`.).P     ",
"AXAXAXAX      @.v.Z.#X#Xh + c sXsXi.t l -.;.| }.}.}.}.cXBXBXBXBX`._.I     ",
"AXAXAXAX      @.v.l.    T.sXsXsXsXbXBXBXBXBX|.}.}.}.}.9XwXwX0XwXdXsXL.    ",
"AXAXAXAX      @.v.4.    T.sXsXgXsXbXBXBXBXBX|.}.}.}.}.9XwXwXwXwXdXsXL.    ",
"AXAXAXAX      @.v.4.    T.sXsX'.'.yXpXpXpXpX|.}.}.}.}.N.B.s.3.3.L L :     ",
"AXAXAXAX      @.v.4.    T.gXaX)._.8XwXwXwXwXR...}.}.}.G k 7           AXAX",
"AXAXAXAX      @.v.4.    ).gXsX`.'.3X6X7X4X4XR.}.}.}.}.H x 9           AXAX",
"AXAXAXAX      @.v.4.    '.zXzXzXzXW.` ^ w w ] }.}.}.}.` ` 4       AXAXAXAX",
"AXAXAXAX      @.v.4.    '.zXzXzXzXW.` ^ w w ] }.}.}.}.` ` 4       AXAXAXAX",
"AXAXAXAX      % 5 5 j f F L P p.p.V M A _ _ o.}.+.' ' Z C 3       AXAXAXAX",
"AXAXAXAXAXAXAX    O ;.>.=   o w w w w n }.}.}.}.+.` ` b v ;       AXAXAXAX",
"AXAXAXAXAXAXAX    O >.>.=   X u u u u S }.}.X.| [ ) ) n v ;       AXAXAXAX",
"AXAXAXAXAXAXAX    O v.v.7   # ` ` ` ` ` }.}.~ L B v v 3 u -       AXAXAXAX",
"AXAXAXAXAXAXAX    O v.v.5   # ` ` ` ` ` }.}.~ J B v v v v ;       AXAXAXAX",
"AXAXAXAXAXAXAX    o = = o   X C C S ^ I ~ ~ - + - v 3 6XyX!.      AXAXAXAX",
"AXAXAXAXAXAXAXAXAX          . v v F J J J J X   + v v xXBX*X      AXAXAXAX",
"AXAXAXAXAXAXAXAXAX          X y 3 B J F c c & + ; n n >X2Xf.      AXAXAXAX",
"AXAXAXAXAXAXAXAXAXAXAXAX    X v u J J c     : v n J J .     AXAXAXAXAXAXAX",
"AXAXAXAXAXAXAXAXAXAXAXAX    . v 3 F J c     < u n J J X     AXAXAXAXAXAXAX",
"AXAXAXAXAXAXAXAXAXAXAXAX    8 4X4XiXxX1X    < 3 n J J .     AXAXAXAXAXAXAX",
"AXAXAXAXAXAXAXAXAXAXAXAX    8 wXwXMXBX6X    : y n J J o     AXAXAXAXAXAXAX",
"AXAXAXAXAXAXAXAXAX      X + y >X:X>X>XQ.    J E L.).).K.K.c       AXAXAXAX",
"AXAXAXAXAXAXAXAXAX      ; v v L J @         T.'.aXzXzXzXzX_.      AXAXAXAX",
"AXAXAXAXAXAXAXAXAX      ; y n J L +         T.'.aXzXzXzXzX).      AXAXAXAX",
"AXAXAXAXAXAXAXAXAX      I Y.T.`._.:         T.'.aXzXzXzXzX_.      AXAXAXAX",
"AXAXAXAXAXAXAXAXAX      I Q.T.'.'.:     AXAXAXAXAXAXAXAXAXAXAXAXAXAXAXAXAX",
"AXAXAXAXAXAXAXAXAX      Y. XaXsXgXc     AXAXAXAXAXAXAXAXAXAXAXAXAXAXAXAXAX",
"AXAXAXAXAXAXAXAXAX      '.zXzXzXzXm     AXAXAXAXAXAXAXAXAXAXAXAXAXAXAXAXAX",
"AXAXAXAXAXAXAXAXAX      '.zXzXzXzXm     AXAXAXAXAXAXAXAXAXAXAXAXAXAXAXAXAX"
};
