/* XPM */
static char *right_7[] = {
/* columns rows colors chars-per-pixel */
"37 64 245 2",
"   c #000000",
".  c #070508",
"X  c #05080A",
"o  c #090306",
"O  c #0C030A",
"+  c #0B0B0C",
"@  c #0F0E11",
"#  c #081511",
"$  c #0B1C17",
"%  c #11060B",
"&  c #13080E",
"*  c #19090F",
"=  c #140512",
"-  c #1B0912",
";  c #131416",
":  c #151318",
">  c #1D1D1D",
",  c #1E0820",
"<  c #1B1220",
"1  c #1B1920",
"2  c #15251B",
"3  c #132A19",
"4  c #152020",
"5  c #193F34",
"6  c #220C17",
"7  c #230B1A",
"8  c #2A0F1C",
"9  c #211216",
"0  c #24141C",
"q  c #261A1F",
"w  c #230726",
"e  c #210824",
"r  c #2E0C26",
"t  c #2C0B28",
"y  c #221723",
"u  c #241D31",
"i  c #350E2C",
"p  c #390F2F",
"a  c #310D35",
"s  c #3A0F30",
"d  c #390F39",
"f  c #351425",
"g  c #31112F",
"h  c #3B1527",
"j  c #3B122F",
"k  c #371431",
"l  c #3D103A",
"z  c #381E34",
"x  c #252426",
"c  c #222028",
"v  c #23292E",
"b  c #28262C",
"n  c #2C2C2C",
"m  c #252535",
"M  c #292730",
"N  c #2E2D31",
"B  c #2F2A3C",
"V  c #243234",
"C  c #253E3A",
"Z  c #2A353A",
"A  c #2E3B3A",
"S  c #36292B",
"D  c #3B2033",
"F  c #3D2C34",
"G  c #382C38",
"H  c #343336",
"J  c #313F3D",
"K  c #383636",
"L  c #3A363A",
"P  c #3A3A3A",
"I  c #1F1653",
"U  c #1C1859",
"Y  c #3F2B42",
"T  c #333A41",
"R  c #352F66",
"E  c #303C74",
"W  c #1E463C",
"Q  c #34433B",
"!  c #2C4449",
"~  c #284E49",
"^  c #205042",
"/  c #245B4B",
"(  c #28584C",
")  c #34474B",
"_  c #335A41",
"`  c #2A6956",
"'  c #2F7053",
"]  c #366745",
"[  c #336649",
"{  c #316C41",
"}  c #33694E",
"|  c #3A6C47",
" . c #3D6C48",
".. c #377A4F",
"X. c #397148",
"o. c #39784A",
"O. c #337551",
"+. c #357850",
"@. c #42172B",
"#. c #45182E",
"$. c #4A1E2A",
"%. c #401135",
"&. c #44153B",
"*. c #441E30",
"=. c #48153E",
"-. c #4A1A35",
";. c #4A193C",
":. c #501C35",
">. c #531D3B",
",. c #581F3A",
"<. c #4E202B",
"1. c #462736",
"2. c #4A2830",
"3. c #53233B",
"4. c #5E213E",
"5. c #5C303D",
"6. c #471340",
"7. c #40174E",
"8. c #4C1442",
"9. c #451F51",
"0. c #521645",
"q. c #571748",
"w. c #551B41",
"e. c #581748",
"r. c #591C44",
"t. c #5B1A48",
"y. c #4D2E50",
"u. c #413F44",
"i. c #4C3445",
"p. c #4A3348",
"a. c #4D3A4F",
"s. c #5E2043",
"d. c #5F2F50",
"f. c #5F3D42",
"g. c #5C3949",
"h. c #5A3D5C",
"j. c #533365",
"k. c #621E48",
"l. c #642344",
"z. c #672248",
"x. c #602F41",
"c. c #672F4C",
"v. c #692546",
"b. c #6D2649",
"n. c #6C2946",
"m. c #692E49",
"M. c #65324A",
"N. c #673943",
"B. c #673E4D",
"V. c #6E334D",
"C. c #6B325E",
"Z. c #6F3A57",
"A. c #742B4A",
"S. c #7C2F4C",
"D. c #712C52",
"F. c #73344D",
"G. c #733F4B",
"H. c #7F314D",
"J. c #773352",
"K. c #783351",
"L. c #7A3259",
"P. c #454545",
"I. c #4C4C4D",
"U. c #454E51",
"Y. c #4E5D4B",
"T. c #555555",
"R. c #5D5D5D",
"E. c #537A55",
"W. c #587E59",
"Q. c #4D7B6E",
"!. c #674347",
"~. c #6E494E",
"^. c #76415D",
"/. c #764067",
"(. c #7F496E",
"). c #7C4C72",
"_. c #656565",
"`. c #6B6A6A",
"'. c #726C6D",
"]. c #737373",
"[. c #4C709B",
"{. c #5078A1",
"}. c #7E7B9B",
"|. c #3B804D",
" X c #5D845D",
".X c #6B87AB",
"XX c #708EB1",
"oX c #84344E",
"OX c #89374F",
"+X c #8B384F",
"@X c #8E3A50",
"#X c #913C51",
"$X c #804653",
"%X c #834956",
"&X c #8D445F",
"*X c #89595F",
"=X c #864A6B",
"-X c #8C4B63",
";X c #804F75",
":X c #8A5461",
">X c #8C5C64",
",X c #95426A",
"<X c #96586B",
"1X c #936268",
"2X c #9E676E",
"3X c #9C6A75",
"4X c #A85C6F",
"5X c #B15D75",
"6X c #A56D75",
"7X c #A96573",
"8X c #A9677B",
"9X c #AC6B76",
"0X c #BB6579",
"qX c #B86B7F",
"wX c #C16A7D",
"eX c #8F6181",
"rX c #AA7F85",
"tX c #B77984",
"yX c #B87A83",
"uX c #C56F81",
"iX c #C07B86",
"pX c #CE7A89",
"aX c #858585",
"sX c #8E8E8E",
"dX c #928C8D",
"fX c #9C8C9C",
"gX c #939393",
"hX c #8181A0",
"jX c #9485A0",
"kX c #AB899F",
"lX c #A691A8",
"zX c #AEAEAE",
"xX c #CA858E",
"cX c #CB8F91",
"vX c #CE9294",
"bX c #CE939A",
"nX c #D4828F",
"mX c #D58391",
"MX c #DB8995",
"NX c #E08F9A",
"BX c #E4949E",
"VX c #ECC2CB",
"CX c #EBE1EB",
"ZX c #F2E9F2",
"AX c None",
/* pixels */
"AXAXAXAXAXAXAX                      AXAXAXAXAXAXAXAXAXAXAXAXAXAXAXAXAXAXAX",
"AXAXAXAXAXAXAX                      AXAXAXAXAXAXAXAXAXAXAXAXAXAXAXAXAXAXAX",
"AXAXAXAX      6 h h $.<.<.$.$.h h %     AXAXAXAXAXAXAXAXAXAXAXAXAXAXAXAXAX",
"AXAXAXAX      @.b.A.#X#X#X#X+Xb.b.-     AXAXAXAXAXAXAXAXAXAXAXAXAXAXAXAXAX",
"AXAX      o o #.b.A.@X#X#X#XoXl.l.-                         AXAXAXAXAXAXAX",
"AXAX    o b.b.b.b.b.b.b.b.b.,.                              AXAXAXAXAXAXAX",
"AXAX    o v.b.b.b.b.b.b.b.b.,.                              AXAXAXAXAXAXAX",
"        o oXoXA.b.m.Y.Y.S 8 8 , , r i i i i i i i i i i i 7       AXAXAXAX",
"        o @X@XS.b.M...|.3   O a a 8.q.q.q.q.q.q.q.q.q.q.q.i       AXAXAXAX",
"    o O * @X@XF.M.g.{ { 2 o % d d 0.t.q.q.q.q.q.q.e.t.q.q.s O O       AXAX",
"    h b.b.b.b.U.` /     , a d q.q.z.b.z.q.q.q.q.t.b.b.t.q.q.q.q.o     AXAX",
"    h b.b.b.b.U.` /     , a d q.q.z.b.z.q.q.q.q.k.b.b.t.q.q.q.q.      AXAX",
"    & 6 7 =.&.) ` /     a 6.0.z.z.b.b.l.l l l l =.t.k.k.z.w.l l o     AXAX",
"AXAX      a a ! ` /     p q.t.b.b.b.b.r.a a a a d q.q.b.b.w.a a       AXAX",
"AXAX      d d Z ^ W & = %.q.t.b.b.l.s.w.d d %.%.=.t.t.A.A.l.&.;.= = O     ",
"AXAX    o q.q.7   O q.q.q.q.t.b.b.&.a d q.q.z.b.b.b.b.+X#X#X#X#Xt.q.r     ",
"AXAX    o q.q.7   O q.q.q.q.t.b.b.%.a l q.q.v.b.b.b.b.@X#X#X#X#Xt.q.r     ",
"AXAX      d d =   O q.q.k.z.z.t.t.0.8.8.q.q.H.OXoXb.b.k.k.b.A.A.z.z.h     ",
"AXAX      a a =   O q.q.z.b.v.q.q.q.q.t.q.q.oX#XoXb.D.t.q.t.b.b.b.b.h     ",
"AXAX    . w , =   O q.q.r.r.r.8.6.t.t.t.q.q.S.oXoXK.D.t.q.t.r.s.z.z.f     ",
"AXAX              O q.q.d a a a a s.b.z.q.q.z.b.J.-X-Xs.q.6.a a q.q.r     ",
"AXAX              O q.q.l a a a a s.b.z.q.q.b.b.J.-X-Xt.q.6.a a 0.q.r     ",
"AXAX              . d a d a a a a A.@XA.d d 0.t.L.0X0X0X5X/.I I % O o     ",
"AXAXAXAXAXAXAX      a a a a a a g A.#XA.a a 8.q.L.0X0XwX0X(.U U .     AXAX",
"AXAXAXAXAXAXAX    o a a d.^.Z.3.w.l.m.M.h.h.9.7.C.wXwXpXpXeXE E .     AXAX",
"AXAXAXAXAXAXAX    o a a 8XBXnX#X@X;.a y.fXfXR U j.wXwXNXBXkX{.{.X     AXAX",
"AXAXAXAXAXAXAX    . a a 8XBXnX#X#X;.a y.fXfXR U j.wXwXNXBXkX{.{.X     AXAX",
"AXAXAXAXAXAXAX          %XuXwX0X0XD.q.).CXCX.X[.eXNXNXBXBXmXqXqXO     AXAX",
"AXAXAXAXAXAXAXAXAX      $XwXwXwXwXD.q.;XZXZXXX{.XXBXBXBXBXmXwXwXO     AXAX",
"AXAXAXAXAXAXAX    O *.*.5.N.N.N.N.l.k.=XVXVXlXjXkXBXBXMXmX7XN.N.o     AXAX",
"AXAXAXAXAXAXAX    & ,X,Xf         :.b.&XBXBXBXBXBXBXBXuXwXG.      AXAXAXAX",
"AXAXAXAXAXAXAX    & ,X,Xf         :.b.-XBXBXBXBXBXBXBXpXwXG.      AXAXAXAX",
"AXAXAXAX      @.b.A.,X,X,X,XJ.        $ ` ` ` ` ` ` ` z j u._._..     AXAX",
"AXAXAXAX      @.A.A.,X,X,X,XJ.        $ ` ` ` ` ` ` ` z j 5.`._..     AXAX",
"AXAXAXAX      @.b.b.A.D.3.1.1.I.I.y = < T T ' O.O.O.+.>X<X3XkX6XP P >     ",
"AXAXAXAX      @.b.v.;.;.-   > sXsXY w t j g X.|.....|.vXBXBXBXNX'._.K     ",
"AXAXAXAX      @.b.v.-.-.9 + x sXsXp.g k -.-.Y.|.|.|.|.vXNXBXBXBX'.`.P     ",
"AXAXAXAX      @.b.s.    R.sXsXsXsXbXBXBXBXBX X|.|.|.|.9XwXwXwXwXdXsXI.    ",
"AXAXAXAX      @.b.4.    R.gXsXgXgXbXBXBXBXBX X|.|.|.|.9X0XwXwXwXdXsXI.    ",
"AXAXAXAX      @.b.4.    R.gXaX].].tXpXpXpXpXW.|.|.|.|.!.A.g.2.2.K K >     ",
"AXAXAXAX      @.b.4.    R.gXaX_._.8XwXwXwXwXE...|.|.|.D j 7           AXAX",
"AXAXAXAX      f 4.:.    _.gXsX'.].3X6X4X4X4XE.|.|.|.|.F z 0           AXAX",
"AXAXAXAXAXAXAX          ].zXzXzXzXQ.` ~ w w ] |.|.|.|.` ` 5       AXAXAXAX",
"AXAXAXAXAXAXAX          ].zXzXzXzXQ.` ( w w ] |.|.|.|.` ` 5       AXAXAXAX",
"AXAXAXAXAXAXAX    o -.-.F K L a.a.B m Z Q ] o.|.+.O.` W V 4       AXAXAXAX",
"AXAXAXAXAXAXAX    % b.b.6   o w w w w b |.|.|.|.+.` ` b c :       AXAXAXAX",
"AXAXAXAXAXAXAX    O :.>.-   O u u u b Z |.|.o.X.[ ( ( b c :       AXAXAXAX",
"AXAXAXAXAXAXAXAXAX          # ` ` ` ` ` |.|.Q H N c c 4 u ;       AXAXAXAX",
"AXAXAXAXAXAXAXAXAX          # ` ` ` ` ' |.|.Q H N c y 4 c :       AXAXAXAX",
"AXAXAXAXAXAXAXAXAX          X V V A Q A Q Q : + ; c b 6XyX~.      AXAXAXAX",
"AXAXAXAXAXAXAXAXAXAXAXAX    . y c N H H H H +   + c c xXBX*X      AXAXAXAX",
"AXAXAXAXAXAXAXAXAXAXAXAX    X x c N H N x x @ X : b M >X2Xf.      AXAXAXAX",
"AXAXAXAXAXAXAXAXAXAXAXAX    . c c N H x     1 c b H H .     AXAXAXAXAXAXAX",
"AXAXAXAXAXAXAXAXAXAXAXAX    . c y H H x     1 c b H H .     AXAXAXAXAXAXAX",
"AXAXAXAXAXAXAXAXAXAXAXAX    9 4X4XiXxX1X    1 y b H H .     AXAXAXAXAXAXAX",
"AXAXAXAXAXAXAXAXAXAXAXAX    0 wXwXMXBX6X    > c b H H .     AXAXAXAXAXAXAX",
"AXAXAXAXAXAXAXAXAX      X + y >X:X>X>X!.    H T I._._.P.P.x       AXAXAXAX",
"AXAXAXAXAXAXAXAXAX      : c b H H @         R.].aXzXzXzXzX`.      AXAXAXAX",
"AXAXAXAXAXAXAXAXAX      : y b H K +         R.].aXzXzXzXzX_.      AXAXAXAX",
"AXAXAXAXAXAXAXAXAX      P T.R.`.`.>         R.].aXzXzXzXzX`.      AXAXAXAX",
"AXAXAXAXAXAXAXAXAX      P T.R.].].>     AXAXAXAXAXAXAXAXAXAXAXAXAXAXAXAXAX",
"AXAXAXAXAXAXAXAXAX      T.aXaXsXgXx     AXAXAXAXAXAXAXAXAXAXAXAXAXAXAXAXAX",
"AXAXAXAXAXAXAXAXAX      ].zXzXzXzXn     AXAXAXAXAXAXAXAXAXAXAXAXAXAXAXAXAX",
"AXAXAXAXAXAXAXAXAX      ].zXzXzXzXn     AXAXAXAXAXAXAXAXAXAXAXAXAXAXAXAXAX"
};
