/* XPM */
static char *right_4[] = {
/* columns rows colors chars-per-pixel */
"37 64 244 2",
"   c #000000",
".  c #070508",
"X  c #05080A",
"o  c #080305",
"O  c #0C030A",
"+  c #0B0B0C",
"@  c #0F0E11",
"#  c #081511",
"$  c #0B1C17",
"%  c #11060B",
"&  c #19090F",
"*  c #130512",
"=  c #1B0912",
"-  c #131416",
";  c #151318",
":  c #1D1D1D",
">  c #1E0820",
",  c #1B1220",
"<  c #1B1920",
"1  c #15251B",
"2  c #132A19",
"3  c #152020",
"4  c #193F34",
"5  c #220C17",
"6  c #230C1A",
"7  c #2A0F1C",
"8  c #211216",
"9  c #24141C",
"0  c #261A1F",
"q  c #230726",
"w  c #200823",
"e  c #2E0C26",
"r  c #2C0B28",
"t  c #221723",
"y  c #241D31",
"u  c #350E2C",
"i  c #390F2F",
"p  c #310D35",
"a  c #3A0F30",
"s  c #390F39",
"d  c #341323",
"f  c #31112F",
"g  c #3B1527",
"h  c #3B122E",
"j  c #381D2A",
"k  c #371431",
"l  c #3D103A",
"z  c #381E34",
"x  c #252425",
"c  c #222028",
"v  c #23292E",
"b  c #28262C",
"n  c #2C2C2C",
"m  c #252535",
"M  c #292730",
"N  c #2E2D31",
"B  c #2F2A3C",
"V  c #243234",
"C  c #26353D",
"Z  c #253E3A",
"A  c #293538",
"S  c #2E3B3A",
"D  c #36292B",
"F  c #3B2033",
"G  c #382C38",
"H  c #343336",
"J  c #313F3D",
"K  c #383636",
"L  c #3A363A",
"P  c #3A3A3A",
"I  c #1F1653",
"U  c #1C1859",
"Y  c #3F2B42",
"T  c #333A41",
"R  c #352F66",
"E  c #303C74",
"W  c #1E463C",
"Q  c #34433B",
"!  c #2C4449",
"~  c #284E49",
"^  c #205042",
"/  c #245B4B",
"(  c #28584C",
")  c #34474B",
"_  c #335A41",
"`  c #2A6956",
"'  c #2F7053",
"]  c #366745",
"[  c #336649",
"{  c #316C41",
"}  c #33694E",
"|  c #3A6C47",
" . c #3D6C48",
".. c #377A4F",
"X. c #397148",
"o. c #39784A",
"O. c #337551",
"+. c #357850",
"@. c #42172B",
"#. c #45182E",
"$. c #4A1E2A",
"%. c #401135",
"&. c #44153B",
"*. c #441E30",
"=. c #48153E",
"-. c #491A36",
";. c #501C35",
":. c #511C3A",
">. c #581F3A",
",. c #4E202B",
"<. c #4A2830",
"1. c #5F213F",
"2. c #5C303D",
"3. c #471340",
"4. c #40174E",
"5. c #4C1442",
"6. c #451F51",
"7. c #521645",
"8. c #571748",
"9. c #551B41",
"0. c #581748",
"q. c #591C44",
"w. c #5B1A48",
"e. c #4D2E50",
"r. c #413F44",
"t. c #4C3445",
"y. c #4A3348",
"u. c #4D3A4F",
"i. c #5E2043",
"p. c #5F2F50",
"a. c #5F3D42",
"s. c #5C3949",
"d. c #5A3D5C",
"f. c #533365",
"g. c #621E48",
"h. c #632344",
"j. c #672248",
"k. c #602F41",
"l. c #672F4C",
"z. c #692546",
"x. c #6D2648",
"c. c #6C2946",
"v. c #692E49",
"b. c #65324A",
"n. c #673943",
"m. c #673E4D",
"M. c #6E334D",
"N. c #613151",
"B. c #6B325E",
"V. c #742B4A",
"C. c #7C2F4C",
"Z. c #722D55",
"A. c #73344D",
"S. c #733F4B",
"D. c #7F314D",
"F. c #773251",
"G. c #7A3451",
"H. c #7A3259",
"J. c #454545",
"K. c #4C4C4D",
"L. c #454E51",
"P. c #4E5D4B",
"I. c #555555",
"U. c #5D5D5D",
"Y. c #537A55",
"T. c #587E59",
"R. c #4D7B6E",
"E. c #674347",
"W. c #6E494E",
"Q. c #76415D",
"!. c #764067",
"~. c #7F496E",
"^. c #7C4C72",
"/. c #656565",
"(. c #6B6A6A",
"). c #726C6D",
"_. c #737373",
"`. c #4C709B",
"'. c #5078A1",
"]. c #7E7B9B",
"[. c #3B804D",
"{. c #5D845D",
"}. c #6B87AB",
"|. c #708EB1",
" X c #83344E",
".X c #89374F",
"XX c #8B384F",
"oX c #8E3A50",
"OX c #913C51",
"+X c #804653",
"@X c #834956",
"#X c #8D445F",
"$X c #89595F",
"%X c #824761",
"&X c #864A6B",
"*X c #8C4B63",
"=X c #804F75",
"-X c #8A5461",
";X c #8C5C64",
":X c #95426A",
">X c #96586B",
",X c #936268",
"<X c #9E676E",
"1X c #9C6A75",
"2X c #A85C6F",
"3X c #B15E6F",
"4X c #B15D75",
"5X c #A56D75",
"6X c #A96573",
"7X c #A9677B",
"8X c #AC6B76",
"9X c #B86579",
"0X c #B86B7F",
"qX c #C16A7D",
"wX c #8F6181",
"eX c #AA7F85",
"rX c #B77984",
"tX c #B87A83",
"yX c #C56F81",
"uX c #C07B86",
"iX c #CE7A89",
"pX c #858585",
"aX c #8E8E8E",
"sX c #928C8D",
"dX c #9C8C9C",
"fX c #939393",
"gX c #8181A0",
"hX c #9485A0",
"jX c #AB899F",
"kX c #A691A8",
"lX c #AEAEAE",
"zX c #CA858E",
"xX c #CB8F91",
"cX c #CE9294",
"vX c #CE939A",
"bX c #D4818F",
"nX c #D58391",
"mX c #DB8995",
"MX c #E08F9A",
"NX c #E4949E",
"BX c #ECC2CB",
"VX c #EBE1EB",
"CX c #F2E9F2",
"ZX c None",
/* pixels */
"ZXZXZXZXZXZXZX                      ZXZXZXZXZXZXZXZXZXZXZXZXZXZXZXZXZXZXZX",
"ZXZXZXZXZXZXZX                      ZXZXZXZXZXZXZXZXZXZXZXZXZXZXZXZXZXZXZX",
"ZXZXZXZX      5 g g ,.,.,.,.$.g g %     ZXZXZXZXZXZXZXZXZXZXZXZXZXZXZXZXZX",
"ZXZXZXZX      @.x.V.OXOXOXOX.Xx.x.=     ZXZXZXZXZXZXZXZXZXZXZXZXZXZXZXZXZX",
"ZXZX      o o #.x.V.oXoXoXoX.Xh.j.=                         ZXZXZXZXZXZXZX",
"ZXZX    o x.x.x.x.x.x.x.x.x.>.                              ZXZXZXZXZXZXZX",
"ZXZX    o x.x.x.x.x.x.x.x.x.>.                              ZXZXZXZXZXZXZX",
"ZXZX    o  X XV.x.v.P.P.D 7 7 > > e u u u u u u u u u u u 6       ZXZXZXZX",
"ZXZX    o oXoXC.x.b...[.2   O p p 5.0.0.8.8.8.8.8.8.8.8.8.u       ZXZXZXZX",
"    o O & oXoXA.b.s.{ { 1 o * s s 5.w.0.8.8.8.8.8.w.w.8.8.i O O       ZXZX",
"    g x.x.x.x.L.` /     > p s 7.8.j.x.j.8.8.8.8.w.x.x.w.8.8.8.8.o     ZXZX",
"    g x.x.x.x.L.` /     > p s 8.0.j.x.j.8.8.8.8.w.x.x.w.8.8.8.8.o     ZXZX",
"    % 5 6 &.&.) ` /     u 5.5.j.j.x.x.h.l s l l =.w.w.j.j.9.l l       ZXZX",
"        o p p ! ` /     a 8.w.x.x.x.x.i.p p p p l 8.8.x.x.9.p p       ZXZX",
"          p p C ^ W * * %.8.w.x.x.j.h.9.s s l %.=.w.w.V.V.h.=.-.= * O     ",
"ZXZX      p p *   O 8.8.8.8.w.x.x.l p s 8.8.z.x.x.x.x.XXOXOXOXOX8.8.e     ",
"ZXZX      p p *   O 8.8.8.8.w.x.x.%.p l 8.8.x.x.x.x.x.oXOXOXOXOXw.8.e     ",
"ZXZX      O O .   O 8.8.g.j.j.w.w.7.5.5.8.8.D..XG.x.x.j.g.x.V.V.j.j.g     ",
"ZXZX              O 8.8.j.x.z.8.8.0.0.0.8.8. XoX Xx.x.w.8.w.x.x.x.x.g     ",
"ZXZX              O 8.8.q.q.q.5.5.0.w.w.8.8.C..X XF.F.w.8.w.w.i.j.j.d     ",
"ZXZXZXZXZXZXZX    O 8.8.l p p p p i.x.x.8.8.j.x.F.*X*Xg.8.3.p p 8.8.e     ",
"ZXZXZXZXZXZXZX    O 8.8.s p p p p i.x.j.8.8.x.x.F.*X*Xw.8.3.p p 8.8.e     ",
"ZXZXZXZXZXZXZX    . s p p p &. XD..XoXV.p s 7.w.H.9X9X4X4X!.I I * O o     ",
"ZXZXZXZXZXZXZX      p p p p &.OXOXXXOXV.p p 5.8.H.qXqXqXqX~.U U       ZXZX",
"ZXZXZXZXZXZXZX    o p p p.Q.%X3X3XG.c.b.d.d.6.4.B.qXqXiXiXwXE E .     ZXZX",
"ZXZXZXZXZXZXZX    o p p 7XNXNXNXNXN.k e.dXdXR U f.0XqXMXNXjX'.'.X     ZXZX",
"ZXZXZXZXZXZXZX    . p p 7XNXNXNXNXN.p e.jXdXR U f.qXqXMXNXjX'.'.X     ZXZX",
"ZXZXZXZXZXZXZX          @XyXyXqXyXZ.7.^.VXVX}.`.wXMXMXNXNXnX0X0XO     ZXZX",
"ZXZXZXZXZXZXZX          @XtXqXqXqXZ.8.=XCXCX|.'.|.NXNXNXNXnXqXqXO     ZXZX",
"ZXZXZXZX      = d d *.*.2.c.n.n.n.h.g.&XBXBXkXhXjXNXNXnXbX6Xn.n.o     ZXZX",
"ZXZXZXZX      @.x.V.:X:Xd         ;.x.*XMXNXNXNXNXNXNXyXqXS.      ZXZXZXZX",
"ZXZXZXZX      @.x.V.:X:Xd         ;.x.*XNXNXNXNXNXNXNXiXqXW.      ZXZXZXZX",
"ZXZXZXZX      @.x.z.:.:.z.x.>.        $ ` ` ` ` ` ` ` z h t././..     ZXZX",
"ZXZXZXZX      @.x.x.:.:.h.x.>.        $ ` ` ` ` ` ` ` z h t././..     ZXZX",
"ZXZXZXZX      @.x.z.:.:.g d j K.K.t * , T T } O.O.O.+.;X>X5XeXeXP P :     ",
"ZXZXZXZX      @.x.z.:.:.=   1 aXaXY q r a a  .[...+...cXNXNXNXNX)./.K     ",
"ZXZXZXZX      @.x.x.-.-.= + b aXaXy.f k -.-. .[.[.[.[.cXNXMXNXMX).(.P     ",
"ZXZXZXZX      @.x.1.    U.aXaXaXfXvXNXNXNXNX{.[.[.[.[.8XqXqXqXqXsXaXK.    ",
"ZXZXZXZX      @.x.1.    U.fXaXaXaXvXNXNXNXNX{.[.[.[.[.8XqXqXqXqXsXaXK.    ",
"ZXZXZXZX      & 7 6     U.aXaX_._.rXiXiXiXiX{.[.[.[.[.E.M.k.<.<.K K :     ",
"ZXZXZXZXZXZXZX          U.fXpX(.(.6XtXqXqXqXY.o.[.[.[.F h 6           ZXZX",
"ZXZXZXZXZXZXZX          /.fXaX(._.1X5X6X2X2XY.o.[.[.[.K z t           ZXZX",
"ZXZXZXZXZXZXZX          _.lXlXlXlXR.` ~ q q ] o.[.[...` ` 4       ZXZXZXZX",
"ZXZXZXZXZXZXZX          _.lXlXlXlXR.` ~ q q | [.[.[.[.` ` 4       ZXZXZXZX",
"ZXZXZXZXZXZXZX          c H L u.u.B m C _ _ o.[...' ' Z V 3       ZXZXZXZX",
"ZXZXZXZXZXZXZXZXZX          . q q q q M o.[.[.[.+.` ` b c ;       ZXZXZXZX",
"ZXZXZXZXZXZXZXZXZX          . y y y y S [.[.X.X.[ / / v c ;       ZXZXZXZX",
"ZXZXZXZXZXZXZXZXZXZXZXZX    # ` ` ` ` O.[.o.Q H N c c t c ;       ZXZXZXZX",
"ZXZXZXZXZXZXZXZXZXZXZXZX    # ` ` ` ` ` ..[.Q H n c c c 3 ;       ZXZXZXZX",
"ZXZXZXZXZXZXZXZXZXZXZXZX    X V V S J Q Q Q - + - c c 5XtXW.      ZXZXZXZX",
"ZXZXZXZXZXZXZXZXZXZXZXZX    . t y n H H K H +   + c 3 zXNX$X      ZXZXZXZX",
"ZXZXZXZXZXZXZXZXZXZXZXZX    X c c N H N x x @ + - b b >X<XE.      ZXZXZXZX",
"ZXZXZXZXZXZXZXZXZXZXZXZX    . c c N K x     < c b H N .     ZXZXZXZXZXZXZX",
"ZXZXZXZXZXZXZXZXZXZXZXZX    . c c N H x     < c b H H .     ZXZXZXZXZXZXZX",
"ZXZXZXZXZXZXZXZXZXZXZXZX    8 2X2XuXzX,X    < t b H H .     ZXZXZXZXZXZXZX",
"ZXZXZXZXZXZXZXZXZXZXZXZX    9 0XqXmXNX5X    : c b H H .     ZXZXZXZXZXZXZX",
"ZXZXZXZXZXZXZXZXZX      + + t ;X-X;X;XE.    H T K././.J.J.x       ZXZXZXZX",
"ZXZXZXZXZXZXZXZXZX      ; c x H H @         U._.pXlXlXlXlX(.      ZXZXZXZX",
"ZXZXZXZXZXZXZXZXZX      ; y x H K +         U._.pXlXlXlXlX/.      ZXZXZXZX",
"ZXZXZXZXZXZXZXZXZX      K I.U.).(.:         U._.pXlXlXlXlX(.      ZXZXZXZX",
"ZXZXZXZXZXZXZXZXZX      P /./._._.:     ZXZXZXZXZXZXZXZXZXZXZXZXZXZXZXZXZX",
"ZXZXZXZXZXZXZXZXZX      I.{.wXsXfXx     ZXZXZXZXZXZXZXZXZXZXZXZXZXZXZXZXZX",
"ZXZXZXZXZXZXZXZXZX      _.lXlXlXlXn     ZXZXZXZXZXZXZXZXZXZXZXZXZXZXZXZXZX",
"ZXZXZXZXZXZXZXZXZX    X _.lXlXlXlXn     ZXZXZXZXZXZXZXZXZXZXZXZXZXZXZXZXZX"
};
