/* XPM */
static char *right_1[] = {
/* columns rows colors chars-per-pixel */
"38 64 251 2",
"   c #000000",
".  c #070508",
"X  c #050E0B",
"o  c #080305",
"O  c #0D040A",
"+  c #0C0C0D",
"@  c #0F0410",
"#  c #0D0C10",
"$  c #0E1E12",
"%  c #14070D",
"&  c #140A0E",
"*  c #140513",
"=  c #170619",
"-  c #120911",
";  c #1B0716",
":  c #1C071C",
">  c #1D0A14",
",  c #1B0C1E",
"<  c #131314",
"1  c #16151A",
"2  c #191315",
"3  c #1D1D1D",
"4  c #1B1920",
"5  c #0F251F",
"6  c #14261B",
"7  c #210B16",
"8  c #240A1B",
"9  c #2B0F1D",
"0  c #241019",
"q  c #2C111E",
"w  c #2D1D1F",
"e  c #230726",
"r  c #250B29",
"t  c #290B21",
"y  c #2A0B2E",
"u  c #2D0C31",
"i  c #221026",
"p  c #261228",
"a  c #271F2D",
"s  c #29152C",
"d  c #2A1D22",
"f  c #2F182B",
"g  c #2E1430",
"h  c #350E2C",
"j  c #310D35",
"k  c #390F39",
"l  c #321222",
"z  c #32112C",
"x  c #391425",
"c  c #3B122E",
"v  c #3F1A23",
"b  c #321A33",
"n  c #3D1033",
"m  c #222124",
"M  c #222028",
"N  c #29262D",
"B  c #2C2C2E",
"V  c #242133",
"C  c #2E2C31",
"Z  c #32242C",
"A  c #3D272A",
"S  c #302E32",
"D  c #392730",
"F  c #3B2B36",
"G  c #333235",
"H  c #37363A",
"J  c #343937",
"K  c #3A3A3A",
"L  c #1B1654",
"P  c #1C1859",
"I  c #3F174E",
"U  c #2E3142",
"Y  c #2D3A6D",
"T  c #303E75",
"R  c #1E4D3F",
"E  c #22433C",
"W  c #275533",
"Q  c #344F3E",
"!  c #33563D",
"~  c #2B5D51",
"^  c #335D41",
"/  c #3A5953",
"(  c #2A6956",
")  c #2F7053",
"_  c #32684C",
"`  c #386444",
"'  c #386A46",
"]  c #326352",
"[  c #3A7249",
"{  c #327451",
"}  c #357850",
"|  c #46182E",
" . c #421136",
".. c #43133C",
"X. c #4A143E",
"o. c #4B1B32",
"O. c #4C193D",
"+. c #521D36",
"@. c #531D3A",
"#. c #581F3A",
"$. c #402329",
"%. c #472731",
"&. c #4A2531",
"*. c #4B2D32",
"=. c #48313C",
"-. c #5C203D",
";. c #5B3B3F",
":. c #4C1442",
">. c #491F43",
",. c #521644",
"<. c #571748",
"1. c #551A43",
"2. c #591E42",
"3. c #5B1A48",
"4. c #4E3841",
"5. c #4B3E4C",
"6. c #562640",
"7. c #5D2343",
"8. c #573542",
"9. c #523B42",
"0. c #533D48",
"q. c #5A3F45",
"w. c #5F3E4C",
"e. c #56375B",
"r. c #5F3957",
"t. c #5B3F5E",
"y. c #5C3765",
"u. c #5E3867",
"i. c #601E47",
"p. c #621E48",
"a. c #632244",
"s. c #652148",
"d. c #612B45",
"f. c #6D2648",
"g. c #6B2945",
"h. c #6B2F4C",
"j. c #6D3A58",
"k. c #712A46",
"l. c #732A4A",
"z. c #792D4B",
"x. c #7E314C",
"c. c #753A53",
"v. c #7B3553",
"b. c #7D3759",
"n. c #7E3C55",
"m. c #434343",
"M. c #4A4A4A",
"N. c #4D5854",
"B. c #52414E",
"V. c #5D434A",
"C. c #5E4A4F",
"Z. c #554550",
"A. c #555555",
"S. c #595859",
"D. c #41744C",
"F. c #4D7D53",
"G. c #5E6B66",
"H. c #5E756B",
"J. c #61444C",
"K. c #684952",
"L. c #6C515D",
"P. c #764759",
"I. c #79435F",
"U. c #70567E",
"Y. c #666666",
"T. c #6E6E6E",
"R. c #746869",
"E. c #7F676C",
"W. c #796B6C",
"Q. c #726A73",
"!. c #737373",
"~. c #777778",
"^. c #7F7F7F",
"/. c #476895",
"(. c #4A7096",
"). c #5078A1",
"_. c #7F6A80",
"`. c #3B804D",
"'. c #518257",
"]. c #7980A0",
"[. c #83344D",
"{. c #87384B",
"}. c #8B384F",
"|. c #833B5C",
" X c #8D3A50",
".X c #913C51",
"XX c #873B60",
"oX c #8C3D63",
"OX c #814754",
"+X c #84445F",
"@X c #8A4C5A",
"#X c #8C4B63",
"$X c #8A4E71",
"%X c #95426A",
"&X c #954E6D",
"*X c #9D4E6A",
"=X c #975C6E",
"-X c #9A5464",
";X c #9E5F71",
":X c #8C666A",
">X c #A14D60",
",X c #A4536E",
"<X c #A16072",
"1X c #A3657A",
"2X c #A66E73",
"3X c #AA6471",
"4X c #B46274",
"5X c #B66879",
"6X c #B96275",
"7X c #BB6679",
"8X c #BE697C",
"9X c #C16A7D",
"0X c #82748E",
"qX c #AE6C82",
"wX c #C56F81",
"eX c #C67082",
"rX c #C57788",
"tX c #C47C8E",
"yX c #CA7586",
"uX c #CE7B8A",
"iX c #848384",
"pX c #8D8D8D",
"aX c #8A9B96",
"sX c #918186",
"dX c #9C8C9C",
"fX c #929292",
"gX c #9C9C9C",
"hX c #8B83A0",
"jX c #A48E91",
"kX c #AC8198",
"lX c #A59093",
"zX c #B38B9F",
"xX c #AEAEAE",
"cX c #BCA5B9",
"vX c #C18F8D",
"bX c #C18E9F",
"nX c #C3908E",
"mX c #DA8895",
"MX c #DF8E99",
"NX c #DC919B",
"BX c #C7A0B3",
"VX c #E08F9A",
"CX c #E4949E",
"ZX c #C8B1C4",
"AX c #C4C3D4",
"SX c #D7C1CF",
"DX c #D1D2E1",
"FX c #EED1DA",
"GX c #E4DAE4",
"HX c #F2E9F2",
"JX c None",
/* pixels */
"JXJXJXJXJXJXJX                      JXJXJXJXJXJXJXJXJXJXJXJXJXJXJXJXJXJXJXJX",
"JXJXJXJXJXJXJX                      JXJXJXJXJXJXJXJXJXJXJXJXJXJXJXJXJXJXJXJX",
"JXJXJXJXJX    % l l v | v v | q l 7       JXJXJXJXJXJXJXJXJXJXJXJXJXJXJXJXJX",
"JXJXJXJXJX    9 f.f.}.}..X.X.Xl.f.+.      JXJXJXJXJXJXJXJXJXJXJXJXJXJXJXJXJX",
"JXJXJXJXJX    9 f.f.}..X.X.X.Xl.f.+.      JXJXJXJXJXJXJXJXJXJXJXJXJXJXJXJXJX",
"JXJX      -.-.g.f.f.f.l.k.l.l.7 O o                           JXJXJXJXJXJXJX",
"JXJX      a.f.f.f.f.f.f.f.f.g.%                               JXJXJXJXJXJXJX",
"          k.z.l.l.f.w.V.8.o.o.> * * ; ; ; ; ; : ; ; ; ; ; ; O     JXJXJXJXJX",
"          {.}.[.f.f.D.'.W     r j k <.<.<.<.<.<.<.<.<.<.<.<.8     JXJXJXJXJX",
"          }.}.[.f.f.D.} W     r j k <.<.<.<.<.<.<.<.<.3.<.<.8     JXJXJXJXJX",
"    8 +.-.k.l.r./ / 6 $ 1 r r ..:.<.f.f.3.<.<.<.<.p.s.s.<.<.X. .n       JXJX",
"    l f.f.g.f.Z.( ( X   * j j ,.<.<.f.f.3.<.<.<.<.s.f.s.<.<.<.<.,.      JXJX",
"    q #.#.a.a.5.( ( X   * k k ,.3.p.f.f.3.:.,.:.,.3.f.s.3.3.,.,.X.      JXJX",
"JXJX      u u U ( ( X   ; ,.<.s.g.f.f.f...j u j j :.<.<.f.f.O.j u       JXJX",
"JXJX      u u U ( ( X   ; <.<.s.f.f.g.g.k j j j u :.<.<.g.f.X.j u       JXJX",
"JXJX      ..:.b 5 5 h c  .<.<.f.f.a.O...:.:.:.2.1.a.s.f.[.[.z.g.g.h c ;     ",
"JXJX      ,.,.h     X.<.<.<.<.f.f.2.j j :.<.3.f.f.f.f.l..X.X.X.X X<.,.t     ",
"JXJX      :.,.h     X.<.<.<.3.s.f.i.j k :.<.3.f.f.f.f.l. X.X.X.X X<.3.t     ",
"JXJX      u j :     :.<.p.f.f.3.,.<.<.<.<.<.p..X.Xz.f.f.<.<.p.f.f.f.f.l     ",
"JXJX      u j :     X.<.3.f.f.3.<.<.<.<.<.<.p..X.Xz.f.s.<.<.p.f.f.f.f.l     ",
"JXJX      = = @     X.<.1.:.X.:...:.p.p.3.<.3.[.x.v.n.v.<.<.,.X.,.a.p.t     ",
"JXJX                X.<.:.j u j j ..f.f.p.<.3.f.f.|.#X+X<.<. .u j <.<.t     ",
"JXJX                :.<.:.u j j j ..f.f.3.<.3.f.f.|.#XXX<.<.I y j <.<.t     ",
"JXJX                y j j u j j u O..X.XO.j k <.<.*X9X9X7X7Xy.P L   o       ",
"JXJXJXJXJXJXJX      y j j j j j j ..}.@X..j k ,.<.&XwXqX9X9Xu.P L       JXJX",
"JXJXJXJXJXJXJX      y j >.I.I.d.-.7.g.g.j.y.e.I >.&X9X9XuXuX_.Y Y       JXJX",
"JXJXJXJXJXJXJX      y j j.CXCX>X.Xz.j j ~.dX).P P $X9XwXCXCXhX).(.      JXJX",
"JXJXJXJXJXJXJX      y j j.CXCX>X.Xz.j j 0XdX0XP P &X9XwXCXCXhX).(.      JXJX",
"JXJXJXJXJXJXJX      o o %.wXeX7X6X*X,.,.cXGXAX/./.qXNXCXCXCXtXqX1X      JXJX",
"JXJXJXJXJXJXJXJXJXJX    A 8X9X9X9X>X<.<.ZXHXDX].).zXCXCXCXCXuX9X4X      JXJX",
"JXJXJXJXJXJXJX      0 q &.@X@X@X@Xn.3.3.BXFXSX_.].bXCXCXmXmX4X@XOX      JXJX",
"JXJXJXJXJXJXJX      |.%Xd.        7 k.f.rXCXCXCXCXCXCXCXqXwX&.    JXJXJXJXJX",
"JXJXJXJXJXJXJX      |.%Xd.        > f.g.rXVXCXCXCXCXCXCX9X9X*.    JXJXJXJXJX",
"JXJXJXJXJX    7 o.+.oX%XXXh.h.&   o 7 > N.H.H.H.H.H.H.Y.d.d.0.M.m.      JXJX",
"JXJXJXJXJX    9 f.f.oX%X%X%X%X>         R ( ( ( ( ( ( ~ c c Z.Y.Y.      JXJX",
"JXJXJXJXJX    9 f.f.XXoX|.b.b.d < < .   E ~ ~ ( ( ( ( ] 6.6.L.E.R.+ < .     ",
"JXJXJXJXJX    9 f.f.#.@.x     !.pXQ.e e z c D '.`.`.`.'.CXCXCXCXNXY.Y.B     ",
"JXJXJXJXJX    9 f.f.@.@.x     !.fXQ.e e z x F } `.`.`.'.CXCXCXCXNXY.Y.G     ",
"JXJXJXJXJX    9 f.f.9 > Z A.S.iXpXsX=X=X;X<X:X`.`.`.`.'.uXuXuXuXuX'.^.K     ",
"JXJXJXJXJX    l f.f.O   S pXpXpXfXjXCXCXCXCXvX`.`.`.} '.9X9X9X9XyXdXpXm.    ",
"JXJXJXJXJX    9 f.f.%   B pXpXpXpXjXCXCXCXCXvX} `.`.`.F.5X5X7X5XwXpXiX5.    ",
"JXJXJXJXJX    9 f.f.O   B fXfXT.Y.E.8X9X8X9X2X`.`.`.`.[ c c *           JXJX",
"JXJXJXJXJX    9 f.g.O   S pXfXT.Y.~.8X9X9X9X2X`.`.`.`._ c c *           JXJX",
"JXJXJXJXJX    % x x o   G gXgXpXpX:XW.W.P.c.K.`.`.} { _ f f &           JXJX",
"JXJXJXJXJXJXJX          K xXxXxXxXaX( ( N e a } `.) ( ~ M M #     JXJXJXJXJX",
"JXJXJXJXJXJXJX          K xXxXxXxXaX( ( a e N `.`.) ( ( M M #     JXJXJXJXJX",
"JXJXJXJXJXJXJX      -.a.o.+ # p g s r i ^ [ ' J J B M V d M #     JXJXJXJXJX",
"JXJXJXJXJXJXJX      -.f.o.    : e e e e ` } [ G J N M 4 M M +     JXJXJXJXJX",
"JXJXJXJXJXJXJX      x o.q     , 4 r s s Q ` ! m m d M N K.K.d     JXJXJXJXJX",
"JXJXJXJXJXJXJXJXJXJX          3 M N G G G G N     1 a G CXCX;.    JXJXJXJXJX",
"JXJXJXJXJXJXJXJXJXJX          3 M M G G G G N     1 4 H CXCX;.    JXJXJXJXJX",
"JXJXJXJXJXJXJXJXJXJX          4 a N G G < + + 3 4 N S S w w &     JXJXJXJXJX",
"JXJXJXJXJXJXJXJXJXJXJXJX      3 M N G G +   . M a B G C       JXJXJXJXJXJXJX",
"JXJXJXJXJXJXJXJXJXJXJXJX      D =.4.C.C.2   . M d C G B       JXJXJXJXJXJXJX",
"JXJXJXJXJXJXJXJXJXJXJXJX      -X9XyXCXCXA   . m M C G B       JXJXJXJXJXJXJX",
"JXJXJXJXJXJXJXJXJXJXJXJX      -X9XyXCXCXA   . m M C G C       JXJXJXJXJXJXJX",
"JXJXJXJXJXJXJXJXJXJX    . 1 1 4.J.V.*.*.&   < S.S.~.iXiX~.!.G     JXJXJXJXJX",
"JXJXJXJXJXJXJXJXJXJX    # a M S G M         1 !.!.gXxXxXxXxXm.    JXJXJXJXJX",
"JXJXJXJXJXJXJXJXJXJX    # N N J K B         1 !.!.gXxXxXxXxXm.    JXJXJXJXJX",
"JXJXJXJXJXJXJXJXJXJX    3 S.S.T.!.A.      JXJXJXJXJXJXJXJXJXJXJXJXJXJXJXJXJX",
"JXJXJXJXJXJXJXJXJXJX    3 A.S.T.!.A.      JXJXJXJXJXJXJXJXJXJXJXJXJXJXJXJXJX",
"JXJXJXJXJXJXJXJXJXJX    B pXiXfXfXT.      JXJXJXJXJXJXJXJXJXJXJXJXJXJXJXJXJX",
"JXJXJXJXJXJXJXJXJXJX    K xXxXxXxX^.      JXJXJXJXJXJXJXJXJXJXJXJXJXJXJXJXJX",
"JXJXJXJXJXJXJXJXJXJX    K xXxXxXxX^.      JXJXJXJXJXJXJXJXJXJXJXJXJXJXJXJXJX"
};
