/* XPM */
static char *right_2[] = {
/* columns rows colors chars-per-pixel */
"38 64 257 2",
"   c #000000",
".  c #060608",
"X  c #050E0B",
"o  c #0A0306",
"O  c #0E0509",
"+  c #0C0C0D",
"@  c #0F0410",
"#  c #0D0C10",
"$  c #0F1B19",
"%  c #13060C",
"&  c #120C0D",
"*  c #110411",
"=  c #130F15",
"-  c #1A0716",
";  c #1C071E",
":  c #1D0C13",
">  c #1E0819",
",  c #151516",
"<  c #16151A",
"1  c #1D1114",
"2  c #1C1C1C",
"3  c #1B1920",
"4  c #102A22",
"5  c #1F3B28",
"6  c #1F3E38",
"7  c #200B15",
"8  c #260C1B",
"9  c #2B0F1D",
"0  c #2A121D",
"q  c #2D1D1F",
"w  c #230726",
"e  c #250A27",
"r  c #270A2A",
"t  c #290A22",
"y  c #2A0B2E",
"u  c #2D0C31",
"i  c #24162D",
"p  c #291D21",
"a  c #330D2B",
"s  c #310D35",
"d  c #3A0F35",
"f  c #390F39",
"g  c #331222",
"h  c #34152B",
"j  c #3B122F",
"k  c #3F1A23",
"l  c #3F1436",
"z  c #3D113A",
"x  c #222124",
"c  c #222028",
"v  c #29262D",
"b  c #2C2C2E",
"n  c #2E2031",
"m  c #2E2C31",
"M  c #3D272A",
"N  c #302E32",
"B  c #362939",
"V  c #392730",
"C  c #3B2A35",
"Z  c #333235",
"A  c #37363A",
"S  c #343937",
"D  c #363A3E",
"F  c #39393A",
"G  c #1A1653",
"H  c #1E1758",
"J  c #1C1859",
"K  c #261246",
"L  c #303E75",
"P  c #1E4D3F",
"I  c #275533",
"U  c #2B5536",
"Y  c #345236",
"T  c #33563D",
"R  c #264540",
"E  c #244E44",
"W  c #215445",
"Q  c #285047",
"!  c #2D554B",
"~  c #2A5E51",
"^  c #345F42",
"/  c #296153",
"(  c #2A6957",
")  c #2F7053",
"_  c #356046",
"`  c #346D4D",
"'  c #386444",
"]  c #36774E",
"[  c #36794F",
"{  c #3B7149",
"}  c #387C4E",
"|  c #357850",
" . c #327451",
".. c #46182E",
"X. c #441730",
"o. c #43133C",
"O. c #4C143E",
"+. c #4B1A32",
"@. c #4A193C",
"#. c #521D3A",
"$. c #402329",
"%. c #412A35",
"&. c #4A2D32",
"*. c #4B313B",
"=. c #5D213E",
"-. c #5B3B3F",
";. c #4B1442",
":. c #521644",
">. c #571748",
",. c #551C41",
"<. c #5A1A46",
"1. c #5C1A48",
"2. c #4F2552",
"3. c #483545",
"4. c #4E3841",
"5. c #562640",
"6. c #5D2042",
"7. c #5D2A42",
"8. c #5B3145",
"9. c #5A3F45",
"0. c #583C4D",
"q. c #523B42",
"w. c #5E3867",
"e. c #611F47",
"r. c #611E49",
"t. c #632345",
"y. c #652148",
"u. c #632C46",
"i. c #692547",
"p. c #6D2649",
"a. c #6E2945",
"s. c #623740",
"d. c #6C314C",
"f. c #6A3856",
"g. c #6D3A58",
"h. c #712A46",
"j. c #742B4A",
"k. c #792E4B",
"l. c #713250",
"z. c #753A53",
"x. c #7D3759",
"c. c #444444",
"v. c #4A4A4A",
"b. c #55424F",
"n. c #5E4A4F",
"m. c #554550",
"M. c #524C52",
"N. c #5A5658",
"B. c #595959",
"V. c #545454",
"C. c #4A6D4C",
"Z. c #43754C",
"A. c #4D7D53",
"S. c #61444C",
"D. c #674E53",
"F. c #684A52",
"G. c #665661",
"H. c #675D69",
"J. c #6D5465",
"K. c #6C5D6A",
"L. c #656565",
"P. c #6D6D6D",
"I. c #7D6560",
"U. c #726C74",
"Y. c #7D667D",
"T. c #727660",
"R. c #747474",
"E. c #777778",
"W. c #7E7E7E",
"Q. c #486C93",
"!. c #4A7096",
"~. c #4D749E",
"^. c #5078A1",
"/. c #746A88",
"(. c #7F6A80",
"). c #7F708B",
"_. c #7D7292",
"`. c #3B804D",
"'. c #518257",
"]. c #748480",
"[. c #82334D",
"{. c #87384B",
"}. c #8C394F",
"|. c #823C5B",
" X c #8E3A50",
".X c #893E58",
"XX c #913C51",
"oX c #8F3E65",
"OX c #84445F",
"+X c #9D4B5E",
"@X c #8E4263",
"#X c #8C4B63",
"$X c #8A4E70",
"%X c #904663",
"&X c #95426A",
"*X c #9D4E6B",
"=X c #9A5365",
"-X c #8C666A",
";X c #806571",
":X c #807465",
">X c #807A79",
",X c #897476",
"<X c #966B73",
"1X c #9F6976",
"2X c #A34E61",
"3X c #A4556E",
"4X c #AE596B",
"5X c #A75B70",
"6X c #AC5E70",
"7X c #A16072",
"8X c #A66E73",
"9X c #B96678",
"0X c #B66577",
"qX c #C16A7D",
"wX c #82748E",
"eX c #9A6683",
"rX c #C56F81",
"tX c #C67283",
"yX c #C57788",
"uX c #CA7586",
"iX c #CF7B8A",
"pX c #D27E8D",
"aX c #858485",
"sX c #8E8E8E",
"dX c #89809D",
"fX c #998D8F",
"gX c #9A8382",
"hX c #978697",
"jX c #9C869B",
"kX c #9C8F91",
"lX c #9C8C9C",
"zX c #919191",
"xX c #9A9A9A",
"cX c #8B83A0",
"vX c #AD8186",
"bX c #A68097",
"nX c #B0888A",
"mX c #B38B9F",
"MX c #A29AAF",
"NX c #B39BA0",
"BX c #AEAEAE",
"VX c #BEB1BE",
"CX c #C18F8D",
"ZX c #C58091",
"AX c #C3908E",
"SX c #CD909F",
"DX c #D68391",
"FX c #DD8F9A",
"GX c #DE949E",
"HX c #E08F9A",
"JX c #E4949E",
"KX c #E19EA9",
"LX c #E7A2AC",
"PX c #C8B1C4",
"IX c #D1D2E1",
"UX c #F2E9F2",
"YX c None",
/* pixels */
"YXYXYXYXYXYXYX                      YXYXYXYXYXYXYXYXYXYXYXYXYXYXYXYXYXYXYXYX",
"YXYXYXYXYXYXYX                      YXYXYXYXYXYXYXYXYXYXYXYXYXYXYXYXYXYXYXYX",
"YXYXYXYXYX    % g g k k k k k O                               YXYXYXYXYXYXYX",
"YXYXYXYXYX    9 p.p.{.XXXXXXXX:                               YXYXYXYXYXYXYX",
"YXYXYXYXYX    9 p.p. XXXXXXXXX:                               YXYXYXYXYXYXYX",
"YXYX      =.t.t.p.h.C.Z.Y O O t y s ;.O.O.O.O.O.O.O.O.:.O.O.>     YXYXYXYXYX",
"YXYX      t.p.a.p.h.Z.} I     r s f >.>.>.>.>.>.>.>.>.>.>.>.8     YXYXYXYXYX",
"YXYX      h.k.d.0.0.U I 5 * % s f O.1.1.1.>.>.>.>.1.1.1.>.>.a - -       YXYX",
"YXYX      {.XXD.( ( X   * s s ;.>.1.p.p.1.>.>.>.>.y.p.p.>.>.>.>.:.      YXYX",
"YXYX      {.XXD.( ( X   * s s :.>.1.p.p.1.>.>.>.>.y.p.i.>.>.>.>.:.      YXYX",
"YXYX      h.j.m.( ( X   - :.;.r.p.p.p.p.;.f f f f :.1.1.i.y.O.z s       YXYX",
"YXYX      t.p.m.( ( X   ; >.>.i.p.p.p.u.o.s s s s ;.>.1.p.p.@.s s       YXYX",
"    o * % 6.t.3.W W = % t >.>.y.p.p.y.y.o.f f z z :.1.1.j.j.<.o.X.      YXYX",
"    g h.a.f u ;     ;.>.>.>.>.i.p.6.u s ;.>.1.p.p.a.p.h.XXXXXXXX{.      YXYX",
"    g p.p.s s ;     O.>.>.>.>.y.a.6.s u ;.>.1.p.p.p.p.j..XXXXX X{.      YXYX",
"    % 9 8 ;.;.t     O.>.1.y.y.r.1.>.;.;.>.>.r.{.[.j.p.p.p.p.j.k.j.....7     ",
"          :.>.a     O.>.1.p.a.1.>.>.>.>.>.>.r.XXXXk.p.p.>.>.y.i.p.p.p.g     ",
"          ;.>.a     O.>.1.i.i.>.:.>.>.1.>.>.r. X Xk.p.p.>.>.y.y.i.i.p.g     ",
"YXYX      u u ;     O.>.;.s u s s z a.p.1.>.1.p.a.OX#X@X>.>.z s s >.>.t     ",
"YXYX      u s ;     O.>.;.s s s s o.p.p.1.>.1.p.u.x.#X@X>.>.;.u s >.>.t     ",
"YXYX      u s ;     d o.f u s s s o.k.k.,.;.;.1.r.%X5X3X@X@X2.K K t t *     ",
"YXYX      u s ;     y s s s s s s +.+XXX@.s f >.>.*XrX9XqXqXw.J G       YXYX",
"YXYX      u s ;     y s s s s s s @. XXX@.s f :.1.2XqXqXqXqXw.J G       YXYX",
"YXYX        .       y s f.FXGX+X}.j.f s Y.hX).J H $XqXqXHXKXdX~.Q.      YXYX",
"YXYX                y s g.JXJX2XXXk.s s (.lXwXJ J $XqXtXJXJXdX^.!.      YXYX",
"YXYX                ; ; 8.DXDX4X2X.Xo.z jXVXMXL L eXiXpXJXJXbXwX/.      YXYX",
"YXYXYXYXYXYXYXYXYXYX    $.qXqXqXqX3X>.>.PXUXIX^.^.mXJXJXJXJXpXqX0X      YXYX",
"YXYXYXYXYXYXYXYXYXYX    $.qXqXqXqX3X>.>.PXUXIX^.^.mXJXJXJXJXiXqX0X      YXYX",
"YXYXYXYXYXYXYX      d.x.7.: 1 1 : g i.i.ZXLXKXSXSXGXHXHXrXrXs.7 :       YXYX",
"YXYXYXYXYXYXYX      |.&Xu.        : p.h.tXKXJXJXJXJXKXFXqXqX&.    YXYXYXYXYX",
"YXYXYXYXYX    O : 7 |.&Xl.t 0 o   % #.+.<XnXnXnXnXnXnXvX2X=X*.2 2       YXYX",
"YXYXYXYXYX    9 p.p.oX&X&X&X&X1         R ( ( ( ( ( ( ~ l j b.L.L.      YXYX",
"YXYXYXYXYX    9 p.p.oX&X&X&X&X:         P ( ( ( ( ( ( ~ j j m.L.B.      YXYX",
"YXYXYXYXYX    9 p.p.u.u.&.0 0 N.L.M.; ; n B D ] [ [ [ { j j J.aXaXv.v.x     ",
"YXYXYXYXYX    9 p.p.#.#.a     R.zXU.w w a h V `.} } } { j j L.zXsXL.L.b     ",
"YXYXYXYXYX    9 p.p.+...h 1 , E.sXU.i 3 h l V '.`.'.} { 5.5.;XkXfXP.P.Z     ",
"YXYXYXYXYX    9 p.p.%   b zXsXzXsX].( ( B j C } `.`.`.'.JXJXJXJXGXsXsXc.    ",
"YXYXYXYXYX    9 p.p.O   b zXsXsXsX].( ( A j V } `.`.`.'.JXJXJXJXGXsXsXc.    ",
"YXYXYXYXYX    9 p.p.O   N sXsXW.R.>XgXgX8X7X-X`.`.`.`.'.iXiXiXiXyXF F 2     ",
"YXYXYXYXYX    g p.p.O   b sXsXP.L.,XJXKXJXJXnX`.`.`.`.Z.qXqXqXqX0X      YXYX",
"YXYXYXYXYX    9 i.i.O   Z sXzXR.P.,XJXJXJXJXCX} `.`.`.A.0X9X9X9X4X      YXYX",
"YXYXYXYXYXYXYX          F BXBXBXBXNXqXqXqXqX8X} `.`.`.} ( ( 4     YXYXYXYXYX",
"YXYXYXYXYXYXYX          F BXBXBXBXNX9XqXqXqX8X} `.`.} } ( ( 4     YXYXYXYXYX",
"YXYXYXYXYXYXYX      0 g %.B.B.H.K.J.x.z.:X:XT.} `.] ] ) R R $     YXYXYXYXYX",
"YXYXYXYXYXYXYX      =.p.+.    ; w w w w T `.`.`.`.) ( ~ x c #     YXYXYXYXYX",
"YXYXYXYXYXYXYX      t.p...    ; w w w w T `.`.`.} ) ( / i c #     YXYXYXYXYX",
"YXYXYXYXYXYXYX      o O       E / / ~ ~ } } { S S b v v x c #     YXYXYXYXYX",
"YXYXYXYXYXYXYXYXYXYX          W ( ( ( ( } } { S Z v x i 4 c #     YXYXYXYXYX",
"YXYXYXYXYXYXYXYXYXYX          6 Q Q ! ! ^ ' T x x x c v F.F.p     YXYXYXYXYX",
"YXYXYXYXYXYXYXYXYXYXYXYX      2 4 v B A Z Z v     < c C JXJX-.    YXYXYXYXYX",
"YXYXYXYXYXYXYXYXYXYXYXYX      2 c v Z Z Z Z v     < c A JXJX-.    YXYXYXYXYX",
"YXYXYXYXYXYXYXYXYXYXYXYX      3 3 v Z Z < O + 3 2 v N N q q &     YXYXYXYXYX",
"YXYXYXYXYXYXYXYXYXYXYXYX      2 4 v C Z #   . i i b Z m       YXYXYXYXYXYXYX",
"YXYXYXYXYXYXYXYXYXYXYXYX      C *.q.D.n.,   . c x m Z b       YXYXYXYXYXYXYX",
"YXYXYXYXYXYXYXYXYXYXYXYX      =XqXuXJXJXM   . c c m Z b       YXYXYXYXYXYXYX",
"YXYXYXYXYXYXYXYXYXYXYXYX      =XqXuXJXJXM   . c c m Z m       YXYXYXYXYXYXYX",
"YXYXYXYXYXYXYXYXYXYX    . < < q.S.9.&.&.&   , V.B.E.aXaXR.R.Z     YXYXYXYXYX",
"YXYXYXYXYXYXYXYXYXYX    + c c N Z v         , R.R.xXBXBXBXBXc.    YXYXYXYXYX",
"YXYXYXYXYXYXYXYXYXYX    # v v A D m         , R.R.xXBXBXBXBXc.    YXYXYXYXYX",
"YXYXYXYXYXYXYXYXYXYX    2 B.B.P.R.V.      YXYXYXYXYXYXYXYXYXYXYXYXYXYXYXYXYX",
"YXYXYXYXYXYXYXYXYXYX    2 B.B.R.E.V.      YXYXYXYXYXYXYXYXYXYXYXYXYXYXYXYXYX",
"YXYXYXYXYXYXYXYXYXYX    b aXaXzXlX,X      YXYXYXYXYXYXYXYXYXYXYXYXYXYXYXYXYX",
"YXYXYXYXYXYXYXYXYXYX    F BXBXBXBX'.      YXYXYXYXYXYXYXYXYXYXYXYXYXYXYXYXYX",
"YXYXYXYXYXYXYXYXYXYX    F BXBXBXBXaX      YXYXYXYXYXYXYXYXYXYXYXYXYXYXYXYXYX"
};
