/* XPM */
static char *up_0[] = {
/* columns rows colors chars-per-pixel */
"35 64 128 2",
"   c #000000",
".  c #0A0306",
"X  c #0C030B",
"o  c #0B0B0B",
"O  c #12060D",
"+  c #110A0B",
"@  c #120316",
"#  c #140319",
"$  c #100F13",
"%  c #1E061F",
"&  c #1B0915",
"*  c #1D081E",
"=  c #161616",
"-  c #16151A",
";  c #18171D",
":  c #1A191B",
">  c #1D0622",
",  c #1D1C21",
"<  c #21081D",
"1  c #290E1C",
"2  c #23151C",
"3  c #26181A",
"4  c #34151D",
"5  c #200725",
"6  c #26092A",
"7  c #290B25",
"8  c #290A2D",
"9  c #2E0C32",
"0  c #300F27",
"q  c #310C2D",
"w  c #310D34",
"e  c #370E38",
"r  c #3C0F34",
"t  c #3B0F3A",
"y  c #321121",
"u  c #351228",
"i  c #341B22",
"p  c #381227",
"a  c #3B122E",
"s  c #3D1825",
"d  c #3E103B",
"f  c #242425",
"g  c #222028",
"h  c #29272D",
"j  c #2A292C",
"k  c #2F2E32",
"l  c #312F33",
"z  c #343336",
"x  c #441537",
"c  c #44133B",
"v  c #4D173C",
"b  c #4C1936",
"n  c #4D193E",
"m  c #561D3C",
"M  c #4F202C",
"N  c #572331",
"B  c #5D273C",
"V  c #62273B",
"C  c #602B3B",
"Z  c #67353A",
"A  c #69383A",
"S  c #4B1441",
"D  c #501544",
"F  c #571748",
"G  c #5B1E43",
"H  c #5C1A48",
"J  c #4A3C43",
"K  c #5E2747",
"L  c #601F47",
"P  c #611E48",
"I  c #642246",
"U  c #652148",
"Y  c #632A4A",
"T  c #6D2649",
"R  c #6E2946",
"E  c #692D4E",
"W  c #6D2E50",
"Q  c #722D48",
"!  c #7B2E4C",
"~  c #743048",
"^  c #793647",
"/  c #7A3947",
"(  c #734639",
")  c #414141",
"_  c #514045",
"`  c #545454",
"'  c #644D52",
"]  c #68575F",
"[  c #7F4046",
"{  c #744951",
"}  c #784854",
"|  c #7C5156",
" . c #6A5C63",
".. c #725D67",
"X. c #676767",
"o. c #6A6A6A",
"O. c gray45",
"+. c #7F7F7F",
"@. c #81324D",
"#. c #913C51",
"$. c #8A3A61",
"%. c #804246",
"&. c #8C5244",
"*. c #905944",
"=. c #95426A",
"-. c #915E65",
";. c #99546B",
":. c #85777E",
">. c #A3586C",
",. c #A95A71",
"<. c #A27242",
"1. c #AE6377",
"2. c #AB6F77",
"3. c #B6687C",
"4. c #C16A7D",
"5. c #8D7983",
"6. c #907B85",
"7. c #C17C88",
"8. c #CE7989",
"9. c #838383",
"0. c #8D8D8D",
"q. c #908288",
"w. c #999999",
"e. c #A3A3A3",
"r. c #AEAEAE",
"t. c #CD8090",
"y. c #E5959F",
"u. c None",
/* pixels */
"u.u.u.u.u.u.u.u.                                      u.u.u.u.u.u.u.u.",
"u.u.u.u.u.u.u.u.                                      u.u.u.u.u.u.u.u.",
"u.u.u.u.u.        . . . . . . .   X . . . X . . . .         u.u.u.u.u.",
"u.u.u.u.u.      @ F F F D F F F F F F F P T T T T R &       u.u.u.u.u.",
"u.u.u.u.u.      @ F F F F F F F F F F F I T T T T T &       u.u.u.u.u.",
"u.u.        O X < F F F S D D D D D D D G I I Y T U 1 O O         u.u.",
"u.u.      O F F F F F S w w w w w w w w 9 w 9 S F F U T T O       u.u.",
"u.u.      X F F F F F S 9 w w w w w w w w w 9 S F F U R R O       u.u.",
"u.u.      X F F F H P D t t c v v v v n x d c S S S P U U O           ",
"u.u.      O F F H T T U F F T #.#.#.#.#.! R T c w w S F F X           ",
"u.u.      X F F H T T U F F T #.#.#.#.#.! R T x w w S F F X           ",
"          O F F H T T G r r v V V V V V N n v d d c I U U M 4 4       ",
"          X F F H T R b # @ @ @ @ @ @ @ @ @ @ c F F @.#.#.#.#.#..     ",
"          X F F H T R b @ @ @ @ @ @ @ @ @ @ @ r F F @.#.#.#.#.#..     ",
"      y 0 p F F D x x x a a a a a a a a a a a a r w T @.@.N M M .     ",
"    . T R T F F x @ # 0 R T T R T T T T T R R 0 @ # m T T O       u.u.",
"    . T T U F F c @ @ 0 T T T T T T T T T T T 0 @ @ m T T O       u.u.",
"    + 1.1.;.q q 7 @ @ 0 T T T P P P T T ! @.@.p @ @ v H P } | | .     ",
"    + y.y.7.# @ @ @ @ 0 T T P F F P T T @.#.#.s # @ c F F t.y.y.+     ",
"    + y.y.7.@ @ @ @ @ 0 R T P F F P T T @.#.#.a # # c F F 8.y.y.+     ",
"    + 8.8.1.@ @ * b b x S S D F F H H P R ! ! p @ @ w d d 3.8.8.+     ",
"    + 4.4.>.@ @ 7 T R K 9 w d F F F F F U T T 0 @ @ 8 9 w ,.4.4.+     ",
"    + 4.4.>.@ @ 7 R I K w w d F F F F F P T T 0 @ @ 8 w w ,.4.4.+     ",
"      i i i 8 8 8 7 7 8 w w w t e S F F H P H 8 @ # 8 w w i i i       ",
"u.u.      X 9 w 8 @ @ > w w w w w c F F F F F 6 @ @ 8 w w .       u.u.",
"u.u.      . w w 8 # @ > w w w w w c F F F F F 7 @ @ 8 w w X       u.u.",
"u.u.        . . X @ @ > w w w w w w e e 6 > > 6 8 8 @ . X         u.u.",
"u.u.u.u.u.        @ @ > w w w w w w w w > @ @ 6 w w X       u.u.u.u.u.",
"u.u.u.u.u.        # @ > 9 w w w w w w w > # @ 6 w w X       u.u.u.u.u.",
"u.u.u.u.u.      X 9 9 6 # # > w w w w w > # @ 6 w w X       u.u.u.u.u.",
"u.u.u.u.u.      X w w 6 @ @ > w w w w w > @ @ 6 w w X       u.u.u.u.u.",
"u.u.u.u.u.      @ 9 w 6 @ @ > w w w w w > # @ 6 w w X       u.u.u.u.u.",
"u.u.      & =.=.=.=.=.=.=.=.K @ @ @ @ @ @ @ @ E =.=.6.0.0.=       u.u.",
"u.u.      & =.=.=.=.=.=.=.=.K # @ @ @ @ @ @ @ E =.=.6.0.0.:       u.u.",
"      $ o 3 =.=.=.=.=.=.=.=.Y < * * * * * * * W =.=.6.0.0.f o o       ",
"    o 0.0.q.=.=.=.=.=.=.=.=.=.=.=.=.=.=.=.=.=.=.=.=...X.X.9.w.0.o     ",
"    o 0.0.q.=.=.=.=.=.=.=.=.=.=.=.=.=.=.=.=.=.=.=.=...X.X.9.0.0.o     ",
"    o 0.0.q.=.=.=.=.=.=.=.=.=.=.=.=.=.=.=.=.=.=.=.=...X.X.0.0.0.o     ",
"    o 0.0.q.=.=.=.=.=.=.=.=.=.=.=.=.=.=.=.=.=.=.=.=...X.X.9.0.0.o     ",
"    o 0.0.q.=.=.=.=.=.=.=.=.=.=.=.=.=.=.=.=.=.=.=.=...X.X.0.0.0.o     ",
"    o 9.9.:.$.$.$.$.$.$.$.$.$.$.$.$.$.$.$.$.$.$.$.$...X.X.+.9.9.o     ",
"    o X.X. .R R T T T T T T T T T T T T R T T T T T ] X.X.X.X.X.o     ",
"    o X.X. .R R T T T T T T T T T T T T T T T T T T ] X.X.X.X.X.o     ",
"    . ) ) ) T U Q %.%./ T T T T T T R T ^ %.%.~ T T J ) ) ) ) )       ",
"u.u.      O T T / <.<.*.T T T T T T T T &.<.<.%.T T &             u.u.",
"u.u.      O T T / <.<.*.T T T T T T T U &.<.<.@.T T &             u.u.",
"u.u.      X m m B ( ( A m m m m B m m m Z ( ( Z m m O             u.u.",
"u.u.      . a a a a a a a a a w a a a a a a a a a a O       u.u.u.u.u.",
"u.u.      . a a a a a a a a a a a a a a a a a a a a o       u.u.u.u.u.",
"u.u.      X x x x x x x x x x x x x x x x x x x n x O       u.u.u.u.u.",
"u.u.      X n n D n n n n D n n n n n n D n n n n n @       u.u.u.u.u.",
"u.u.      X n D n n D n n n n n n n D D n n n n n D O       u.u.u.u.u.",
"u.u.        & & & & & & - & & & & & & & & & & & & & { -.-.=       u.u.",
"u.u.u.u.u.                                          2.y.y.3       u.u.",
"u.u.u.u.u.                                          2.y.y.3       u.u.",
"u.u.u.u.u.            X ; ; , j f =           = : ; _ ' ' +       u.u.",
"u.u.u.u.u.u.u.u.      o g g h z z :           - g g l z z .       u.u.",
"u.u.u.u.u.u.u.u.      o g g h z z :           ; g g k l z o       u.u.",
"u.u.u.u.u.u.u.u.      o g g h z z :             .   , h f j j j       ",
"u.u.u.u.u.u.u.u.      o g g h z z :       u.u.    . ; g g l z z .     ",
"u.u.u.u.u.u.u.u.      o g g h z z :       u.u.      : g g l z z .     ",
"u.u.u.u.u.      : X.o.X.o.o.9.e.e.`       u.u.      ` o.O.w.e.e.o     ",
"u.u.u.u.u.      : O.O.O.O.O.0.r.r.`       u.u.      ` O.O.e.r.r.o     ",
"u.u.u.u.u.      : O.O.O.O.O.0.r.r.`       u.u.      ` O.O.e.r.r.o     "
};
