/* XPM */
static char *up_1[] = {
/* columns rows colors chars-per-pixel */
"37 64 253 2",
"   c black",
".  c #020202",
"X  c #030303",
"o  c #040404",
"O  c #040405",
"+  c #050505",
"@  c #060606",
"#  c #070707",
"$  c #08080A",
"%  c #09080A",
"&  c #0C0C0D",
"*  c #0D0C0D",
"=  c #120317",
"-  c #110412",
";  c #150516",
":  c #17041C",
">  c #19051E",
",  c #1A051F",
"<  c #1F0D11",
"1  c #16151A",
"2  c #1A191B",
"3  c #1B191E",
"4  c #1C1C1C",
"5  c #1C1C1D",
"6  c #1C0620",
"7  c #1C0621",
"8  c #1F0620",
"9  c #1E0723",
"0  c #1F0723",
"q  c #220E13",
"w  c #21091F",
"e  c #200723",
"r  c #220722",
"t  c #200725",
"y  c #210725",
"u  c #230920",
"i  c #230823",
"p  c #220826",
"a  c #240923",
"s  c #250A21",
"d  c #260A22",
"f  c #270B22",
"g  c #240927",
"h  c #270C21",
"j  c #230828",
"k  c #240828",
"l  c #26092B",
"z  c #27092B",
"x  c #290927",
"c  c #2A0B26",
"v  c #290C23",
"b  c #2A0D22",
"n  c #2C0D23",
"m  c #2E0E25",
"M  c #280A2C",
"N  c #290A2D",
"B  c #2E0D28",
"V  c #2F1629",
"C  c #300F27",
"Z  c #310F27",
"A  c #320D2C",
"S  c #310D35",
"D  c #340D36",
"F  c #350E36",
"G  c #360E37",
"H  c #360F36",
"J  c #390F39",
"K  c #3A0F39",
"L  c #341029",
"P  c #35102A",
"I  c #34122A",
"U  c #37102C",
"Y  c #37122D",
"T  c #351B2D",
"R  c #39112D",
"E  c #3A132F",
"W  c #3B122F",
"Q  c #3B1A2A",
"!  c #351134",
"~  c #3B1034",
"^  c #3E1033",
"/  c #3E1332",
"(  c #3E1335",
")  c #3D103B",
"_  c #3F113B",
"`  c #3F103C",
"'  c #222028",
"]  c #25232A",
"[  c #25232B",
"{  c #29272E",
"}  c #2A292C",
"|  c #2B2A2D",
" . c #2C2B30",
".. c #2F2E31",
"X. c #313034",
"o. c #323134",
"O. c #343336",
"+. c #343436",
"@. c #383838",
"#. c #39383B",
"$. c #3D3D3D",
"%. c #411136",
"&. c #431631",
"*. c #411534",
"=. c #421636",
"-. c #461634",
";. c #40103C",
":. c #42123C",
">. c #45153B",
",. c #461F32",
"<. c #421C3A",
"1. c #48133C",
"2. c #4B153C",
"3. c #491932",
"4. c #481834",
"5. c #4C1B32",
"6. c #4E1B34",
"7. c #4F1B38",
"8. c #4E1A3F",
"9. c #511C37",
"0. c #521D36",
"q. c #521D37",
"w. c #531D37",
"e. c #531C3A",
"r. c #571F3A",
"t. c #571E3C",
"y. c #581E3D",
"u. c #43252B",
"i. c #49282F",
"p. c #50213E",
"a. c #5B203C",
"s. c #60253C",
"d. c #66293D",
"f. c #6B2C3C",
"g. c #471240",
"h. c #4E1441",
"j. c #4F1642",
"k. c #4F1544",
"l. c #491C41",
"z. c #511545",
"x. c #521544",
"c. c #541646",
"v. c #571748",
"b. c #551C41",
"n. c #591A46",
"m. c #5B1B46",
"M. c #591E42",
"N. c #5B1C44",
"B. c #5D1D47",
"V. c #591848",
"C. c #5A1948",
"Z. c #5C1B48",
"A. c #5D1B48",
"S. c #5E1C48",
"D. c #552243",
"F. c #572345",
"G. c #552148",
"H. c #5A2447",
"J. c #592D4B",
"K. c #601D48",
"L. c #621F48",
"P. c #612242",
"I. c #632342",
"U. c #642342",
"Y. c #652344",
"T. c #652346",
"R. c #60264E",
"E. c #642048",
"W. c #652148",
"Q. c #65204A",
"!. c #642F49",
"~. c #672C49",
"^. c #682741",
"/. c #682545",
"(. c #682348",
"). c #692349",
"_. c #6A2448",
"`. c #6E2749",
"'. c #69284F",
"]. c #6E2849",
"[. c #6E2C56",
"{. c #6F3541",
"}. c #6C314E",
"|. c #6C3750",
" X c #722E48",
".X c #742F48",
"XX c #762C4A",
"oX c #762D4A",
"OX c #782D4B",
"+X c #792E4B",
"@X c #782C4D",
"#X c #7C2F4C",
"$X c #753041",
"%X c #773547",
"&X c #723940",
"*X c #793747",
"=X c #7C3C47",
"-X c #7C3758",
";X c #7C483F",
":X c #7F4C3E",
">X c #434343",
",X c #444444",
"<X c #494949",
"1X c #565656",
"2X c gray34",
"3X c #5E5E5E",
"4X c #7F4046",
"5X c #7F4461",
"6X c #676767",
"7X c #6B6B6B",
"8X c #6D6D6D",
"9X c #737373",
"0X c #767676",
"qX c #777777",
"wX c #7C7C7C",
"eX c #7D7D7D",
"rX c #82334D",
"tX c #83344D",
"yX c #83354D",
"uX c #84374A",
"iX c #85344F",
"pX c #87364E",
"aX c #88395F",
"sX c #913C51",
"dX c #895B3D",
"fX c #834646",
"gX c #905944",
"hX c #955F43",
"jX c #864162",
"kX c #864564",
"lX c #894B69",
"zX c #8F506E",
"xX c #95426A",
"cX c #944E70",
"vX c #935573",
"bX c #956168",
"nX c #A27242",
"mX c #A36A71",
"MX c #B06172",
"NX c #B26B7B",
"BX c #BB6E7C",
"VX c #C16A7D",
"CX c #C37586",
"ZX c #CD7888",
"AX c #818181",
"SX c #838383",
"DX c gray56",
"FX c #959595",
"GX c #9F9F9F",
"HX c #AEAEAE",
"JX c #D18891",
"KX c #E5959F",
"LX c None",
/* pixels */
"LXLXLXLXLXLXLXLXLX                                      LXLXLXLXLXLXLXLXLX",
"LXLXLXLXLXLXLXLXLX                                      LXLXLXLXLXLXLXLXLX",
"LXLXLXLXLXLXLXLXLX                                      LXLXLXLXLXLXLXLXLX",
"LXLXLXLXLXLX      ^ x.x.x.x.x.x.x.x.c.k.x.N./././././.6.      LXLXLXLXLXLX",
"LXLXLXLXLXLX      %.v.v.v.v.v.v.v.v.v.v.v.K.`.`.`.`.`.0.      LXLXLXLXLXLX",
"LXLXLXLXLXLX      %.v.v.v.v.v.v.v.v.v.v.v.K.`. X`.`.`.0.      LXLXLXLXLXLX",
"LXLXLX      %.h.h.c.v.v.;.D D D D D D D D D D D ;.C.C.m.I.I.0.      LXLXLX",
"LXLXLX      1.v.v.v.v.v.) S S S S S S S S S S S ) v.v.Z.`.`.y.      LXLXLX",
"LXLXLX      1.v.v.v.v.v.) S S S S S S S S S S S ) v.v.Z.`.`.y.      LXLXLX",
"LXLXLX      1.v.v.W._._.n.x.x.`.pXuXtXtXyX.XT.T.b.G G ;.Z.Z.2.            ",
"LXLXLX      1.v.v.(.`.`.A.v.v.@XsXsXsXsXsXrX`.`.M.S S K c.v.1.            ",
"LXLXLX      1.v.v.(.`.`.A.v.v.@XsXsXsXsXsXrX`.`.M.S S K v.v.1.            ",
"            1.v.v.(.`.`.E 8 8 s v b b v v v w i A k.k.Z.pXiXtX$X$Xf.      ",
"            1.v.v.(.`.`.C = = = = = ; = = = = = c v.v.W.sXsXsXsXsXuX      ",
"            1.v.v.(.`.`.C = = = = = = = = = = = x v.v.L.sXsXsXsXsXuX      ",
"      5.w.e.c r r s f f 4.y.y.t.y.y.y.y.y.r.y.y.-.r r E XX+X^.q q q       ",
"      U.`.`.w = = = = = 7.`.`.`.`.`.`.`.`.`.`.`.7.= = f `.`.y..     LXLXLX",
"      U.`.`.w = = = = = 7.`.`.`.`.`.`.`.`.`.`.`.9.= = c `.`.y.      LXLXLX",
"      NXCXCXI = = &.e.e.Y.`.`.W.A.A.W.`.`.@XpXpXs.= = a Z.Z.'.mXmXbX      ",
"      JXKXKXT = = t.`.`.`.`.`.K.v.v.K.`.`.#XsXsXd.= = a v.v.[.KXKXJX      ",
"      JXKXKXT = = t.`.`.`.`.`.K.v.v.E.`.`.#XsXsXd.= = s v.v.[.KXKXJX      ",
"      BXZXZX<.l l B B C ( >.>.x.v.v.C.A.A._.+X+Xe.= = , ;.K H.ZXZXBX      ",
"      MXVXVXl.S S , = = l S S :.v.v.v.v.v.K.`.`.7.= = , S S l.VXVXMX      ",
"      MXVXBXl.S S 7 = = l S S :.v.v.v.v.v.K.`.`.7.= = , S S l.BXVXMX      ",
"      u.i.i.! S S , = = l S S ) _ _ _ _ _ ~ P P v = = , S S ! i.i.u.      ",
"LXLXLX      M S S , = = l S S S S S S S S j = = = = = , S S M       LXLXLX",
"LXLXLX      M S S , = = l S S S S S S S S j = = = = = , S S M       LXLXLX",
"LXLXLX      - ; = i k p p 0 0 M S S S S S j = = : j j 8 ; ; -       LXLXLX",
"LXLXLXLXLXLX      g S S 8 = = j S S S S S j = = 7 S S k       LXLXLXLXLXLX",
"LXLXLXLXLXLX      g S S 7 = = j S S S S S k = = 7 S S k       LXLXLXLXLXLX",
"LXLXLXLXLXLX      g S S k j p p p 0 p 0 p , = = 7 S S k       LXLXLXLXLXLX",
"LXLXLXLXLXLX      g S S S S S 0 = = = = = = = = 7 S S j       LXLXLXLXLXLX",
"LXLXLXLXLXLX      g S S S S S 9 = = = = = = = = 8 S S k       LXLXLXLXLXLX",
"LXLXLX      Q ,.,.H.R.R.R.R.R.F.p.p.p.p.p.p.p.p.D.R.R.J.,X,X@.      LXLXLX",
"LXLXLX      -XxXxXxXxXxXxXxXxXxXxXxXxXxXxXxXxXxXxXxXxXvXDXDXqX      LXLXLX",
"LXLXLX      -XxXxXxXxXxXxXxXxXxXxXxXxXxXxXxXxXxXxXxXxXvXDXDXqX      LXLXLX",
"      @.$.$.jXxXxXxXxXxXxXxXxXxXxXxXxXxXxXxXxXxXxXxXxXzXeXeX9X$.$.@.      ",
"      AXDXDXcXxXxXxXxXxXxXxXxXxXxXxXxXxXxXxXxXxXxXxXxXlX6X6X8XDXDXSX      ",
"      SXDXDXvXxXxXxXxXxXxXxXxXxXxXxXxXxXxXxXxXxXxXxXxXlX6X6X8XDXDXSX      ",
"      SXDXDXcXxXxXxXxXxXxXxXxXxXxXxXxXxXxXxXxXxXxXxXxXlX6X6X8XDXDXSX      ",
"      SXDXDXcXxXxXxXxXxXxXxXxXxXxXxXxXxXxXxXxXxXxXxXxXlX6X6X8XDXDXSX      ",
"      SXDXDXcXxXxXxXxXxXxXxXxXxXxXxXxXxXxXxXxXxXxXxXxXlX6X6X8XDXDXSX      ",
"      qXAXAXkXaXaXaXaXaXaXaXaXaXaXaXaXaXaXaXaXaXaXaXaX5X6X6X7XAXAXqX      ",
"      3X6X6X}.`.`.`.`.`.`.`.`.`.`.`.`.`.`.`.`.`.`.`.`.|.6X6X6X6X6X3X      ",
"      3X6X6X}.`.`.`.`.`.`.`.`.`.`.`.`.`.`.`.`.`.`.`.`.|.6X6X6X7X6X3X      ",
"      ,X<X<X~.`.`.%X=X=X X`.`.`.`.`.`.`.`..X=X=X%X`.`.!.<X<X<X<X<X>X      ",
"LXLXLX      y. X`.hXnXnX4X`.`.`.`.`.`.`.`.fXnXnXgX`.`.0.            LXLXLX",
"LXLXLX      y.`.`.hXnXnX4X`.`.`.`.`.`.`.`.fXnXnXgX`.`.0.            LXLXLX",
"LXLXLX      e.P.P.dXdXdXf.I.P.P.I.L.s.L.s.&XdXdX;XL.s.3.            LXLXLX",
"LXLXLX      Z E W A E E / E E E E E W W W W W W W W W n       LXLXLXLXLXLX",
"LXLXLX      m E W E W E W W E E E E E E W E E W E E W n       LXLXLXLXLXLX",
"LXLXLX      C ^ ^ ^ ^ ^ &.%.E %./ / ^ / %.^ &.E &.^ ^ Z             LXLXLX",
"LXLXLX      &.8.8.8.8.8.7.8.8.8.8.8.8.8.8.8.j.e.2.8.8.E             LXLXLX",
"LXLXLX      =.8.8.8.8.8.2.j.8.8.8.8.8.8.8.8.8.l.8.8.8.E             LXLXLX",
"LXLXLX      E =.=.=.=.=.=.=.=.=.=.=.=.=.=.=.=.=.=.=.=.P # O O       LXLXLX",
"LXLXLXLXLXLX                                          * +.O.|       LXLXLX",
"LXLXLXLXLXLX                                          * O.O.|       LXLXLX",
"LXLXLXLXLXLX            . . o O o o                   * X.O.| o O O       ",
"LXLXLXLXLXLXLXLXLX      1 ' '  .+.+.2       LXLX      $ V ' ] O.O...      ",
"LXLXLXLXLXLXLXLXLX      1 ' '  .+.+.2       LXLX    . # ' ' ] O.O...      ",
"LXLXLXLXLXLX      o O o 3 [ [ O.#.#.4       LXLX      % [ [ { #.@.+.      ",
"LXLXLXLXLXLX      1X9X9X9X9X9XFXHXHX2X      LXLX      4 9X9XeXHXHXGX      ",
"LXLXLXLXLXLX      1X9X9X9X9X9XFXHXHX2X      LXLX      4 9X9XeXHXHXGX      ",
"LXLXLXLXLXLX      1X9X9X9X9X9XFXHXHX2X      LXLX      4 9X9XeXHXHXGX      "
};
