/* XPM */
static char *up_2[] = {
/* columns rows colors chars-per-pixel */
"35 64 123 2",
"   c #000000",
".  c #0A0306",
"X  c #0C030B",
"o  c #0B0B0B",
"O  c #12060D",
"+  c #110A0B",
"@  c #180A0D",
"#  c #120316",
"$  c #160419",
"%  c #100F13",
"&  c #19051D",
"*  c #1B0915",
"=  c #1D081E",
"-  c #161616",
";  c #16151A",
":  c #18171D",
">  c #1A191B",
",  c #1D0622",
"<  c #1D1C21",
"1  c #21081B",
"2  c #290E1C",
"3  c #23151C",
"4  c #26181A",
"5  c #240924",
"6  c #26092A",
"7  c #290C26",
"8  c #290A2D",
"9  c #2E0C32",
"0  c #300F27",
"q  c #330D2D",
"w  c #310D34",
"e  c #370E38",
"r  c #3B0F3A",
"t  c #321121",
"y  c #331028",
"u  c #331B22",
"i  c #381227",
"p  c #3B122E",
"a  c #3C1131",
"s  c #3E103B",
"d  c #242425",
"f  c #222028",
"g  c #29272D",
"h  c #2A292C",
"j  c #2F2E32",
"k  c #312F33",
"l  c #343336",
"z  c #411B24",
"x  c #4C1F2B",
"c  c #441635",
"v  c #43133B",
"b  c #4D1A3E",
"n  c #561D3C",
"m  c #5D273C",
"M  c #602B3B",
"N  c #67353A",
"B  c #69383A",
"V  c #471240",
"C  c #4B1441",
"Z  c #501544",
"A  c #571748",
"S  c #531840",
"D  c #591D42",
"F  c #5C1A48",
"G  c #4A3C43",
"H  c #5E2747",
"J  c #601F47",
"K  c #611E48",
"L  c #642246",
"P  c #652148",
"I  c #6D2649",
"U  c #692C4E",
"Y  c #6D2E50",
"T  c #752C4A",
"R  c #7B2E4C",
"E  c #743048",
"W  c #793647",
"Q  c #7A3947",
"!  c #713053",
"~  c #734639",
"^  c #414141",
"/  c #514045",
"(  c #545454",
")  c #644D52",
"_  c #68575F",
"`  c #7F4046",
"'  c #744951",
"]  c #6A5C63",
"[  c #725D67",
"{  c #676767",
"}  c #6A6A6A",
"|  c gray45",
" . c #7F7F7F",
".. c #83334E",
"X. c #8B384F",
"o. c #913C51",
"O. c #8A3A61",
"+. c #804246",
"@. c #8C5244",
"#. c #905944",
"$. c #95426A",
"%. c #915E65",
"&. c #85777E",
"*. c #A0566F",
"=. c #AA5B71",
"-. c #A27242",
";. c #AE6377",
":. c #AB6F77",
">. c #B6687C",
",. c #BE6C7B",
"<. c #C16A7D",
"1. c #8D7983",
"2. c #907B85",
"3. c #CE7989",
"4. c #838383",
"5. c #8D8D8D",
"6. c #908288",
"7. c #999999",
"8. c #A3A3A3",
"9. c #AEAEAE",
"0. c #CD8090",
"q. c #E5959F",
"w. c None",
/* pixels */
"w.w.w.w.w.w.w.w.                                      w.w.w.w.w.w.w.w.",
"w.w.w.w.w.w.w.w.                                      w.w.w.w.w.w.w.w.",
"w.w.w.w.w.        . . . . . . . . . . . . . . . . .         w.w.w.w.w.",
"w.w.w.w.w.      # A A A Z A A A A A A A P I I I I I *       w.w.w.w.w.",
"w.w.w.w.w.      # A A A A A A A A A A A K I I I I I *       w.w.w.w.w.",
"w.w.        X O 1 A A A C Z Z Z Z C Z Z D J K I P I 2 O O         w.w.",
"w.w.      X A A A A A C w w w w w w w w w w w b A A P I I @       w.w.",
"w.w.      X A A A A A C 9 w w w w w w w w w w C A A I I I O       w.w.",
"w.w.      X A A A F F Z r r v b b b c b c c v v C C K P P O       w.w.",
"w.w.      X A A F I I I A A I X.o.o.o.o.R I I v w w C A A X       w.w.",
"w.w.      X A A F I I K A A I o.o.o.o.o...I I v w w C A A X       w.w.",
"          X A A F I I I K K I ..........T K P b r v K I I O           ",
"          X A A F I I I I I I I I I I I K A A A A A ..o.o.@           ",
"          X A A F I I I I I I I I I I I K A A A A A ..o.o.@           ",
"      t t i A A F K K D c c c c c c c c a w w S K F R ....x z z       ",
"    . I I I A A A A A a # # # # # # # # # # # n I I I I I X.o.o.X     ",
"    . I I I A A A A A v # # X # # # O # # # # x I I I I I X.o.o..     ",
"    + ;.;.*.A A b q q q c c c c c c c c c c c c p p D K K =.>.3.+     ",
"    + q.q.0.A A v # # 0 I I I I I I I I I I I 0 # # v A A 0.q.q.+     ",
"    + q.q.3.A A v # # 0 I I I I I I I I I I I 0 # $ v A A 3.q.q.+     ",
"    + 3.3.;.r v w # # 0 I I U F K K I I R ....i # # w r s >.3.3.+     ",
"    o <.3.*.w w 8 # # 0 I I K A A K I I ..o.o.i # # 8 9 w =.<.<.+     ",
"    + <.,.=.w w 8 # # 7 I I K A A K I I ..o.o.i # # 9 w w =.<.<.+     ",
"      u u t & , 7 n n b v V C A A A F F I R R i # # 8 9 w u u u       ",
"w.w.        # # 7 I I D w w s A A A A A K I I 0 # # 8 w w X       w.w.",
"w.w.      . # # 7 I I D w w s A A A A A K I I 0 # # 8 w 9 X       w.w.",
"w.w.        # # $ 1 5 7 w w w e r C A A F F F 6 # # X . .         w.w.",
"w.w.w.w.w.# # # # # # , w w w w w v A A A A A 5 # # .       w.w.w.w.w.",
"w.w.w.w.w.# # # # # # , 9 9 w 9 w v A A A A A 6 # # .       w.w.w.w.w.",
"w.w.w.w.w.      . # # , w w w w w w w e 5 & $ 8 9 9 X       w.w.w.w.w.",
"w.w.w.w.w.        # # , w w w w w w w 9 , # # 8 9 w X       w.w.w.w.w.",
"w.w.w.w.w.      . # # , 9 w w w w w w w , # # 8 w w X       w.w.w.w.w.",
"w.w.      * $.$.$.$.$.U # # , w w w w w 5 # # U $.$.2.5.5.>       w.w.",
"w.w.      * $.$.$.$.$.U # # , w w w 9 w , # # U $.$.2.5.5.-       w.w.",
"      % o 4 $.$.$.$.$.Y , = 7 9 9 9 9 9 , # # U $.$.2.5.5.d o o       ",
"    o 5.5.6.$.$.$.$.$.$.$.$.H # # # # # # # # U $.$.[ { { 4.7.5.o     ",
"    o 5.5.6.$.$.$.$.$.$.$.$.H # # # # # # # # U $.$.[ { { 4.5.5.o     ",
"    o 5.5.6.$.$.$.$.$.$.$.$.U 7 7 7 7 7 7 7 7 ! $.$.[ { { 5.5.5.o     ",
"    o 5.5.5.$.$.$.$.$.$.$.$.$.$.$.$.$.$.$.$.$.$.$.$.[ { { 4.5.5.o     ",
"    o 5.5.6.$.$.$.$.$.$.$.$.$.$.$.$.$.$.$.$.$.$.$.$.[ { { 5.5.5.o     ",
"    o  .4.&.$.O.O.O.O.O.O.O.O.O.$.O.O.O.O.O.O.O.O.O.[ { {  .4.4.o     ",
"    o { { _ I L I I I I I I I I I I I I I I I I I I _ { { { { { o     ",
"    o { { _ I I I I I I I I I I I I I I I I I I I I _ { { { { { o     ",
"    o ^ ^ ^ I I E ` ` Q I I I I I I I I Q ` ` E I I G ^ ^ ^ ^ ^       ",
"w.w.      + I I Q -.-.#.I I I I I I I I @.-.-.` I I *             w.w.",
"w.w.      + T I W -.-.#.I I I I I I I I @.-.-.` I I *             w.w.",
"w.w.      X n n m ~ ~ N n n n n n n m n B ~ ~ m n n O             w.w.",
"w.w.      . p p p p a p p p p p p p p p p p p i p p O       w.w.w.w.w.",
"w.w.      . a a a a p p p p p a a p p a p p p p p a X       w.w.w.w.w.",
"w.w.      . c c c c c s c c v c c c c c v c c c b k O       w.w.w.w.w.",
"w.w.      X S b S b b b b S C S b b b C S C b b b S #       w.w.w.w.w.",
"w.w.      . b S S b b b b b b b S b b S C b b b C n O       w.w.w.w.w.",
"w.w.        * * * * * * - * * * * * * * * * * * * * ' %.%.-       w.w.",
"w.w.w.w.w.                                          :.q.q.4       w.w.",
"w.w.w.w.w.                                          :.q.q.4       w.w.",
"w.w.w.w.w.            o : : > h d -           - : : / ) ) +       w.w.",
"w.w.w.w.w.w.w.w.      o f f g l l >           ; f < j l l o       w.w.",
"w.w.w.w.w.w.w.w.      o f f g l l >           : f f j l l o       w.w.",
"w.w.w.w.w.w.w.w.      o f f g l l >             . . > g f h h h       ",
"w.w.w.w.w.w.w.w.      o f f g l l >       w.w.      : f f k l l .     ",
"w.w.w.w.w.w.w.w.      o f f g l l >       w.w.      < f f k l l .     ",
"w.w.w.w.w.      : } { { } } 4.8.8.(       w.w.      ( } | 7.8.8.o     ",
"w.w.w.w.w.      > | | | | | 5.9.9.(       w.w.      ( | | 8.9.9.o     ",
"w.w.w.w.w.      > | | | | | 5.9.9.(       w.w.      ( | | 8.9.9.o     "
};
