/* XPM */
static char *up_3[] = {
/* columns rows colors chars-per-pixel */
"33 64 235 2",
"   c black",
".  c #010001",
"X  c #020001",
"o  c #030101",
"O  c #020002",
"+  c #030102",
"@  c #030303",
"#  c #060205",
"$  c #040404",
"%  c #040405",
"&  c #050405",
"*  c #060607",
"=  c #090306",
"-  c #0C0507",
";  c #09010B",
":  c #0E030B",
">  c #0C0608",
",  c #08080A",
"<  c #0D0C0D",
"1  c #0D0211",
"2  c #0E0211",
"3  c #0E0213",
"4  c #11060B",
"5  c #12050F",
"6  c #16070F",
"7  c #17080F",
"8  c #110315",
"9  c #110216",
"0  c #120317",
"q  c #150319",
"w  c #150418",
"e  c #160419",
"r  c #17041C",
"t  c #18061A",
"y  c #1A061B",
"u  c #19051E",
"i  c #1B051D",
"p  c #1A051E",
"a  c #1C061D",
"s  c #1E071D",
"d  c #1B0912",
"f  c #1D0917",
"g  c #1D0C14",
"h  c #1F081D",
"j  c #121112",
"k  c #131313",
"l  c #131314",
"z  c #151515",
"x  c #151516",
"c  c #16141A",
"v  c #191919",
"b  c #1A191B",
"n  c #1B1B1B",
"m  c #1C1A1F",
"M  c #1C1C1C",
"N  c #1E0620",
"B  c #1E0622",
"V  c #1F1F21",
"C  c #240F14",
"Z  c #220A1E",
"A  c #240B1D",
"S  c #250A1F",
"D  c #270D1F",
"F  c #2A0E1E",
"G  c #241218",
"H  c #26101F",
"J  c #2A151A",
"K  c #2F101F",
"L  c #301A1F",
"P  c #230823",
"I  c #270A23",
"U  c #240927",
"Y  c #240929",
"T  c #270A2C",
"R  c #2B0B24",
"E  c #290C23",
"W  c #2C0D23",
"Q  c #2F0E24",
"!  c #300D27",
"~  c #310D35",
"^  c #320D35",
"/  c #3A0F39",
"(  c #371324",
")  c #31142A",
"_  c #36112B",
"`  c #321B20",
"'  c #341F23",
"]  c #3A132F",
"[  c #3B122F",
"{  c #3A1929",
"}  c #3E103B",
"|  c #232323",
" . c #222028",
".. c #26242B",
"X. c #282828",
"o. c #2B2B2B",
"O. c #2B292F",
"+. c #2D2C31",
"@. c #362528",
"#. c #392527",
"$. c #392328",
"%. c #343336",
"&. c #373737",
"*. c #3C3C3C",
"=. c #40152D",
"-. c #441B27",
";. c #481E28",
":. c #4D1F2B",
">. c #411136",
",. c #471734",
"<. c #43113E",
"1. c #44113C",
"2. c #46123F",
"3. c #46133E",
"4. c #421B33",
"5. c #451B37",
"6. c #4A133D",
"7. c #4B133F",
"8. c #48173A",
"9. c #4E193E",
"0. c #4E1A3F",
"q. c #521D36",
"w. c #561D3B",
"e. c #551C3C",
"r. c #561C3E",
"t. c #571E3C",
"y. c #4A2135",
"u. c #50203F",
"i. c #693A39",
"p. c #491341",
"a. c #4D1443",
"s. c #511543",
"d. c #521545",
"f. c #571748",
"g. c #501840",
"h. c #501940",
"j. c #531942",
"k. c #531B40",
"l. c #581D42",
"z. c #5B1A48",
"x. c #5C1A48",
"c. c #5C1B48",
"v. c #5D1B48",
"b. c #5F1C48",
"n. c #5F1E48",
"m. c #502745",
"M. c #5E2143",
"N. c #582149",
"B. c #5D394A",
"V. c #601E46",
"C. c #621E48",
"Z. c #621F48",
"A. c #622045",
"S. c #662344",
"D. c #642048",
"F. c #65204A",
"G. c #662148",
"H. c #672248",
"J. c #612949",
"K. c #682348",
"L. c #6A2448",
"P. c #6C2548",
"I. c #6E2749",
"U. c #6F2B47",
"Y. c #653049",
"T. c #6C3750",
"R. c #752B4A",
"E. c #762C4B",
"W. c #772C4B",
"Q. c #782D4B",
"!. c #742F55",
"~. c #783547",
"^. c #7E314C",
"/. c #7F314D",
"(. c #7B3A47",
"). c #743255",
"_. c #7E375B",
"`. c #793B59",
"'. c #704438",
"]. c #434343",
"[. c #474747",
"{. c #4C4C4C",
"}. c #4F4E52",
"|. c #535355",
" X c #565656",
".X c #575757",
"XX c #575758",
"oX c #5A5A5A",
"OX c #5A595C",
"+X c #664448",
"@X c #684448",
"#X c #6A4758",
"$X c #724A4F",
"%X c #764C60",
"&X c #666666",
"*X c #676767",
"=X c gray45",
"-X c #767676",
";X c #787879",
":X c #7A7A7A",
">X c #7B7B7B",
",X c #88364F",
"<X c #89374F",
"1X c #8D3A50",
"2X c #883C58",
"3X c #913C51",
"4X c #8F3F66",
"5X c #955F43",
"6X c #8A4865",
"7X c #884A68",
"8X c #894B69",
"9X c #8D4F6D",
"0X c #934068",
"qX c #95426A",
"wX c #924863",
"eX c #935573",
"rX c #9E5673",
"tX c #90677A",
"yX c #92687C",
"uX c #AA5768",
"iX c #A27242",
"pX c #C16A7D",
"aX c #D27E8D",
"sX c #818181",
"dX c #8A8A8A",
"fX c #8D8D8D",
"gX c gray56",
"hX c #909090",
"jX c #A1A1A1",
"kX c #A4A4A4",
"lX c #AEAEAE",
"zX c #CD8891",
"xX c #D18891",
"cX c #E5959F",
"vX c None",
/* pixels */
"vXvXvXvXvXvXvXvX                                  vXvXvXvXvXvXvXvX",
"vXvXvXvXvXvXvXvX                                  vXvXvXvXvXvXvXvX",
"vXvXvXvXvX      : 5 5 5 5 5 5 5 5 5 5 d 7 7 7 7 4       vXvXvXvXvX",
"vXvXvXvXvX      >.f.f.f.f.f.f.f.f.f.f.K.I.I.I.I.q.      vXvXvXvXvX",
"vXvXvXvXvX      >.f.f.f.f.f.f.f.f.f.f.K.I.I.I.I.q.      vXvXvXvXvX",
"vXvX      5 S S 6.f.f.2.2.2.2.2.2.p.2.9.k.k.Z.S.t.K ( 7       vXvX",
"vXvX      R f.f.f.f.f.~ ~ ~ ~ ~ ~ ~ ~ ~ ~ ~ f.f.x.I.I.(       vXvX",
"vXvX      R f.f.f.f.f.~ ~ ~ ~ ~ ~ ~ ~ ~ ~ ~ f.f.x.I.I.(       vXvX",
"vXvX      R f.f.C.G.G.p.p.j.U.U.U.U.U.M.l.l.} } 2.b.n.!       vXvX",
"vXvX      R f.f.K.I.I.f.f.G.3X3X3X3X3XE.I.I.~ ~ } f.f.R       vXvX",
"vXvX      R f.f.K.I.I.f.f.Z.3X3X3X3X3XE.I.I.~ ~ / f.f.R       vXvX",
"          R f.f.K.I.I.i a a Z Z Z Z Z h a a a.f.b.,X,X-.          ",
"          R f.f.K.I.I.0 0 0 0 0 0 0 0 0 0 0 f.f.G.3X3X;.          ",
"      = = ! f.f.A.S.S.y i y y y y y y y y y s.s.b.1X1X:.- - +     ",
"    d I.I.C.f.f.P 0 0 I.I.I.I.I.I.I.I.I.I.I.0 0 E I.U.^.3X3XC     ",
"    d I.I.C.f.f.P 0 0 I.I.I.I.I.I.I.I.I.I.I.0 0 E I.I.^.3X3XC     ",
"    G wXwX!.f.f.P 0 0 I.I.L.G.G.L.U.I.R.Q.Q.0 0 I K.G.2XuXuXJ     ",
"    $.cXcXrXf.f.P 0 0 I.U.K.f.f.C.I.I.,X3X3X0 0 P f.f.rXcXcX#.    ",
"    #.cXcXrXf.f.P 0 0 L.I.K.f.f.C.I.I.,X3X3X0 0 P f.f.rXcXcX$.    ",
"    $.aXaX6X<.<.B 0 0 g.9.a.f.f.x.C.C.W.^.^.0 0 B } p.6XxXaXL     ",
"    L pXpX`.~ ~ N 3 0 ~ ~ / f.f.f.f.f.K.I.I.0 0 r ~ ~ `.pXpXL     ",
"    L pXpX`.~ ~ i 0 0 ~ ~ / f.f.f.f.f.K.I.I.0 0 i ~ ~ `.pXpXL     ",
"    > L L D i i ,.t.t.~ ~ / f.f.f.f.f.x.x.x.0 0 N ~ ~ ) L L >     ",
"vXvX      ; 0 0 t.I.I.~ ~ / f.f.f.f.f.f.f.f.0 0 i ~ ~ y       vXvX",
"vXvX      ; 0 0 t.U.I.~ ~ / f.f.f.f.f.f.f.f.0 0 i ~ ~ i       vXvX",
"vXvX      ; 0 0 e e q ~ ~ ~ ~ ~ ~ ~ ^ a.f.f.0 0 1             vXvX",
"vXvXvXvXvX0 0 w 0 0 0 ~ ~ ~ ~ ~ ~ ~ ~ a.f.f.0 0 1       vXvXvXvXvX",
"vXvXvXvXvX3 3 3 0 0 0 ~ ~ ~ ~ ~ ~ ~ ~ 2.p.p.r r 0       vXvXvXvXvX",
"vXvXvXvXvX      1 0 0 ~ ~ ~ ~ ~ ~ ~ ~ r 0 0 ~ ~ Y       vXvXvXvXvX",
"vXvXvXvXvX      1 0 0 ~ ~ ~ ~ ~ ~ ~ ~ N 0 0 ~ ~ Y       vXvXvXvXvX",
"vXvX      g { { 4.5.5.Y Y T ~ ~ ~ ~ ~ i 0 0 N.N.m.&.&.M       vXvX",
"vXvX      y.qXqXqXqXqX0 0 i ~ ~ ~ ~ ~ i 0 0 qXqXeXgXgX[.      vXvX",
"vXvX      y.qXqXqXqXqX0 w r ^ ^ ~ ~ ~ N 0 0 qXqXeXgXgX[.      vXvX",
"    z XXXX%XqXqXqXqXqXJ.N.k.B B B B N q 0 0 qXqX9X-X-X*X.X.Xz     ",
"    | gXgXyXqXqXqXqXqXqXqX`.0 0 0 0 0 0 0 0 qXqX8X*X*X>XgXgX|     ",
"    | gXgXyXqXqXqXqXqXqXqX).0 0 0 0 0 0 0 0 qXqX8X*X*X>XgXgX|     ",
"    | gXgXyXqXqXqXqXqXqXqX4X_._._._._._._._.qXqX8X*X*X>XgXgX|     ",
"    | gXfXyXqXqXqXqXqXqXqXqXqXqXqXqXqXqXqXqXqXqX8X*X*X>XgXgX|     ",
"    | fXfXtX0X0X0X0X0X0X4XqXqX4X4XqX0X0X0X0X0X0X6X*X*X:XfXfX|     ",
"    b *X*X#XI.I.I.I.I.I.I.I.I.I.I.U.L.L.I.I.I.U.T.*X*X*X*X*Xb     ",
"    b *X*X#XU.I.I.I.I.I.I.I.I.I.I.I.I.I.I.I.I.I.T.*X*X*X*X*Xb     ",
"    k {.{.B.I.I.~.(.(.I.I.I.I.I.I.I.I.~.(.(.I.I.Y.{.{.{.{.{.j     ",
"vXvX      ( I.I.5XiXiXI.I.I.I.I.I.I.I.5XiXiXI.I.q.            vXvX",
"vXvX      ( I.I.5XiXiXI.I.I.I.I.I.I.I.5XiXiXI.I.q.            vXvX",
"vXvX      F t.t.i.'.'.e.e.e.e.e.e.t.t.i.'.'.k.t.=.            vXvX",
"vXvX      f [ [ [ [ [ [ [ [ [ [ [ [ [ [ [ [ [ [ W       vXvXvXvXvX",
"vXvX      f [ [ [ [ [ [ [ [ [ [ [ [ [ [ [ [ [ [ W       vXvXvXvXvX",
"vXvX      Z 8.8.8.8.8.8.8.8.8.8.8.8.8.8.8.8.8.8._       vXvXvXvXvX",
"vXvX      D 0.0.0.0.0.0.0.0.0.0.9.h.h.0.0.0.0.0.]       vXvXvXvXvX",
"vXvX      E 0.0.0.0.0.0.0.0.0.0.9.9.h.0.0.0.0.0.]       vXvXvXvXvX",
"vXvX        # # # # # # # # # # # # # = % % # # #.xXxX@X      vXvX",
"vXvXvXvXvX                                      #.cXcX$X      vXvX",
"vXvXvXvXvX            % % % * *             % % @.zXzX+X      vXvX",
"vXvXvXvXvXvXvXvX       . ...%.%.b            . ...%.%.b       vXvX",
"vXvXvXvXvXvXvXvX       . ...%.%.b            . ...%.%.b       vXvX",
"vXvXvXvXvXvXvXvX       . ...%.%.b           c c V +.+.V j j %     ",
"vXvXvXvXvXvXvXvX       . ...%.%.b       vXvX    ,  . .O.%.%.<     ",
"vXvXvXvXvXvXvXvX       . ...%.%.b       vXvX    ,  . .O.%.%.<     ",
"vXvXvXvXvXvXvXvX      |.}.OX:X;X*.      vXvX    l }.}.|.XXXXz     ",
"vXvXvXvXvXvXvXvX      =X=XsXlXlX.X      vXvX    M =X=X=X=X=XM     ",
"vXvXvXvXvXvXvXvX      =X=XsXlXlX.X      vXvX    M =X=X=X=X=XM     ",
"vXvXvXvXvX      ].oXoXjXjXkXlXlX.X      vXvX    M =X=XdXjXjXo.    ",
"vXvXvXvXvX      .X=X=XlXlXlXvXvXvXvXvXvXvXvX    M =X=XhXlXlXo.    ",
"vXvXvXvXvX      .X=X=XlXlXlXvXvXvXvXvXvXvXvX    M =X=XhXlXlXo.    "
};
