/* XPM */
static char *up_4[] = {
/* columns rows colors chars-per-pixel */
"35 64 121 2",
"   c #000000",
".  c #0A0306",
"X  c #0C030B",
"o  c #0B0A0B",
"O  c #0E0D10",
"+  c #12060D",
"@  c #110A0B",
"#  c #120316",
"$  c #15041A",
"%  c #160A10",
"&  c #1C071C",
"*  c #190A11",
"=  c #151415",
"-  c #16141A",
";  c #1A1A1C",
":  c #1D0622",
">  c #1D1C21",
",  c #230B1C",
"<  c #290E1C",
"1  c #24121B",
"2  c #26181A",
"3  c #34151D",
"4  c #220827",
"5  c #26092A",
"6  c #2A0C24",
"7  c #290A2D",
"8  c #300F27",
"9  c #310E2D",
"0  c #310D34",
"q  c #3C0F34",
"w  c #3B0F3A",
"e  c #321122",
"r  c #341129",
"t  c #341C23",
"y  c #3B122E",
"u  c #3D1825",
"i  c #3A1031",
"p  c #3E103B",
"a  c #232224",
"s  c #222028",
"d  c #29272D",
"f  c #2A292C",
"g  c #2F2E32",
"h  c #312F33",
"j  c #343336",
"k  c #431535",
"l  c #44143B",
"z  c #4D173C",
"x  c #4C1936",
"c  c #4D1A3E",
"v  c #551D3A",
"b  c #5B1F3F",
"n  c #4F202C",
"m  c #572331",
"M  c #62273B",
"N  c #652D3E",
"B  c #6E3B3C",
"V  c #713F3C",
"C  c #4B1442",
"Z  c #501544",
"A  c #571748",
"S  c #5C1E43",
"D  c #5C1B48",
"F  c #5D2444",
"G  c #601F47",
"H  c #611E48",
"J  c #642246",
"K  c #652148",
"L  c #63294B",
"P  c #6D2649",
"I  c #6E2946",
"U  c #692D4E",
"Y  c #722C48",
"T  c #7B2E4C",
"R  c #763347",
"E  c #7B3A47",
"W  c #7C4F3B",
"Q  c #4A4A4A",
"!  c #534247",
"~  c #52434A",
"^  c #545454",
"/  c #644D52",
"(  c #68575F",
")  c #7F4046",
"_  c #724C52",
"`  c #784854",
"'  c #7C5156",
"]  c #685C62",
"[  c #715D67",
"{  c #676767",
"}  c #6A6A6A",
"|  c gray45",
" . c #81324D",
".. c #913C51",
"X. c #873C60",
"o. c #8C3D63",
"O. c #8C5244",
"+. c #905944",
"@. c #95426A",
"#. c #945367",
"$. c #915E65",
"%. c #A95A71",
"&. c #A27242",
"*. c #AE6377",
"=. c #B26679",
"-. c #B6687C",
";. c #C16A7D",
":. c #8B7A82",
">. c #907B85",
",. c #B47781",
"<. c #C17C88",
"1. c #CE7989",
"2. c #858586",
"3. c #8D8D8D",
"4. c #908288",
"5. c #999999",
"6. c #A3A3A3",
"7. c #AEAEAE",
"8. c #CD8090",
"9. c #E5959F",
"0. c None",
/* pixels */
"0.0.0.0.0.0.0.0.                                      0.0.0.0.0.0.0.0.",
"0.0.0.0.0.0.0.0.                                      0.0.0.0.0.0.0.0.",
"0.0.0.0.0.        . . . . . . . . . . . . X . . . .         0.0.0.0.0.",
"0.0.0.0.0.      % A A A Z A A A A A A A H P P P P P *       0.0.0.0.0.",
"0.0.0.0.0.      # A A A A A A A A A A A J P P P P P * .     0.0.0.0.0.",
"0.0.        + X , A A Z C Z Z Z Z Z Z Z S J J L K P < % +         0.0.",
"0.0.      + A A A A A C 0 0 0 0 7 0 0 0 0 0 0 C A A K P P +       0.0.",
"0.0.      X A A A A A C 0 0 0 0 0 0 0 0 0 0 0 C A A K P P +       0.0.",
"0.0.      X A A A D H Z w w l z z z z c l p l C C C H K K +           ",
"0.0.      + A A D P P K A A P ..........T I P l 0 0 C A A X           ",
"0.0.      X A A D P P K A A P ..........T P P l 0 0 C A A X           ",
"          X A A D P P S q q z M M M M M m x x l w l S P I k 3 3 .     ",
"          X A A H P I x $ # # # # # # # # # # k A A  ............     ",
"          + A A D P P x # # # # # # # # # # # l A A  ............     ",
"      e e 8 q 9 q k k k y y y y y y y y y y y 9 9 q P  . .m n n .     ",
"    . P I b # # # # # 8 I P P P P P I P P P P 8 # # b P I #       0.0.",
"    . P P b # # # # # 8 P P I P P P P P P P P r # # v P P +       0.0.",
"    o =.*.#.# # & k k v P P K D J K P P T T  .r # # z H H ` ' ' .     ",
"    @ 9.9.<.# # 6 P P I P P J A A K P P  .....y # # l A A 8.9.9.@     ",
"    @ 9.9.<.# # 6 P I U P P J A A H P P  .....u # $ l A A 1.9.9.@     ",
"    + 1.1.=.5 5 5 7 9 y l C Z A A D D D P T T r # # 0 p p -.1.1.@     ",
"    @ ;.;.%.0 0 7 # # : 0 0 p A A A A A K P P r # # 7 0 0 %.;.;.@     ",
"    o ;.;.%.0 0 7 # # : 0 0 p A A A Z A J P P 8 # # 7 0 0 %.;.;.o     ",
"    . t t t 0 0 7 # # : 0 0 0 w p p p p 0 6 6 & # # 5 0 0 t t t .     ",
"0.0.      . 0 0 7 # # : 0 0 0 0 0 0 0 0 : $ # # # # 7 0 0 X       0.0.",
"0.0.      X 0 0 7 # # : 0 0 0 0 0 0 0 0 : # # # # # 7 0 0 .       0.0.",
"0.0.        . . # 7 7 4 $ $ : 0 0 0 0 0 : $ # : 7 7 # X .         0.0.",
"0.0.0.0.0.      X 0 0 5 $ $ : 0 0 0 0 0 : # # 5 0 0 X       0.0.0.0.0.",
"0.0.0.0.0.      X 0 0 7 # # : 0 0 0 0 0 : # # 7 0 0 X       0.0.0.0.0.",
"0.0.      + X.X.X.o.o.o.X.X.F $ # # $ $ # # # L o.o.6       0.0.0.0.0.",
"0.0.      * @.@.@.@.@.@.@.@.L # # # # # # # # U @.@.1       0.0.0.0.0.",
"0.0.      * @.@.@.@.@.@.@.@.F # # # # # # # # U @.@.1       0.0.0.0.0.",
"0.0.      * @.@.@.@.@.@.@.@.@.@.@.@.@.@.@.@.@.@.@.@.>.3.3.=       0.0.",
"0.0.      * @.@.@.@.@.@.@.@.@.@.@.@.@.@.@.@.@.@.@.@.>.3.3.;       0.0.",
"      o @ 2 @.@.@.@.@.@.@.@.@.@.@.@.@.@.@.@.@.@.@.@.>.3.3.a = o       ",
"    O 3.3.4.@.@.@.@.@.@.@.@.@.@.@.@.@.@.@.@.@.@.@.@.[ { { 2.3.3.o     ",
"    o 3.3.4.@.@.@.@.@.@.@.@.@.@.@.@.@.@.@.@.@.@.@.@.[ { { 2.3.3.o     ",
"    o 3.2.:.o.o.o.o.o.o.o.o.o.o.o.o.o.o.o.o.o.o.o.o.[ { { 2.2.2.o     ",
"    o { { ] P P P P P P P P P P P P Y P P P P P P P ( { { { { { o     ",
"    o { } ] P P P P P P P P P I P P P P P P P P P I ( { { { { { o     ",
"    . Q Q ~ I K U E E R I I P P P P P P R  .E Y P P ! Q Q Q Q Q .     ",
"0.0.      + P P E &.&.+.P I P P P P P P +.&.&.O.P P *             0.0.",
"0.0.      + P P E &.&.+.P P P P P P P P O.&.&.E P P *             0.0.",
"0.0.      + b F F W W W S m S S b b b b B W W M b S +             0.0.",
"0.0.      . y i y y y y y y y y y y y y y y y 9 y i o       0.0.0.0.0.",
"0.0.      . y y y y y y y y y y y y y y y y y y y y +       0.0.0.0.0.",
"0.0.      o k k k k k k k k k k l k k k k k k k k k +       0.0.0.0.0.",
"0.0.      o C z c c c Z c Z c c c C c C v C C v c C +       0.0.0.0.0.",
"0.0.      o z z C v C C v C c c z C c c c c C c c c %       0.0.0.0.0.",
"0.0.      . , , , , , , , , , 1 , , , , < , , , , , .       0.0.0.0.0.",
"0.0.0.0.0.                                                  0.0.0.0.0.",
"0.0.0.0.0.                                                  0.0.0.0.0.",
"0.0.0.0.0.      . - - - a a =                 O - - _ $.$.=       0.0.",
"0.0.0.0.0.      . s s d j j ;       0.0.      - s s ,.9.9.2       0.0.",
"0.0.0.0.0.      . s s d j j >       0.0.      - s s -.9.9.2       0.0.",
"0.0.0.0.0.      . o . = d d f a a =           - s s Q / / @       0.0.",
"0.0.0.0.0.0.0.0.      o s s g g j ;           - s s g j j o       0.0.",
"0.0.0.0.0.0.0.0.      o s s d j j ;           ; s s g j j o       0.0.",
"0.0.0.0.0.0.0.0.      o s s d j j ;             . . > s s f f f       ",
"0.0.0.0.0.0.0.0.      o > s d j j ;       0.0.      ; s s g j j .     ",
"0.0.0.0.0.0.0.0.      O s s g j j ;       0.0.      ; s a j j j .     ",
"0.0.0.0.0.      ; { { } } } 2.6.6.^       0.0.      ^ } } 5.6.6.o     ",
"0.0.0.0.0.      ; | | | | | 2.7.7.^       0.0.      ^ | | 6.7.7.O     ",
"0.0.0.0.0.      ; | | | | | 3.7.7.^       0.0.      ^ | | 6.7.7.O     "
};
