/* XPM */
static char *up_5[] = {
/* columns rows colors chars-per-pixel */
"37 64 130 2",
"   c #000000",
".  c #09090B",
"X  c #0F0213",
"o  c #1A0B0F",
"O  c #120316",
"+  c #16041B",
"@  c #1A051D",
"#  c #16151A",
"$  c #1B1A1C",
"%  c #1E0622",
"&  c #1E1C24",
"*  c #21091F",
"=  c #241719",
"-  c #2B1C1E",
";  c #210723",
":  c #240923",
">  c #240929",
",  c #2A0C25",
"<  c #290A2C",
"1  c #300F27",
"2  c #320E2A",
"3  c #310D35",
"4  c #3B0F34",
"5  c #390F39",
"6  c #311125",
"7  c #34112A",
"8  c #3A122E",
"9  c #351134",
"0  c #3F1432",
"q  c #3D103B",
"w  c #232128",
"e  c #29272E",
"r  c #2B2A2C",
"t  c #2D2C30",
"y  c #362528",
"u  c #392527",
"i  c #333235",
"p  c #3B3B3B",
"a  c #411C2E",
"s  c #421434",
"d  c #41123B",
"f  c #471831",
"g  c #48133C",
"h  c #4D1A34",
"j  c #4E1A3E",
"k  c #521D37",
"l  c #561E3B",
"z  c #581E3D",
"x  c #43252B",
"c  c #49282F",
"v  c #4E2237",
"b  c #5C203E",
"n  c #61253D",
"m  c #66293D",
"M  c #6D353F",
"N  c #712F3F",
"B  c #471240",
"V  c #4D1442",
"C  c #491C41",
"Z  c #531544",
"A  c #571748",
"S  c #5D1C46",
"D  c #5B1A48",
"F  c #562442",
"G  c #552148",
"H  c #5E2142",
"J  c #5E2649",
"K  c #611E48",
"L  c #642342",
"P  c #652148",
"I  c #632E47",
"U  c #672B48",
"Y  c #682545",
"T  c #6D2649",
"R  c #69284F",
"E  c #652850",
"W  c #6E2C56",
"Q  c #6E314E",
"!  c #6C3750",
"~  c #742E44",
"^  c #752D4A",
"/  c #7A2E4B",
"(  c #753148",
")  c #7A3345",
"_  c #7B3947",
"`  c #7C3758",
"'  c #78443E",
"]  c #7B493D",
"[  c #444444",
"{  c #565656",
"}  c #5E5E5E",
"|  c #7F4046",
" . c #7E435F",
".. c #676767",
"X. c #6C6C6C",
"o. c #737373",
"O. c #7E7E7E",
"+. c #85354C",
"@. c #88374F",
"#. c #86375D",
"$. c #913C51",
"%. c #84563C",
"&. c #834646",
"*. c #925C44",
"=. c #844262",
"-. c #894B69",
";. c #8F506E",
":. c #95426A",
">. c #944E70",
",. c #935573",
"<. c #956168",
"1. c #A27242",
"2. c #A36A71",
"3. c #A97078",
"4. c #B06172",
"5. c #B26B7B",
"6. c #BB6E7C",
"7. c #C16A7D",
"8. c #BE7C84",
"9. c #C37586",
"0. c #CD7888",
"q. c #838383",
"w. c gray56",
"e. c #959595",
"r. c #9F9F9F",
"t. c #AEAEAE",
"y. c #CB8790",
"u. c #D18891",
"i. c #E5959F",
"p. c None",
/* pixels */
"p.p.p.p.p.p.p.p.p.                                      p.p.p.p.p.p.p.p.p.",
"p.p.p.p.p.p.p.p.p.                                      p.p.p.p.p.p.p.p.p.",
"p.p.p.p.p.p.p.p.p.                                      p.p.p.p.p.p.p.p.p.",
"p.p.p.p.p.p.      0 Z Z Z Z Z Z Z Z Z Z Z S Y Y Y Y Y h       p.p.p.p.p.p.",
"p.p.p.p.p.p.      s A A A A A A A A A A A K T T T T T k       p.p.p.p.p.p.",
"p.p.p.p.p.p.      s A A A A A A A A A A A S T T T T T k       p.p.p.p.p.p.",
"p.p.p.      s V V A A A q 5 3 3 3 3 5 3 5 3 3 5 d A A S L L k             ",
"p.p.p.      g A A A A A q 3 3 3 3 3 3 3 3 3 3 3 q A A K T T b             ",
"p.p.p.      g A A A A A 5 3 3 3 3 3 3 3 3 3 3 3 5 A A S T T z             ",
"p.p.p.      g A A P T Y 2 @ + + + + + + + O + + ; 5 5 d D S K ) ) N       ",
"p.p.p.      g A A Y T T < O O O O O O O O O O O % 3 3 5 A A K $.$.+.      ",
"p.p.p.      g A A P T T 1 O O O O O O O O O O O % 3 3 5 A A K $.$.+.      ",
"            @ @ * * : : h S b b S b b b b b H b s + % 1 +.@.~ o o o       ",
"            O O O O O O h T T T T T T T T T T T h O O 1 $.$.~       p.p.p.",
"            X O O O O O h T T T T T T T T T T T h O O 1 $.$.)       p.p.p.",
"      h k k @ O O f z z Y T T P S S P T T / @.@.n O O , ^ / n       p.p.p.",
"      L T T * O O z T T T T T K A A K T T / $.$.m O O : T T b       p.p.p.",
"      L T T * O O z T T T T T K A A P T T / $.$.m O O , T T b       p.p.p.",
"      5.9.9.G d d 2 , , 4 d d V A A A K S P / / k + O : S S E 2.2.<.      ",
"      u.i.i.W A A : O O > 3 3 g A A A A A K T T h O O : A A W i.i.u.      ",
"      u.i.i.W A A ; O O > 3 3 d A A A A A K T T h O O : A A W i.i.u.      ",
"      6.0.0.G d 5 % O O > 3 3 5 5 d 5 5 d 9 1 1 : O O % q q G 0.0.6.      ",
"      4.7.7.j 3 3 + O O < 3 3 3 3 3 3 3 3 > O O O O O @ 3 3 C 7.7.4.      ",
"      4.7.6.C 3 3 % O O > 3 3 3 3 3 3 3 3 > O O O O O @ 3 3 C 7.7.4.      ",
"      x c c 9 3 3 9 4 4 > % % < 3 3 3 3 3 > X O % 4 4 4 3 3 9 c c x       ",
"p.p.p.      < 3 3 V A A , O O > 3 3 3 3 3 > O O < A A V 3 3 >       p.p.p.",
"p.p.p.      < 3 3 V A A < O O > 3 3 3 3 3 > O O < A A V 9 3 <       p.p.p.",
"p.p.p.      O O O 4 d d < > > % % % % % % @ O O ; d d 3 O O O       p.p.p.",
"p.p.p.p.p.p.      > 3 3 3 3 3 % O O O O O O O O @ 3 3 >       p.p.p.p.p.p.",
"p.p.p.p.p.p.      > 3 3 3 3 3 % O O O O O O O O % 3 3 >       p.p.p.p.p.p.",
"p.p.p.      a v v J E E E E E J G F F F G F F F J R R v       p.p.p.p.p.p.",
"p.p.p.      ` :.:.:.:.:.:.:.:.:.:.:.:.:.:.:.:.:.:.:.:.R       p.p.p.p.p.p.",
"p.p.p.      ` :.:.:.:.:.:.:.:.:.:.:.:.:.:.:.:.:.:.:.:.Q       p.p.p.p.p.p.",
"p.p.p.      ` :.:.:.:.:.:.:.:.:.:.:.:.:.:.:.:.:.:.:.:.=.[ [ p       p.p.p.",
"p.p.p.      ` :.:.:.:.:.:.:.:.:.:.:.:.:.:.:.:.:.:.:.:.,.w.w.O.      p.p.p.",
"p.p.p.      #.:.:.:.:.:.:.:.:.:.:.:.:.:.:.:.:.:.:.:.:.,.w.w.o.      p.p.p.",
"      p p p =.:.:.:.:.:.:.:.:.:.:.:.:.:.:.:.:.:.:.:.:.;.O.O.o.p p p       ",
"      q.w.w.>.:.:.:.:.:.:.:.:.:.:.:.:.:.:.:.:.:.:.:.:.-.....X.w.w.q.      ",
"      q.w.w.>.:.:.:.:.:.:.:.:.:.:.:.:.:.:.:.:.:.:.:.:.-.....X.w.w.q.      ",
"      o.q.O.=.#.#.#.#.#.#.#.#.#.#.#.#.#.#.#.#.#.#.#.#. .....X.q.O.o.      ",
"      } ....Q T T T T T T T T T T T T T T T T T T T T ! ..........}       ",
"      } ....Q T T T T T T T T T T T T T T T T T T T T Q ..........}       ",
"      p [ [ U T T _ | | ( T T T T T T T T ( | | ) T T I [ [ [ [ [ p       ",
"p.p.p.      b T T *.1.1.| T T T T T T T T &.1.1.*.T T k             p.p.p.",
"p.p.p.      b T T *.1.1._ T T T T T T T T &.1.1.*.T T k             p.p.p.",
"p.p.p.      k H L ] %.%.M n S n b S L b L M %.%.' n S f             p.p.p.",
"p.p.p.      6 8 8 8 8 8 8 8 8 8 8 8 8 8 8 8 8 8 8 8 8 ,       p.p.p.p.p.p.",
"p.p.p.      , 8 8 8 8 8 8 8 8 8 8 8 8 8 8 8 8 8 8 8 8 ,       p.p.p.p.p.p.",
"p.p.p.      7 0 0 0 0 0 0 0 0 0 s 0 0 0 0 0 q 0 0 0 s ,       p.p.p.p.p.p.",
"p.p.p.      s j j j j j j j V j j j j j j j j j j j j 8       p.p.p.p.p.p.",
"p.p.p.      s j j j j j C j j j j j C C j j j j j j j 8       p.p.p.p.p.p.",
"p.p.p.      7 0 0 0 0 0 s 0 0 0 0 s f s 0 0 0 0 0 0 0 8 - - =       p.p.p.",
"p.p.p.p.p.p.                                          u i.i.8.      p.p.p.",
"p.p.p.p.p.p.                                          y i.i.8.      p.p.p.",
"p.p.p.p.p.p.            .   .   .                   . y y.y.3.      p.p.p.",
"p.p.p.p.p.p.p.p.p.      # w w t i i $           . e w e i i r       p.p.p.",
"p.p.p.p.p.p.p.p.p.      # w w r i i $           . w w w i i t       p.p.p.",
"p.p.p.p.p.p.p.p.p.      # w w t i i $           . & & w i i r             ",
"p.p.p.p.p.p.p.p.p.      # w & t i i $       p.p.      . w w w i p t       ",
"p.p.p.p.p.p.p.p.p.      # & w t i i $       p.p.      . w w w i i i       ",
"p.p.p.p.p.p.            & w w i p p $       p.p.      . w w e p p i       ",
"p.p.p.p.p.p.      { o.o.o.o.o.e.t.t.{       p.p.      $ o.o.O.t.t.r.      ",
"p.p.p.p.p.p.      { o.o.o.o.o.e.t.t.{       p.p.      $ o.o.O.t.t.r.      ",
"p.p.p.p.p.p.      { o.o.o.o.o.e.t.t.{       p.p.      $ o.o.O.t.t.r.      "
};
