/* XPM */
static char *up_6[] = {
/* columns rows colors chars-per-pixel */
"35 64 252 2",
"   c black",
".  c #010001",
"X  c #010101",
"o  c #010002",
"O  c #020001",
"+  c #020002",
"@  c #030003",
"#  c #030102",
"$  c #030303",
"%  c #040202",
"&  c #050203",
"*  c #040005",
"=  c #070206",
"-  c #040404",
";  c #050505",
":  c #060606",
">  c #070108",
",  c #090206",
"<  c #090307",
"1  c #0A0306",
"2  c #0A0607",
"3  c #0C0506",
"4  c #080208",
"5  c #080209",
"6  c #0B0309",
"7  c #0B020C",
"8  c #0B030C",
"9  c #0C030D",
"0  c #0E030C",
"q  c #0D0409",
"w  c #0D040A",
"e  c #0D0609",
"r  c #0E040B",
"t  c #0F040D",
"y  c #080808",
"u  c #080809",
"i  c #09080A",
"p  c #0B0B0B",
"a  c #0B0A0D",
"s  c #0F090A",
"d  c #0D0B0C",
"f  c #0D0D0D",
"g  c #0E0E0E",
"h  c #11050C",
"j  c #11050E",
"k  c #12060C",
"l  c #13060F",
"z  c #14070D",
"x  c #14060E",
"c  c #10080A",
"v  c #110A0B",
"b  c #130C0D",
"n  c #180A0D",
"m  c #120317",
"M  c #150512",
"N  c #150711",
"B  c #18041B",
"V  c #1A061B",
"C  c #18051D",
"Z  c #1A051F",
"A  c #1B0912",
"S  c #1F0B17",
"D  c #1D081E",
"F  c #151416",
"G  c #171717",
"H  c #1A191B",
"J  c #1A1A1A",
"K  c #19181E",
"L  c #1B1A1F",
"P  c #1C1C1C",
"I  c #1C0621",
"U  c #1D0622",
"Y  c #1E0723",
"T  c #1B1A20",
"R  c #21081B",
"E  c #290E1C",
"W  c #230923",
"Q  c #210824",
"!  c #220826",
"~  c #240A21",
"^  c #240A26",
"/  c #26092A",
"(  c #26092B",
")  c #290927",
"_  c #2B0B27",
"`  c #290C23",
"'  c #290E26",
"]  c #290A2D",
"[  c #2E0C32",
"{  c #211D21",
"}  c #300F27",
"|  c #330D32",
" . c #310D35",
".. c #330D36",
"X. c #370D31",
"o. c #370E38",
"O. c #390F30",
"+. c #3D0F36",
"@. c #3B0F3A",
"#. c #341128",
"$. c #371229",
"%. c #301921",
"&. c #341A25",
"*. c #341C22",
"=. c #3B132D",
"-. c #3B122F",
";. c #3C162A",
":. c #3A1231",
">. c #3E1434",
",. c #3E103B",
"<. c #222222",
"1. c #212025",
"2. c #252527",
"3. c #222028",
"4. c #25232A",
"5. c #272628",
"6. c #29272D",
"7. c #29282B",
"8. c #2A292C",
"9. c #312F33",
"0. c #343336",
"q. c #411B24",
"w. c #4C1F2B",
"e. c #401037",
"r. c #411530",
"t. c #421636",
"y. c #441632",
"u. c #41133B",
"i. c #43133A",
"p. c #40113C",
"a. c #41143A",
"s. c #45123B",
"d. c #45153B",
"f. c #45163B",
"g. c #471739",
"h. c #47163C",
"j. c #4D173C",
"k. c #4C1936",
"l. c #4B193C",
"z. c #4D1938",
"x. c #4F1B38",
"c. c #4E193C",
"v. c #4E1A3F",
"b. c #521B3A",
"n. c #551F38",
"m. c #571E3C",
"M. c #58243A",
"N. c #5A2639",
"B. c #5D203F",
"V. c #5F2F38",
"C. c #62273B",
"Z. c #613238",
"A. c #693D37",
"S. c #471240",
"D. c #4A1341",
"F. c #481440",
"G. c #4C1442",
"H. c #4D1443",
"J. c #4D1641",
"K. c #511743",
"L. c #521642",
"P. c #501544",
"I. c #541646",
"U. c #571748",
"Y. c #541D42",
"T. c #591E42",
"R. c #5B1C45",
"E. c #5D1F42",
"W. c #581848",
"Q. c #5A1948",
"!. c #5B1948",
"~. c #5C1B48",
"^. c #5D1B48",
"/. c #5F1C48",
"(. c #4D3F46",
"). c #5E2747",
"_. c #523F48",
"`. c #601F47",
"'. c #611E48",
"]. c #621F48",
"[. c #622245",
"{. c #672347",
"}. c #642048",
"|. c #662148",
" X c #672248",
".X c #682348",
"XX c #692448",
"oX c #6C244B",
"OX c #6E2749",
"+X c #6F264B",
"@X c #6F274A",
"#X c #6E2946",
"$X c #682C4D",
"%X c #692D4E",
"&X c #732F48",
"*X c #792D4B",
"=X c #7A2E4B",
"-X c #7C2F4C",
";X c #753247",
":X c #7B3947",
">X c #7B3A47",
",X c #7D3D46",
"<X c #713053",
"1X c #414141",
"2X c #505051",
"3X c #515151",
"4X c #565656",
"5X c gray34",
"6X c #7F4046",
"7X c #764754",
"8X c #7C5156",
"9X c #725D67",
"0X c #676767",
"qX c #6E6067",
"wX c #686868",
"eX c #696969",
"rX c #6B6B6C",
"tX c #7D6F79",
"yX c gray45",
"uX c #7E717B",
"iX c #7F7F7F",
"pX c #81324D",
"aX c #82334D",
"sX c #82324E",
"dX c #8B384F",
"fX c #86385E",
"gX c #913C51",
"hX c #854945",
"jX c #8C5244",
"kX c #905944",
"lX c #95426A",
"zX c #86797F",
"xX c #A95A71",
"cX c #AF5F73",
"vX c #A27242",
"bX c #B6687C",
"nX c #BE6C7B",
"mX c #C16A7D",
"MX c #CE7989",
"NX c #828283",
"BX c #848484",
"VX c #888888",
"CX c #8B8B8B",
"ZX c gray56",
"AX c #908288",
"SX c #999999",
"DX c #A2A2A3",
"FX c #A4A4A4",
"GX c #AEAEAE",
"HX c #CD8090",
"JX c #E5959F",
"KX c None",
/* pixels */
"KXKXKXKXKXKXKXKX                                      KXKXKXKXKXKXKXKX",
"KXKXKXKXKXKXKXKX                                      KXKXKXKXKXKXKXKX",
"KXKXKXKXKX        , = = = = = = , = , , , , , , , 2         KXKXKXKXKX",
"KXKXKXKXKX      M W.U.U.U.U.U.U.U.W.I.U.|.OXOXOXOXOXA       KXKXKXKXKX",
"KXKXKXKXKX      M U.U.U.U.U.U.U.U.U.U.U.].OXOXOXOXOXA       KXKXKXKXKX",
"KXKX        t t R U.U.I.P.P.P.P.P.P.P.P.R.[.[.{..XoXE z z %       KXKX",
"KXKX      t U.U.U.U.U.D. . . . . . . . . . . .D.U.U..XOXOXk       KXKX",
"KXKX      t U.U.U.U.U.D. . . . . . . . . . . .J.U.U..XOXOXk       KXKX",
"KXKX      0 U.U.W.^.^.P.,.,.,.l.z.l.l.l.h.,.,.h.H.H.`..X.Xj       KXKX",
"KXKX      0 U.U.^.OXOX|.I.U.@XgXgXgXgXgX-X@XOXd. . .H.U.W.j       KXKX",
"KXKX      0 U.U.^.OXOX|.U.U.OXgXgXgXgXgX-XOXOXd. . .H.U.U.0       KXKX",
"KXKX      0 U.U.^.OXOXE.+.>.z.C.C.C.C.C.M.k.k.a.@.+.'.oXoXj           ",
"KXKX      0 U.U.^.OX#Xx.m m m m m m m m m m m e.W.U.sXgXgXA           ",
"KXKX      0 U.U.^.OXOXx.m m m m m m m m m m m e.U.U.sXgXhXA           ",
"          0 U.U.L.y.y.r.-.-.-.-.=.=.=.=.-.-.-.:.X.X.@XpX-Xw.q.q.%     ",
"          0 U.U.s.m m } @XOXOXOXOXOXOXOXOXOXOX} m m m.OX+XdXgXgX3     ",
"          0 U.U.s.m m } OXOXOXOXOXOXOXOXOXOXOX} m m m.OXOXdXgXgX3     ",
"    2 8X8X7XU.U.s.m m } OXOX.X'.'..XOXOX=XpXpX$.m m j.'.'.cXnXnXc     ",
"    b JXJXHXU.U.s.m m } OXOX].W.U.'.OXOXpXgXgX;.m m s.W.W.HXJXJXb     ",
"    b JXJXHXU.U.s.m m } OXOX].W.U.'.OXOXsXgXgX;.m m s.I.U.MXJXJXb     ",
"    c MXMXbX,.,.| m m W h.h.J.U.W.W.'.^.OX=X=X#.m m  .p.,.bXMXMXc     ",
"    c mXmXxX . .] m m I  . .p.U.U.U.U.U.|.OXOX} m m ]  . .xXmXmXc     ",
"    c mXmXxX . .] m m I  . .p.U.U.U.U.U.].OXOX} m m ]  . .xXmXmXc     ",
"    % *.*.%.Z Z C m m I  . .p.U.U.U.U.W.^.^.^._ m m ]  . .&.*.*.%     ",
"KXKX      = m m m m m I  . .p.U.U.U.U.U.U.U.U.) m m ]  . .5       KXKX",
"KXKX        m m m m m I  . .p.W.U.U.U.U.U.U.U.) m m ]  . .5       KXKX",
"KXKX      * m m ` m.).z. . . .o.o.@.@.o.D.U.U.) m m 7 5 5         KXKX",
"KXKXKXKXKXm m m ` OXXXT. . . . .[  . .[ S.U.U.) m m =       KXKXKXKXKX",
"KXKXKXKXKXm m m ` OXOXT. . . . . . . . .S.U.U.) m m =       KXKXKXKXKX",
"KXKXKXKXKX  *   , V V Y  . . . . . . . .! C B ( [ [ 7       KXKXKXKXKX",
"KXKXKXKXKX      = m m I  . . . . . . . .Y m m ( [  .7       KXKXKXKXKX",
"KXKXKXKXKX      = m m I  . . . . . . . .Y m m (  . .0       KXKXKXKXKX",
"KXKX            b v.J.O.m m Y [  . . . .I m m :.v.v.uXZXZXG       KXKX",
"KXKX            N v.v.O.m m Y [  . . . .Y m m :.v.c.uXZXZXG       KXKX",
"      f f d i r S Y.).>.U D ^ [ [ [ [ [ I m m >.Y.Y.uXVXCX<.f f       ",
"    p ZXZXAXlXlXlXlXlXlXlXlX).m m m m m m m m $XlXlX9X0X0XVXZXZXf     ",
"    f ZXZXAXlXlXlXlXlXlXlXlX).m m m m m m m m $XlXlX9XrX0XVXZXZXf     ",
"    p ZXZXAXlXlXlXlXlXlXlXlX$X' ' ' ' ' ' ' ' <XlXlX9X0X0XVXZXZXd     ",
"    p ZXZXAXlXlXlXlXlXlXlXlXlXlXlXlXlXlXlXlXlXlXlXlX9X0X0XVXZXZXd     ",
"    f ZXZXAXlXlXlXlXlXlXlXlXlXlXlXlXlXlXlXlXlXlXlXlX9X0X0XVXZXZXp     ",
"    d BXBXzXlXlXlXlXlXlXlXlXlXlXlXlXlXlXlXlXlXlXlXlX9X0X0XiXBXBXp     ",
"    - 0X0XqXlXlXlXlXlXlXlXlXlXlXlXlXlXlXlXlXlXlXlXlX9X0X0X0X0X0Xp     ",
"    p rXrX9XlXlXlXlXlXlXlXlXlXlXlXlXlXlXlXlXlXlXlXlX9X0X0X0X0X0Xp     ",
"      1X1X1XfXfXfXfXfXfXfXfXfXfXfXfXfXfXfXfXfXfXfXfX_.1X1X1X1X1X      ",
"KXKX      k OXOXOXOXOXOXOXOXOXOXOXOXOXOXOXOXOXOXOXOXA             KXKX",
"KXKX      j OXOXOXOXOXOXOXOXOXOXOXOXOXOXOXOXOXOXOXOXA             KXKX",
"KXKX      k OXOX&XhXhX6XOXOXOXOXOXOXOXOX6XhXhX;X@X#XA             KXKX",
"KXKX      k OXOX:XvXvXkXOXOXOXOXOXOXOX#XjXvXvXaX@X@XA       KXKXKXKXKX",
"KXKX      j OXOX>XvXvXkXOXOXOXOX@X@X@X#XjXvXvX,X@X@XA       KXKXKXKXKX",
"KXKX      r b.b.M.A.A.Z.b.b.b.b.b.b.b.b.V.A.A.N.b.b.j       KXKXKXKXKX",
"KXKX      , -.-.-.-.-.-.-.-.-.-.-.-.-.-.-.-.-.-.-.-.r       KXKXKXKXKX",
"KXKX      i -.:.-.-.-.-.-.-.-.-.-.-.-.-.-.-.-.-.-.-.r       KXKXKXKXKX",
"KXKX      r g.g.g.d.d.l.g.d.g.g.g.g.g.g.g.d.d.l.l.g.j             KXKX",
"KXKX      r v.v.c.c.c.v.c.c.v.c.v.v.v.v.c.c.c.v.c.c.x             KXKX",
"KXKX      r c.v.v.v.v.v.v.v.v.v.v.v.v.v.v.v.v.v.v.v.N             KXKX",
"KXKX        M N N N N N N N N M N N N N N N N N N N T 4.2.:       KXKX",
"KXKXKXKXKX                                          4.0.0.y       KXKX",
"KXKXKXKXKX                                          4.0.0.p       KXKX",
"KXKXKXKXKX            i T T 1.7.7.F                 T 4.4.7.7.7.-     ",
"KXKXKXKXKXKXKXKX      a { 4.7.0.0.H       KXKX      K 4.{ 9.0.0.-     ",
"KXKXKXKXKXKXKXKX      a 4.T 6.0.0.H       KXKX      K 4.{ 0.0.0.-     ",
"KXKXKXKXKX      K wXeXeXrXrXBXFXDX3X      KXKX      2XrXrXSXDXDXf     ",
"KXKXKXKXKX      P yXyXyXyXyXZXGXGX4X      KXKX      4XyXyXDXGXGXf     ",
"KXKXKXKXKX      P yXyXyXyXyXCXGXGX4X      KXKX      4XyXyXDXGXGXF     "
};
