/* XPM */
static char *up_7[] = {
/* columns rows colors chars-per-pixel */
"35 64 130 2",
"   c #000000",
".  c #060108",
"X  c #0A0306",
"o  c #0C030B",
"O  c #0B0B0B",
"+  c #12060D",
"@  c #110A0B",
"#  c #120316",
"$  c #140319",
"%  c #100F13",
"&  c #1C061E",
"*  c #1B0915",
"=  c #1D081E",
"-  c #161616",
";  c #16151A",
":  c #18171D",
">  c #1A191B",
",  c #1D0622",
"<  c #1D1C21",
"1  c #21081B",
"2  c #290E1C",
"3  c #23151C",
"4  c #26181A",
"5  c #34151D",
"6  c #200725",
"7  c #26092A",
"8  c #290B25",
"9  c #2A0A2C",
"0  c #2E0C32",
"q  c #2E1820",
"w  c #300F27",
"e  c #330E2C",
"r  c #310D34",
"t  c #370E38",
"y  c #3C0F34",
"u  c #3B0F3A",
"i  c #321121",
"p  c #351228",
"a  c #341C22",
"s  c #381227",
"d  c #3B122E",
"f  c #3D1825",
"g  c #3E103B",
"h  c #242425",
"j  c #222028",
"k  c #29272D",
"l  c #2A292C",
"z  c #2F2E32",
"x  c #312F33",
"c  c #343336",
"v  c #441537",
"b  c #44133B",
"n  c #4D173C",
"m  c #4C1936",
"M  c #4D193E",
"N  c #561D3C",
"B  c #4F202C",
"V  c #572331",
"C  c #5D273C",
"Z  c #62273B",
"A  c #602B3B",
"S  c #67353A",
"D  c #69383A",
"F  c #4B1441",
"G  c #501544",
"H  c #571748",
"J  c #5B1E43",
"K  c #5C1A48",
"L  c #4A3C43",
"P  c #5E2747",
"I  c #601F47",
"U  c #611E48",
"Y  c #642246",
"T  c #652148",
"R  c #632A4A",
"E  c #6D2649",
"W  c #6E2946",
"Q  c #692D4E",
"!  c #6D2E50",
"~  c #722D48",
"^  c #7B2E4C",
"/  c #743048",
"(  c #793647",
")  c #7A3947",
"_  c #734639",
"`  c #414141",
"'  c #514045",
"]  c #545454",
"[  c #644D52",
"{  c #68575F",
"}  c #7F4046",
"|  c #744951",
" . c #784854",
".. c #7C5156",
"X. c #6A5C63",
"o. c #725D67",
"O. c #676767",
"+. c #6A6A6A",
"@. c gray45",
"#. c #7F7F7F",
"$. c #81324D",
"%. c #913C51",
"&. c #8A3A61",
"*. c #804246",
"=. c #8C5244",
"-. c #905944",
";. c #95426A",
":. c #915E65",
">. c #85777E",
",. c #A0566F",
"<. c #A3586C",
"1. c #A95A71",
"2. c #A27242",
"3. c #AE6377",
"4. c #AB6F77",
"5. c #B26779",
"6. c #B6687C",
"7. c #C16A7D",
"8. c #8D7983",
"9. c #907B85",
"0. c #CE7989",
"q. c #838383",
"w. c #8D8D8D",
"e. c #908288",
"r. c #999999",
"t. c #A3A3A3",
"y. c #AEAEAE",
"u. c #CD8090",
"i. c #E5959F",
"p. c None",
/* pixels */
"p.p.p.p.p.p.p.p.                                      p.p.p.p.p.p.p.p.",
"p.p.p.p.p.p.p.p.                                      p.p.p.p.p.p.p.p.",
"p.p.p.p.p.        X X X X . . X . X . X X X X X X X         p.p.p.p.p.",
"p.p.p.p.p.      # H H H H H H H H H H H U E E E E E *       p.p.p.p.p.",
"p.p.p.p.p.      # H H H H H H H H H H H I E E E E E *       p.p.p.p.p.",
"p.p.        + o 1 H H G F G G G G F G G J P Y R T E 2 + +         p.p.",
"p.p.      + H H H H H F r r r r r r r r r r r F H H T E E +       p.p.",
"p.p.      o H H H H H F r r r r r r r r r r r F H H E E E +       p.p.",
"p.p.      o H H H K K G y u b M n n n n b g b F F F U T T +           ",
"p.p.      + H H K W E T H H E %.%.%.%.%.^ W E v t r F H H o           ",
"p.p.      o H H K E E T H H E %.%.%.%.%.^ E E b r r F H H o           ",
"          o H H K W E I y y n Z Z Z Z Z V M m b F u U E E f 5 5 X     ",
"          o H H K E W m $ # # # # # # # # # # y G H $.%.%.%.%.%.X     ",
"          o H H K E E m # # # # # # # # # # # b H H $.%.%.%.%.%.X     ",
"      i i s H H M v v v d d d d d d d d d d d d r t E $.$.V B B X     ",
"    X E E E H H b # # p W E E E E W W E E E W w # # N E E +       p.p.",
"    X E E E H H b # # w E E E E E E E E E E E w # # N E E +       p.p.",
"    o 5.3.,.H H b # # w E E E U U T E E ^ $.$.s # # n U U  .....X     ",
"    @ i.i.u.H H b # # p E E U H H U E E $.%.%.d # # b H H u.i.i.@     ",
"    @ i.i.u.H H b # # 8 E E U H H U E E $.%.%.f # $ b H H 0.i.i.@     ",
"    @ 0.0.6.8 8 p m m m F F F H H H U U ~ ^ ^ p # # r u b 6.0.0.@     ",
"    @ 7.6.<.# $ 8 E E J 0 r g H H H H H U E E w # # 9 r r 1.7.7.@     ",
"    @ 7.7.<.# # 8 W T P r r g H H H H H U E E w # # 0 r r 1.6.7.O     ",
"      a a i # # $ 8 8 9 r r t u u F H H K K K 9 # # 9 r r a a a X     ",
"p.p.      . # # # # # , r r r r r b H H H H H 8 # # 7 r r .       p.p.",
"p.p.        # # # # # , r r r r r b H H H H H 7 # # 9 r r .       p.p.",
"p.p.        .   . # # & r r r r r r t t 7 , , 7 9 0 # o o         p.p.",
"p.p.p.p.p.        # # , r r r r r r r r , # # 7 0 r o       p.p.p.p.p.",
"p.p.p.p.p.        $ # , r r r r r r r r , # $ 7 r r o       p.p.p.p.p.",
"p.p.p.p.p.      o 0 0 7 $ $ , r r r r r , # # 7 r r o       p.p.p.p.p.",
"p.p.p.p.p.      o r r 7 # # , r r r r r , # # 7 r r o       p.p.p.p.p.",
"p.p.p.p.p.      o r r 7 # # , r r r r r , $ # 7 r r o       p.p.p.p.p.",
"p.p.      * ;.;.;.;.;.;.;.;.P # # # # # # # # Q ;.;.9.w.w.>       p.p.",
"p.p.      * ;.;.;.;.;.;.;.;.P # # # # # # # # Q ;.;.9.w.w.-       p.p.",
"      % O 4 ;.;.;.;.;.;.;.;.R , = = = = = = = ! ;.;.9.w.w.h O O       ",
"    O w.w.e.;.;.;.;.;.;.;.;.;.;.;.;.;.;.;.;.;.;.;.;.o.O.O.q.r.w.O     ",
"    O w.w.w.;.;.;.;.;.;.;.;.;.;.;.;.;.;.;.;.;.;.;.;.o.O.O.q.w.w.O     ",
"    O w.w.e.;.;.;.;.;.;.;.;.;.;.;.;.;.;.;.;.;.;.;.;.o.O.O.w.w.w.O     ",
"    O w.w.e.;.;.;.;.;.;.;.;.;.;.;.;.;.;.;.;.;.;.;.;.o.O.O.q.w.w.O     ",
"    O w.w.e.;.;.;.;.;.;.;.;.;.;.;.;.;.;.;.;.;.;.;.;.o.O.O.w.w.w.O     ",
"    O q.q.>.&.&.&.&.&.&.&.&.&.&.&.&.&.&.&.&.&.&.&.&.o.O.O.#.q.q.O     ",
"    O O.O.X.E W E E E E E E E E E E E E W E E E E E { O.O.O.O.O.O     ",
"    O O.O.X.E E E E E E E E E E E E E E E E E E E E { O.O.O.O.O.O     ",
"    X ` ` ` E E / *.*.( E E E E E E W E ( *.*./ E E L ` ` ` ` `       ",
"p.p.      + E E ( 2.2.-.E E E E E E E E =.2.2.*.E E *             p.p.",
"p.p.      @ E E ( 2.2.-.E E E E E E E E =.2.2.$.E E *             p.p.",
"p.p.      o N N C _ _ S N N N N N N N N S _ _ S N N +             p.p.",
"p.p.      X d d d d d d d d d d d d d d d d d d d d +       p.p.p.p.p.",
"p.p.      X d d d d d d d d d d d d d d d d d d d d O       p.p.p.p.p.",
"p.p.      X b v v v v v v v v v v v v v v v v v v v @       p.p.p.p.p.",
"p.p.      o M M M M M M M M G G M M M M G G M M M M %       p.p.p.p.p.",
"p.p.      o M G G M M M M M M M M G M G M M M M M N #       p.p.p.p.p.",
"p.p.      X * * * * * * ; * * * * * * * * * * * * *  .:.:.-       p.p.",
"p.p.p.p.p.                                          4.i.i.4       p.p.",
"p.p.p.p.p.                                          4.i.i.4       p.p.",
"p.p.p.p.p.            O : : > l h -           - : : L [ [ @       p.p.",
"p.p.p.p.p.p.p.p.      O q j k c c >           ; j j x c c X       p.p.",
"p.p.p.p.p.p.p.p.      O j j k c c >           : j j x c c O       p.p.",
"p.p.p.p.p.p.p.p.      O j j k c c >             . O < j h l l l       ",
"p.p.p.p.p.p.p.p.      O j j k c c >       p.p.      : j j x c c X     ",
"p.p.p.p.p.p.p.p.      O j j k c c >       p.p.      : j j x c c X     ",
"p.p.p.p.p.      : +.+.O.+.+.q.t.t.]       p.p.      ] +.@.r.t.t.O     ",
"p.p.p.p.p.      < @.@.@.@.@.w.y.y.]       p.p.      ] @.@.t.y.y.O     ",
"p.p.p.p.p.      > @.@.@.@.@.w.y.y.]       p.p.      ] @.@.t.y.y.O     "
};
