/* XPM */
static char *down_2[] = {
/* columns rows colors chars-per-pixel */
"35 64 179 2",
"   c #000000",
".  c #0A0406",
"X  c #0B030B",
"o  c #0B0A0B",
"O  c #07130F",
"+  c #09100F",
"@  c #0D1211",
"#  c #0A1A15",
"$  c #12060C",
"%  c #13090C",
"&  c #180A0D",
"*  c #120316",
"=  c #120F18",
"-  c #1A051F",
";  c #1D0A14",
":  c #1F091D",
">  c #131215",
",  c #151817",
"<  c #1A1215",
"1  c #1B1B1B",
"2  c #1F1E22",
"3  c #240D18",
"4  c #201215",
"5  c #241719",
"6  c #291C1E",
"7  c #34151D",
"8  c #301A1F",
"9  c #230726",
"0  c #220921",
"q  c #2B0C24",
"w  c #280929",
"e  c #310D35",
"r  c #370E38",
"t  c #3B0F3A",
"y  c #341C22",
"u  c #3C1527",
"i  c #3A1E2F",
"p  c #3D103A",
"a  c #252526",
"s  c #222028",
"d  c #29272D",
"f  c #2B2B2B",
"g  c #252F3A",
"h  c #2E2C31",
"j  c #2A333B",
"k  c #372025",
"l  c #392527",
"z  c #3E282B",
"x  c #343336",
"c  c #1F1652",
"v  c #1C1859",
"b  c #2B1041",
"n  c #2A1A56",
"m  c #373B47",
"M  c #3A3244",
"N  c #25413D",
"B  c #28443B",
"V  c #2D4B38",
"C  c #314F3C",
"Z  c #2F4B45",
"A  c #35424A",
"S  c #324F43",
"D  c #324C4D",
"F  c #3F4142",
"G  c #375640",
"H  c #3A5348",
"J  c #2A6956",
"K  c #2F7053",
"L  c #317352",
"P  c #357850",
"I  c #431A28",
"U  c #43133C",
"Y  c #4A173E",
"T  c #4F193F",
"R  c #501C35",
"E  c #521B3E",
"W  c #5A1F3C",
"Q  c #5D203F",
"!  c #471240",
"~  c #4B1342",
"^  c #4F1840",
"/  c #571748",
"(  c #531A41",
")  c #5A1D44",
"_  c #5D1B48",
"`  c #4E3E44",
"'  c #5E2044",
"]  c #5C264A",
"[  c #5E2D4B",
"{  c #5D374C",
"}  c #58315E",
"|  c #621E48",
" . c #642443",
".. c #662148",
"X. c #682545",
"o. c #6D2649",
"O. c #693944",
"+. c #663058",
"@. c #68345D",
"#. c #762B4C",
"$. c #7B2E4C",
"%. c #76324E",
"&. c #793146",
"*. c #743050",
"=. c #7A3653",
"-. c #7D3C5B",
";. c #653964",
":. c #603A68",
">. c #434343",
",. c #4C4B4C",
"<. c #56484B",
"1. c #565657",
"2. c #54555A",
"3. c #595A5C",
"4. c #576763",
"5. c #5D756A",
"6. c #64454B",
"7. c #644D52",
"8. c #68555E",
"9. c #724B52",
"0. c #7B585F",
"q. c #614364",
"w. c #695678",
"e. c #666666",
"r. c #76676A",
"t. c #707C6F",
"y. c #737373",
"u. c #787878",
"i. c #4B6F9A",
"p. c #5078A1",
"a. c #716585",
"s. c #3B804D",
"d. c #758581",
"f. c #81324E",
"g. c #88364F",
"h. c #823756",
"j. c #913C51",
"k. c #874F5E",
"l. c #85565C",
"z. c #8C4B63",
"x. c #86506D",
"c. c #8E5865",
"v. c #8F5773",
"b. c #9E6A73",
"n. c #A6596F",
"m. c #AF5E74",
"M. c #A46E77",
"N. c #AF6071",
"B. c #AF6A7D",
"V. c #A47178",
"C. c #B76478",
"Z. c #BB6D7D",
"A. c #C16A7D",
"S. c #887489",
"D. c #897D9B",
"F. c #AB7481",
"G. c #CA7485",
"H. c #CD7888",
"J. c #90817E",
"K. c #858585",
"L. c #8A8283",
"P. c gray56",
"I. c #9C848A",
"U. c #9C8C9C",
"Y. c #959496",
"T. c #979798",
"R. c #8E84A0",
"E. c #A68687",
"W. c #AEAEAE",
"Q. c #AEB3C9",
"!. c #B5BACF",
"~. c #BCC3D7",
"^. c #D38994",
"/. c #D49198",
"(. c #E4949E",
"). c #E0D5E0",
"_. c #EAE0EA",
"`. c #F2E9F2",
"'. c None",
/* pixels */
"'.'.'.'.'.'.'.'.'.'.'.                          '.'.'.'.'.'.'.'.'.'.'.",
"'.'.'.'.'.'.'.'.'.'.'.                          '.'.'.'.'.'.'.'.'.'.'.",
"'.'.'.'.'.'.'.'.        . . . . . . $ . . . .         '.'.'.'.'.'.'.'.",
"'.'.'.'.'.'.'.'.      3 o.#.$.j.j.j.j.j.$.#.X.3       '.'.'.'.'.'.'.'.",
"'.'.'.'.'.'.'.'.      3 o.o.$.j.j.j.j.j.$.X.o.3       '.'.'.'.'.'.'.'.",
"'.'.'.'.'.'.'.'.      ; Q Q X.&.&.&.&.&.X.Q ' :       '.'.'.'.'.'.'.'.",
"'.'.'.'.'.'.'.'.      . * * * * * * * * * * *         '.'.'.'.'.'.'.'.",
"'.'.'.'.'.'.'.'.      . * * * * * * * * * * * .       '.'.'.'.'.'.'.'.",
"'.'.'.'.'.        $ $ * q q 0 - - 0 q q 0 - - ; ; ; .       '.'.'.'.'.",
"'.'.'.'.'.      X e e U #.o.( e e ~ o.o.Y e e ) o.X.;       '.'.'.'.'.",
"'.'.'.'.'.      X e e U o.o.( e e E o.o.Y e e ) o.o.;       '.'.'.'.'.",
"'.'.        * $ 0 U U ( ....^ e e E o.o.E p U ) #.o.I 7 7 .       '.'.",
"'.'.      X e e p o.o.../ / Y e e E o.o.| / / ..X.o.g.j.j.&       '.'.",
"'.'.      X e e U o.o.../ / ! e e E o.o.| / / ..o.o.g.j.j.&       '.'.",
"'.'.      X U U U ( ( ( / / ~ U t ~ ( ( Y U Y / | ..$.f.f.%       '.'.",
"'.'.      X / / ~ e e p / / / / / U e e e e e ~ / / ..X.o.%       '.'.",
"'.'.      X / / ~ e e t / / / / / U e e e e e ~ / / o.o.o.%       '.'.",
"'.'.      X U U ! ~ ! / #.#.#.#.#._ ! ! (  . .^ t ! / | | $       '.'.",
"'.'.      X e e t / / o.j.j.j.j.j.#./ / #.j.j.E e e ~ / / X       '.'.",
"'.'.      X e e t / / | j.j.j.j.j.#./ / $.j.j.E e e ~ / / X       '.'.",
"          X ~ ~ ~ / / _ o.| o.o.o.| / / X.$.$.) ~ ~ o.$.$.%       '.'.",
"          X / / / / / / / / / / / / / / ..o.o._ / / f.j.j.&       '.'.",
"          $ / / / / / / / / / / / / / / ..o.o._ / / f.j.j.&       '.'.",
"    . R R R ....| / / / t t t r t ] -.-.*.o.o.^ t t X.$.#.%           ",
"    . o.o.o.o.o.X./ / ~ e e e e e [ z.z.=.o.o.U e e | o.o.$           ",
"    . o.o.o.o.o.../ / ~ e e e e e [ z.z.=.| o.~ e e ' o.o.$           ",
"      $ $ ; p t p r r b c c } n.n.m.C.C.@.n n a.S.S.+._ _ W Q W .     ",
"'.'.      . e e e e e b v v :.A.A.A.A.F.:.v v a.U.U.@./ / X.X.o..     ",
"'.'.      X e e e e e b v v :.Z.A.A.A.A.@.v v a.U.U.@./ / o.o.o..     ",
"'.'.      . X...x.).).Q.i.i.D.(.(.(.(.(.D.i.i.!._._.q.e e $ . .       ",
"'.'.      $ o.o.v.`.`.~.p.p.R.(.(.(.(.(.D.p.p.~.`.`.q.e e X       '.'.",
"'.'.      $ o.#.v.`.`.~.p.p.R.(.(.(.(.(.D.p.p.~.`.`.q.e e X       '.'.",
"'.'.      % o.o.h.A.A.H.(.(.(.(.(.(.(.(.(.(.(.H.A.A.h.o.o.%       '.'.",
"'.'.      % o.X.h.A.A.H.(.(.(.(.(.(.(.(.(.(.(.H.A.A.h.o.#.%       '.'.",
"'.'.      $  . .%.N.N.Z.^.^.^./././././.^.^.^.Z.N.N.%. .' < o o       ",
"'.'.                  o 9 9 g J J J J J g 9 9 X           u.P.P.o     ",
"'.'.                  X 9 9 g J J J J J g 0 9 X           u.P.P.o     ",
"      1 1 1 1 1 , O O = w q j J J J J K j w w > O O @ > > y.K.K.o     ",
"    o P.P.P.P.P.d.J J D U U F s.s.s.s.s.F U U D J J 4.e.e.e.e.e.o     ",
"    o P.P.P.P.P.d.J J D U U F s.s.s.s.s.F U U D J J 4.e.e.e.e.e.o     ",
"    o K.K.K.I.I.S.5.5.1.U U F s.s.s.s.s.>.U U D J J 2.8.8.,.,.,..     ",
"    o e.e.r.A.C.H.(.(.B.U U >.s.s.s.s.s.>.U U D J J { o.o.*       '.'.",
"    o e.e.r.A.A.H.(.(.B.U U >.s.s.s.s.s.F U U D J J { o.o.$       '.'.",
"    . F >.<.A.A.H.(.(.V.x m H s.s.s.s.s.H M M D D D O.o.o.$       '.'.",
"'.'.      4 A.A.G.(.(.E.J J L s.s.s.s.s.K J J M U U  .o.o.$       '.'.",
"'.'.      4 A.A.G.(.(.E.J J L s.s.s.s.s.K J J M U U  .X.o.$       '.'.",
"'.'.      % O.O.9.J.J.t.L L P s.s.s.s.s.P L L D m m i u u .       '.'.",
"'.'.'.'.'.      # J J K s.s.s.s.s.s.s.s.s.s.s.K J J #       '.'.'.'.'.",
"'.'.'.'.'.      # J J K P s.s.s.s.s.s.s.s.s.s.K J J #       '.'.'.'.'.",
"'.'.'.'.'.      + N N B V V C C G C G G G G G G Z Z @       '.'.'.'.'.",
"'.'.'.'.'.      o s s s s s f x x x x x x x x x x x +       '.'.'.'.'.",
"'.'.'.'.'.      . s s s s s h x x x x x x x x x x x o       '.'.'.'.'.",
"'.'.'.'.'.      4 k.l.c.b.b.6.> > > > > 2 d d 0.V.V.6       '.'.'.'.'.",
"'.'.'.'.'.      y A.A.H.(.(.l.          > s s M.(.(.z       '.'.'.'.'.",
"'.'.'.'.'.      8 A.A.H.(.(.l.          > s s M.(.(.z       '.'.'.'.'.",
"'.'.'.'.'.      X y y l z z 5           = s s ` 7.7.<       '.'.'.'.'.",
"'.'.'.'.'.'.'.'.              '.'.      > s s h x x o       '.'.'.'.'.",
"'.'.'.'.'.'.'.'.              '.'.      = s s h x x o       '.'.'.'.'.",
"'.'.'.'.'.'.'.'.              '.'.      1.Y.Y.Y.T.T.a       '.'.'.'.'.",
"'.'.'.'.'.'.'.'.'.'.'.'.'.'.'.'.'.      e.W.W.W.W.W.f       '.'.'.'.'.",
"'.'.'.'.'.'.'.'.'.'.'.'.'.'.'.'.'.      e.W.W.W.W.W.f       '.'.'.'.'.",
"'.'.'.'.'.'.'.'.'.'.'.'.'.'.'.'.'.      >.u.u.u.u.u.2       '.'.'.'.'.",
"'.'.'.'.'.'.'.'.'.'.'.'.'.'.'.'.'.      >.y.y.y.y.y.1       '.'.'.'.'.",
"'.'.'.'.'.'.'.'.'.'.'.'.'.'.'.'.'.      >.y.y.y.y.y.1       '.'.'.'.'."
};
