/* XPM */
static char *down_5[] = {
/* columns rows colors chars-per-pixel */
"33 64 241 2",
"   c black",
".  c #020202",
"X  c #020203",
"o  c #070204",
"O  c #040404",
"+  c #0E0509",
"@  c #15070E",
"#  c #16080F",
"$  c #17080F",
"%  c #120317",
"&  c #150517",
"*  c #170619",
"=  c #18061A",
"-  c #19071A",
";  c #1A061B",
":  c #190910",
">  c #1A0911",
",  c #1B0912",
"<  c #1C0A13",
"1  c #1F0D11",
"2  c #1D081C",
"3  c #131313",
"4  c #151515",
"5  c #191919",
"6  c #19181E",
"7  c #1D1D1D",
"8  c #1F0822",
"9  c #1B2828",
"0  c #240B1E",
"q  c #2B0F1C",
"w  c #230726",
"e  c #250921",
"r  c #240927",
"t  c #26092A",
"y  c #2B0B24",
"u  c #2A0B2E",
"i  c #291F26",
"p  c #241F32",
"a  c #300D2D",
"s  c #310D35",
"d  c #320D35",
"f  c #330E35",
"g  c #340D36",
"h  c #3A0F39",
"j  c #331124",
"k  c #351323",
"l  c #371324",
"z  c #321B20",
"x  c #391426",
"c  c #3A1526",
"v  c #3B1625",
"b  c #3F1A23",
"n  c #3A1231",
"m  c #3F1332",
"M  c #3D1237",
"N  c #3B1138",
"B  c #3C103A",
"V  c #232323",
"C  c #222028",
"Z  c #272628",
"A  c #282729",
"S  c #282828",
"D  c #292929",
"F  c #243636",
"G  c #362933",
"H  c #382F32",
"J  c #3C2C3D",
"K  c #343336",
"L  c #37323F",
"P  c #3B3B3D",
"I  c #1C1757",
"U  c #1C1859",
"Y  c #1F1858",
"T  c #3C2A42",
"R  c #373D48",
"E  c #252865",
"W  c #364A3D",
"Q  c #1F4E41",
"!  c #225647",
"~  c #2F564B",
"^  c #3C4044",
"/  c #30534F",
"(  c #3E5353",
")  c #2A6957",
"_  c #2E6E54",
"`  c #326A5A",
"'  c #39685B",
"]  c #387C4E",
"[  c #327452",
"{  c #347750",
"}  c #42162D",
"|  c #47192F",
" . c #461D28",
".. c #481E28",
"X. c #461733",
"o. c #441634",
"O. c #40133A",
"+. c #40113C",
"@. c #43153B",
"#. c #44123E",
"$. c #48173C",
"%. c #49163E",
"&. c #4A1A34",
"*. c #4E1A37",
"=. c #49183C",
"-. c #4D193E",
";. c #4E193E",
":. c #4E1B3D",
">. c #4F1A3F",
",. c #521D36",
"<. c #43222B",
"1. c #412F3F",
"2. c #4B2930",
"3. c #592337",
"4. c #5A203C",
"5. c #60353E",
"6. c #4B1342",
"7. c #4D1443",
"8. c #4E1443",
"9. c #4F1643",
"0. c #521743",
"q. c #501544",
"w. c #521545",
"e. c #531646",
"r. c #571748",
"t. c #501842",
"y. c #521942",
"u. c #551A40",
"i. c #571D40",
"p. c #581748",
"a. c #581946",
"s. c #591A46",
"d. c #5B1F43",
"f. c #5A1948",
"g. c #5B1948",
"h. c #5C1B48",
"j. c #4C2A4E",
"k. c #4B3F43",
"l. c #5E2044",
"z. c #5C264A",
"x. c #5E2C4C",
"c. c #523355",
"v. c #442B60",
"b. c #452C62",
"n. c #472C61",
"m. c #4D3A6C",
"M. c #601E46",
"N. c #621F48",
"B. c #641F4A",
"V. c #662346",
"C. c #65204A",
"Z. c #672248",
"A. c #692545",
"S. c #682447",
"D. c #682248",
"F. c #682348",
"G. c #68224A",
"H. c #6C2548",
"J. c #6E2749",
"K. c #643741",
"L. c #673C47",
"P. c #6E3E55",
"I. c #722A48",
"U. c #72284C",
"Y. c #722C4D",
"T. c #742A4A",
"R. c #742A4B",
"E. c #74294C",
"W. c #752A4C",
"Q. c #762C4B",
"!. c #772C4B",
"~. c #75304F",
"^. c #7E3446",
"/. c #7E314C",
"(. c #7E3D5B",
"). c #414142",
"_. c #464646",
"`. c #4C4C4C",
"'. c #4E4E4E",
"]. c #4F4E52",
"[. c #515151",
"{. c #555555",
"}. c #565656",
"|. c #575758",
" X c #5A5155",
".X c #406A5D",
"XX c #6F4D5C",
"oX c #68565F",
"OX c #7D565B",
"+X c #735C60",
"@X c #656565",
"#X c #676767",
"$X c #6C6969",
"%X c #78696A",
"&X c gray45",
"*X c #767676",
"=X c #737A73",
"-X c #787878",
";X c #7B7B7B",
":X c #7C7B7B",
">X c #5078A1",
",X c #757FA0",
"<X c #3B804D",
"1X c #82324E",
"2X c #8D3A50",
"3X c #913C51",
"4X c #89505F",
"5X c #904F5D",
"6X c #8C4B63",
"7X c #936A71",
"8X c #AC5970",
"9X c #AB6F77",
"0X c #A7727A",
"qX c #BA6579",
"wX c #BC677A",
"eX c #BE687B",
"rX c #C16A7D",
"tX c #876A83",
"yX c #8A6E87",
"uX c #947A91",
"iX c #A67E83",
"pX c #C77182",
"aX c #828282",
"sX c #8D8D8D",
"dX c gray56",
"fX c #978697",
"gX c #9C8C9C",
"hX c #8A83A0",
"jX c #A0879F",
"kX c #AA9CAA",
"lX c #B98FA2",
"zX c #A1A1A1",
"xX c #AEAEAE",
"cX c #DB8996",
"vX c #C293A5",
"bX c #E5959F",
"nX c #C1B2C2",
"mX c #D1B8C7",
"MX c #DEB7C4",
"NX c #F2E9F2",
"BX c None",
/* pixels */
"BXBXBXBXBXBXBXBXBXBXBX                      BXBXBXBXBXBXBXBXBXBXBX",
"BXBXBXBXBXBXBXBXBXBXBX                      BXBXBXBXBXBXBXBXBXBXBX",
"BXBXBXBXBXBXBXBX      $ $ : 1 1 1 1 0 $ $ $       BXBXBXBXBXBXBXBX",
"BXBXBXBXBXBXBXBX      J.J.Q.3X3X3X3X2XQ.J.J.      BXBXBXBXBXBXBXBX",
"BXBXBXBXBXBXBXBX      J.J.Q.3X3X3X3X3XQ.J.J.      BXBXBXBXBXBXBXBX",
"BXBXBXBXBXBXBXBX      X.X.&.3.3.3.3.3.*.X.X.      BXBXBXBXBXBXBXBX",
"BXBXBXBXBXBXBXBX      % % % % % % % % % % %       BXBXBXBXBXBXBXBX",
"BXBXBXBXBXBXBXBX      % % % % % % % % % % %       BXBXBXBXBXBXBXBX",
"BXBXBXBXBX      * 8 8 *.*.o.t t n *.*.a t t X.| k       BXBXBXBXBX",
"BXBXBXBXBX      r s s J.J.l.s s :.J.J.O.s s J.J.,.      BXBXBXBXBX",
"BXBXBXBXBX      r s s J.J.l.s s t.J.J.O.s s J.J.,.      BXBXBXBXBX",
"BXBX      * u u i.V.V.f.f.9.s s :.J.J.a.w.w.J.J.I.^.^.b       BXBX",
"BXBX      * s s l.J.J.r.r.8.s s ;.J.J.h.r.r.J.J.Q.3X3X..      BXBX",
"BXBX      * g g d.S.S.r.r.8.g g :.S.S.a.w.r.S.J.T.2X2X .      BXBX",
"BXBX      y r.r.h s s r.r.r.r.r.#.s s s s s r.r.h.J.J.l       BXBX",
"BXBX      y r.r.h s s r.r.r.r.r.#.s s s s s r.r.h.J.J.l       BXBX",
"          e 8.6.#.h h Z.Z.G.G.G.y.B B =.:.:.8.6.w.C.S.j       BXBX",
"          * s s 8.r.r.3X3X3X3X3XU.p.p.1X3X3Xs s h r.p.y       BXBX",
"          * s s 8.r.r.3X3X3X3X3XU.p.r.1X3X3Xs s h r.p.y       BXBX",
"    + x x m #.#.w.r.r.U.U.U.U.U.C.p.r.U././.#.#.0.!.U.x       BXBX",
"    < J.J.N.r.r.r.r.r.r.r.r.r.r.r.r.f.Z.J.J.r.r.C.3X3X..      BXBX",
"    : J.J.N.r.r.r.r.r.r.r.r.r.r.r.r.r.Z.J.J.r.r.C.3X3X..      BXBX",
"    o < < } Z.Z.f.p.r.h h h B h z.(.(.Y.J.J.h h %.!.!.v           ",
"BXBX      l J.J.h.r.r.s s s s s x.6X6X~.J.J.s s O.J.J.l           ",
"BXBX      x J.J.h.p.r.s s s s s x.6X6X~.J.J.s s O.J.J.l           ",
"BXBX      * s g g s s I U v.qXqXqXrXeXn.Y U fXfXtXp.p.M.S.S.:     ",
"BXBX      * s s s s s U U n.rXrXrXrXrXn.U U gXgXyXr.r.N.J.J.:     ",
"BXBX      2 N N j.c.c.E E m.pXpXpXpXpXm.E E kXkXuXw.w.u.4.4.$     ",
"BXBX      x J.J.mXNXNX>X>X,XbXbXbXbXbX,X>X>XNXNXnXs s *       BXBX",
"BXBX      l J.J.mXNXNX>X>X,XbXbXbXbXbX,X>X>XNXNXnXs s *       BXBX",
"BXBX      l J.J.vXMXMXhXhXjXbXbXbXbXbXjXhXhXMXMXlX$.$.0       BXBX",
"BXBX      l J.J.8XrXrXbXbXbXbXbXbXbXbXbXbXbXrXrX8XJ.J.l       BXBX",
"BXBX      l J.J.8XrXrXbXbXbXbXbXbXbXbXbXbXbXrXrX8XJ.J.l       BXBX",
"BXBX      # q q <.2.2.P.P.XX=X=X=X=X=XXXP.P.2.2.<.q q $       BXBX",
"BXBX                  w w p ) ) ) ) ) p w w                   BXBX",
"BXBX                  w w p ) ) ) ) ) p w w                   BXBX",
"    4 {.{.{.{.{.~ ! ! M M J ] ] ] ] ] J m M ! ! / {.{.@X*X*X5     ",
"    5 #X#X#X#X#X' ) ) @.@.1.<X<X<X<X<X1.@.@.) ) ' #X#X:XdXdXV     ",
"    5 #X#X#X#X#X' ) ) @.@.1.<X<X<X<X<X1.@.@.` ` .X$X$X:XdXdXV     ",
"    5 #X#X#X#X#X' ) ) @.@.1.<X<X<X<X<X1.@.@.bXbXbXbXbXiX#X#X5     ",
"    5 #X#X#X#X#X' ) ) @.@.j.<X<X<X<X<X1.@.@.bXbXbXbXbXfX@X@X5     ",
"    3 `.`. XoXoX( / / T J W <X<X<X<X<X^ T T cXcXcXcXcX7X`.`.3     ",
"BXBX      l J.J.:.@.@.) ) _ ] <X<X<X<X_ ) ) rXrXrXrXeX5.o     BXBX",
"BXBX      l J.J.:.@.@.) ) ) <X<X<X<X<X_ ) ) rXrXrXrXeXK..     BXBX",
"BXBX      < x x L R R [ [ { <X<X<X<X<X{ [ [ %X%XOXK.K.z       BXBX",
"BXBXBXBXBX      Q ) ) <X<X<X<X<X<X<X<X<X<X<X) ) Q       BXBXBXBXBX",
"BXBXBXBXBX      Q ) ) <X<X<X<X<X<X<X<X<X<X<X) ) !       BXBXBXBXBX",
"BXBXBXBXBX      9 F F W W W W W W W W W W W F F 9       BXBXBXBXBX",
"BXBXBXBXBX      6 C C K K K K K K K K K K K C C 6       BXBXBXBXBX",
"BXBXBXBXBX      6 C C K K K K K K K K K K K C C 6       BXBXBXBXBX",
"BXBXBXBXBX      6 C C K K A O O D '.'.'.'.'.X X         BXBXBXBXBX",
"BXBXBXBXBX      6 C C K K Z     D [.[.[.[.[.      BXBXBXBXBXBXBXBX",
"BXBXBXBXBX      i G G _._.H     V _._._._._.      BXBXBXBXBXBXBXBX",
"BXBXBXBXBX      5XrXeXbXbX9X                BXBXBXBXBXBXBXBXBXBXBX",
"BXBXBXBXBX      5XrXeXbXbX0X                BXBXBXBXBXBXBXBXBXBXBX",
"BXBXBXBXBX      L.5X4X0X0X4X                BXBXBXBXBXBXBXBXBXBXBX",
"BXBXBXBXBX      5 i C K K Z       BXBXBXBXBXBXBXBXBXBXBXBXBXBXBXBX",
"BXBXBXBXBX      6 C C K K Z       BXBXBXBXBXBXBXBXBXBXBXBXBXBXBXBX",
"BXBXBXBXBX      P ].].|.|.).      BXBXBXBXBXBXBXBXBXBXBXBXBXBXBXBX",
"BXBXBXBXBX      {.&X&X&X*X{.      BXBXBXBXBXBXBXBXBXBXBXBXBXBXBXBX",
"BXBXBXBXBX      {.&X&X&X&X{.      BXBXBXBXBXBXBXBXBXBXBXBXBXBXBXBX",
"BXBXBXBXBX      -XzXzXzXzX-X      BXBXBXBXBXBXBXBXBXBXBXBXBXBXBXBX",
"BXBXBXBXBX      aXxXxXxXxXaX      BXBXBXBXBXBXBXBXBXBXBXBXBXBXBXBX",
"BXBXBXBXBX      aXxXxXxXxXaX      BXBXBXBXBXBXBXBXBXBXBXBXBXBXBXBX"
};
