/* XPM */
static char *down_3[] = {
/* columns rows colors chars-per-pixel */
"35 64 168 2",
"   c #000000",
".  c #0A0406",
"X  c #0C030B",
"o  c #09090A",
"O  c #07130F",
"+  c #09100F",
"@  c #0F1212",
"#  c #0A1A15",
"$  c #12060C",
"%  c #110A0C",
"&  c #180A0D",
"*  c #120316",
"=  c #120F18",
"-  c #1A051F",
";  c #1C0A14",
":  c #1F091D",
">  c #131314",
",  c #151817",
"<  c #1B1B1C",
"1  c #1F1E22",
"2  c #240D18",
"3  c #211317",
"4  c #34151D",
"5  c #301A1F",
"6  c #230726",
"7  c #220921",
"8  c #2B0C24",
"9  c #280929",
"0  c #310D35",
"q  c #370E38",
"w  c #3B0F3A",
"e  c #3D103A",
"r  c #262626",
"t  c #222028",
"y  c #28262C",
"u  c #2A2A2A",
"i  c #252F3A",
"p  c #2A333B",
"a  c #3C2D33",
"s  c #343336",
"d  c #3A3A3A",
"f  c #1F1652",
"g  c #1C1859",
"h  c #2B1041",
"j  c #2A1A56",
"k  c #373B47",
"l  c #3A3244",
"z  c #25413D",
"x  c #2B483E",
"c  c #35424A",
"v  c #324C4D",
"b  c #3F4142",
"n  c #375640",
"m  c #3A5348",
"M  c #2A6956",
"N  c #2F7053",
"B  c #317352",
"V  c #357850",
"C  c #431A28",
"Z  c #43143C",
"A  c #4A173E",
"S  c #4F193F",
"D  c #521B3E",
"F  c #5A1F3B",
"G  c #4D343F",
"H  c #5D203F",
"J  c #573038",
"K  c #5A333B",
"L  c #471240",
"P  c #4B1342",
"I  c #4F1840",
"U  c #571748",
"Y  c #531A41",
"T  c #5A1D43",
"R  c #5D1B48",
"E  c #5E2044",
"W  c #5C264A",
"Q  c #5E2C4C",
"!  c #553C45",
"~  c #5C3A45",
"^  c #58315E",
"/  c #621E48",
"(  c #642343",
")  c #662148",
"_  c #682545",
"`  c #6D2649",
"'  c #693944",
"]  c #663058",
"[  c #68345D",
"{  c #762B4C",
"}  c #7B2E4C",
"|  c #76324E",
" . c #793146",
".. c #743050",
"X. c #7A3653",
"o. c #7D3C5B",
"O. c #653964",
"+. c #603A68",
"@. c #434343",
"#. c #574345",
"$. c #525252",
"%. c #5E5E5E",
"&. c #576763",
"*. c #5F6F6B",
"=. c #67414D",
"-. c #67494E",
";. c #684348",
":. c #644D52",
">. c #794D53",
",. c #7C5156",
"<. c #614364",
"1. c #695678",
"2. c #666666",
"3. c #6D6D6D",
"4. c #6D7D78",
"5. c #726066",
"6. c #727272",
"7. c #4B6F9A",
"8. c #5078A1",
"9. c #716585",
"0. c #3B804D",
"q. c #758581",
"w. c #81324E",
"e. c #88364F",
"r. c #823756",
"t. c #913C51",
"y. c #874F5E",
"u. c #85565C",
"i. c #8C4B63",
"p. c #86506D",
"a. c #8C5160",
"s. c #8F5773",
"d. c #915A67",
"f. c #87686F",
"g. c #8E6E75",
"h. c #A1546C",
"j. c #A6596F",
"k. c #AF5E74",
"l. c #AF6071",
"z. c #A47178",
"x. c #B76478",
"c. c #BB6D7D",
"v. c #C16A7D",
"b. c #887489",
"n. c #8F7F82",
"m. c #897D9B",
"M. c #BC7586",
"N. c #B97E89",
"B. c #C77182",
"V. c #CD7888",
"C. c #848484",
"Z. c #8E8E8E",
"A. c #9C8C9C",
"S. c #8E84A0",
"D. c #A78A8E",
"F. c #AE9194",
"G. c #B68A8D",
"H. c #AEB3C9",
"J. c #B5BACF",
"K. c #BCC3D7",
"L. c #D38994",
"P. c #DF8D99",
"I. c #D49198",
"U. c #E4949E",
"Y. c #E0D5E0",
"T. c #EAE0EA",
"R. c #F2E9F2",
"E. c None",
/* pixels */
"E.E.E.E.E.E.E.E.E.E.E.                          E.E.E.E.E.E.E.E.E.E.E.",
"E.E.E.E.E.E.E.E.E.E.E.                          E.E.E.E.E.E.E.E.E.E.E.",
"E.E.E.E.E.E.E.E.        . . . . . $ . . . . .         E.E.E.E.E.E.E.E.",
"E.E.E.E.E.E.E.E.      2 ` { } t.t.t.t.t.} ` ` 2       E.E.E.E.E.E.E.E.",
"E.E.E.E.E.E.E.E.      2 ` ` } t.t.t.t.t.} ` ` 2       E.E.E.E.E.E.E.E.",
"E.E.E.E.E.E.E.E.      ; F T _  . . . . ._ ( T ;       E.E.E.E.E.E.E.E.",
"E.E.E.E.E.E.E.E.      . * * * * * * * * * * *         E.E.E.E.E.E.E.E.",
"E.E.E.E.E.E.E.E.      . * * * * * * * * * * * X       E.E.E.E.E.E.E.E.",
"E.E.E.E.E.        X X ; 8 8 7 - - 7 8 8 7 - - ; ; ; .       E.E.E.E.E.",
"E.E.E.E.E.      X 0 0 Z ` ` Y 0 0 A ` ` A 0 0 T ` _ ;       E.E.E.E.E.",
"E.E.E.E.E.      X 0 0 Z ` ` Y 0 0 D ` ` A 0 0 T ` ` ;       E.E.E.E.E.",
"E.E.        * * 7 A A I ) ) I 0 0 D ` ` Y w Z T { ` C 4 4 .       E.E.",
"E.E.      X 0 0 Z ` ` ) U U L 0 0 D ` ` / U U ) ` ` e.t.t.&       E.E.",
"E.E.      X 0 0 e ` ` ) U U L 0 0 A ` ` / U U ) ` ` e.t.t.&       E.E.",
"E.E.      X Z Z A I Y Y U U P Z Z P D Y A Z Z U ) / } } w.&       E.E.",
"E.E.      X U U P 0 0 e U U U U U Z 0 0 0 0 0 P U U _ ` ` $       E.E.",
"E.E.      X U U P q 0 w U U U U U Z 0 0 0 0 0 A U U ) ` ` $       E.E.",
"E.E.      X Z Z Z P L U { { { { { / L L U / ( A L Z U / / $       E.E.",
"E.E.      X 0 0 Z U U ) t.t.t.t.t.{ U U { t.t.D 0 0 P U U X       E.E.",
"E.E.      X 0 0 h U U ) t.t.t.t.t.{ U U } t.t.D 0 0 P U U X       E.E.",
"E.E.      X P P P U U / ` ` ` ) ` / U U ` } } T P P ` } } &       E.E.",
"E.E.      X U U U U U U U U U U U U U U / ` ` R U U w.t.t.&       E.E.",
"E.E.      X U U U U U U U U U U U U U U ) ` ` R U U w.t.t.&       E.E.",
"          $ ) ) / U U P w w w q w W o.o.} ` ` A w w _ { } $       E.E.",
"          $ ` ` ` U U P 0 0 0 0 0 Q i.i.X.` ` A 0 0 T ` ` $       E.E.",
"          $ ` ` ) U U P 0 0 0 0 0 Q i.i.X.` ` A 0 0 T ` ` $       E.E.",
"    . F F D e e q q q 0 j f ^ j.j.k.x.x.O.j j 1.b.b.] R R X           ",
"    . ` ` ( 0 0 0 0 0 h g g +.x.v.v.v.c.+.g g 9.A.A.[ U U X           ",
"    . ` ` ( 0 0 0 0 0 h g g +.M.v.v.v.v.+.g g 9.A.A.[ U U X           ",
"      . . ; _ _ p.Y.Y.H.7.7.m.U.U.P.P.U.m.7.7.J.T.T.<.q q F ( ( .     ",
"E.E.      $ ` ` s.R.R.K.8.8.S.U.U.U.U.U.S.8.8.K.R.R.<.0 0 ( ` ` .     ",
"E.E.      $ ` ` s.R.R.K.8.8.S.U.U.U.U.U.S.8.8.K.R.R.<.0 0 ( ` ` .     ",
"E.E.      $ ` ` r.v.c.V.U.U.U.U.U.U.U.U.U.U.U.V.v.v.r.` ` $       E.E.",
"E.E.      $ ` ` r.v.v.V.U.U.U.U.U.U.U.U.U.U.U.V.v.v.r.` ` $       E.E.",
"E.E.      $ ( ( ..l.l.c.L.L.I.I.I.I.I.I.L.L.L.c.l.l.| ( _ $       E.E.",
"E.E.E.E.E.            X 6 6 i M M M M M i 6 6 X             E.E.E.E.E.",
"E.E.E.E.E.            X 6 6 i M M M M M i 7 6 X             E.E.E.E.E.",
"E.E.        > > > O O = 8 8 p M M N N M p 9 9 = O O , < <         E.E.",
"E.E.      > 2.2.&.M M v Z Z b 0.0.0.0.0.b Z Z v M M q.Z.Z.<       E.E.",
"E.E.      > 2.2.&.M M v Z Z b 0.0.0.0.0.b Z Z v M M q.Z.Z.,       E.E.",
"      < < u 6.6.*.M M v e Z b 0.0.0.0.0.b Z Z v M M 4.C.C.s u u       ",
"    o 2.2.3.Z.Z.q.M M v Z Z b 0.0.0.0.0.b Z Z v M M &.2.2.C.Z.Z.o     ",
"    o 2.2.3.Z.Z.q.M M v Z Z b 0.0.0.0.0.b Z Z v M M &.2.2.C.Z.Z.o     ",
"    o f.f.g.F.F.n.v v k l l m 0.0.0.0.0.m l k c v v 5.f.g.D.F.F.@     ",
"    $ v.v.B.U.U.M.Z Z d M M B 0.0.0.0.0.N M M l Z Z h.v.v.P.U.U.&     ",
"    $ v.v.B.U.U.M.Z Z l M M B 0.0.0.0.0.N M M l Z Z h.c.v.P.U.U.%     ",
"    % v.v.B.U.U.N.k k v B B V 0.0.0.0.0.V B B v k k ~ ' ' >.,.,.o     ",
"    % v.v.V.U.U.G.M M N 0.0.0.0.0.0.0.0.0.0.0.B M M #             E.E.",
"    % v.v.B.U.U.G.M M N 0.0.0.0.0.0.0.0.0.0.0.B M M #             E.E.",
"    . J J K ;.;.#.z p x n n n n n x n n n n n x z z @             E.E.",
"E.E.            o t t y s s s s s s s s d s s y t t o       E.E.E.E.E.",
"E.E.            o t t y s s s s s s s s s s s r t t o       E.E.E.E.E.",
"E.E.            3 y.y.d.z.z.-.# > > > > t y y =.y.y.3       E.E.E.E.E.",
"E.E.E.E.E.      5 v.v.V.U.U.u.          > t t a.v.v.5       E.E.E.E.E.",
"E.E.E.E.E.      5 v.c.V.U.U.u.          > t t i.v.v.5       E.E.E.E.E.",
"E.E.E.E.E.      & G G ! :.:.a           = t t a G G %       E.E.E.E.E.",
"E.E.E.E.E.      o t t y s s <           , t t t t t o       E.E.E.E.E.",
"E.E.E.E.E.      o t t y s s 1           = t t t t t o       E.E.E.E.E.",
"E.E.E.E.E.      , 2.2.2.2.2.d     u %.2.2.2.2.r . .         E.E.E.E.E.",
"E.E.E.E.E.      < 6.6.6.6.6.@.    d 6.6.6.6.3.r       E.E.E.E.E.E.E.E.",
"E.E.E.E.E.      < 6.6.6.6.6.@.    d 6.6.6.6.6.r       E.E.E.E.E.E.E.E.",
"E.E.E.E.E.      . o o o o o o     r $.$.$.$.$.<       E.E.E.E.E.E.E.E.",
"E.E.E.E.E.E.E.E.                  r $.$.$.$.$.<       E.E.E.E.E.E.E.E.",
"E.E.E.E.E.E.E.E.                  r $.$.$.$.$.<       E.E.E.E.E.E.E.E."
};
