/* XPM */
static char *down_7[] = {
/* columns rows colors chars-per-pixel */
"35 64 168 2",
"   c #000000",
".  c #0A0406",
"X  c #0C030B",
"o  c #0A0A0B",
"O  c #07130F",
"+  c #09100F",
"@  c #0F1212",
"#  c #0A1A15",
"$  c #12060C",
"%  c #120A0C",
"&  c #180A0D",
"*  c #120316",
"=  c #120F18",
"-  c #1A051F",
";  c #1C0A14",
":  c #1F091D",
">  c #131315",
",  c #151817",
"<  c #191314",
"1  c #1B1B1B",
"2  c #1F1E22",
"3  c #240D18",
"4  c #211317",
"5  c #291C1E",
"6  c #34151D",
"7  c #301A1F",
"8  c #230726",
"9  c #220921",
"0  c #2B0C24",
"q  c #280929",
"w  c #2D1E24",
"e  c #310D35",
"r  c #370E38",
"t  c #3B0F3A",
"y  c #3D103A",
"u  c #262626",
"i  c #222028",
"p  c #28262C",
"a  c #2A2A2A",
"s  c #252F3A",
"d  c #2E2C31",
"f  c #2A333B",
"g  c #392527",
"h  c #343336",
"j  c #39393A",
"k  c #1F1652",
"l  c #1C1859",
"z  c #2B1041",
"x  c #2A1A56",
"c  c #373B47",
"v  c #3A3244",
"b  c #25413D",
"n  c #2B483E",
"m  c #2F4B45",
"M  c #35424A",
"N  c #324F43",
"B  c #324C4D",
"V  c #3F4142",
"C  c #375640",
"Z  c #3A5348",
"A  c #2A6956",
"S  c #2F7053",
"D  c #317352",
"F  c #357850",
"G  c #431A28",
"H  c #43143C",
"J  c #4A173E",
"K  c #4F193F",
"L  c #521B3E",
"P  c #5A1F3B",
"I  c #4D343E",
"U  c #5D203F",
"Y  c #573038",
"T  c #471240",
"R  c #4B1342",
"E  c #4F1840",
"W  c #571748",
"Q  c #531A41",
"!  c #5A1D43",
"~  c #5D1B48",
"^  c #4E3E44",
"/  c #5E2044",
"(  c #5C264A",
")  c #5E2C4C",
"_  c #5B3A43",
"`  c #58315E",
"'  c #621E48",
"]  c #642343",
"[  c #662148",
"{  c #682545",
"}  c #6D2649",
"|  c #693944",
" . c #663058",
".. c #68345D",
"X. c #762B4C",
"o. c #7B2E4C",
"O. c #76324E",
"+. c #703D48",
"@. c #793146",
"#. c #743050",
"$. c #7A3653",
"%. c #7D3C5B",
"&. c #653964",
"*. c #603A68",
"=. c #434343",
"-. c #525252",
";. c #5E525C",
":. c #5E5E5E",
">. c #5A5F60",
",. c #576763",
"<. c #654045",
"1. c #684348",
"2. c #644D52",
"3. c #7B585F",
"4. c #614364",
"5. c #695678",
"6. c #795D66",
"7. c #666666",
"8. c #6D7D78",
"9. c #726066",
"0. c gray45",
"q. c #4B6F9A",
"w. c #5078A1",
"e. c #716585",
"r. c #3B804D",
"t. c #758581",
"y. c #81324E",
"u. c #88364F",
"i. c #823756",
"p. c #913C51",
"a. c #874F5E",
"s. c #89515F",
"d. c #8C4B63",
"f. c #86506D",
"g. c #8D5663",
"h. c #8F5773",
"j. c #87686F",
"k. c #8F6871",
"l. c #9B6973",
"z. c #A1546C",
"x. c #A6596F",
"c. c #AF5E74",
"v. c #A46E77",
"b. c #AF6071",
"n. c #A47178",
"m. c #B76478",
"M. c #BB6D7D",
"N. c #C16A7D",
"B. c #887489",
"V. c #897D9B",
"C. c #CD7888",
"Z. c #848484",
"A. c #8D8D8D",
"S. c #9C8C9C",
"D. c #8E84A0",
"F. c #AF8A90",
"G. c #B69196",
"H. c #AEB3C9",
"J. c #B5BACF",
"K. c #BCC3D7",
"L. c #D38994",
"P. c #DF8D99",
"I. c #D49198",
"U. c #E4949E",
"Y. c #E0D5E0",
"T. c #EAE0EA",
"R. c #F2E9F2",
"E. c None",
/* pixels */
"E.E.E.E.E.E.E.E.E.E.E.                          E.E.E.E.E.E.E.E.E.E.E.",
"E.E.E.E.E.E.E.E.E.E.E.                          E.E.E.E.E.E.E.E.E.E.E.",
"E.E.E.E.E.E.E.E.        . . . . . $ . . .   X         E.E.E.E.E.E.E.E.",
"E.E.E.E.E.E.E.E.      3 } X.o.p.p.p.p.p.o.X.} 3       E.E.E.E.E.E.E.E.",
"E.E.E.E.E.E.E.E.      3 } X.o.p.p.p.p.p.y.} } 3       E.E.E.E.E.E.E.E.",
"E.E.E.E.E.E.E.E.      ; P ! { @.@.@.@.@.{ ! ! ;       E.E.E.E.E.E.E.E.",
"E.E.E.E.E.E.E.E.      . * * * * * * * * * * * X       E.E.E.E.E.E.E.E.",
"E.E.E.E.E.E.E.E.        * * * * * * * * * * *         E.E.E.E.E.E.E.E.",
"E.E.E.E.E.        * X ; 0 0 9 - - 9 0 0 9 - - ; ; ;         E.E.E.E.E.",
"E.E.E.E.E.      X e e H } } Q e e K } } J e e ! } X.;       E.E.E.E.E.",
"E.E.E.E.E.      X e e H } } Q e e K } } J e e ! } } ;       E.E.E.E.E.",
"E.E.        * * : H J Q [ [ E e e L } } L t t ' } } G 6 6 .       E.E.",
"E.E.      X e e y } } [ W W H e e L } } ~ W W [ } } u.p.p.&       E.E.",
"E.E.      . e e y } } [ W W T e e J } } ' W W [ } } u.p.p.&       E.E.",
"E.E.      X H T H Q Q Q W W E T H R Q Q J H H ~ [ ' o.y.y.&       E.E.",
"E.E.      X W W E e e y W W W W W H e e e e e R W W { } } $       E.E.",
"E.E.      X W W R e e H W W W W W H e e e e e J W W ' } } $       E.E.",
"E.E.      X H H H R T W X.X.X.X.X.' H T W ' ' K H H ~ ' ' $       E.E.",
"E.E.      . e e H W W } u.p.p.p.p.X.W W o.p.p.L e e R W W X       E.E.",
"E.E.      . e e z W W ' p.p.p.p.p.X.W W o.p.p.L e e R W W $       E.E.",
"E.E.      X R R R W W ' } } } } } ' W W } o.o.! R R } o.o.$       E.E.",
"E.E.      X W W W W W W W W W W W W W W ' } } ~ W W i.p.p.&       E.E.",
"E.E.      X W W W W W W W W W W W W W W ' } } ' W W y.p.p.&       E.E.",
"          $ [ [ ' W W R H z r r t ( %.%.X.} } J r r { o.X.&       E.E.",
"          $ } } } W W T e e e e e ) d.d.$.} } H e e ] } } $       E.E.",
"          $ } } [ W W R e e e e e ) d.d.$.} } J e e ! } } $       E.E.",
"      U P L y y y r r z k k ` z.x.c.m.m.&.x x 5.B.B. .~ ~ $           ",
"      X.} ] e e e e e z l l *.m.N.N.N.N.*.l l e.S.S...W W X           ",
"    . } } [ e e e e e e l l *.C.N.N.N.N.*.l l e.S.S...W W $           ",
"      . . ; { { f.Y.Y.H.q.q.V.U.U.P.P.U.V.q.q.J.T.T.4.e e ! ] ] .     ",
"E.E.      $ } } h.R.R.K.w.w.D.U.U.U.U.U.D.w.w.K.R.R.4.e e ] } }       ",
"E.E.      $ } } h.R.R.K.w.w.D.U.U.U.U.U.D.w.w.K.R.R.4.e e [ } } X     ",
"E.E.      $ } } i.N.m.C.U.U.U.U.U.U.U.U.U.U.U.C.N.N.i.} } %       E.E.",
"E.E.      $ } } i.M.M.C.U.U.U.U.U.U.U.U.U.U.U.C.N.N.i.} } %       E.E.",
"E.E.      $ ] ] O.c.b.C.L.L.L.I.I.I.I.I.L.L.L.M.b.b.O.] ] %       E.E.",
"E.E.E.E.E.            X 8 8 s A A A A A s 8 8 X             E.E.E.E.E.",
"E.E.E.E.E.            X 9 8 s A A A A A s 8 8 X             E.E.E.E.E.",
"E.E.        > > > O O = q q f S S A A S f q q = O O , 1 1         E.E.",
"E.E.      > 7.7.,.A A B H H =.r.r.r.r.r.=.H y B A A t.A.A.1       E.E.",
"E.E.      > 7.7.,.A A B H H =.r.r.r.r.r.=.H H B A A t.A.A.1       E.E.",
"      1 1 a 7.7.,.A A B H H =.r.r.r.r.r.V H H B A A 8.Z.Z.h a a       ",
"    o 7.7.7.7.7.,.A A B y H =.r.r.r.r.r.V H H B A A ,.7.7.Z.S.A.o     ",
"    o 7.7.7.7.7.,.A A B H H n r.r.r.r.r.V H H B A A ,.7.7.Z.A.A.o     ",
"    . j.j.j.j.k.9.B B M c v =.r.r.r.r.r.Z v v B B B >.7.7.A.A.A.o     ",
"    o N.M.N.N.N.z.H H v A A S r.r.r.r.r.S A A v H H ;.7.7.A.A.A.o     ",
"    % N.N.N.N.N.z.y H v A A S r.r.r.r.r.S A A v H H ;.7.7.A.A.A.+     ",
"    . | | | | | _ c c Z D D F r.r.r.r.r.F S D Z c c 6.k.k.F.G.G.%     ",
"E.E.            # A A S r.r.r.r.r.r.r.r.r.r.r.S A A l.N.N.P.U.U.%     ",
"E.E.            # A A S r.r.r.r.F r.r.r.r.r.r.F D A l.M.N.P.U.U.&     ",
"E.E.            + b b n C C C C C C n C C C n n Z m I Y Y <.1.1.o     ",
"E.E.E.E.E.      o i i p h h h h h h h h j h h h h h o             E.E.",
"E.E.E.E.E.      . i i p h h h h h h h h j h h h h h o             E.E.",
"E.E.E.E.E.      3 a.a.g.g.g._ > , > > > 2 p p 6.n.n.w             E.E.",
"E.E.E.E.E.      5 N.M.N.M.N.+.          = w 2 n.U.U.g       E.E.E.E.E.",
"E.E.E.E.E.      6 N.N.N.N.N.+.          = i w l.U.U.g       E.E.E.E.E.",
"E.E.E.E.E.      % I I I I I w           = i 2 ^ 2.2.<       E.E.E.E.E.",
"E.E.E.E.E.      o w i i i i =           , i w s h h o       E.E.E.E.E.",
"E.E.E.E.E.      o 2 2 2 i i =           > i 2 d h h o       E.E.E.E.E.",
"E.E.E.E.E.        X o u 7.7.7.>.:.d     j 7.7.7.7.7.1       E.E.E.E.E.",
"E.E.E.E.E.E.E.E.      u 0.0.0.0.0.j     =.0.0.0.0.0.1       E.E.E.E.E.",
"E.E.E.E.E.E.E.E.      u 0.0.0.0.0.j     =.0.0.0.0.0.1       E.E.E.E.E.",
"E.E.E.E.E.E.E.E.      1 -.-.-.-.-.a     . o o o o o .       E.E.E.E.E.",
"E.E.E.E.E.E.E.E.      1 -.-.-.-.-.u                   E.E.E.E.E.E.E.E.",
"E.E.E.E.E.E.E.E.      1 -.-.-.-.-.a                   E.E.E.E.E.E.E.E."
};
