/* XPM */
static char *down_0[] = {
/* columns rows colors chars-per-pixel */
"33 64 167 2",
"   c #000000",
".  c #0B090A",
"X  c #15070E",
"o  c #16080F",
"O  c #120317",
"+  c #170619",
"@  c #19061A",
"#  c #1C0B11",
"$  c #1D081C",
"%  c #121212",
"&  c #19181B",
"*  c #1F0822",
"=  c #1B1A20",
"-  c #230A1E",
";  c #2B0F1C",
":  c #301A1F",
">  c #230726",
",  c #250925",
"<  c #26092A",
"1  c #2B0B24",
"2  c #2A0B2E",
"3  c #241F32",
"4  c #300D2D",
"5  c #310D35",
"6  c #3A0F39",
"7  c #361324",
"8  c #3B1525",
"9  c #3F1A23",
"0  c #3C1236",
"q  c #3C103A",
"w  c #232323",
"e  c #232128",
"r  c #2E2425",
"t  c #292929",
"y  c #243636",
"u  c #2C3434",
"i  c #3A2126",
"p  c #3C2C3D",
"a  c #343335",
"s  c #333A39",
"d  c #393939",
"f  c #1C1757",
"g  c #1D1858",
"h  c #3C2A42",
"j  c #373D48",
"k  c #3E3D40",
"l  c #252865",
"z  c #364A3D",
"x  c #225647",
"c  c #2F564B",
"v  c #304340",
"b  c #3C4044",
"n  c #30534F",
"m  c #375E53",
"M  c #3E5855",
"N  c #2A6956",
"B  c #39685B",
"V  c #387C4E",
"C  c #327551",
"Z  c #471A2D",
"A  c #481E28",
"S  c #451733",
"D  c #42143B",
"F  c #49173D",
"G  c #4C1A36",
"H  c #4E1A3E",
"J  c #511D36",
"K  c #5C1F3F",
"L  c #41242B",
"P  c #452D30",
"I  c #412F3F",
"U  c #4B2930",
"Y  c #592337",
"T  c #5A203C",
"R  c #4C1442",
"E  c #521545",
"W  c #571748",
"Q  c #541A41",
"!  c #581748",
"~  c #591B45",
"^  c #5B1A48",
"/  c #4C2946",
"(  c #4C2A4E",
")  c #5E2044",
"_  c #5C264A",
"`  c #5E2C4C",
"'  c #523355",
"]  c #452C61",
"[  c #4D3A6C",
"{  c #601E46",
"}  c #631F49",
"|  c #662346",
" . c #662149",
".. c #682446",
"X. c #6D2649",
"o. c #6B3554",
"O. c #6E3E55",
"+. c #742A4B",
"@. c #75304F",
"#. c #7E3446",
"$. c #7E314C",
"%. c #7E3D5B",
"&. c #474647",
"*. c #494949",
"=. c #4D4752",
"-. c #545454",
";. c #5E5D5F",
":. c #4D6260",
">. c #4F6960",
",. c #437264",
"<. c #587469",
"1. c #6F4D5C",
"2. c #62535E",
"3. c #7D4551",
"4. c #676767",
"5. c #696969",
"6. c #7E676C",
"7. c #737373",
"8. c #737A73",
"9. c #7B7B7B",
"0. c #5078A1",
"q. c #757FA0",
"w. c #3B804D",
"e. c #82324E",
"r. c #8D3A50",
"t. c #913C51",
"y. c #864A58",
"u. c #904F5D",
"i. c #8C4B63",
"p. c #9A666C",
"a. c #926871",
"s. c #917C7F",
"d. c #A75C6C",
"f. c #AC5970",
"g. c #A16B72",
"h. c #AB6F77",
"j. c #B36375",
"k. c #BB667A",
"l. c #BE687B",
"z. c #C16A7D",
"x. c #876A83",
"c. c #8A6E87",
"v. c #947A91",
"b. c #A57D84",
"n. c #C77182",
"m. c #D37F8E",
"M. c #838383",
"N. c #8E8E8E",
"B. c #978697",
"V. c #9C8C9C",
"C. c #8A83A0",
"Z. c #A0879F",
"A. c #A59093",
"S. c #B89196",
"D. c #AA9CAA",
"F. c #B98FA2",
"G. c #AEAEAE",
"H. c #CD8891",
"J. c #D58C95",
"K. c #D69099",
"L. c #C293A5",
"P. c #E5959F",
"I. c #C1B2C2",
"U. c #D1B8C7",
"Y. c #DEB7C4",
"T. c #F2E9F2",
"R. c None",
/* pixels */
"R.R.R.R.R.R.R.R.R.R.R.                      R.R.R.R.R.R.R.R.R.R.R.",
"R.R.R.R.R.R.R.R.R.R.R.                      R.R.R.R.R.R.R.R.R.R.R.",
"R.R.R.R.R.R.R.R.      o o o - # # # - # # o       R.R.R.R.R.R.R.R.",
"R.R.R.R.R.R.R.R.      X.X.+.t.t.t.t.t.+.X.X.      R.R.R.R.R.R.R.R.",
"R.R.R.R.R.R.R.R.      X.X.+.t.t.t.t.t.+.X.X.      R.R.R.R.R.R.R.R.",
"R.R.R.R.R.R.R.R.      S Z G Y Y Y Y Y Z S G       R.R.R.R.R.R.R.R.",
"R.R.R.R.R.R.R.R.      O O O O O O O O O O O       R.R.R.R.R.R.R.R.",
"R.R.R.R.R.R.R.R.      O O O O O O O O O O O       R.R.R.R.R.R.R.R.",
"R.R.R.R.R.      @ , , G G S < < 0 G G 4 < < Z Z 7       R.R.R.R.R.",
"R.R.R.R.R.      , 5 5 X.X.) 5 5 H X.X.D 5 5 X.X.J       R.R.R.R.R.",
"R.R.R.R.R.      , 5 5 X.X.) 5 5 H X.X.D 5 5 X.X.J       R.R.R.R.R.",
"R.R.      + 2 2 Q | | ~ ^ R 5 5 H X.X.~ R E X.X.X.#.#.A       R.R.",
"R.R.      @ 5 5 ) X.X.W W R 5 5 H X.X.^ W W X.X.+.t.t.A       R.R.",
"R.R.      @ 5 5 ~ ....W W R 5 5 R  .X.~ E E X.X.+.t.r.A       R.R.",
"R.R.      1 W W q 5 5 W W W ^ W D 5 5 5 5 5 W W ^ X.X.7       R.R.",
"R.R.      1 W W q 5 5 W W W W W D 5 5 5 5 5 W ~ { X.X.7       R.R.",
"R.R.      , F R D 6 6 }  .X. . .W 6 6 R R Q R R E } } 7       R.R.",
"R.R.      @ 5 5 R W W t.t.t.t.t.+.W W e.t.t.5 5 6 ! ! 1       R.R.",
"R.R.      + 5 5 R W W t.t.t.t.r.+.W W e.t.r.5 5 6 ! ! 1       R.R.",
"          $ R D E W W +.+.+.+.+.} W W +.$.+.R D Q +.+.8       R.R.",
"          1 W W W W W W W W W ! W W !  .X.X.W W  .t.t.A       R.R.",
"          1 W W W W W W W W W ! W ! ! } X.X.W W  .t.t.L       R.R.",
"    o J J T  . .^ W W 6 6 6 5 6 _ %.3.@.X.X.q q F +.+.8           ",
"    # X.X.X.X.X.^ W W 5 5 5 5 5 ` i.i.@.X.X.5 5 D X.X.7           ",
"    # X.+.X.X.+.^ W W 5 5 5 5 5 ` i.i.@.X.X.5 5 q X.X.7           ",
"          $ 5 5 5 5 5 g g ] k.k.l.l.l.] g g B.B.x.W ^ ) ....#     ",
"R.R.      @ 5 5 5 5 5 g g ] z.z.l.l.n.] g g Z.Z.c.W W  .X.X.#     ",
"R.R.      $ 0 0 ( ' ' l l [ n.n.n.n.n.[ l l D.D.v.R R Q T T o     ",
"R.R.      8 X.X.U.T.T.0.0.q.P.P.P.P.P.q.0.0.T.T.I.5 5 +       R.R.",
"R.R.      8 X.X.U.T.T.0.0.q.P.P.P.P.P.q.0.0.T.T.I.5 5 @       R.R.",
"R.R.      7 X.X.L.Y.Y.C.C.Z.P.P.P.P.P.Z.v.C.U.Y.F.F F ,       R.R.",
"R.R.      7 X.X.f.z.z.P.P.P.P.P.P.P.P.P.P.P.n.l.f.X.X.7       R.R.",
"R.R.      7 X.X.f.z.b.P.P.P.P.P.P.P.P.P.P.P.z.z.f.X.X.8       R.R.",
"R.R.      o ; ; L Y J O.3.1.8.8.8.8.8.1.O.O.U U L ; ; o       R.R.",
"R.R.R.R.R.            < * 3 N N N N N 3 > >             R.R.R.R.R.",
"R.R.R.R.R.            * * 3 N N N N N 3 > >             R.R.R.R.R.",
"R.R.      t -.-.n x x 0 0 p V V V V V p 0 0 x x m 7.9.d       R.R.",
"R.R.      a 5.4.B N N D D I w.w.V w.w.I D D N N ,.N.N.&.      R.R.",
"      .   d 5.5.B N N D D I w.w.w.w.w.I D D N N ,.N.N.*..         ",
"    % 4.5.9.N.N.,.N N D D I w.w.w.w.w.I D D N N B 4.4.9.N.N.t     ",
"    & 5.5.9.N.N.,.N N D D h w.w.w.w.w.I D D N N B 4.4.9.N.N.w     ",
"    & 6.6.s.A.A.:.c c h h b w.w.w.w.w.b h h n n M 4.4.9.N.N.w     ",
"    : z.z.m.P.P.o.D S N N C V w.w.w.w.C N N D D / 4.4.9.N.N.e     ",
"    : z.z.m.P.P.o.D D N N N w.w.w.w.w.N N N D D / 4.4.9.N.N.w     ",
"    : z.z.m.P.P.2.j j C C C w.w.w.w.w.C C C j j =.a.a.b.S.S.r     ",
"    : z.z.m.P.P.<.N N V w.w.w.w.w.w.w.w.w.w.N N >.z.z.m.P.P.i     ",
"    : z.z.H.P.P.<.N N w.w.w.w.w.w.w.w.w.w.V N N >.z.z.J.P.P.i     ",
"    . i 9 L P P y y y z z z z z z z z z z z j z s i i i P P X     ",
"R.R.            & e e a a a a a a a a a a a a a e             R.R.",
"R.R.            & e e a a a a a a a a a a a a a t             R.R.",
"R.R.            y.j.j.J.J.g.  . .     = e 3 K.K.g.            R.R.",
"R.R.R.R.R.      i.z.z.P.P.h.          = e = P.P.h.      R.R.R.R.R.",
"R.R.R.R.R.      3.d.d.K.K.g.. . .     & e e H.H.p.      R.R.R.R.R.",
"R.R.R.R.R.R.R.R.      7.7.4.-.-.t     & e e a a t       R.R.R.R.R.",
"R.R.R.R.R.R.R.R.      7.7.4.-.*.t     = = e a a e       R.R.R.R.R.",
"R.R.R.R.R.R.R.R.      M.M.M.7.7.d     k -.-.;.;.&.      R.R.R.R.R.",
"R.R.R.R.R.R.R.R.      G.G.G.G.G.;.    M.G.G.G.G.M.      R.R.R.R.R.",
"R.R.R.R.R.R.R.R.      G.G.G.G.G.-.    M.G.G.G.G.M.      R.R.R.R.R.",
"R.R.R.R.R.R.R.R.      G.G.G.G.G.-.    5.N.N.N.M.4.      R.R.R.R.R.",
"R.R.R.R.R.R.R.R.R.R.R.R.R.R.R.R.      -.7.7.7.7.-.      R.R.R.R.R.",
"R.R.R.R.R.R.R.R.R.R.R.R.R.R.R.R.      -.7.7.7.7.-.      R.R.R.R.R.",
"R.R.R.R.R.R.R.R.R.R.R.R.R.R.R.R.      % & & & & %       R.R.R.R.R.",
"R.R.R.R.R.R.R.R.R.R.R.R.R.R.R.R.R.R.R.            R.R.R.R.R.R.R.R.",
"R.R.R.R.R.R.R.R.R.R.R.R.R.R.R.R.R.R.R.            R.R.R.R.R.R.R.R."
};
