/* XPM */
static char *down_6[] = {
/* columns rows colors chars-per-pixel */
"35 64 165 2",
"   c #000000",
".  c #0A0406",
"X  c #0B020B",
"o  c #090809",
"O  c #07130F",
"+  c #09100F",
"@  c #0F1212",
"#  c #0A1A15",
"$  c #12060C",
"%  c #140A0E",
"&  c #180A0D",
"*  c #120316",
"=  c #120F18",
"-  c #1A051F",
";  c #1C0A14",
":  c #1F091D",
">  c #131314",
",  c #151817",
"<  c #1B1B1C",
"1  c #240D18",
"2  c #201215",
"3  c #34151D",
"4  c #301A1F",
"5  c #230726",
"6  c #220921",
"7  c #2B0C24",
"8  c #280929",
"9  c #310D35",
"0  c #370E38",
"q  c #3B0F3A",
"w  c #3C1527",
"e  c #3A1E2F",
"r  c #3D103A",
"t  c #272727",
"y  c #222028",
"u  c #28262D",
"i  c #2B2B2B",
"p  c #252F3A",
"a  c #2A333B",
"s  c #3A2D30",
"d  c #343336",
"f  c #393939",
"g  c #1F1652",
"h  c #1C1859",
"j  c #2B1041",
"k  c #2A1A56",
"l  c #373B47",
"z  c #3A3244",
"x  c #25413D",
"c  c #2C4A3A",
"v  c #314F3C",
"b  c #35424A",
"n  c #324C4D",
"m  c #3F4142",
"M  c #375640",
"N  c #3A5348",
"B  c #2A6956",
"V  c #2F7053",
"C  c #317352",
"Z  c #357850",
"A  c #431A28",
"S  c #43133C",
"D  c #4A173E",
"F  c #4F193F",
"G  c #501C35",
"H  c #521B3E",
"J  c #5A1F3C",
"K  c #4D343F",
"L  c #5D203F",
"P  c #573038",
"I  c #5C343E",
"U  c #471240",
"Y  c #4B1342",
"T  c #4F1840",
"R  c #571748",
"E  c #531A41",
"W  c #5A1D44",
"Q  c #5D1B48",
"!  c #5E2044",
"~  c #5C264A",
"^  c #5E2D4B",
"/  c #553C45",
"(  c #5D374C",
")  c #58315E",
"_  c #621E48",
"`  c #642443",
"'  c #662148",
"]  c #682545",
"[  c #6D2649",
"{  c #663058",
"}  c #68345D",
"|  c #762B4C",
" . c #7B2E4C",
".. c #76324E",
"X. c #793146",
"o. c #743050",
"O. c #7A3653",
"+. c #7D3C5B",
"@. c #653964",
"#. c #603A68",
"$. c #434343",
"%. c #4C4B4C",
"&. c #544447",
"*. c #555555",
"=. c #59595A",
"-. c #576763",
";. c #5C6162",
":. c #67494E",
">. c #6A414E",
",. c #644D52",
"<. c #68555E",
"1. c #614364",
"2. c #695678",
"3. c #666666",
"4. c #6E7971",
"5. c #6D7D78",
"6. c #7C6E70",
"7. c gray45",
"8. c #4B6F9A",
"9. c #5078A1",
"0. c #716585",
"q. c #3B804D",
"w. c #758581",
"e. c #81324E",
"r. c #88364F",
"t. c #823756",
"y. c #913C51",
"u. c #874F5E",
"i. c #85565C",
"p. c #8C4B63",
"a. c #86506D",
"s. c #8F5773",
"d. c #915A67",
"f. c #837F7F",
"g. c #8B7878",
"h. c #94716D",
"j. c #94777B",
"k. c #9E7C7B",
"l. c #A6596F",
"z. c #AF5E74",
"x. c #AF6071",
"c. c #A47178",
"v. c #B76478",
"b. c #BB6D7D",
"n. c #C16A7D",
"m. c #887489",
"M. c #897D9B",
"N. c #CD7888",
"B. c #828282",
"V. c #8D8D8D",
"C. c #9C8C9C",
"Z. c #8E84A0",
"A. c #A68687",
"S. c #ACACAC",
"D. c #AEB3C9",
"F. c #B5BACF",
"G. c #BCC3D7",
"H. c #D4818F",
"J. c #D38994",
"K. c #D49198",
"L. c #E4949E",
"P. c #E0D5E0",
"I. c #EAE0EA",
"U. c #F2E9F2",
"Y. c None",
/* pixels */
"Y.Y.Y.Y.Y.Y.Y.Y.Y.Y.Y.                          Y.Y.Y.Y.Y.Y.Y.Y.Y.Y.Y.",
"Y.Y.Y.Y.Y.Y.Y.Y.Y.Y.Y.                          Y.Y.Y.Y.Y.Y.Y.Y.Y.Y.Y.",
"Y.Y.Y.Y.Y.Y.Y.Y.        . . . . . . . . . . .         Y.Y.Y.Y.Y.Y.Y.Y.",
"Y.Y.Y.Y.Y.Y.Y.Y.      1 [ |  .y.y.y.y.y.e.| ] 1       Y.Y.Y.Y.Y.Y.Y.Y.",
"Y.Y.Y.Y.Y.Y.Y.Y.      1 [ [  .y.y.y.y.y.| | ' 1       Y.Y.Y.Y.Y.Y.Y.Y.",
"Y.Y.Y.Y.Y.Y.Y.Y.      ; J ! ] X.X.X.X.X.] L W ;       Y.Y.Y.Y.Y.Y.Y.Y.",
"Y.Y.Y.Y.Y.Y.Y.Y.      . * * * * * * * * * * * .       Y.Y.Y.Y.Y.Y.Y.Y.",
"Y.Y.Y.Y.Y.Y.Y.Y.      . * * * * * * * * * * * .       Y.Y.Y.Y.Y.Y.Y.Y.",
"Y.Y.Y.Y.Y.        $ $ * 7 7 6 - - 6 7 7 6 - - ; ; ; .       Y.Y.Y.Y.Y.",
"Y.Y.Y.Y.Y.      X 9 9 S | [ E 9 9 F [ [ F 9 9 W [ ] ;       Y.Y.Y.Y.Y.",
"Y.Y.Y.Y.Y.      X 9 9 S [ [ E 9 9 F [ [ D 9 9 W [ [ ;       Y.Y.Y.Y.Y.",
"Y.Y.        * $ 6 S S E ' ' T 9 9 F [ [ F q S W [ [ A 3 3 .       Y.Y.",
"Y.Y.      X 9 9 r [ [ ' R R S 9 9 F [ [ _ R R ' [ [ r.y.y.&       Y.Y.",
"Y.Y.      X 9 9 S [ [ ' R R U 9 9 F [ [ _ R R ' [ | r.y.y.&       Y.Y.",
"Y.Y.      X S S S E E E R R T U S Y H E D S S R ' ' | e.e.%       Y.Y.",
"Y.Y.      X R R Y 9 9 r R R R R R S 9 9 9 9 9 D R R ' [ [ $       Y.Y.",
"Y.Y.      X R R Y 9 9 q R R R R R U 9 9 9 9 9 Y R R _ [ [ $       Y.Y.",
"Y.Y.      X S S U U U R | | | | | Q U U R ` ` F S S Q _ Q $       Y.Y.",
"Y.Y.      X 9 9 q R R [ y.y.y.y.y.| R R | y.y.H 9 9 Y R R $       Y.Y.",
"Y.Y.      X 9 9 S R R _ y.y.y.y.y.[ R R  .y.y.H 9 9 Y R R $       Y.Y.",
"          X Y Y Y R R _ [ [ [ ' [ Q R R ]  . .W D Y [  . .$       Y.Y.",
"          X R R R R R R R R R R R R R R _ [ [ _ R R e.y.y.&       Y.Y.",
"          $ R R R R R R R R R R R R R R ' ] [ Q R R e.y.y.&       Y.Y.",
"    . G G G ' ' _ R R Y S j q q r ~ +.+.| | [ Y q q [ | | %           ",
"    . [ [ [ [ [ ] R R U 9 9 9 9 9 ^ p.p.O.[ [ S 9 9 _ [ [ $           ",
"    . [ [ [ [ [ ' R R Y 9 8 9 9 9 ^ p.p.O.[ [ S 9 9 ! [ [ %           ",
"      $ $ ; r q q q q j k g ) l.l.z.v.v.#.k k 2.m.m.{ Q R J L L .     ",
"Y.Y.      . 9 9 9 9 9 j h h #.n.N.v.v.N.#.h h 0.C.C.} R R ] ] [ .     ",
"Y.Y.      X 9 9 9 9 9 j h h #.b.v.n.n.n.@.h k 0.C.C.} R R [ [ [ .     ",
"Y.Y.      . ] ' a.P.P.D.8.8.M.L.L.L.J.L.M.8.8.F.I.P.1.0 9 $ . .       ",
"Y.Y.      $ [ [ s.U.U.G.9.9.Z.L.L.L.L.L.M.9.9.G.U.U.1.9 9 X       Y.Y.",
"Y.Y.      $ [ | s.U.U.G.9.9.Z.L.L.L.L.L.Z.9.9.G.U.U.1.0 9 X       Y.Y.",
"Y.Y.      $ [ [ t.n.n.N.L.L.L.L.L.L.L.L.L.L.L.N.n.n.t.[ [ $       Y.Y.",
"Y.Y.      $ [ [ t.n.n.N.L.L.L.L.L.L.L.L.L.L.L.N.n.n.t.[ [ $       Y.Y.",
"      o o ; ` ` O.x.x.b.J.J.J.K.K.K.K.K.K.J.J.b.x.x...` ` $       Y.Y.",
"    o 3.3.*.          X 5 6 p B B B B B p 5 5 X             Y.Y.Y.Y.Y.",
"    o 3.3.=.          X 6 5 p B B B B B p 5 5 X             Y.Y.Y.Y.Y.",
"    o 3.3.=.> > @ O O = 8 8 a B B B B C a 8 8 = O O , , < .       Y.Y.",
"    o 3.3.3.3.3.-.B B n S S m q.q.q.q.q.m S S n B B w.V.V.,       Y.Y.",
"    o 3.3.3.3.3.-.B B n S S m q.q.q.q.q.$.S S n B B w.V.V.,       Y.Y.",
"    o %.%.%.<.<.=.B B n S S m q.q.q.q.q.$.S S n B B 5.B.B.f i t       ",
"Y.Y.      $ [ [ ( B B n r S m q.q.q.q.q.$.S S n B B -.3.3.V.V.V.o     ",
"Y.Y.      $ [ [ ( B B n S S m q.q.q.q.q.m S S n B B -.3.3.B.V.V.o     ",
"Y.Y.      % [ [ ^ n n b f z N q.q.q.q.q.N z z -.4.4.g.j.j.f.B.B.o     ",
"Y.Y.      $ [ [ ` S S z B B V q.q.q.q.q.C B B A.L.L.L.L.L.6.3.3.o     ",
"Y.Y.      $ [ [ ` S S z B B C q.q.q.q.q.C B B A.L.L.L.L.L.6.3.3.o     ",
"Y.Y.      . w w e l l n C C Z q.q.q.q.q.Z C C k.H.H.H.H.H.&.f f o     ",
"Y.Y.Y.Y.Y.      # B B V q.q.q.q.q.q.q.q.q.q.q.h.n.n.n.n.n.2       Y.Y.",
"Y.Y.Y.Y.Y.      # B B B q.q.q.q.q.q.q.q.q.q.q.h.n.n.n.n.n.2       Y.Y.",
"Y.Y.Y.Y.Y.      + x b c v v M M M v M M v c c &.>.>.( P P o       Y.Y.",
"Y.Y.Y.Y.Y.      . y y u d d d d d d d d i y y y y y .       Y.Y.Y.Y.Y.",
"Y.Y.Y.Y.Y.      o y y u d d d d d d d d i y y y y y o       Y.Y.Y.Y.Y.",
"Y.Y.Y.Y.Y.      2 u.i.d.c.c.,.> > > > > < y y y y y o       Y.Y.Y.Y.Y.",
"Y.Y.Y.Y.Y.      w n.n.N.L.L.i.          = y y y y y o       Y.Y.Y.Y.Y.",
"Y.Y.Y.Y.Y.      4 b.n.N.L.L.i.          = y y y y y .       Y.Y.Y.Y.Y.",
"Y.Y.Y.Y.Y.      % K K &.,.,.s           o o o o o o         Y.Y.Y.Y.Y.",
"Y.Y.Y.Y.Y.      o y y u d d <       Y.Y.              Y.Y.Y.Y.Y.Y.Y.Y.",
"Y.Y.Y.Y.Y.      o y y t d d <       Y.Y.              Y.Y.Y.Y.Y.Y.Y.Y.",
"Y.Y.Y.Y.Y.      , 3.3.3.3.3.f       Y.Y.              Y.Y.Y.Y.Y.Y.Y.Y.",
"Y.Y.Y.Y.Y.      < 7.7.7.7.7.$.      Y.Y.Y.Y.Y.Y.Y.Y.Y.Y.Y.Y.Y.Y.Y.Y.Y.",
"Y.Y.Y.Y.Y.      < 7.7.7.7.7.$.      Y.Y.Y.Y.Y.Y.Y.Y.Y.Y.Y.Y.Y.Y.Y.Y.Y.",
"Y.Y.Y.Y.Y.      i S.S.S.S.S.3.      Y.Y.Y.Y.Y.Y.Y.Y.Y.Y.Y.Y.Y.Y.Y.Y.Y.",
"Y.Y.Y.Y.Y.      i S.S.S.S.S.3.      Y.Y.Y.Y.Y.Y.Y.Y.Y.Y.Y.Y.Y.Y.Y.Y.Y.",
"Y.Y.Y.Y.Y.      i S.S.S.S.S.3.      Y.Y.Y.Y.Y.Y.Y.Y.Y.Y.Y.Y.Y.Y.Y.Y.Y."
};
