/* XPM */
static char *down_4[] = {
/* columns rows colors chars-per-pixel */
"33 64 255 2",
"   c black",
".  c #010000",
"X  c #010101",
"o  c #040103",
"O  c #040404",
"+  c #060606",
"@  c #070707",
"#  c gray6",
"$  c #14070D",
"%  c #15070E",
"&  c #110B0C",
"*  c #16080F",
"=  c #17080F",
"-  c #120317",
";  c #150517",
":  c #170619",
">  c #18061A",
",  c #1A061B",
"<  c #1C071C",
"1  c #190910",
"2  c #1A0911",
"3  c #1B0912",
"4  c #190D10",
"5  c #1F0D11",
"6  c #1D081C",
"7  c #191919",
"8  c #19181E",
"9  c #1F191B",
"0  c #1C1C1C",
"q  c #1F0822",
"w  c #1B1A20",
"e  c #1B2828",
"r  c #22091F",
"t  c #240B1E",
"y  c #2B0F1C",
"u  c #301A1F",
"i  c #230726",
"p  c #250921",
"a  c #240927",
"s  c #26092A",
"d  c #2B0B24",
"f  c #2A0B2E",
"g  c #241F32",
"h  c #300D2D",
"j  c #310D35",
"k  c #320D35",
"l  c #330E35",
"z  c #340D36",
"x  c #3A0F39",
"c  c #331124",
"v  c #351323",
"b  c #371324",
"n  c #3A1526",
"m  c #3B1625",
"M  c #3F1A23",
"N  c #3A1231",
"B  c #3D1237",
"V  c #3B1138",
"C  c #3C103A",
"Z  c #232323",
"A  c #252525",
"S  c #222028",
"D  c #232129",
"F  c #252329",
"G  c #272628",
"H  c #292424",
"J  c #282828",
"K  c #2A2A2A",
"L  c #2C2A31",
"P  c #2E2D31",
"I  c #243636",
"U  c #2C3434",
"Y  c #392527",
"T  c #3C2C3D",
"R  c #333333",
"E  c #343336",
"W  c #353535",
"Q  c #373638",
"!  c #393939",
"~  c #3B3B3B",
"^  c #1C1757",
"/  c #1C1859",
"(  c #1F1858",
")  c #3C2A42",
"_  c #373D48",
"`  c #3E3C42",
"'  c #252865",
"]  c #364A3D",
"[  c #1F4E41",
"{  c #225647",
"}  c #2F564B",
"|  c #3C4044",
" . c #30534F",
".. c #375E53",
"X. c #2A6957",
"o. c #2E6E54",
"O. c #39685B",
"+. c #387C4E",
"@. c #327452",
"#. c #347750",
"$. c #47192F",
"%. c #461D28",
"&. c #481E28",
"*. c #461733",
"=. c #441634",
"-. c #40133A",
";. c #40113C",
":. c #43153B",
">. c #44123E",
",. c #48173C",
"<. c #49163E",
"1. c #4A1A34",
"2. c #4E1A37",
"3. c #49183C",
"4. c #4E193E",
"5. c #4E1B3D",
"6. c #4F1A3F",
"7. c #511C35",
"8. c #521D36",
"9. c #5C1F3F",
"0. c #43222B",
"q. c #452D30",
"w. c #412F3F",
"e. c #4B2930",
"r. c #592337",
"t. c #5A203C",
"y. c #4B1342",
"u. c #4D1443",
"i. c #4E1443",
"p. c #4F1643",
"a. c #521743",
"s. c #501544",
"d. c #521545",
"f. c #531646",
"g. c #571748",
"h. c #501842",
"j. c #521942",
"k. c #551A40",
"l. c #571D40",
"z. c #581748",
"x. c #581946",
"c. c #591A46",
"v. c #5B1F43",
"b. c #5A1948",
"n. c #5B1948",
"m. c #5C1B48",
"M. c #4C2A4E",
"N. c #423B46",
"B. c #5E2044",
"V. c #5C264A",
"C. c #5E2C4C",
"Z. c #523355",
"A. c #442B60",
"S. c #452C62",
"D. c #472C61",
"F. c #4D3A6C",
"G. c #601E46",
"H. c #621F48",
"J. c #641F4A",
"K. c #662346",
"L. c #65204A",
"P. c #672248",
"I. c #622A4B",
"U. c #692545",
"Y. c #682447",
"T. c #682248",
"R. c #682348",
"E. c #68224A",
"W. c #6C2548",
"Q. c #6E2749",
"!. c #643741",
"~. c #6E3E55",
"^. c #722A48",
"/. c #72284C",
"(. c #722C4D",
"). c #742A4A",
"_. c #742A4B",
"`. c #74294C",
"'. c #752A4C",
"]. c #762C4B",
"[. c #772C4B",
"{. c #75304F",
"}. c #7E3446",
"|. c #7E314C",
" X c #7E3D5B",
".X c #474747",
"XX c #494949",
"oX c #49494B",
"OX c #445856",
"+X c #5D4D59",
"@X c #515151",
"#X c #555555",
"$X c #565656",
"%X c #427264",
"&X c #437265",
"*X c #587469",
"=X c #6F4D5C",
"-X c #7D4551",
";X c #676767",
":X c #6F6F6F",
">X c #7E676C",
",X c gray45",
"<X c #767676",
"1X c #737A73",
"2X c #7B7B7B",
"3X c #5078A1",
"4X c #757FA0",
"5X c #3B804D",
"6X c #82324E",
"7X c #8D3A50",
"8X c #913C51",
"9X c #814855",
"0X c #864A58",
"qX c #904F5D",
"wX c #8C4B63",
"eX c #9A666C",
"rX c #917C7F",
"tX c #A75C6C",
"yX c #AC5970",
"uX c #A16A71",
"iX c #AC6071",
"pX c #AB6F77",
"aX c #B36375",
"sX c #BA6579",
"dX c #BC677A",
"fX c #BE687B",
"gX c #C16A7D",
"hX c #876A83",
"jX c #8A6E87",
"kX c #947A91",
"lX c #C77182",
"zX c #D27E8D",
"xX c #D37F8E",
"cX c #828282",
"vX c #8D8D8D",
"bX c gray56",
"nX c #978697",
"mX c #9C8C9C",
"MX c #949494",
"NX c #8A83A0",
"BX c #A0879F",
"VX c #A59093",
"CX c #AA9CAA",
"ZX c #B98FA2",
"AX c #AEAEAE",
"SX c #CD8891",
"DX c #D58C95",
"FX c #DB8996",
"GX c #C293A5",
"HX c #E5959F",
"JX c #C1B2C2",
"KX c #D1B8C7",
"LX c #DEB7C4",
"PX c #F2E9F2",
"IX c None",
/* pixels */
"IXIXIXIXIXIXIXIXIXIXIX                      IXIXIXIXIXIXIXIXIXIXIX",
"IXIXIXIXIXIXIXIXIXIXIX                      IXIXIXIXIXIXIXIXIXIXIX",
"IXIXIXIXIXIXIXIX      = = 1 5 5 5 5 5 1 = =       IXIXIXIXIXIXIXIX",
"IXIXIXIXIXIXIXIX      Q.Q.].8X8X8X8X8X].Q.Q.      IXIXIXIXIXIXIXIX",
"IXIXIXIXIXIXIXIX      Q.Q.].8X8X8X8X8X].Q.Q.      IXIXIXIXIXIXIXIX",
"IXIXIXIXIXIXIXIX      *.*.1.r.r.r.r.r.1.*.*.      IXIXIXIXIXIXIXIX",
"IXIXIXIXIXIXIXIX      - - - - - - - - - - -       IXIXIXIXIXIXIXIX",
"IXIXIXIXIXIXIXIX      - - - - - - - - - - -       IXIXIXIXIXIXIXIX",
"IXIXIXIXIX      : q q 2.2.=.s s N 2.2.h s s $.$.v       IXIXIXIXIX",
"IXIXIXIXIX      a j j Q.Q.B.j j 6.Q.Q.-.j j Q.Q.8.      IXIXIXIXIX",
"IXIXIXIXIX      a j j Q.Q.B.j j 6.Q.Q.-.j j Q.Q.8.      IXIXIXIXIX",
"IXIX      : f f l.K.K.b.b.p.j j 4.Q.Q.x.d.d.Q.Q.^.}.}.M       IXIX",
"IXIX      : j j B.Q.Q.g.g.i.j j 4.Q.Q.m.g.g.Q.Q.].8X8X&.      IXIX",
"IXIX      : z z v.Y.Y.g.g.i.z z 4.Y.Y.x.d.g.R.Q.).7X7X%.      IXIX",
"IXIX      d g.g.x j j g.g.g.g.g.>.j j j j j g.g.m.Q.Q.b       IXIX",
"IXIX      d g.g.x j j g.g.g.g.g.>.j j j j j g.g.m.Q.Q.b       IXIX",
"IXIX      p i.y.>.x x P.P.E.E.E.a.C C 3.5.5.i.y.d.L.R.c       IXIX",
"IXIX      : j j i.g.g.8X8X8X8X8X`.g.g.6X8X8Xj j x g.x.d       IXIX",
"IXIX      : j j i.g.g.8X8X8X8X8X`.g.g.6X8X8Xj j x g.z.d       IXIX",
"          r >.>.d.g.g./.`./././.L.g.g.`.|.|.>.>.a.`.`.m       IXIX",
"          d g.g.g.g.g.g.g.g.g.g.g.g.g.R.Q.Q.g.g.L.8X8X&.      IXIX",
"          d g.g.g.g.g.g.g.g.g.g.g.g.g.L.Q.Q.g.g.L.8X8X&.      IXIX",
"    % 8.8.t.P.P.b.g.g.x x x V x V. X X(.Q.Q.V x ,.[.[.m           ",
"    3 Q.Q.Q.Q.Q.m.g.g.j j j j j C.wXwX{.Q.Q.j j -.Q.Q.b           ",
"    1 Q.Q.Q.Q.Q.m.b.g.j j j j j C.wXwX{.Q.Q.j j -.Q.Q.b           ",
"      o o 6 j z j z j ^ ^ S.sXsXfXfXfXS.( ( nXnXhXx.z.G.Y.Y.1     ",
"IXIX      > j j j j j / / S.gXgXgXgXgXS./ / mXmXjXg.g.H.Q.Q.3     ",
"IXIX      6 C C M.Z.Z.' ' F.lXlXlXlXlXF.' ' CXCXkXi.d.k.r.9.=     ",
"IXIX      b Q.Q.KXPXPX3X3X4XHXHXHXHXHX4X3X3XPXPXJXj j :       IXIX",
"IXIX      b Q.Q.KXPXPX3X3X4XHXHXHXHXHX4X3X3XPXPXJXj j :       IXIX",
"IXIX      b Q.Q.GXLXLXNXNXBXHXHXHXHXHXBXNXNXLXLXZX,.,.t       IXIX",
"IXIX      b Q.Q.yXgXgXHXHXHXHXHXHXHXHXHXHXHXgXgXyXQ.Q.b       IXIX",
"IXIX      b Q.Q.yXgXgXHXHXHXHXHXHXHXHXHXHXHXgXgXyXQ.Q.b       IXIX",
"IXIX      % y y 0.e.e.~.=X=X1X1X1X1X1X=X~.~.e.e.0.y y %       IXIX",
"IXIXIXIXIX            i i g X.X.X.X.X.g i i             IXIXIXIXIX",
"IXIXIXIXIX            i i g X.X.X.X.X.g i i             IXIXIXIXIX",
"IXIX      K $X$X} { { B N T +.+.+.+.+.w.B B { { ..<X<X~       IXIX",
"IXIX      R ;X;XO.X.X.-.,.w.5X5X+.+.5Xw.:.:.X.X.&XbXbX.X      IXIX",
"      + + R ;X;XO.X.X.:.,.T 5X5X5X5X5Xw.:.:.X.X.%XbXbXXX+ +       ",
"    7 ;X;X;X;X;XO.X.X.:.,.w.5X5X5X5X5Xw.-.-.X.X.O.;X;X2XbXbXA     ",
"    7 ;X;X;X;X;XO.X.X.:.:.w.5X5X5X5X5Xw.:.:.X.X.O.;X;X2XbXbXZ     ",
"    9 >X>X>X>X>XOX . .) ) | 5X5X5X5X+.| T )  . .OX>X>XrXVXVXH     ",
"    u gXgXgXgXgXI.:.=.X.X.o.+.5X5X5X5Xo.X.X.:.:.I.gXgXxXHXHXY     ",
"    u gXgXgXgXgXI.:.-.X.X.o.+.5X5X5X5X@.X.X.:.:.I.gXgXxXHXHXY     ",
"    4 !.!.!.!.!.N._ _ @.@.#.5X5X5X5X5X#.@.#.| _ +XzXzXFXHXHXY     ",
"IXIX            [ X.X.+.5X5X5X5X5X5X5X5X+.+.X.X.*XHXHXHXHXHXY     ",
"IXIX            { X.X.5X5X5X5X5X5X5X5X5X5X5XX.X.*XHXHXHXHXHXY     ",
"IXIX            e I I ] ] ] ] ] ] ] ] ] ] ] I I U q.q.q.q.q.&     ",
"IXIXIXIXIX      8 D S E E E E E E E E E E E S S 8             IXIX",
"IXIXIXIXIX      8 S S E E E E E E E E E E E S S 8             IXIX",
"IXIXIXIXIX      0XaXaXDXDXuXO O + O + 8 D D aXaX0X            IXIX",
"IXIXIXIXIX      qXgXgXHXHXpX          8 S S gXgXqX      IXIXIXIXIX",
"IXIXIXIXIX      -XiXyXSXSXeX    + # # F L L tXtX-X      IXIXIXIXIX",
"IXIXIXIXIX      w D D E E F     ~ ,X,X,X,X,X      IXIXIXIXIXIXIXIX",
"IXIXIXIXIX      8 D S E E A     ~ ,X,X,X,X,X      IXIXIXIXIXIXIXIX",
"IXIXIXIXIX      L ` ` oXXX~     R ;X;X;X;X;X      IXIXIXIXIXIXIXIX",
"IXIXIXIXIX      $X,X,X,X,X$X    J @X@X@X@X@X      IXIXIXIXIXIXIXIX",
"IXIXIXIXIX      $X,X,X,X,X$X    J @X@X@X@X@X      IXIXIXIXIXIXIXIX",
"IXIXIXIXIX      :XMXMXMXMX:X    J @X@X@X@X@X      IXIXIXIXIXIXIXIX",
"IXIXIXIXIX      cXAXAXAXAXcX      IXIXIXIXIXIXIXIXIXIXIXIXIXIXIXIX",
"IXIXIXIXIX      cXAXAXAXAXcX      IXIXIXIXIXIXIXIXIXIXIXIXIXIXIXIX",
"IXIXIXIXIX      0 A A A A 0       IXIXIXIXIXIXIXIXIXIXIXIXIXIXIXIX",
"IXIXIXIXIXIXIXIX            IXIXIXIXIXIXIXIXIXIXIXIXIXIXIXIXIXIXIX",
"IXIXIXIXIXIXIXIX            IXIXIXIXIXIXIXIXIXIXIXIXIXIXIXIXIXIXIX"
};
